<svg width="48" height="48" viewBox="0 0 48 48" fill="none" xmlns="http://www.w3.org/2000/svg">
<circle cx="24" cy="24" r="24" fill="url(#paint0_linear_1_24)"/>
<path d="M21.3192 12.1415C21.5015 12.6571 21.4715 13.2241 21.2358 13.7176C21.0001 14.2111 20.5781 14.5908 20.0625 14.7732C18.2802 15.4034 16.7054 16.5113 15.5101 17.976C14.3149 19.4407 13.5453 21.2057 13.2854 23.0782C13.0255 24.9507 13.2853 26.8586 14.0365 28.5934C14.7876 30.3282 16.0011 31.8232 17.5444 32.9149C19.0878 34.0067 20.9015 34.6532 22.7874 34.7838C24.6733 34.9144 26.5589 34.5242 28.238 33.6556C29.9171 32.7871 31.3251 31.4737 32.3083 29.859C33.2914 28.2443 33.8118 26.3904 33.8125 24.5C33.8125 22.85 33.4275 21.2962 32.7414 19.9185C32.6208 19.6759 32.5491 19.4119 32.5305 19.1416C32.5119 18.8714 32.5467 18.6001 32.633 18.3432C32.8071 17.8245 33.1802 17.3963 33.6702 17.1527C34.1601 16.9091 34.7268 16.8701 35.2455 17.0443C35.7641 17.2185 36.1924 17.5916 36.436 18.0815C37.4265 20.076 37.9405 22.2731 37.9375 24.5C37.9375 32.4736 31.4736 38.9375 23.5 38.9375C15.5264 38.9375 9.0625 32.4736 9.0625 24.5C9.0625 18.2107 13.083 12.8661 18.6875 10.8847C19.2032 10.7025 19.7701 10.7325 20.2636 10.9682C20.7571 11.2038 21.1369 11.6259 21.3192 12.1415ZM24.1875 12.1442C24.1873 11.8305 24.2581 11.5208 24.3948 11.2384C24.5314 10.956 24.7302 10.7083 24.9764 10.5138C25.2225 10.3192 25.5095 10.183 25.8158 10.1153C26.1221 10.0477 26.4398 10.0503 26.745 10.123L26.921 10.1739L31.0268 11.5434C31.5295 11.7109 31.9484 12.0655 32.1967 12.5336C32.445 13.0017 32.5037 13.5474 32.3604 14.0576C32.2172 14.5678 31.8831 15.0032 31.4274 15.2737C30.9717 15.5442 30.4294 15.6289 29.913 15.5102L29.7232 15.4566L28.3125 14.9864V24.5L28.3056 24.764C28.2529 25.7228 27.9147 26.6438 27.3343 27.4088C26.7539 28.1737 25.958 28.7476 25.0488 29.0565C24.1397 29.3655 23.1589 29.3954 22.2326 29.1424C21.3063 28.8895 20.4769 28.3652 19.8509 27.6371C19.225 26.909 18.8312 26.0102 18.7202 25.0565C18.6091 24.1027 18.7859 23.1375 19.2279 22.2851C19.6698 21.4326 20.3566 20.7318 21.2 20.2728C22.0434 19.8139 23.0048 19.6177 23.9606 19.7095L24.1875 19.737V12.1442Z" fill="white"/>
<defs>
<linearGradient id="paint0_linear_1_24" x1="13" y1="5.5" x2="35" y2="42.5" gradientUnits="userSpaceOnUse">
<stop stop-color="#0EA5E9"/>
<stop offset="1" stop-color="#9333EA"/>
</linearGradient>
</defs>
</svg>
