<svg width="872" height="100" viewBox="0 0 872 100" fill="none" xmlns="http://www.w3.org/2000/svg">
<g clip-path="url(#clip0_3_390)">
<rect width="872" height="100" rx="6" fill="#2E749B"/>
<path d="M677.171 -11.1334C677.335 -7.82283 676.179 -4.58236 673.955 -2.12458C671.731 0.3332 668.622 1.80704 665.311 1.97281C653.868 2.54374 642.802 6.24911 633.323 12.684C623.843 19.1189 616.315 28.0356 611.561 38.4598C606.806 48.8841 605.009 60.4146 606.365 71.7913C607.721 83.168 612.178 93.9531 619.249 102.968C626.32 111.983 635.733 118.881 646.459 122.908C657.185 126.934 668.812 127.935 680.068 125.801C691.325 123.667 701.779 118.479 710.286 110.806C718.794 103.132 725.029 93.2673 728.309 82.2897C731.168 72.7072 731.625 63.0165 730.028 53.8261C729.748 52.2082 729.789 50.551 730.15 48.9491C730.51 47.3471 731.182 45.8319 732.128 44.4898C734.039 41.7793 736.948 39.9388 740.215 39.3731C743.483 38.8074 746.841 39.5629 749.552 41.4734C752.262 43.3838 754.103 46.2928 754.668 49.5603C756.964 62.8597 756.142 76.5106 752.265 89.4382C738.447 135.745 689.706 162.083 643.399 148.265C597.092 134.447 570.754 85.7063 584.572 39.399C595.471 2.87377 628.082 -21.1981 664.064 -22.9927C667.375 -23.1576 670.615 -22.0009 673.073 -19.7769C675.531 -17.5529 677.005 -14.4438 677.171 -11.1334ZM693.823 -6.14682C694.366 -7.96914 695.314 -9.64488 696.597 -11.0482C697.88 -12.4514 699.464 -13.5457 701.23 -14.2489C702.997 -14.9521 704.9 -15.2458 706.796 -15.108C708.692 -14.9702 710.533 -14.4045 712.179 -13.4533L713.113 -12.8529L734.584 2.21569C737.213 4.05978 739.032 6.84509 739.663 9.994C740.294 13.1429 739.688 16.4138 737.972 19.1284C736.256 21.8431 733.561 23.7931 730.446 24.5741C727.331 25.3552 724.035 24.9074 721.241 23.3235L720.232 22.6832L712.854 17.5074L696.368 72.7584L695.87 74.2797C693.903 79.7565 690.342 84.5194 685.646 87.9562C680.949 91.3929 675.332 93.3462 669.517 93.5649C663.702 93.7837 657.954 92.2578 653.013 89.1836C648.072 86.1093 644.163 81.6273 641.79 76.3138C639.417 71.0004 638.687 65.0984 639.695 59.367C640.703 53.6355 643.402 48.3366 647.446 44.1517C651.49 39.9668 656.693 37.0872 662.387 35.8832C668.08 34.6793 674.004 35.206 679.395 37.3957L680.665 37.9486L693.823 -6.14682Z" fill="#2A6D93"/>
<path d="M690.1 33.0279C687.475 33.0279 685.347 30.7483 685.347 27.9361C685.347 25.124 687.475 22.8443 690.1 22.8443C692.726 22.8443 694.854 25.124 694.854 27.9361C694.854 30.7483 692.726 33.0279 690.1 33.0279Z" fill="#B6773D"/>
<path d="M690.478 22.8443C690.647 22.9432 690.822 23.0316 691.002 23.1089C691.473 23.3507 691.896 23.6754 692.251 24.0674C692.758 24.6643 693.111 25.3761 693.279 26.1406C693.526 27.0679 693.523 28.0437 693.272 28.9696C693.02 29.8956 692.529 30.7389 691.848 31.4145C691.299 31.9727 690.61 32.3727 689.853 32.5725C689.344 32.7113 688.809 32.7202 688.296 32.5986C687.932 32.5075 687.75 32.3991 687.737 32.4207C687.723 32.4424 687.776 32.4554 687.867 32.5075C687.994 32.5817 688.129 32.6414 688.27 32.6853C688.797 32.8454 689.357 32.8604 689.892 32.7287C690.687 32.5417 691.414 32.1396 691.996 31.5663C692.71 30.8695 693.225 29.9938 693.487 29.0304C693.749 28.0671 693.747 27.0512 693.483 26.0885C693.296 25.2964 692.913 24.564 692.369 23.959C691.992 23.5623 691.539 23.2465 691.037 23.0308C690.897 22.968 690.752 22.9172 690.603 22.879C690.563 22.8619 690.521 22.8502 690.478 22.8443Z" fill="#263238"/>
<path d="M694.242 30.5775C694.273 30.5775 694.312 30.482 694.294 30.3172C694.268 30.1012 694.161 29.903 693.995 29.7621C693.829 29.6197 693.615 29.5453 693.397 29.5539C693.232 29.5539 693.145 29.619 693.149 29.645C693.154 29.671 693.535 29.645 693.848 29.9312C694.16 30.2175 694.164 30.5775 694.242 30.5775Z" fill="#263238"/>
<path d="M694.025 29.0118C694.047 28.951 693.904 28.8469 693.696 28.8426C693.488 28.8383 693.336 28.9293 693.358 28.9901C693.379 29.0508 693.522 29.0595 693.691 29.0681C693.861 29.0768 694.004 29.0681 694.025 29.0118Z" fill="#263238"/>
<path d="M694.025 24.8047C694.056 24.7484 693.774 24.6052 693.436 24.7353C693.097 24.8655 693.002 25.1691 693.05 25.1691C693.097 25.1691 693.262 25.0259 693.518 24.9305C693.774 24.8351 694.008 24.8655 694.025 24.8047Z" fill="#263238"/>
<path d="M678.195 136.642C678.195 136.642 677.284 133.676 677.466 132.422C677.648 131.169 679.336 130.028 679.336 130.028L677.505 82.467C677.505 82.467 677.271 61.6487 688.279 55.1994L694.849 53.5426L711.057 52.5841C711.582 52.7619 730.631 59.9225 733.25 62.72L725.036 104.66C725.036 104.66 726.038 117.051 727.031 125.973C727.235 127.79 728.601 136.785 728.601 136.785L678.195 136.642Z" fill="#263238"/>
<path d="M685.82 56.4962C685.82 56.4962 678.563 58.9163 676.217 65.6389C673.615 73.0641 671.906 87.4807 671.906 87.4807L679.062 88.3828L685.82 56.4962Z" fill="#263238"/>
<path d="M733.25 62.72C733.25 62.72 737.154 67.8378 739.036 74.0572C740.919 80.2767 742.011 98.3019 742.011 98.3019L722.494 98.0286L721.458 82.1677C721.458 82.1677 719.489 55.7112 733.25 62.72Z" fill="#263238"/>
<path d="M693.947 53.5426C693.957 53.6465 693.957 53.751 693.947 53.8549C693.947 54.0804 693.947 54.3797 693.947 54.7483C693.919 55.8407 694.03 56.9323 694.277 57.9968C694.462 58.78 694.816 59.5136 695.312 60.1471C695.808 60.7805 696.436 61.2988 697.152 61.6661C697.996 62.1115 698.898 62.4343 699.833 62.6246C700.829 62.844 701.849 62.943 702.869 62.9195C704.857 62.8994 706.803 62.3484 708.507 61.3234C709.886 60.4713 711.005 59.2578 711.743 57.8147C712.236 56.8416 712.522 55.7769 712.584 54.6876C712.614 53.9113 712.532 53.4862 712.584 53.4819C712.61 53.5831 712.629 53.686 712.64 53.7898C712.681 54.0873 712.698 54.3875 712.692 54.6876C712.662 55.7971 712.39 56.8866 711.894 57.8797C711.161 59.3643 710.029 60.6153 708.624 61.4926C706.895 62.5477 704.912 63.1157 702.886 63.1363C701.845 63.1598 700.806 63.0579 699.789 62.8327C698.836 62.6348 697.915 62.3002 697.057 61.8395C696.321 61.4557 695.678 60.9162 695.171 60.2586C694.665 59.601 694.308 58.8411 694.125 58.0315C693.89 56.951 693.801 55.8438 693.861 54.7397C693.861 54.3493 693.895 54.05 693.913 53.8462C693.913 53.744 693.924 53.6421 693.947 53.5426Z" fill="#263238"/>
<path d="M702.539 62.1735C700.283 61.9936 698.186 60.9418 696.693 59.2414C695.2 57.5409 694.428 55.3256 694.542 53.0655C694.706 49.7693 694.88 46.7984 694.88 46.7984C694.88 46.7984 687.81 45.7011 687.724 38.6359C687.637 31.5707 688.864 15.3758 688.864 15.3758C692.88 13.65 697.284 13.0275 701.621 13.5727C705.957 14.1178 710.07 15.8108 713.534 18.4769L714.579 19.2792L711.903 54.1845C711.813 55.3241 711.5 56.4347 710.98 57.4531C710.461 58.4714 709.746 59.3774 708.877 60.1194C708.007 60.8613 707 61.4246 705.912 61.777C704.825 62.1295 703.679 62.2642 702.539 62.1735Z" fill="#FFBE9D"/>
<path d="M694.867 46.7029C698.126 46.7673 701.331 45.8615 704.075 44.1007C704.075 44.1007 701.906 49.1838 694.849 48.5506L694.867 46.7029Z" fill="#EB996E"/>
<path d="M694.086 26.5049C693.965 26.3661 693.175 26.8952 692.091 26.8345C691.007 26.7738 690.239 26.1926 690.113 26.3184C690.053 26.3748 690.17 26.6177 690.504 26.8909C690.955 27.2402 691.504 27.4403 692.074 27.4634C692.638 27.4925 693.197 27.3405 693.67 27.0297C694.017 26.7998 694.142 26.5656 694.086 26.5049Z" fill="#263238"/>
<path d="M704.786 26.7434C704.66 26.609 703.897 27.1771 702.812 27.1771C701.728 27.1771 700.926 26.648 700.809 26.7825C700.752 26.8388 700.882 27.0774 701.242 27.3246C701.714 27.6484 702.275 27.8167 702.847 27.806C703.411 27.8024 703.959 27.6202 704.413 27.2856C704.734 27.0384 704.847 26.7998 704.786 26.7434Z" fill="#263238"/>
<path d="M696.931 33.5441C696.931 33.4833 696.259 33.3662 695.166 33.2275C694.889 33.1971 694.628 33.1451 694.581 32.9542C694.558 32.6684 694.623 32.3824 694.767 32.1345L695.587 30.0223C696.723 27.0167 697.547 24.5445 697.426 24.5011C697.304 24.4578 696.285 26.8562 695.144 29.8618L694.359 31.9827C694.185 32.3173 694.134 32.7029 694.216 33.0713C694.256 33.1695 694.318 33.2573 694.397 33.328C694.476 33.3987 694.57 33.4503 694.672 33.479C694.826 33.5194 694.985 33.5412 695.144 33.5441C696.242 33.5918 696.927 33.5918 696.931 33.5441Z" fill="#263238"/>
<path d="M700.123 34.2944C699.95 34.2944 699.946 35.4654 698.939 36.3025C697.933 37.1396 696.675 37.0094 696.667 37.1699C696.667 37.2436 696.944 37.3954 697.478 37.4128C698.168 37.4209 698.839 37.186 699.373 36.7492C699.886 36.3306 700.216 35.7285 700.293 35.0707C700.314 34.5806 700.206 34.2901 700.123 34.2944Z" fill="#263238"/>
<path d="M700.592 21.2396C700.696 21.5345 701.78 21.3957 703.055 21.5475C704.33 21.6993 705.358 22.0507 705.527 21.7861C705.601 21.656 705.423 21.3784 705.007 21.0965C704.454 20.7447 703.828 20.5229 703.177 20.4478C702.525 20.3726 701.865 20.4462 701.247 20.6628C700.778 20.8666 700.544 21.1008 700.592 21.2396Z" fill="#263238"/>
<path d="M690.599 22.1504C690.79 22.3976 691.536 22.1504 692.438 22.1287C693.34 22.107 694.099 22.2935 694.273 22.0376C694.351 21.9119 694.229 21.6646 693.895 21.4304C693.448 21.1514 692.929 21.0111 692.402 21.0273C691.876 21.0435 691.366 21.2155 690.937 21.5215C690.616 21.7774 690.512 22.029 690.599 22.1504Z" fill="#263238"/>
<path d="M713.707 26.5786C713.829 26.5266 718.565 25.143 718.409 29.9703C718.253 34.7975 713.438 33.6525 713.434 33.5137C713.43 33.3749 713.707 26.5786 713.707 26.5786Z" fill="#FFBE9D"/>
<path d="M714.969 31.7311C714.969 31.7311 715.052 31.7919 715.191 31.8613C715.388 31.9533 715.614 31.9642 715.82 31.8916C716.336 31.7225 716.791 30.9244 716.843 30.057C716.867 29.6425 716.799 29.2278 716.644 28.8426C716.604 28.6905 716.527 28.5504 716.42 28.4347C716.314 28.3191 716.18 28.2313 716.032 28.179C715.937 28.1514 715.834 28.1575 715.743 28.1961C715.651 28.2348 715.576 28.3038 715.529 28.3915C715.46 28.526 715.486 28.6258 715.46 28.6301C715.434 28.6344 715.36 28.5477 715.403 28.3482C715.436 28.2308 715.506 28.1272 715.603 28.0532C715.74 27.9567 715.91 27.9177 716.075 27.9448C716.275 27.9886 716.459 28.083 716.611 28.219C716.763 28.3551 716.877 28.528 716.943 28.7212C717.134 29.1454 717.219 29.6099 717.19 30.0744C717.129 31.0502 716.6 31.9437 715.889 32.1215C715.758 32.1558 715.621 32.1599 715.488 32.1336C715.355 32.1073 715.229 32.0513 715.121 31.9697C714.974 31.8569 714.952 31.7398 714.969 31.7311Z" fill="#EB996E"/>
<path d="M686.158 9.25177C686.673 8.23385 687.414 7.34736 688.324 6.66032C689.235 5.97328 690.291 5.50393 691.411 5.28829C692.531 5.07264 693.685 5.11643 694.786 5.41629C695.887 5.71615 696.904 6.26411 697.76 7.01814C698.306 5.95664 699.099 5.04202 700.073 4.35136C701.047 3.6607 702.172 3.21426 703.355 3.04966C703.502 3.02798 703.649 3.01496 703.788 3.00629C705.313 2.9385 706.812 3.42049 708.011 4.36454C709.211 5.30859 710.032 6.65194 710.324 8.15013L710.671 9.82861C710.671 9.82861 716.644 11.8584 718.044 12.9687C718.81 13.5821 719.391 14.3949 719.724 15.3175C720.058 16.2402 720.13 17.2368 719.933 18.1978C719.736 19.1588 719.278 20.0468 718.609 20.7641C717.94 21.4814 717.085 22.0001 716.14 22.2632C717.658 24.9956 716.236 28.9163 713.321 30.044L712.619 29.7491C711.304 28.2532 710.463 26.4005 710.203 24.4261C709.943 22.4517 710.275 20.4445 711.157 18.659C711.07 18.659 710.988 18.659 710.901 18.659C709.685 19.3345 708.261 19.5364 706.905 19.2257C705.549 18.9151 704.355 18.1138 703.554 16.9762C702.576 17.6597 701.422 18.0494 700.23 18.0994C699.037 18.1493 697.855 17.8574 696.823 17.2581C696.521 17.0347 696.175 16.878 695.808 16.7984C695.359 16.8036 694.92 16.9343 694.542 17.1757C693.497 17.7437 692.307 17.9854 691.124 17.8697C690.576 17.8018 690.055 17.5979 689.606 17.2767C689.158 16.9555 688.797 16.5272 688.556 16.0307H688.474C687.797 15.8749 687.176 15.5372 686.678 15.0541C686.18 14.571 685.823 13.9609 685.646 13.2896C685.308 11.9269 685.49 10.4871 686.158 9.25177Z" fill="#263238"/>
<path d="M717.134 25.8847C717.134 25.8847 720.252 12.0709 712.003 9.83728H710.702C710.702 9.83728 717.082 13.1899 715.082 24.7006" fill="#B6773D"/>
<path d="M716.071 34.1382C713.446 34.1382 711.318 31.8586 711.318 29.0465C711.318 26.2343 713.446 23.9547 716.071 23.9547C718.696 23.9547 720.825 26.2343 720.825 29.0465C720.825 31.8586 718.696 34.1382 716.071 34.1382Z" fill="#B6773D"/>
<path d="M715.698 23.9547C715.698 23.9547 715.642 23.9547 715.546 23.985C715.399 24.0281 715.254 24.0802 715.113 24.1412C714.61 24.3563 714.157 24.6721 713.781 25.0693C713.237 25.6742 712.853 26.4066 712.666 27.1988C712.406 28.1642 712.41 29.1819 712.678 30.1451C712.947 31.1083 713.47 31.9813 714.193 32.6723C714.773 33.2472 715.501 33.6496 716.297 33.8346C716.83 33.9668 717.389 33.9518 717.914 33.7913C718.057 33.7482 718.194 33.6886 718.322 33.6135C718.409 33.5657 718.452 33.5354 718.448 33.5267C718.443 33.518 718.253 33.6135 717.893 33.7089C717.378 33.8305 716.841 33.8216 716.331 33.6829C715.575 33.4803 714.887 33.0806 714.336 32.5248C713.648 31.8504 713.15 31.0067 712.892 30.0787C712.64 29.1529 712.64 28.1767 712.892 27.2509C713.059 26.485 713.414 25.7726 713.924 25.1777C714.276 24.7821 714.7 24.4568 715.173 24.2192C715.494 24.0501 715.702 23.972 715.698 23.9547Z" fill="#263238"/>
<path d="M711.946 31.6834C712.007 31.6834 712.029 31.3061 712.341 31.0415C712.653 30.777 713.031 30.816 713.039 30.7553C713.048 30.6946 712.957 30.6685 712.792 30.6599C712.574 30.6507 712.36 30.7242 712.194 30.8657C712.027 31.0072 711.92 31.2063 711.894 31.4232C711.877 31.588 711.92 31.6878 711.946 31.6834Z" fill="#263238"/>
<path d="M712.146 30.1221C712.146 30.1828 712.315 30.1828 712.484 30.1784C712.653 30.1741 712.796 30.1784 712.818 30.1004C712.84 30.0223 712.684 29.9486 712.476 29.9529C712.267 29.9572 712.124 30.0613 712.146 30.1221Z" fill="#263238"/>
<path d="M712.146 25.9107C712.146 25.9714 712.402 25.9497 712.653 26.0538C712.905 26.1579 713.087 26.3271 713.122 26.2924C713.157 26.2577 713.074 25.9714 712.736 25.8587C712.398 25.7459 712.116 25.8587 712.146 25.9107Z" fill="#263238"/>
<path d="M705.519 4.53296C705.519 4.56766 706.1 4.55465 707.032 4.60236C707.573 4.62995 708.109 4.71279 708.633 4.84957C709.267 5.01676 709.851 5.33357 710.337 5.77338C710.82 6.20929 711.129 6.80574 711.205 7.45185C711.249 7.98462 711.164 8.52024 710.958 9.01322C710.749 9.4686 710.517 9.91301 710.264 10.3447C710.37 10.2582 710.462 10.1558 710.537 10.0411C710.76 9.7399 710.951 9.41566 711.105 9.07394C711.344 8.56061 711.448 7.99497 711.409 7.43017C711.339 6.72711 711.006 6.07648 710.476 5.60857C709.962 5.144 709.341 4.81461 708.668 4.65007C708.128 4.51666 707.575 4.44678 707.019 4.44188C706.547 4.44188 706.152 4.44188 705.909 4.47658C705.777 4.47645 705.645 4.49545 705.519 4.53296Z" fill="#263238"/>
<path d="M711.43 4.25972C711.4 4.25972 711.617 4.58067 711.821 5.12715C712.093 5.83181 712.167 6.59791 712.033 7.34151C711.899 8.08511 711.563 8.77751 711.062 9.34284C710.68 9.77656 710.372 9.9804 710.394 10.0151C710.696 9.89078 710.965 9.69772 711.179 9.45127C711.736 8.88462 712.111 8.16404 712.254 7.38246C712.397 6.59933 712.297 5.79119 711.968 5.06643C711.857 4.75803 711.672 4.48123 711.43 4.25972Z" fill="#263238"/>
<path d="M690.521 10.2363C690.521 10.2923 690.53 10.3479 690.547 10.4011C690.586 10.5598 690.639 10.715 690.703 10.8652C690.942 11.4248 691.298 11.9264 691.748 12.3355C692.423 12.9635 693.289 13.3468 694.208 13.4241C695.355 13.5234 696.496 13.1665 697.382 12.4309L697.218 12.4092C697.687 13.0788 698.311 13.6255 699.036 14.003C699.762 14.3804 700.568 14.5776 701.386 14.5778C702.419 14.58 703.427 14.2518 704.261 13.641C704.821 13.2353 705.289 12.7167 705.636 12.1186C705.729 11.9557 705.811 11.7861 705.879 11.6112C705.908 11.5527 705.927 11.4896 705.935 11.4247C705.935 11.4247 705.818 11.6676 705.562 12.0709C705.196 12.6365 704.723 13.1255 704.17 13.5108C703.355 14.0835 702.381 14.3869 701.386 14.3783C700.165 14.3619 698.992 13.899 698.089 13.0771C697.833 12.8411 697.603 12.5778 697.404 12.2921L697.33 12.1924L697.239 12.2704C696.391 12.974 695.302 13.3193 694.203 13.2333C693.324 13.1666 692.491 12.8148 691.831 12.2314C691.386 11.843 691.023 11.3697 690.764 10.8392C690.599 10.4532 690.538 10.232 690.521 10.2363Z" fill="#455A64"/>
<path d="M690.044 15.2023C690.044 15.2023 690.213 15.4799 690.638 15.7705C691.2 16.1515 691.859 16.3638 692.538 16.3823C693.216 16.4007 693.886 16.2245 694.468 15.8746C694.717 15.7492 694.931 15.5645 695.092 15.3368C695.066 15.3064 694.832 15.5103 694.39 15.7358C693.819 16.0291 693.184 16.1781 692.542 16.1695C691.903 16.1495 691.278 15.9706 690.725 15.649C690.295 15.3758 690.07 15.172 690.044 15.2023Z" fill="#455A64"/>
<path d="M689.788 44.0833C689.766 44.1408 689.75 44.2004 689.74 44.2611C689.714 44.3826 689.684 44.5604 689.654 44.7946C689.588 45.2673 689.523 45.9656 689.454 46.8634C689.328 48.6633 689.185 51.2699 689.189 54.4968C689.14 56.2629 689.299 58.0286 689.662 59.7577C689.883 60.7253 690.277 61.6451 690.825 62.4728C691.437 63.3341 692.23 64.0507 693.149 64.5719C695.12 65.664 697.301 66.322 699.547 66.502C701.944 66.813 704.379 66.6224 706.699 65.9425C707.875 65.5807 708.978 65.0123 709.956 64.264C710.901 63.5315 711.698 62.6246 712.302 61.5923C713.495 59.5582 713.981 57.3116 714.306 55.2081C714.631 53.1045 714.813 51.0791 715.043 49.1968C715.273 47.3145 715.477 45.5623 715.646 43.9619C716.006 40.7654 716.301 38.1761 716.513 36.3719C716.609 35.5044 716.683 34.7932 716.735 34.3074L716.787 33.7696C716.787 33.6525 716.787 33.5874 716.787 33.5874C716.769 33.6467 716.757 33.7078 716.752 33.7696C716.752 33.8997 716.709 34.0775 716.678 34.3031C716.613 34.7845 716.526 35.4784 716.414 36.3632C716.192 38.1631 715.876 40.748 715.481 43.9402C715.29 45.5449 715.078 47.2971 714.852 49.1751C714.627 51.0531 714.419 53.0785 714.098 55.1777C713.777 57.2769 713.278 59.4888 712.107 61.4795C711.516 62.486 710.737 63.3694 709.813 64.0818C708.857 64.8156 707.777 65.371 706.625 65.7213C704.336 66.3919 701.934 66.5809 699.568 66.2764C697.278 66.0249 695.071 65.4741 693.253 64.3898C692.357 63.8867 691.582 63.1922 690.985 62.3557C690.447 61.5494 690.058 60.6534 689.836 59.71C689.474 57.9996 689.309 56.2533 689.346 54.5054C689.32 51.2829 689.441 48.6763 689.541 46.8764C689.593 45.9786 689.645 45.2803 689.693 44.8076C689.693 44.5734 689.74 44.3956 689.758 44.2741C689.774 44.2117 689.784 44.1478 689.788 44.0833Z" fill="#B6773D"/>
<path d="M681.266 107.566C681.266 107.566 681.266 107.653 681.3 107.818C681.335 107.982 681.365 108.251 681.413 108.564C681.517 109.227 681.673 110.19 681.873 111.426C682.306 113.916 682.879 117.498 683.608 121.939C683.794 123.045 683.994 124.212 684.302 125.409C684.604 126.659 685.066 127.864 685.676 128.996C686.344 130.212 687.278 131.262 688.409 132.066C689.617 132.936 691.108 133.32 692.585 133.142C693.364 133.071 694.114 132.812 694.769 132.386C695.425 131.961 695.968 131.382 696.35 130.7C696.697 129.976 696.903 129.194 696.957 128.393C697.031 127.595 697.044 126.792 697.083 125.986C697.218 122.75 697.361 119.402 697.517 115.976C698.076 102.257 698.579 89.8401 698.948 80.8449C699.117 76.3559 699.26 72.7214 699.356 70.1972C699.399 68.9481 699.429 67.9723 699.456 67.3043C699.456 66.9791 699.456 66.7275 699.456 66.5497C699.456 66.3718 699.456 66.2938 699.456 66.2938C699.456 66.2938 699.456 66.3805 699.434 66.5497C699.412 66.7188 699.434 66.9834 699.39 67.3C699.36 67.9723 699.312 68.9438 699.252 70.1929C699.135 72.7171 698.974 76.3516 698.77 80.8362C698.389 89.8358 697.859 102.249 697.274 115.967C697.131 119.393 696.992 122.742 696.84 125.977C696.801 126.784 696.788 127.586 696.714 128.371C696.665 129.144 696.469 129.9 696.138 130.601C695.771 131.252 695.252 131.805 694.625 132.212C693.998 132.619 693.282 132.868 692.538 132.938C691.108 133.111 689.666 132.741 688.496 131.902C687.389 131.116 686.474 130.09 685.82 128.9C684.518 126.597 684.137 124.129 683.746 121.913C682.983 117.489 682.367 113.903 681.938 111.413L681.435 108.559C681.378 108.243 681.331 107.995 681.3 107.818C681.27 107.64 681.266 107.566 681.266 107.566Z" fill="#B6773D"/>
<path d="M682.71 93.2057L677.709 83.9763H662.486L662 84.8914L674.89 106.317L689.476 107.019L682.71 93.2057Z" fill="#B6773D"/>
<path opacity="0.4" d="M682.71 93.2057L677.709 83.9763H662.486L662 84.8914L674.89 106.317L689.476 107.019L682.71 93.2057Z" fill="black"/>
<path d="M682.228 94.1252L677.223 84.8914H662L674.404 107.232L688.994 107.939L682.228 94.1252Z" fill="#B6773D"/>
<path d="M669.729 88.7688C669.847 88.8645 669.991 88.9229 670.142 88.9366C670.294 88.9503 670.446 88.9188 670.579 88.846C670.713 88.7731 670.822 88.6623 670.892 88.5275C670.963 88.3928 670.991 88.2401 670.975 88.089C670.958 87.9378 670.897 87.7949 670.8 87.6785C670.702 87.562 670.572 87.4772 670.426 87.4348C670.28 87.3924 670.124 87.3944 669.979 87.4404C669.835 87.4864 669.707 87.5744 669.612 87.6932C669.485 87.8516 669.427 88.0536 669.449 88.2551C669.47 88.4567 669.571 88.6413 669.729 88.7688Z" fill="#EBEBEB"/>
<path d="M740.762 98.3018V114.436C740.762 115.891 740.438 117.327 739.814 118.642C739.19 119.956 738.281 121.115 737.154 122.035C735.789 123.149 734.149 123.875 732.407 124.136C730.664 124.397 728.884 124.183 727.252 123.518L691.722 107.757L695.192 95.9034L723.774 105.328L723.735 97.9982L740.762 98.3018Z" fill="#FFBE9D"/>
<path d="M696.602 97.1915L694.19 94.2032C693.407 93.2317 692.416 92.448 691.29 91.9098C690.165 91.3717 688.932 91.0927 687.685 91.0935H685.568L684.132 92.7069C684.132 92.7069 673.836 93.1406 673.459 94.4418V94.8538V95.0923L682.267 95.6822C682.267 95.6822 674.773 95.6605 674.326 95.6822C673.879 95.7039 672.236 95.5564 672.27 96.4369C672.296 97.1568 673.138 97.738 674.439 97.9158C674.968 97.9939 681.456 98.5577 681.456 98.5577L674.317 98.4927C673.515 98.4927 673.615 99.7938 674.092 99.9326C674.469 100.058 683.634 102.73 683.634 102.73C683.634 102.73 682.094 103.762 680.841 103.671C679.587 103.58 677.432 101.967 676.985 102.73C676.538 103.493 676.625 103.94 676.894 104.122C678.25 104.88 679.658 105.538 681.109 106.091C682.094 106.365 690.152 107.64 690.152 107.64L693.058 108.104L696.602 97.1915Z" fill="#FFBE9D"/>
<path d="M664.13 88.4912C664.13 88.4912 662.538 89.0464 663.345 91.0935C664.117 92.9724 665.21 94.7027 666.576 96.207C666.505 96.5419 666.527 96.8898 666.639 97.2131C666.751 97.5365 666.95 97.823 667.213 98.0416C667.213 98.0416 666.086 98.3235 666.78 100.21C666.673 100.483 666.624 100.774 666.634 101.066C666.645 101.358 666.715 101.645 666.84 101.909C666.966 102.174 667.144 102.409 667.364 102.602C667.584 102.794 667.841 102.94 668.12 103.029C668.12 103.029 667.556 104.651 669.599 105.428C671.641 106.204 673.615 104.864 673.615 104.864L664.13 88.4912Z" fill="#FFBE9D"/>
<path d="M667.352 96.0465C668.801 96.4369 670.388 96.7492 671.728 97.2566C672.162 97.4258 672.596 97.4344 672.899 97.8031C673.056 97.9821 673.145 98.2109 673.15 98.4489C673.154 98.6869 673.075 98.919 672.925 99.1042C672.759 99.2294 672.567 99.3158 672.362 99.3571C672.158 99.3984 671.948 99.3935 671.746 99.3428C670.209 99.0982 668.705 98.6821 667.261 98.1023" fill="#FFBE9D"/>
<path d="M667.938 98.4666C669.382 98.857 670.974 99.1693 672.309 99.6767C672.743 99.8415 673.177 99.8502 673.48 100.223C673.639 100.401 673.729 100.63 673.733 100.869C673.738 101.107 673.658 101.34 673.506 101.524C673.34 101.649 673.147 101.735 672.943 101.776C672.739 101.817 672.529 101.813 672.327 101.763C670.79 101.519 669.285 101.101 667.842 100.518" fill="#FFBE9D"/>
<path d="M667.352 98.1414C667.374 98.0806 668.397 98.4406 669.677 98.7963C670.956 99.1519 672.019 99.3774 672.006 99.4425C671.193 99.4092 670.389 99.2633 669.616 99.0088C668.824 98.827 668.062 98.5351 667.352 98.1414Z" fill="#EB996E"/>
<path d="M666.155 95.7559C666.155 95.6952 667.456 96.1289 669.074 96.541C670.692 96.953 672.014 97.2045 672.006 97.2696C671.715 97.2859 671.423 97.261 671.138 97.1959C670.596 97.1135 669.837 96.9703 669.035 96.7622C668.232 96.554 667.504 96.3284 666.988 96.1246C666.694 96.0417 666.414 95.9176 666.155 95.7559Z" fill="#EB996E"/>
<path d="M680.645 92.8327C681.846 92.7119 683.052 92.667 684.258 92.6983C685.463 92.6539 686.67 92.6857 687.871 92.7937C686.671 92.9116 685.464 92.955 684.258 92.9238C683.053 92.9682 681.847 92.9378 680.645 92.8327Z" fill="#EB996E"/>
<path d="M758.998 26.877C758.651 25.4048 757.815 24.0938 756.627 23.1583C755.438 22.2229 753.968 21.7184 752.455 21.7274C750.943 21.7364 749.478 22.2583 748.301 23.2079C747.124 24.1574 746.304 25.4783 745.975 26.9545C744.337 27.1739 742.839 27.9923 741.77 29.2516C740.701 30.5109 740.136 32.1217 740.185 33.7731C740.234 35.4244 740.893 36.9991 742.035 38.193C743.176 39.3868 744.72 40.1152 746.368 40.2374L746.49 38.8981C745.159 38.7719 743.924 38.1506 743.029 37.1572C742.134 36.1638 741.645 34.8707 741.658 33.5338C741.671 32.197 742.186 30.9138 743.1 29.9383C744.014 28.9628 745.262 28.3661 746.595 28.2662L747.148 28.2275L747.226 27.674C747.401 26.3984 748.033 25.2296 749.003 24.3834C749.974 23.5373 751.218 23.0712 752.506 23.0712C753.793 23.0712 755.037 23.5373 756.008 24.3834C756.979 25.2296 757.61 26.3984 757.786 27.674L757.874 28.3271L758.533 28.2551C758.731 28.2308 758.931 28.2179 759.13 28.2164C760.547 28.2179 761.905 28.782 762.905 29.7846C763.906 30.7872 764.467 32.1463 764.466 33.5628C764.464 34.9793 763.9 36.3371 762.898 37.3377C761.895 38.3383 760.536 38.8996 759.119 38.8981V40.2485C760.893 40.2324 762.587 39.5125 763.829 38.2473C765.072 36.982 765.76 35.2751 765.744 33.5019C765.728 31.7287 765.008 30.0346 763.743 28.7922C762.478 27.5498 760.771 26.8609 758.998 26.877Z" fill="white"/>
<path d="M756.789 32.2843C756.792 32.1771 756.768 32.0708 756.721 31.9745C756.674 31.8782 756.604 31.7946 756.518 31.7308C756.433 31.6683 756.335 31.6262 756.232 31.608C756.128 31.5897 756.021 31.5958 755.92 31.6257L748.831 33.7288C748.691 33.7697 748.568 33.8551 748.481 33.9719C748.395 34.0888 748.348 34.2307 748.349 34.3764V42.49C748.109 42.3967 747.854 42.348 747.596 42.3461C747.19 42.3433 746.791 42.4591 746.449 42.6795C746.107 42.8998 745.836 43.2151 745.671 43.5867C745.505 43.9584 745.452 44.3702 745.517 44.7718C745.581 45.1735 745.762 45.5475 746.036 45.848C746.31 46.1486 746.666 46.3627 747.06 46.4641C747.454 46.5656 747.869 46.5499 748.255 46.4191C748.64 46.2883 748.979 46.048 749.229 45.7276C749.48 45.4072 749.632 45.0207 749.666 44.6153H749.711V38.4332L755.456 36.7341V40.3205C755.221 40.2271 754.972 40.1783 754.719 40.1766C754.307 40.1766 753.903 40.2989 753.56 40.5282C753.217 40.7575 752.95 41.0834 752.792 41.4646C752.634 41.8459 752.593 42.2654 752.673 42.6702C752.754 43.0749 752.952 43.4467 753.244 43.7385C753.536 44.0303 753.908 44.229 754.312 44.3095C754.717 44.39 755.137 44.3487 755.518 44.1908C755.899 44.0329 756.225 43.7654 756.454 43.4223C756.684 43.0792 756.806 42.6758 756.806 42.2631V32.3009L756.789 32.2843ZM755.439 35.3228L749.711 37.0274V34.8911L755.456 33.1864L755.439 35.3228Z" fill="white"/>
<path d="M642.037 69.888C641.5 70.3002 640.833 70.5652 640.122 70.6495C639.411 70.7339 638.687 70.6337 638.042 70.3617C637.396 70.0897 636.858 69.6581 636.496 69.1215C636.134 68.5848 635.964 67.9672 636.007 67.3467C636.05 66.7262 636.304 66.1307 636.738 65.6355C637.172 65.1402 637.765 64.7675 638.444 64.5643C639.122 64.3612 639.855 64.3368 640.549 64.4942C641.243 64.6516 641.868 64.9838 642.345 65.4487C642.661 65.7576 642.904 66.1176 643.06 66.5079C643.216 66.8982 643.282 67.3113 643.253 67.7236C643.224 68.1359 643.102 68.5392 642.894 68.9106C642.685 69.282 642.394 69.6141 642.037 69.888Z" fill="white"/>
<path d="M642.595 68.8526C642.252 68.7968 642.839 65.4983 644.492 61.6915C646.146 57.8846 647.592 54.921 647.907 55.0016C648.222 55.0822 647.32 58.3062 645.674 62.0635C644.027 65.8207 642.932 68.9146 642.595 68.8526Z" fill="white"/>
<path d="M657.937 60.3151C657.937 60.5693 654.952 60.8545 651.659 59.4346C650.236 58.8605 649.026 57.9545 648.165 56.8182C647.521 55.913 647.549 55.2062 647.7 55.1876C647.85 55.169 648.151 55.696 648.881 56.3594C649.837 57.2398 650.97 57.9624 652.224 58.4922C655.174 59.7323 657.973 59.9741 657.937 60.3151Z" fill="white"/>
<path d="M652.074 75.2324C651.533 75.6384 650.865 75.8967 650.155 75.9749C649.445 76.0531 648.724 75.9476 648.083 75.6718C647.441 75.3959 646.909 74.962 646.552 74.4247C646.194 73.8873 646.029 73.2705 646.075 72.6518C646.122 72.0331 646.379 71.4402 646.814 70.9476C647.248 70.455 647.842 70.0847 648.519 69.8834C649.196 69.6821 649.927 69.6587 650.619 69.8162C651.312 69.9737 651.935 70.305 652.411 70.7684C652.729 71.0798 652.973 71.4428 653.128 71.8363C653.284 72.2298 653.348 72.6461 653.316 73.0611C653.285 73.4762 653.159 73.8817 652.946 74.2544C652.733 74.6271 652.436 74.9595 652.074 75.2324Z" fill="white"/>
<path d="M652.625 74.1723C652.282 74.1103 652.869 70.8118 654.523 67.0112C656.176 63.2105 657.622 60.2407 657.937 60.3151C658.252 60.3895 657.358 63.6197 655.711 67.3832C654.064 71.1466 652.969 74.2281 652.625 74.1723Z" fill="white"/>
<path d="M657.179 62.3611C657.243 62.6401 654.386 63.0741 651.244 61.8403C648.101 60.6065 646.561 58.4984 646.848 58.3496C647.134 58.2008 648.924 59.7695 651.759 60.8297C654.594 61.8899 657.171 62.0387 657.179 62.3611Z" fill="white"/>
<path d="M638.566 29.9003V24.816L634.167 27.3554L638.566 29.9003Z" fill="white"/>
<path d="M633.503 24.6953H632.703V29.8893H633.503V24.6953Z" fill="white"/>
<path d="M661.854 29.9003L666.258 27.3554L661.854 24.816V29.9003Z" fill="white"/>
<path d="M667.722 24.6953H666.922V29.8893H667.722V24.6953Z" fill="white"/>
<path d="M650.468 19.973C649.129 19.973 647.82 20.3699 646.707 21.1136C645.594 21.8573 644.727 22.9143 644.215 24.1511C643.702 25.3878 643.568 26.7486 643.83 28.0615C644.091 29.3744 644.735 30.5803 645.682 31.5269C646.628 32.4734 647.834 33.118 649.147 33.3792C650.46 33.6403 651.821 33.5063 653.058 32.994C654.294 32.4818 655.351 31.6143 656.095 30.5013C656.839 29.3882 657.236 28.0797 657.236 26.7411C657.236 24.9461 656.523 23.2246 655.253 21.9553C653.984 20.686 652.263 19.973 650.468 19.973ZM649.508 30.3062H647.495V23.176H649.508V30.3062ZM653.44 30.3062H651.427V23.176H653.44V30.3062Z" fill="white"/>
<path d="M754.65 79.5888C754.521 79.5888 754.398 79.5394 754.307 79.4515C754.216 79.3635 754.165 79.2442 754.165 79.1199V74.8833C754.165 74.7589 754.216 74.6396 754.307 74.5516C754.398 74.4637 754.521 74.4143 754.65 74.4143C754.778 74.4143 754.902 74.4637 754.992 74.5516C755.083 74.6396 755.134 74.7589 755.134 74.8833V79.1199C755.134 79.2442 755.083 79.3635 754.992 79.4515C754.902 79.5394 754.778 79.5888 754.65 79.5888Z" fill="white"/>
<path d="M753.062 79.0292C752.934 79.0292 752.81 78.9798 752.72 78.8918C752.629 78.8039 752.578 78.6846 752.578 78.5602V75.4304C752.578 75.306 752.629 75.1867 752.72 75.0988C752.81 75.0108 752.934 74.9614 753.062 74.9614C753.191 74.9614 753.314 75.0108 753.405 75.0988C753.496 75.1867 753.547 75.306 753.547 75.4304V78.557C753.548 78.6189 753.535 78.6802 753.511 78.7375C753.487 78.7947 753.451 78.8468 753.406 78.8907C753.361 78.9346 753.308 78.9694 753.249 78.9932C753.19 79.0169 753.126 79.0292 753.062 79.0292Z" fill="white"/>
<path d="M751.475 79.0292C751.348 79.0267 751.226 78.9758 751.137 78.8874C751.049 78.7991 750.999 78.6804 751 78.557V75.4304C751 75.306 751.051 75.1867 751.142 75.0988C751.233 75.0108 751.356 74.9614 751.485 74.9614C751.613 74.9614 751.737 75.0108 751.828 75.0988C751.919 75.1867 751.97 75.306 751.97 75.4304V78.557C751.97 78.6197 751.958 78.6818 751.933 78.7397C751.908 78.7976 751.872 78.8501 751.826 78.8941C751.779 78.9381 751.725 78.9727 751.664 78.9959C751.604 79.0191 751.54 79.0304 751.475 79.0292Z" fill="white"/>
<path d="M770.515 79.0292C770.386 79.0292 770.263 78.9798 770.172 78.8918C770.081 78.8039 770.03 78.6846 770.03 78.5602V75.4304C770.03 75.306 770.081 75.1867 770.172 75.0988C770.263 75.0108 770.386 74.9614 770.515 74.9614C770.644 74.9614 770.767 75.0108 770.858 75.0988C770.949 75.1867 771 75.306 771 75.4304V78.557C771 78.6189 770.988 78.6802 770.964 78.7375C770.94 78.7947 770.904 78.8468 770.859 78.8907C770.814 78.9346 770.76 78.9694 770.701 78.9932C770.642 79.0169 770.579 79.0292 770.515 79.0292Z" fill="white"/>
<path d="M768.931 79.0292C768.804 79.0267 768.682 78.9758 768.593 78.8874C768.504 78.7991 768.455 78.6804 768.456 78.557V75.4304C768.456 75.306 768.507 75.1867 768.598 75.0988C768.689 75.0108 768.812 74.9614 768.941 74.9614C769.069 74.9614 769.193 75.0108 769.284 75.0988C769.375 75.1867 769.426 75.306 769.426 75.4304V78.557C769.426 78.6197 769.414 78.6818 769.389 78.7397C769.364 78.7976 769.328 78.8501 769.281 78.8941C769.235 78.9381 769.181 78.9727 769.12 78.9959C769.06 79.0191 768.996 79.0304 768.931 79.0292Z" fill="white"/>
<path d="M756.237 79.5888C756.108 79.5888 755.985 79.5394 755.894 79.4515C755.803 79.3635 755.752 79.2442 755.752 79.1199V74.8833C755.752 74.7589 755.803 74.6396 755.894 74.5516C755.985 74.4637 756.108 74.4143 756.237 74.4143C756.365 74.4143 756.489 74.4637 756.58 74.5516C756.671 74.6396 756.722 74.7589 756.722 74.8833V79.1199C756.722 79.2442 756.671 79.3635 756.58 79.4515C756.489 79.5394 756.365 79.5888 756.237 79.5888Z" fill="white"/>
<path d="M757.824 80.333C757.695 80.333 757.572 80.2836 757.481 80.1956C757.39 80.1077 757.339 79.9884 757.339 79.864V74.136C757.339 74.0116 757.39 73.8923 757.481 73.8044C757.572 73.7164 757.695 73.667 757.824 73.667C757.953 73.667 758.076 73.7164 758.167 73.8044C758.258 73.8923 758.309 74.0116 758.309 74.136V79.864C758.309 79.9884 758.258 80.1077 758.167 80.1956C758.076 80.2836 757.953 80.333 757.824 80.333Z" fill="white"/>
<path d="M759.405 81.5086C759.276 81.5078 759.154 81.4581 759.063 81.3703C758.972 81.2825 758.921 81.1637 758.92 81.0396V72.9635C758.92 72.8391 758.971 72.7198 759.062 72.6319C759.153 72.5439 759.276 72.4945 759.405 72.4945C759.533 72.4945 759.657 72.5439 759.748 72.6319C759.839 72.7198 759.89 72.8391 759.89 72.9635V81.0396C759.89 81.164 759.839 81.2833 759.748 81.3712C759.657 81.4592 759.533 81.5086 759.405 81.5086Z" fill="white"/>
<path d="M767.344 79.5888C767.215 79.5888 767.092 79.5394 767.001 79.4515C766.91 79.3635 766.859 79.2442 766.859 79.1199V74.8833C766.859 74.7589 766.91 74.6396 767.001 74.5516C767.092 74.4637 767.215 74.4143 767.344 74.4143C767.473 74.4143 767.596 74.4637 767.687 74.5516C767.778 74.6396 767.829 74.7589 767.829 74.8833V79.1199C767.829 79.2442 767.778 79.3635 767.687 79.4515C767.596 79.5394 767.473 79.5888 767.344 79.5888Z" fill="white"/>
<path d="M765.757 79.5888C765.628 79.5888 765.505 79.5394 765.414 79.4515C765.323 79.3635 765.272 79.2442 765.272 79.1199V74.8833C765.272 74.7589 765.323 74.6396 765.414 74.5516C765.505 74.4637 765.628 74.4143 765.757 74.4143C765.885 74.4143 766.009 74.4637 766.1 74.5516C766.191 74.6396 766.242 74.7589 766.242 74.8833V79.1199C766.242 79.2442 766.191 79.3635 766.1 79.4515C766.009 79.5394 765.885 79.5888 765.757 79.5888Z" fill="white"/>
<path d="M764.17 80.333C764.041 80.333 763.918 80.2836 763.827 80.1956C763.736 80.1077 763.685 79.9884 763.685 79.864V74.136C763.685 74.0116 763.736 73.8923 763.827 73.8044C763.918 73.7164 764.041 73.667 764.17 73.667C764.298 73.667 764.421 73.7164 764.512 73.8044C764.603 73.8923 764.654 74.0116 764.654 74.136V79.864C764.654 79.9884 764.603 80.1077 764.512 80.1956C764.421 80.2836 764.298 80.333 764.17 80.333Z" fill="white"/>
<path d="M762.582 81.5086C762.454 81.5086 762.33 81.4592 762.239 81.3712C762.149 81.2833 762.097 81.164 762.097 81.0396V72.9635C762.097 72.8391 762.149 72.7198 762.239 72.6319C762.33 72.5439 762.454 72.4945 762.582 72.4945C762.711 72.4945 762.834 72.5439 762.925 72.6319C763.016 72.7198 763.067 72.8391 763.067 72.9635V81.0396C763.067 81.164 763.016 81.2833 762.925 81.3712C762.834 81.4592 762.711 81.5086 762.582 81.5086Z" fill="white"/>
<path d="M760.995 83C760.867 83 760.743 82.9506 760.652 82.8626C760.561 82.7747 760.51 82.6554 760.51 82.531V71.469C760.51 71.3446 760.561 71.2253 760.652 71.1374C760.743 71.0494 760.867 71 760.995 71C761.124 71 761.247 71.0494 761.338 71.1374C761.429 71.2253 761.48 71.3446 761.48 71.469V82.531C761.48 82.6554 761.429 82.7747 761.338 82.8626C761.247 82.9506 761.124 83 760.995 83Z" fill="white"/>
<g filter="url(#filter0_d_3_390)">
<path d="M113.526 33.6475C113.775 34.3507 113.734 35.1237 113.412 35.7967C113.091 36.4697 112.516 36.9875 111.812 37.2362C109.382 38.0955 107.235 39.6064 105.605 41.6036C103.975 43.6009 102.925 46.0078 102.571 48.5611C102.217 51.1145 102.571 53.7162 103.595 56.0819C104.619 58.4475 106.274 60.4861 108.379 61.9749C110.483 63.4636 112.957 64.3453 115.528 64.5234C118.1 64.7015 120.671 64.1693 122.961 62.9849C125.251 61.8005 127.171 60.0096 128.511 57.8077C129.852 55.6059 130.561 53.0779 130.562 50.5C130.562 48.25 130.037 46.1312 129.102 44.2525C128.937 43.9217 128.84 43.5617 128.814 43.1931C128.789 42.8246 128.836 42.4546 128.954 42.1044C129.192 41.3971 129.7 40.8131 130.368 40.4809C131.037 40.1487 131.809 40.0956 132.517 40.3331C133.224 40.5706 133.808 41.0794 134.14 41.7475C135.491 44.4672 136.192 47.4633 136.187 50.5C136.187 61.3731 127.373 70.1875 116.5 70.1875C105.627 70.1875 96.8125 61.3731 96.8125 50.5C96.8125 41.9237 102.295 34.6356 109.937 31.9337C110.641 31.6852 111.414 31.7261 112.087 32.0475C112.76 32.3689 113.278 32.9444 113.526 33.6475ZM117.437 33.6512C117.437 33.2235 117.534 32.8011 117.72 32.4161C117.906 32.031 118.178 31.6931 118.513 31.4279C118.849 31.1626 119.24 30.9769 119.658 30.8846C120.076 30.7923 120.509 30.7958 120.925 30.895L121.165 30.9644L126.764 32.8319C127.449 33.0603 128.021 33.5438 128.359 34.1822C128.698 34.8205 128.778 35.5647 128.582 36.2604C128.387 36.956 127.931 37.5499 127.31 37.9187C126.689 38.2875 125.949 38.403 125.245 38.2412L124.986 38.1681L123.062 37.5269V50.5L123.053 50.86C122.981 52.1674 122.52 53.4234 121.729 54.4665C120.937 55.5096 119.852 56.2921 118.612 56.7134C117.372 57.1347 116.035 57.1755 114.772 56.8306C113.509 56.4857 112.378 55.7708 111.524 54.7779C110.67 53.7849 110.133 52.5594 109.982 51.2588C109.831 49.9582 110.072 48.6421 110.674 47.4796C111.277 46.3172 112.214 45.3616 113.364 44.7357C114.514 44.1098 115.825 43.8423 117.128 43.9675L117.437 44.005V33.6512Z" fill="white"/>
</g>
<g filter="url(#filter1_d_3_390)">
<path d="M158.688 69.4337H162.592V70.6177H157.232V59.4657H158.688V69.4337Z" fill="white"/>
<path d="M164.89 60.4257C164.613 60.4257 164.378 60.3297 164.186 60.1377C163.994 59.9457 163.898 59.711 163.898 59.4337C163.898 59.1563 163.994 58.9217 164.186 58.7297C164.378 58.5377 164.613 58.4417 164.89 58.4417C165.157 58.4417 165.381 58.5377 165.562 58.7297C165.754 58.9217 165.85 59.1563 165.85 59.4337C165.85 59.711 165.754 59.9457 165.562 60.1377C165.381 60.3297 165.157 60.4257 164.89 60.4257ZM165.594 61.8497V70.6177H164.138V61.8497H165.594Z" fill="white"/>
<path d="M171.18 70.7617C170.508 70.7617 169.905 70.6497 169.372 70.4257C168.838 70.191 168.417 69.871 168.108 69.4657C167.798 69.0497 167.628 68.575 167.596 68.0417H169.1C169.142 68.479 169.345 68.8363 169.708 69.1137C170.081 69.391 170.566 69.5297 171.164 69.5297C171.718 69.5297 172.156 69.407 172.476 69.1617C172.796 68.9163 172.956 68.607 172.956 68.2337C172.956 67.8497 172.785 67.567 172.444 67.3857C172.102 67.1937 171.574 67.007 170.86 66.8257C170.209 66.655 169.676 66.4843 169.26 66.3137C168.854 66.1323 168.502 65.871 168.204 65.5297C167.916 65.1777 167.772 64.719 167.772 64.1537C167.772 63.7057 167.905 63.295 168.172 62.9217C168.438 62.5483 168.817 62.255 169.308 62.0417C169.798 61.8177 170.358 61.7057 170.988 61.7057C171.958 61.7057 172.742 61.951 173.34 62.4417C173.937 62.9323 174.257 63.6043 174.3 64.4577H172.844C172.812 63.999 172.625 63.631 172.284 63.3537C171.953 63.0763 171.505 62.9377 170.94 62.9377C170.417 62.9377 170.001 63.0497 169.692 63.2737C169.382 63.4977 169.228 63.791 169.228 64.1537C169.228 64.4417 169.318 64.6817 169.5 64.8737C169.692 65.055 169.926 65.2043 170.204 65.3217C170.492 65.4283 170.886 65.551 171.388 65.6897C172.017 65.8603 172.529 66.031 172.924 66.2017C173.318 66.3617 173.654 66.607 173.932 66.9377C174.22 67.2683 174.369 67.7003 174.38 68.2337C174.38 68.7137 174.246 69.1457 173.98 69.5297C173.713 69.9137 173.334 70.2177 172.844 70.4417C172.364 70.655 171.809 70.7617 171.18 70.7617Z" fill="white"/>
<path d="M178.211 63.0497V68.2177C178.211 68.6443 178.302 68.9483 178.483 69.1297C178.664 69.3003 178.979 69.3857 179.427 69.3857H180.499V70.6177H179.187C178.376 70.6177 177.768 70.431 177.363 70.0577C176.958 69.6843 176.755 69.071 176.755 68.2177V63.0497H175.619V61.8497H176.755V59.6417H178.211V61.8497H180.499V63.0497H178.211Z" fill="white"/>
<path d="M190.263 65.8977C190.263 66.175 190.247 66.4683 190.215 66.7777H183.207C183.261 67.6417 183.554 68.319 184.087 68.8097C184.631 69.2897 185.287 69.5297 186.055 69.5297C186.685 69.5297 187.207 69.3857 187.623 69.0977C188.05 68.799 188.349 68.4043 188.519 67.9137H190.087C189.853 68.7563 189.383 69.4443 188.679 69.9777C187.975 70.5003 187.101 70.7617 186.055 70.7617C185.223 70.7617 184.477 70.575 183.815 70.2017C183.165 69.8283 182.653 69.3003 182.279 68.6177C181.906 67.9243 181.719 67.1243 181.719 66.2177C181.719 65.311 181.901 64.5163 182.263 63.8337C182.626 63.151 183.133 62.6283 183.783 62.2657C184.445 61.8923 185.202 61.7057 186.055 61.7057C186.887 61.7057 187.623 61.887 188.263 62.2497C188.903 62.6123 189.394 63.1137 189.735 63.7537C190.087 64.383 190.263 65.0977 190.263 65.8977ZM188.759 65.5937C188.759 65.039 188.637 64.5643 188.391 64.1697C188.146 63.7643 187.81 63.4603 187.383 63.2577C186.967 63.0443 186.503 62.9377 185.991 62.9377C185.255 62.9377 184.626 63.1723 184.103 63.6417C183.591 64.111 183.298 64.7617 183.223 65.5937H188.759Z" fill="white"/>
<path d="M196.457 61.6897C197.524 61.6897 198.388 62.015 199.049 62.6657C199.71 63.3057 200.041 64.2337 200.041 65.4497V70.6177H198.601V65.6577C198.601 64.783 198.382 64.1163 197.945 63.6577C197.508 63.1883 196.91 62.9537 196.153 62.9537C195.385 62.9537 194.772 63.1937 194.313 63.6737C193.865 64.1537 193.641 64.8523 193.641 65.7697V70.6177H192.185V61.8497H193.641V63.0977C193.929 62.6497 194.318 62.303 194.809 62.0577C195.31 61.8123 195.86 61.6897 196.457 61.6897Z" fill="white"/>
<path d="M203.172 60.4257C202.894 60.4257 202.66 60.3297 202.468 60.1377C202.276 59.9457 202.18 59.711 202.18 59.4337C202.18 59.1563 202.276 58.9217 202.468 58.7297C202.66 58.5377 202.894 58.4417 203.172 58.4417C203.438 58.4417 203.662 58.5377 203.844 58.7297C204.036 58.9217 204.132 59.1563 204.132 59.4337C204.132 59.711 204.036 59.9457 203.844 60.1377C203.662 60.3297 203.438 60.4257 203.172 60.4257ZM203.876 61.8497V70.6177H202.42V61.8497H203.876Z" fill="white"/>
<path d="M210.629 61.6897C211.696 61.6897 212.56 62.015 213.221 62.6657C213.882 63.3057 214.213 64.2337 214.213 65.4497V70.6177H212.773V65.6577C212.773 64.783 212.554 64.1163 212.117 63.6577C211.68 63.1883 211.082 62.9537 210.325 62.9537C209.557 62.9537 208.944 63.1937 208.485 63.6737C208.037 64.1537 207.813 64.8523 207.813 65.7697V70.6177H206.357V61.8497H207.813V63.0977C208.101 62.6497 208.49 62.303 208.981 62.0577C209.482 61.8123 210.032 61.6897 210.629 61.6897Z" fill="white"/>
<path d="M220.207 61.7057C220.965 61.7057 221.626 61.871 222.191 62.2017C222.767 62.5323 223.194 62.9483 223.471 63.4497V61.8497H224.943V70.8097C224.943 71.6097 224.773 72.319 224.431 72.9377C224.09 73.567 223.599 74.0577 222.959 74.4097C222.33 74.7617 221.594 74.9377 220.751 74.9377C219.599 74.9377 218.639 74.6657 217.871 74.1217C217.103 73.5777 216.65 72.8363 216.511 71.8977H217.951C218.111 72.431 218.442 72.8577 218.943 73.1777C219.445 73.5083 220.047 73.6737 220.751 73.6737C221.551 73.6737 222.202 73.423 222.703 72.9217C223.215 72.4203 223.471 71.7163 223.471 70.8097V68.9697C223.183 69.4817 222.757 69.9083 222.191 70.2497C221.626 70.591 220.965 70.7617 220.207 70.7617C219.429 70.7617 218.719 70.5697 218.079 70.1857C217.45 69.8017 216.954 69.263 216.591 68.5697C216.229 67.8763 216.047 67.087 216.047 66.2017C216.047 65.3057 216.229 64.5217 216.591 63.8497C216.954 63.167 217.45 62.639 218.079 62.2657C218.719 61.8923 219.429 61.7057 220.207 61.7057ZM223.471 66.2177C223.471 65.5563 223.338 64.9803 223.071 64.4897C222.805 63.999 222.442 63.6257 221.983 63.3697C221.535 63.103 221.039 62.9697 220.495 62.9697C219.951 62.9697 219.455 63.0977 219.007 63.3537C218.559 63.6097 218.202 63.983 217.935 64.4737C217.669 64.9643 217.535 65.5403 217.535 66.2017C217.535 66.8737 217.669 67.4603 217.935 67.9617C218.202 68.4523 218.559 68.831 219.007 69.0977C219.455 69.3537 219.951 69.4817 220.495 69.4817C221.039 69.4817 221.535 69.3537 221.983 69.0977C222.442 68.831 222.805 68.4523 223.071 67.9617C223.338 67.4603 223.471 66.879 223.471 66.2177Z" fill="white"/>
<path d="M233.446 63.0497V68.2177C233.446 68.6443 233.536 68.9483 233.717 69.1297C233.899 69.3003 234.213 69.3857 234.661 69.3857H235.734V70.6177H234.422C233.611 70.6177 233.003 70.431 232.598 70.0577C232.192 69.6843 231.99 69.071 231.99 68.2177V63.0497H230.854V61.8497H231.99V59.6417H233.446V61.8497H235.734V63.0497H233.446Z" fill="white"/>
<path d="M241.322 70.7617C240.5 70.7617 239.754 70.575 239.082 70.2017C238.42 69.8283 237.898 69.3003 237.514 68.6177C237.14 67.9243 236.954 67.1243 236.954 66.2177C236.954 65.3217 237.146 64.5323 237.53 63.8497C237.924 63.1563 238.458 62.6283 239.13 62.2657C239.802 61.8923 240.554 61.7057 241.386 61.7057C242.218 61.7057 242.97 61.8923 243.642 62.2657C244.314 62.6283 244.842 63.151 245.226 63.8337C245.62 64.5163 245.818 65.311 245.818 66.2177C245.818 67.1243 245.615 67.9243 245.21 68.6177C244.815 69.3003 244.276 69.8283 243.594 70.2017C242.911 70.575 242.154 70.7617 241.322 70.7617ZM241.322 69.4817C241.844 69.4817 242.335 69.359 242.794 69.1137C243.252 68.8683 243.62 68.5003 243.898 68.0097C244.186 67.519 244.33 66.9217 244.33 66.2177C244.33 65.5137 244.191 64.9163 243.914 64.4257C243.636 63.935 243.274 63.5723 242.826 63.3377C242.378 63.0923 241.892 62.9697 241.37 62.9697C240.836 62.9697 240.346 63.0923 239.898 63.3377C239.46 63.5723 239.108 63.935 238.842 64.4257C238.575 64.9163 238.442 65.5137 238.442 66.2177C238.442 66.9323 238.57 67.535 238.826 68.0257C239.092 68.5163 239.444 68.8843 239.882 69.1297C240.319 69.3643 240.799 69.4817 241.322 69.4817Z" fill="white"/>
<path d="M262.542 61.6897C263.224 61.6897 263.832 61.8337 264.366 62.1217C264.899 62.399 265.32 62.8203 265.63 63.3857C265.939 63.951 266.094 64.639 266.094 65.4497V70.6177H264.654V65.6577C264.654 64.783 264.435 64.1163 263.998 63.6577C263.571 63.1883 262.99 62.9537 262.254 62.9537C261.496 62.9537 260.894 63.199 260.446 63.6897C259.998 64.1697 259.774 64.8683 259.774 65.7857V70.6177H258.334V65.6577C258.334 64.783 258.115 64.1163 257.678 63.6577C257.251 63.1883 256.67 62.9537 255.934 62.9537C255.176 62.9537 254.574 63.199 254.126 63.6897C253.678 64.1697 253.454 64.8683 253.454 65.7857V70.6177H251.998V61.8497H253.454V63.1137C253.742 62.655 254.126 62.303 254.606 62.0577C255.096 61.8123 255.635 61.6897 256.222 61.6897C256.958 61.6897 257.608 61.855 258.174 62.1857C258.739 62.5163 259.16 63.0017 259.438 63.6417C259.683 63.023 260.088 62.543 260.654 62.2017C261.219 61.8603 261.848 61.6897 262.542 61.6897Z" fill="white"/>
<path d="M276.258 61.8497V70.6177H274.802V69.3217C274.525 69.7697 274.135 70.1217 273.634 70.3777C273.143 70.623 272.599 70.7457 272.002 70.7457C271.319 70.7457 270.706 70.607 270.162 70.3297C269.618 70.0417 269.186 69.615 268.866 69.0497C268.557 68.4843 268.402 67.7963 268.402 66.9857V61.8497H269.842V66.7937C269.842 67.6577 270.061 68.3243 270.498 68.7937C270.935 69.2523 271.533 69.4817 272.29 69.4817C273.069 69.4817 273.682 69.2417 274.13 68.7617C274.578 68.2817 274.802 67.583 274.802 66.6657V61.8497H276.258Z" fill="white"/>
<path d="M281.82 70.7617C281.148 70.7617 280.546 70.6497 280.012 70.4257C279.479 70.191 279.058 69.871 278.748 69.4657C278.439 69.0497 278.268 68.575 278.236 68.0417H279.74C279.783 68.479 279.986 68.8363 280.348 69.1137C280.722 69.391 281.207 69.5297 281.804 69.5297C282.359 69.5297 282.796 69.407 283.116 69.1617C283.436 68.9163 283.596 68.607 283.596 68.2337C283.596 67.8497 283.426 67.567 283.084 67.3857C282.743 67.1937 282.215 67.007 281.5 66.8257C280.85 66.655 280.316 66.4843 279.9 66.3137C279.495 66.1323 279.143 65.871 278.844 65.5297C278.556 65.1777 278.412 64.719 278.412 64.1537C278.412 63.7057 278.546 63.295 278.812 62.9217C279.079 62.5483 279.458 62.255 279.948 62.0417C280.439 61.8177 280.999 61.7057 281.628 61.7057C282.599 61.7057 283.383 61.951 283.98 62.4417C284.578 62.9323 284.898 63.6043 284.94 64.4577H283.484C283.452 63.999 283.266 63.631 282.924 63.3537C282.594 63.0763 282.146 62.9377 281.58 62.9377C281.058 62.9377 280.642 63.0497 280.332 63.2737C280.023 63.4977 279.868 63.791 279.868 64.1537C279.868 64.4417 279.959 64.6817 280.14 64.8737C280.332 65.055 280.567 65.2043 280.844 65.3217C281.132 65.4283 281.527 65.551 282.028 65.6897C282.658 65.8603 283.17 66.031 283.564 66.2017C283.959 66.3617 284.295 66.607 284.572 66.9377C284.86 67.2683 285.01 67.7003 285.02 68.2337C285.02 68.7137 284.887 69.1457 284.62 69.5297C284.354 69.9137 283.975 70.2177 283.484 70.4417C283.004 70.655 282.45 70.7617 281.82 70.7617Z" fill="white"/>
<path d="M287.828 60.4257C287.55 60.4257 287.316 60.3297 287.124 60.1377C286.932 59.9457 286.836 59.711 286.836 59.4337C286.836 59.1563 286.932 58.9217 287.124 58.7297C287.316 58.5377 287.55 58.4417 287.828 58.4417C288.094 58.4417 288.318 58.5377 288.5 58.7297C288.692 58.9217 288.788 59.1563 288.788 59.4337C288.788 59.711 288.692 59.9457 288.5 60.1377C288.318 60.3297 288.094 60.4257 287.828 60.4257ZM288.532 61.8497V70.6177H287.076V61.8497H288.532Z" fill="white"/>
<path d="M290.469 66.2177C290.469 65.311 290.651 64.5217 291.013 63.8497C291.376 63.167 291.877 62.639 292.517 62.2657C293.168 61.8923 293.909 61.7057 294.741 61.7057C295.819 61.7057 296.704 61.967 297.397 62.4897C298.101 63.0123 298.565 63.7377 298.789 64.6657H297.221C297.072 64.1323 296.779 63.711 296.341 63.4017C295.915 63.0923 295.381 62.9377 294.741 62.9377C293.909 62.9377 293.237 63.2257 292.725 63.8017C292.213 64.367 291.957 65.1723 291.957 66.2177C291.957 67.2737 292.213 68.0897 292.725 68.6657C293.237 69.2417 293.909 69.5297 294.741 69.5297C295.381 69.5297 295.915 69.3803 296.341 69.0817C296.768 68.783 297.061 68.3563 297.221 67.8017H298.789C298.555 68.6977 298.085 69.4177 297.381 69.9617C296.677 70.495 295.797 70.7617 294.741 70.7617C293.909 70.7617 293.168 70.575 292.517 70.2017C291.877 69.8283 291.376 69.3003 291.013 68.6177C290.651 67.935 290.469 67.135 290.469 66.2177Z" fill="white"/>
<path d="M306.774 63.0497V68.2177C306.774 68.6443 306.864 68.9483 307.046 69.1297C307.227 69.3003 307.542 69.3857 307.99 69.3857H309.062V70.6177H307.75C306.939 70.6177 306.331 70.431 305.926 70.0577C305.52 69.6843 305.318 69.071 305.318 68.2177V63.0497H304.182V61.8497H305.318V59.6417H306.774V61.8497H309.062V63.0497H306.774Z" fill="white"/>
<path d="M314.65 70.7617C313.828 70.7617 313.082 70.575 312.41 70.2017C311.748 69.8283 311.226 69.3003 310.842 68.6177C310.468 67.9243 310.282 67.1243 310.282 66.2177C310.282 65.3217 310.474 64.5323 310.858 63.8497C311.252 63.1563 311.786 62.6283 312.458 62.2657C313.13 61.8923 313.882 61.7057 314.714 61.7057C315.546 61.7057 316.298 61.8923 316.97 62.2657C317.642 62.6283 318.17 63.151 318.554 63.8337C318.948 64.5163 319.146 65.311 319.146 66.2177C319.146 67.1243 318.943 67.9243 318.538 68.6177C318.143 69.3003 317.604 69.8283 316.922 70.2017C316.239 70.575 315.482 70.7617 314.65 70.7617ZM314.65 69.4817C315.172 69.4817 315.663 69.359 316.122 69.1137C316.58 68.8683 316.948 68.5003 317.226 68.0097C317.514 67.519 317.658 66.9217 317.658 66.2177C317.658 65.5137 317.519 64.9163 317.242 64.4257C316.964 63.935 316.602 63.5723 316.154 63.3377C315.706 63.0923 315.22 62.9697 314.698 62.9697C314.164 62.9697 313.674 63.0923 313.226 63.3377C312.788 63.5723 312.436 63.935 312.17 64.4257C311.903 64.9163 311.77 65.5137 311.77 66.2177C311.77 66.9323 311.898 67.535 312.154 68.0257C312.42 68.5163 312.772 68.8843 313.21 69.1297C313.647 69.3643 314.127 69.4817 314.65 69.4817Z" fill="white"/>
<path d="M330.222 70.6177L326.782 66.7457V70.6177H325.326V58.7777H326.782V65.7377L330.158 61.8497H332.19L328.062 66.2177L332.206 70.6177H330.222Z" fill="white"/>
<path d="M341.56 65.8977C341.56 66.175 341.544 66.4683 341.512 66.7777H334.504C334.557 67.6417 334.851 68.319 335.384 68.8097C335.928 69.2897 336.584 69.5297 337.352 69.5297C337.981 69.5297 338.504 69.3857 338.92 69.0977C339.347 68.799 339.645 68.4043 339.816 67.9137H341.384C341.149 68.7563 340.68 69.4443 339.976 69.9777C339.272 70.5003 338.397 70.7617 337.352 70.7617C336.52 70.7617 335.773 70.575 335.112 70.2017C334.461 69.8283 333.949 69.3003 333.576 68.6177C333.203 67.9243 333.016 67.1243 333.016 66.2177C333.016 65.311 333.197 64.5163 333.56 63.8337C333.923 63.151 334.429 62.6283 335.08 62.2657C335.741 61.8923 336.499 61.7057 337.352 61.7057C338.184 61.7057 338.92 61.887 339.56 62.2497C340.2 62.6123 340.691 63.1137 341.032 63.7537C341.384 64.383 341.56 65.0977 341.56 65.8977ZM340.056 65.5937C340.056 65.039 339.933 64.5643 339.688 64.1697C339.443 63.7643 339.107 63.4603 338.68 63.2577C338.264 63.0443 337.8 62.9377 337.288 62.9377C336.552 62.9377 335.923 63.1723 335.4 63.6417C334.888 64.111 334.595 64.7617 334.52 65.5937H340.056Z" fill="white"/>
<path d="M351.482 65.8977C351.482 66.175 351.466 66.4683 351.434 66.7777H344.426C344.479 67.6417 344.773 68.319 345.306 68.8097C345.85 69.2897 346.506 69.5297 347.274 69.5297C347.903 69.5297 348.426 69.3857 348.842 69.0977C349.269 68.799 349.567 68.4043 349.738 67.9137H351.306C351.071 68.7563 350.602 69.4443 349.898 69.9777C349.194 70.5003 348.319 70.7617 347.274 70.7617C346.442 70.7617 345.695 70.575 345.034 70.2017C344.383 69.8283 343.871 69.3003 343.498 68.6177C343.125 67.9243 342.938 67.1243 342.938 66.2177C342.938 65.311 343.119 64.5163 343.482 63.8337C343.845 63.151 344.351 62.6283 345.002 62.2657C345.663 61.8923 346.421 61.7057 347.274 61.7057C348.106 61.7057 348.842 61.887 349.482 62.2497C350.122 62.6123 350.613 63.1137 350.954 63.7537C351.306 64.383 351.482 65.0977 351.482 65.8977ZM349.978 65.5937C349.978 65.039 349.855 64.5643 349.61 64.1697C349.365 63.7643 349.029 63.4603 348.602 63.2577C348.186 63.0443 347.722 62.9377 347.21 62.9377C346.474 62.9377 345.845 63.1723 345.322 63.6417C344.81 64.111 344.517 64.7617 344.442 65.5937H349.978Z" fill="white"/>
<path d="M354.86 63.4657C355.148 62.9643 355.575 62.5483 356.14 62.2177C356.716 61.8763 357.383 61.7057 358.14 61.7057C358.919 61.7057 359.623 61.8923 360.252 62.2657C360.892 62.639 361.393 63.167 361.756 63.8497C362.119 64.5217 362.3 65.3057 362.3 66.2017C362.3 67.087 362.119 67.8763 361.756 68.5697C361.393 69.263 360.892 69.8017 360.252 70.1857C359.623 70.5697 358.919 70.7617 358.14 70.7617C357.393 70.7617 356.732 70.5963 356.156 70.2657C355.591 69.9243 355.159 69.503 354.86 69.0017V74.7777H353.404V61.8497H354.86V63.4657ZM360.812 66.2017C360.812 65.5403 360.679 64.9643 360.412 64.4737C360.145 63.983 359.783 63.6097 359.324 63.3537C358.876 63.0977 358.38 62.9697 357.836 62.9697C357.303 62.9697 356.807 63.103 356.348 63.3697C355.9 63.6257 355.537 64.0043 355.26 64.5057C354.993 64.9963 354.86 65.567 354.86 66.2177C354.86 66.879 354.993 67.4603 355.26 67.9617C355.537 68.4523 355.9 68.831 356.348 69.0977C356.807 69.3537 357.303 69.4817 357.836 69.4817C358.38 69.4817 358.876 69.3537 359.324 69.0977C359.783 68.831 360.145 68.4523 360.412 67.9617C360.679 67.4603 360.812 66.8737 360.812 66.2017Z" fill="white"/>
<path d="M376.034 61.8497L370.754 74.7457H369.25L370.978 70.5217L367.442 61.8497H369.058L371.81 68.9537L374.53 61.8497H376.034Z" fill="white"/>
<path d="M381.322 70.7617C380.5 70.7617 379.754 70.575 379.082 70.2017C378.42 69.8283 377.898 69.3003 377.514 68.6177C377.14 67.9243 376.954 67.1243 376.954 66.2177C376.954 65.3217 377.146 64.5323 377.53 63.8497C377.924 63.1563 378.458 62.6283 379.13 62.2657C379.802 61.8923 380.554 61.7057 381.386 61.7057C382.218 61.7057 382.97 61.8923 383.642 62.2657C384.314 62.6283 384.842 63.151 385.226 63.8337C385.62 64.5163 385.818 65.311 385.818 66.2177C385.818 67.1243 385.615 67.9243 385.21 68.6177C384.815 69.3003 384.276 69.8283 383.594 70.2017C382.911 70.575 382.154 70.7617 381.322 70.7617ZM381.322 69.4817C381.844 69.4817 382.335 69.359 382.794 69.1137C383.252 68.8683 383.62 68.5003 383.898 68.0097C384.186 67.519 384.33 66.9217 384.33 66.2177C384.33 65.5137 384.191 64.9163 383.914 64.4257C383.636 63.935 383.274 63.5723 382.826 63.3377C382.378 63.0923 381.892 62.9697 381.37 62.9697C380.836 62.9697 380.346 63.0923 379.898 63.3377C379.46 63.5723 379.108 63.935 378.842 64.4257C378.575 64.9163 378.442 65.5137 378.442 66.2177C378.442 66.9323 378.57 67.535 378.826 68.0257C379.092 68.5163 379.444 68.8843 379.882 69.1297C380.319 69.3643 380.799 69.4817 381.322 69.4817Z" fill="white"/>
<path d="M395.508 61.8497V70.6177H394.052V69.3217C393.775 69.7697 393.385 70.1217 392.884 70.3777C392.393 70.623 391.849 70.7457 391.252 70.7457C390.569 70.7457 389.956 70.607 389.412 70.3297C388.868 70.0417 388.436 69.615 388.116 69.0497C387.807 68.4843 387.652 67.7963 387.652 66.9857V61.8497H389.092V66.7937C389.092 67.6577 389.311 68.3243 389.748 68.7937C390.185 69.2523 390.783 69.4817 391.54 69.4817C392.319 69.4817 392.932 69.2417 393.38 68.7617C393.828 68.2817 394.052 67.583 394.052 66.6657V61.8497H395.508Z" fill="white"/>
<path d="M399.422 63.2737C399.678 62.7723 400.041 62.383 400.51 62.1057C400.99 61.8283 401.572 61.6897 402.254 61.6897V63.1937H401.87C400.238 63.1937 399.422 64.079 399.422 65.8497V70.6177H397.966V61.8497H399.422V63.2737Z" fill="white"/>
<path d="M418.745 61.6897C419.427 61.6897 420.035 61.8337 420.569 62.1217C421.102 62.399 421.523 62.8203 421.833 63.3857C422.142 63.951 422.297 64.639 422.297 65.4497V70.6177H420.857V65.6577C420.857 64.783 420.638 64.1163 420.201 63.6577C419.774 63.1883 419.193 62.9537 418.457 62.9537C417.699 62.9537 417.097 63.199 416.649 63.6897C416.201 64.1697 415.977 64.8683 415.977 65.7857V70.6177H414.537V65.6577C414.537 64.783 414.318 64.1163 413.881 63.6577C413.454 63.1883 412.873 62.9537 412.137 62.9537C411.379 62.9537 410.777 63.199 410.329 63.6897C409.881 64.1697 409.657 64.8683 409.657 65.7857V70.6177H408.201V61.8497H409.657V63.1137C409.945 62.655 410.329 62.303 410.809 62.0577C411.299 61.8123 411.838 61.6897 412.425 61.6897C413.161 61.6897 413.811 61.855 414.377 62.1857C414.942 62.5163 415.363 63.0017 415.641 63.6417C415.886 63.023 416.291 62.543 416.857 62.2017C417.422 61.8603 418.051 61.6897 418.745 61.6897Z" fill="white"/>
<path d="M428.509 70.7617C427.688 70.7617 426.941 70.575 426.269 70.2017C425.608 69.8283 425.085 69.3003 424.701 68.6177C424.328 67.9243 424.141 67.1243 424.141 66.2177C424.141 65.3217 424.333 64.5323 424.717 63.8497C425.112 63.1563 425.645 62.6283 426.317 62.2657C426.989 61.8923 427.741 61.7057 428.573 61.7057C429.405 61.7057 430.157 61.8923 430.829 62.2657C431.501 62.6283 432.029 63.151 432.413 63.8337C432.808 64.5163 433.005 65.311 433.005 66.2177C433.005 67.1243 432.802 67.9243 432.397 68.6177C432.002 69.3003 431.464 69.8283 430.781 70.2017C430.098 70.575 429.341 70.7617 428.509 70.7617ZM428.509 69.4817C429.032 69.4817 429.522 69.359 429.981 69.1137C430.44 68.8683 430.808 68.5003 431.085 68.0097C431.373 67.519 431.517 66.9217 431.517 66.2177C431.517 65.5137 431.378 64.9163 431.101 64.4257C430.824 63.935 430.461 63.5723 430.013 63.3377C429.565 63.0923 429.08 62.9697 428.557 62.9697C428.024 62.9697 427.533 63.0923 427.085 63.3377C426.648 63.5723 426.296 63.935 426.029 64.4257C425.762 64.9163 425.629 65.5137 425.629 66.2177C425.629 66.9323 425.757 67.535 426.013 68.0257C426.28 68.5163 426.632 68.8843 427.069 69.1297C427.506 69.3643 427.986 69.4817 428.509 69.4817Z" fill="white"/>
<path d="M438.744 70.7617C437.922 70.7617 437.176 70.575 436.504 70.2017C435.842 69.8283 435.319 69.3003 434.935 68.6177C434.562 67.9243 434.375 67.1243 434.375 66.2177C434.375 65.3217 434.568 64.5323 434.952 63.8497C435.346 63.1563 435.879 62.6283 436.551 62.2657C437.223 61.8923 437.976 61.7057 438.808 61.7057C439.64 61.7057 440.392 61.8923 441.064 62.2657C441.736 62.6283 442.263 63.151 442.647 63.8337C443.042 64.5163 443.24 65.311 443.24 66.2177C443.24 67.1243 443.037 67.9243 442.632 68.6177C442.237 69.3003 441.698 69.8283 441.016 70.2017C440.333 70.575 439.576 70.7617 438.744 70.7617ZM438.744 69.4817C439.266 69.4817 439.757 69.359 440.215 69.1137C440.674 68.8683 441.042 68.5003 441.319 68.0097C441.607 67.519 441.752 66.9217 441.752 66.2177C441.752 65.5137 441.613 64.9163 441.335 64.4257C441.058 63.935 440.696 63.5723 440.248 63.3377C439.8 63.0923 439.314 62.9697 438.792 62.9697C438.258 62.9697 437.767 63.0923 437.319 63.3377C436.882 63.5723 436.53 63.935 436.263 64.4257C435.997 64.9163 435.864 65.5137 435.864 66.2177C435.864 66.9323 435.992 67.535 436.248 68.0257C436.514 68.5163 436.866 68.8843 437.304 69.1297C437.741 69.3643 438.221 69.4817 438.744 69.4817Z" fill="white"/>
<path d="M444.61 66.2017C444.61 65.3057 444.791 64.5217 445.154 63.8497C445.517 63.167 446.013 62.639 446.642 62.2657C447.282 61.8923 447.997 61.7057 448.786 61.7057C449.469 61.7057 450.103 61.8657 450.69 62.1857C451.277 62.495 451.725 62.9057 452.034 63.4177V58.7777H453.506V70.6177H452.034V68.9697C451.746 69.4923 451.319 69.9243 450.754 70.2657C450.189 70.5963 449.527 70.7617 448.77 70.7617C447.991 70.7617 447.282 70.5697 446.642 70.1857C446.013 69.8017 445.517 69.263 445.154 68.5697C444.791 67.8763 444.61 67.087 444.61 66.2017ZM452.034 66.2177C452.034 65.5563 451.901 64.9803 451.634 64.4897C451.367 63.999 451.005 63.6257 450.546 63.3697C450.098 63.103 449.602 62.9697 449.058 62.9697C448.514 62.9697 448.018 63.0977 447.57 63.3537C447.122 63.6097 446.765 63.983 446.498 64.4737C446.231 64.9643 446.098 65.5403 446.098 66.2017C446.098 66.8737 446.231 67.4603 446.498 67.9617C446.765 68.4523 447.122 68.831 447.57 69.0977C448.018 69.3537 448.514 69.4817 449.058 69.4817C449.602 69.4817 450.098 69.3537 450.546 69.0977C451.005 68.831 451.367 68.4523 451.634 67.9617C451.901 67.4603 452.034 66.879 452.034 66.2177Z" fill="white"/>
</g>
<g filter="url(#filter2_d_3_390)">
<path fill-rule="evenodd" clip-rule="evenodd" d="M172.445 28.0156C172.468 27.6602 172.379 27.3271 172.179 27.0161C172.001 26.683 171.746 26.4498 171.413 26.3165C171.102 26.1832 170.835 26.0833 170.613 26.0167C170.48 25.9944 170.335 25.9944 170.18 26.0167C170.047 26.0167 169.902 26.0389 169.747 26.0833C169.636 26.1055 169.536 26.1499 169.447 26.2166C169.38 26.261 169.291 26.3276 169.18 26.4164C169.025 26.5719 168.847 26.7829 168.647 27.0495C168.603 27.1383 168.558 27.216 168.514 27.2827C168.47 27.3493 168.425 27.427 168.381 27.5159C168.159 27.849 167.959 28.2155 167.781 28.6153C167.626 29.0151 167.459 29.4038 167.281 29.7814C167.126 30.0923 166.97 30.4144 166.815 30.7475C166.682 31.0807 166.526 31.425 166.349 31.7803L164.616 35.4451C164.172 34.5122 163.728 33.5572 163.283 32.5799C162.839 31.6026 162.406 30.6698 161.984 29.7814C161.784 29.2705 161.573 28.7708 161.351 28.2821C161.129 27.7935 160.829 27.3493 160.452 26.9495C160.274 26.7274 160.041 26.5497 159.752 26.4164C159.463 26.2832 159.152 26.2166 158.819 26.2166C158.508 26.1943 158.208 26.261 157.92 26.4164C157.631 26.5497 157.398 26.7829 157.22 27.1161C157.042 27.3826 156.942 27.6491 156.92 27.9157C156.898 28.1822 156.92 28.4487 156.987 28.7153C157.053 28.9596 157.142 29.215 157.253 29.4815C157.364 29.7258 157.486 29.959 157.62 30.1812C157.975 30.8475 158.33 31.5471 158.686 32.2801C159.041 33.013 159.385 33.7682 159.719 34.5455C160.052 35.3007 160.374 36.067 160.685 36.8444C161.018 37.5995 161.329 38.3214 161.618 39.0099C161.706 39.2098 161.806 39.443 161.918 39.7095L162.251 40.4425L159.819 45.7064C159.774 45.7064 159.719 45.7952 159.652 45.9729C159.608 46.0396 159.574 46.1284 159.552 46.2395C159.53 46.3505 159.497 46.4616 159.452 46.5726L159.385 46.9058C159.385 47.039 159.374 47.1723 159.352 47.3056C159.352 47.6165 159.397 47.8719 159.485 48.0718C159.641 48.3606 159.852 48.5827 160.118 48.7382C160.563 49.1379 161.085 49.3156 161.684 49.2712C162.017 49.249 162.328 49.1046 162.617 48.8381C162.928 48.5938 163.161 48.3384 163.317 48.0718L163.45 47.7387C163.517 47.6498 163.583 47.5499 163.65 47.4388C163.961 46.8836 164.239 46.3283 164.483 45.773C164.749 45.2178 165.027 44.6514 165.316 44.0739L166.915 40.6424C167.026 40.4647 167.115 40.2981 167.181 40.1426C167.248 39.9649 167.326 39.7873 167.415 39.6096C167.726 38.9655 168.037 38.3103 168.347 37.6439C168.681 36.9554 169.025 36.2558 169.38 35.545C169.736 34.8121 170.058 34.1235 170.346 33.4794C170.635 32.8353 170.935 32.169 171.246 31.4805L171.313 31.3139L171.513 30.9141C171.601 30.7364 171.679 30.5476 171.746 30.3477C171.835 30.1478 171.912 29.959 171.979 29.7814C172.068 29.6037 172.134 29.4593 172.179 29.3483C172.357 28.9707 172.445 28.5265 172.445 28.0156ZM214.673 37.5492C214.722 38.3266 214.746 39.0675 214.746 39.772C214.746 40.4522 214.722 41.181 214.673 41.9584V42.9422C214.673 43.3066 214.649 43.6589 214.601 43.999C214.552 44.3391 214.467 44.6549 214.345 44.9464C214.224 45.2379 214.042 45.4687 213.799 45.6387C213.507 45.8331 213.179 45.9667 212.815 46.0396C212.451 46.0882 212.111 46.0639 211.795 45.9667C211.479 45.8695 211.2 45.6873 210.957 45.4201C210.738 45.1529 210.617 44.7763 210.592 44.2905C210.519 43.173 210.483 42.0555 210.483 40.9381C210.483 40.3793 210.471 39.8449 210.446 39.3347C210.446 38.8246 210.459 38.1079 210.483 37.1848C210.483 36.7232 210.446 36.2009 210.374 35.6179C210.301 35.0106 210.119 34.5855 209.827 34.3425C209.608 34.1482 209.365 34.0389 209.098 34.0146C208.831 33.966 208.564 33.9903 208.297 34.0875C208.054 34.1846 207.835 34.3668 207.641 34.6341C207.446 34.877 207.313 35.1928 207.24 35.5815C207.24 35.8973 207.228 36.2252 207.203 36.5653C207.203 36.8811 207.216 37.1848 207.24 37.4763C207.264 38.2537 207.276 38.9946 207.276 39.6991C207.276 40.3793 207.264 41.1081 207.24 41.8855C207.216 42.2013 207.203 42.5414 207.203 42.9058C207.228 43.2702 207.228 43.6346 207.203 43.999C207.179 44.3391 207.106 44.6549 206.985 44.9464C206.888 45.2379 206.705 45.4687 206.438 45.6387C206.147 45.8331 205.831 45.9545 205.491 46.0031C205.175 46.0274 204.871 45.9788 204.58 45.8574C204.313 45.7116 204.07 45.493 203.851 45.2015C203.657 44.9099 203.547 44.5213 203.523 44.0354C203.474 43.4767 203.438 42.9665 203.414 42.505V40.9745C203.414 40.4158 203.426 39.8449 203.45 39.2618C203.474 38.6545 203.462 38.0715 203.414 37.5128C203.414 37.3427 203.402 37.1484 203.377 36.9297C203.377 36.6868 203.365 36.4439 203.341 36.2009C203.341 35.958 203.316 35.7272 203.268 35.5086C203.244 35.2657 203.195 35.0713 203.122 34.9256C202.928 34.5855 202.576 34.3668 202.065 34.2697C201.58 34.1725 201.167 34.2089 200.826 34.379C200.486 34.549 200.231 34.7677 200.061 35.0349C199.891 35.3021 199.77 35.5936 199.697 35.9094C199.624 36.2252 199.588 36.5653 199.588 36.9297V37.9136V42.0312C199.612 43.173 199.49 44.0961 199.223 44.8006C199.102 45.165 198.847 45.4444 198.458 45.6387C198.094 45.8331 197.693 45.9303 197.255 45.9303C196.842 45.9303 196.454 45.8331 196.089 45.6387C195.725 45.4444 195.482 45.1407 195.361 44.7278C195.288 44.4605 195.215 44.084 195.142 43.5981C195.093 43.088 195.057 42.5292 195.033 41.9219C195.008 41.3146 194.996 40.7073 194.996 40.1V38.3873V33.14C194.972 32.5813 194.96 31.974 194.96 31.3181C194.96 30.6622 195.057 30.067 195.251 29.5325C195.421 29.071 195.689 28.7795 196.053 28.658C196.417 28.5122 196.794 28.4515 197.183 28.4758C197.62 28.4758 197.96 28.5973 198.203 28.8402C198.47 29.0588 198.664 29.3382 198.786 29.6783C198.907 29.9941 198.98 30.3585 199.005 30.7715C199.029 31.1602 199.053 31.5367 199.077 31.9011C199.345 31.2938 199.66 30.7958 200.025 30.4071C200.413 29.9941 200.96 29.7269 201.665 29.6054C203.462 29.2653 204.896 29.7269 205.964 30.9901C206.45 30.5043 207.07 30.1034 207.823 29.7876C208.406 29.569 209.001 29.4718 209.608 29.4961C210.216 29.4961 210.787 29.6054 211.321 29.8241C211.88 30.0427 212.378 30.3585 212.815 30.7715C213.277 31.1845 213.641 31.6825 213.908 32.2655C214.273 33.0429 214.479 33.9053 214.528 34.8527C214.576 35.8001 214.625 36.6989 214.673 37.5492ZM179.412 29.569C180.213 29.1803 181.051 28.9009 181.926 28.7309C182.8 28.5608 183.663 28.5244 184.513 28.6216C185.388 28.7187 186.226 28.9495 187.027 29.3139C187.853 29.6783 188.606 30.1884 189.287 30.8444C189.845 31.4031 190.331 32.0833 190.744 32.885C191.157 33.6623 191.461 34.4276 191.655 35.1806C192.068 36.5168 192.129 37.865 191.837 39.2254C191.546 40.5858 191.048 41.849 190.343 43.0151C190.003 43.5495 189.578 44.0354 189.068 44.4727C188.582 44.8857 188.06 45.2258 187.501 45.493C186.772 45.8331 185.983 46.0639 185.132 46.1853C184.282 46.3311 183.456 46.3675 182.655 46.2946C181.197 46.2218 179.91 45.8574 178.792 45.2015C177.699 44.5456 176.812 43.7075 176.132 42.6872C175.476 41.6668 175.039 40.5129 174.82 39.2254C174.626 37.9136 174.711 36.5775 175.075 35.2171C175.464 33.7595 176.023 32.5813 176.751 31.6825C177.505 30.7593 178.391 30.0548 179.412 29.569ZM180.505 34.4519C180.14 34.792 179.861 35.2171 179.667 35.7272C179.472 36.2374 179.351 36.7718 179.302 37.3306C179.254 37.865 179.29 38.4116 179.412 38.9703C179.557 39.5048 179.776 39.9906 180.067 40.4279C180.31 40.7923 180.748 41.096 181.379 41.3389C182.011 41.5818 182.667 41.7276 183.347 41.7762C184.124 41.8248 184.805 41.6183 185.388 41.1567C185.971 40.6708 186.408 40.0757 186.699 39.3712C187.015 38.6667 187.161 37.9014 187.137 37.0755C187.112 36.2495 186.894 35.4964 186.481 34.8162C186.189 34.3304 185.776 33.9781 185.242 33.7595C184.732 33.5166 184.185 33.3951 183.602 33.3951C183.043 33.3708 182.485 33.4558 181.926 33.6502C181.367 33.8202 180.893 34.0875 180.505 34.4519ZM231.145 40.9016C230.853 40.9259 230.562 40.9745 230.27 41.0474C229.469 41.2903 228.691 41.5089 227.938 41.7033C227.185 41.8733 226.396 41.9341 225.57 41.8855C225.132 41.8612 224.683 41.7883 224.221 41.6668C223.76 41.5454 223.347 41.3753 222.982 41.1567C222.618 40.9138 222.327 40.6223 222.108 40.2822C221.914 39.9178 221.853 39.4926 221.926 39.0068C222.63 39.0311 223.262 39.0554 223.821 39.0797C224.404 39.0797 224.962 39.0918 225.497 39.1161H227.064C227.574 39.1161 228.12 39.1039 228.703 39.0797C229.359 39.0554 229.918 39.0311 230.38 39.0068C230.866 38.9582 231.278 38.8732 231.619 38.7517C231.959 38.6302 232.238 38.448 232.457 38.2051C232.675 37.9622 232.858 37.6221 233.003 37.1848C233.1 36.9176 233.161 36.6139 233.185 36.2738C233.21 35.9337 233.21 35.5936 233.185 35.2535C233.161 34.8891 233.113 34.549 233.04 34.2332C232.991 33.9174 232.918 33.6502 232.821 33.4316C232.481 32.557 231.983 31.8161 231.327 31.2088C230.671 30.5771 229.93 30.0791 229.104 29.7147C227.865 29.156 226.566 28.8888 225.205 28.9131C223.845 28.9374 222.618 29.2653 221.525 29.8969C220.626 30.4314 219.849 31.148 219.193 32.0469C218.561 32.9214 218.112 34.0632 217.845 35.4722C217.602 36.6382 217.541 37.8772 217.662 39.189C217.784 40.5008 218.16 41.6911 218.792 42.76C219.472 43.8532 220.407 44.6427 221.598 45.1286C222.812 45.5901 224.076 45.8452 225.387 45.8938C226.359 45.9424 227.294 45.8817 228.193 45.7116C229.116 45.5416 229.93 45.2986 230.635 44.9828C230.878 44.8857 231.133 44.7642 231.4 44.6184C231.667 44.4484 231.91 44.254 232.129 44.0354C232.347 43.8168 232.53 43.5738 232.675 43.3066C232.821 43.0394 232.894 42.76 232.894 42.4685C232.894 42.0555 232.809 41.7397 232.639 41.5211C232.469 41.2782 232.25 41.1081 231.983 41.0109C231.74 40.9138 231.461 40.8773 231.145 40.9016ZM227.246 32.8121C227.756 33.055 228.242 33.4437 228.703 33.9781C228.946 34.2454 229.116 34.5004 229.214 34.7434C229.311 34.962 229.371 35.2414 229.396 35.5815H222.254C222.156 35.5815 222.132 35.4964 222.181 35.3264C222.229 35.1563 222.302 34.9742 222.399 34.7798C222.521 34.5855 222.642 34.4033 222.764 34.2332C222.885 34.0389 222.97 33.9174 223.019 33.8688C223.505 33.3101 224.1 32.9457 224.804 32.7756C225.193 32.6542 225.594 32.5934 226.007 32.5934C226.444 32.5692 226.857 32.642 227.246 32.8121Z" fill="#FFD232"/>
</g>
</g>
<defs>
<filter id="filter0_d_3_390" x="96.8125" y="30.8179" width="47.375" height="47.3696" filterUnits="userSpaceOnUse" color-interpolation-filters="sRGB">
<feFlood flood-opacity="0" result="BackgroundImageFix"/>
<feColorMatrix in="SourceAlpha" type="matrix" values="0 0 0 0 0 0 0 0 0 0 0 0 0 0 0 0 0 0 127 0" result="hardAlpha"/>
<feOffset dx="4" dy="4"/>
<feGaussianBlur stdDeviation="2"/>
<feComposite in2="hardAlpha" operator="out"/>
<feColorMatrix type="matrix" values="0 0 0 0 0 0 0 0 0 0 0 0 0 0 0 0 0 0 0.25 0"/>
<feBlend mode="normal" in2="BackgroundImageFix" result="effect1_dropShadow_3_390"/>
<feBlend mode="normal" in="SourceGraphic" in2="effect1_dropShadow_3_390" result="shape"/>
</filter>
<filter id="filter1_d_3_390" x="157.232" y="58.4417" width="304.274" height="24.496" filterUnits="userSpaceOnUse" color-interpolation-filters="sRGB">
<feFlood flood-opacity="0" result="BackgroundImageFix"/>
<feColorMatrix in="SourceAlpha" type="matrix" values="0 0 0 0 0 0 0 0 0 0 0 0 0 0 0 0 0 0 127 0" result="hardAlpha"/>
<feOffset dx="4" dy="4"/>
<feGaussianBlur stdDeviation="2"/>
<feComposite in2="hardAlpha" operator="out"/>
<feColorMatrix type="matrix" values="0 0 0 0 0 0 0 0 0 0 0 0 0 0 0 0 0 0 0.25 0"/>
<feBlend mode="normal" in2="BackgroundImageFix" result="effect1_dropShadow_3_390"/>
<feBlend mode="normal" in="SourceGraphic" in2="effect1_dropShadow_3_390" result="shape"/>
</filter>
<filter id="filter2_d_3_390" x="156.912" y="26" width="84.2919" height="31.2779" filterUnits="userSpaceOnUse" color-interpolation-filters="sRGB">
<feFlood flood-opacity="0" result="BackgroundImageFix"/>
<feColorMatrix in="SourceAlpha" type="matrix" values="0 0 0 0 0 0 0 0 0 0 0 0 0 0 0 0 0 0 127 0" result="hardAlpha"/>
<feOffset dx="4" dy="4"/>
<feGaussianBlur stdDeviation="2"/>
<feComposite in2="hardAlpha" operator="out"/>
<feColorMatrix type="matrix" values="0 0 0 0 0 0 0 0 0 0 0 0 0 0 0 0 0 0 0.25 0"/>
<feBlend mode="normal" in2="BackgroundImageFix" result="effect1_dropShadow_3_390"/>
<feBlend mode="normal" in="SourceGraphic" in2="effect1_dropShadow_3_390" result="shape"/>
</filter>
<clipPath id="clip0_3_390">
<rect width="872" height="100" fill="white"/>
</clipPath>
</defs>
</svg>
