<svg width="819" height="584" viewBox="0 0 819 584" fill="none" xmlns="http://www.w3.org/2000/svg">
<g clip-path="url(#clip0_102_232)">
<rect y="37" width="797" height="566" fill="url(#paint0_radial_102_232)"/>
<g opacity="0.2">
<path d="M344.838 171.187H327.486V177.498H344.838V171.187Z" fill="black"/>
<path d="M344.838 162.246H327.486V168.558H344.838V162.246Z" fill="black"/>
<path d="M344.838 153.306H327.486V159.617H344.838V153.306Z" fill="black"/>
<path d="M344.838 144.371H327.486V150.683H344.838V144.371Z" fill="black"/>
<path d="M389.806 171.187H372.454V177.498H389.806V171.187Z" fill="black"/>
<path d="M389.806 162.246H372.454V168.558H389.806V162.246Z" fill="black"/>
<path d="M299.876 171.187H282.524V177.498H299.876V171.187Z" fill="black"/>
<path d="M299.876 162.246H282.524V168.558H299.876V162.246Z" fill="black"/>
<path d="M322.357 171.187H305.005V177.498H322.357V171.187Z" fill="black"/>
<path d="M322.357 162.246H305.005V168.558H322.357V162.246Z" fill="black"/>
<path d="M322.357 153.306H305.005V159.617H322.357V153.306Z" fill="black"/>
<path d="M322.357 144.371H305.005V150.683H322.357V144.371Z" fill="black"/>
<path d="M322.357 135.431H305.005V141.742H322.357V135.431Z" fill="black"/>
<path d="M322.357 126.49H305.005V132.802H322.357V126.49Z" fill="black"/>
<path d="M322.357 117.549H305.005V123.861H322.357V117.549Z" fill="black"/>
<path d="M367.319 171.187H349.967V177.498H367.319V171.187Z" fill="black"/>
<path d="M367.319 162.246H349.967V168.558H367.319V162.246Z" fill="black"/>
<path d="M367.319 153.306H349.967V159.617H367.319V153.306Z" fill="black"/>
<path d="M367.319 144.371H349.967V150.683H367.319V144.371Z" fill="black"/>
<path d="M367.319 135.431H349.967V141.742H367.319V135.431Z" fill="black"/>
<path d="M367.319 126.49H349.967V132.802H367.319V126.49Z" fill="black"/>
<path d="M457.1 171.187H439.748V177.498H457.1V171.187Z" fill="black"/>
<path d="M457.1 162.246H439.748V168.558H457.1V162.246Z" fill="black"/>
<path d="M457.1 153.306H439.748V159.617H457.1V153.306Z" fill="black"/>
<path d="M457.1 144.371H439.748V150.683H457.1V144.371Z" fill="black"/>
<path d="M502.062 171.187H484.71V177.498H502.062V171.187Z" fill="black"/>
<path d="M502.062 162.246H484.71V168.558H502.062V162.246Z" fill="black"/>
<path d="M412.138 171.187H394.787V177.498H412.138V171.187Z" fill="black"/>
<path d="M412.138 162.246H394.787V168.558H412.138V162.246Z" fill="black"/>
<path d="M434.619 171.187H417.267V177.498H434.619V171.187Z" fill="black"/>
<path d="M434.619 162.246H417.267V168.558H434.619V162.246Z" fill="black"/>
<path d="M434.619 153.306H417.267V159.617H434.619V153.306Z" fill="black"/>
<path d="M434.619 144.371H417.267V150.683H434.619V144.371Z" fill="black"/>
<path d="M434.619 135.431H417.267V141.742H434.619V135.431Z" fill="black"/>
<path d="M434.619 126.49H417.267V132.802H434.619V126.49Z" fill="black"/>
<path d="M434.619 117.549H417.267V123.861H434.619V117.549Z" fill="black"/>
<path d="M479.581 171.187H462.229V177.498H479.581V171.187Z" fill="black"/>
<path d="M344.838 180.076H327.486V186.387H344.838V180.076Z" fill="black"/>
<path d="M389.806 180.076H372.454V186.387H389.806V180.076Z" fill="black"/>
<path d="M299.876 180.076H282.524V186.387H299.876V180.076Z" fill="black"/>
<path d="M322.357 180.076H305.005V186.387H322.357V180.076Z" fill="black"/>
<path d="M367.319 180.076H349.967V186.387H367.319V180.076Z" fill="black"/>
<path d="M457.1 180.076H439.748V186.387H457.1V180.076Z" fill="black"/>
<path d="M502.062 180.076H484.71V186.387H502.062V180.076Z" fill="black"/>
<path d="M412.138 180.076H394.787V186.387H412.138V180.076Z" fill="black"/>
<path d="M434.619 180.076H417.267V186.387H434.619V180.076Z" fill="black"/>
<path d="M479.581 180.076H462.229V186.387H479.581V180.076Z" fill="black"/>
<path d="M344.838 188.958H327.486V195.27H344.838V188.958Z" fill="black"/>
<path d="M389.806 188.958H372.454V195.27H389.806V188.958Z" fill="black"/>
<path d="M299.876 188.958H282.524V195.27H299.876V188.958Z" fill="black"/>
<path d="M322.357 188.958H305.005V195.27H322.357V188.958Z" fill="black"/>
<path d="M367.319 188.958H349.967V195.27H367.319V188.958Z" fill="black"/>
<path d="M457.1 188.958H439.748V195.27H457.1V188.958Z" fill="black"/>
<path d="M502.062 188.958H484.71V195.27H502.062V188.958Z" fill="black"/>
<path d="M412.138 188.958H394.787V195.27H412.138V188.958Z" fill="black"/>
<path d="M434.619 188.958H417.267V195.27H434.619V188.958Z" fill="black"/>
<path d="M479.581 188.958H462.229V195.27H479.581V188.958Z" fill="black"/>
<path d="M344.838 197.848H327.486V204.159H344.838V197.848Z" fill="black"/>
<path d="M389.806 197.848H372.454V204.159H389.806V197.848Z" fill="black"/>
<path d="M299.876 197.848H282.524V204.159H299.876V197.848Z" fill="black"/>
<path d="M322.357 197.848H305.005V204.159H322.357V197.848Z" fill="black"/>
<path d="M367.319 197.848H349.967V204.159H367.319V197.848Z" fill="black"/>
<path d="M457.1 197.848H439.748V204.159H457.1V197.848Z" fill="black"/>
<path d="M502.062 197.848H484.71V204.159H502.062V197.848Z" fill="black"/>
<path d="M412.138 197.848H394.787V204.159H412.138V197.848Z" fill="black"/>
<path d="M434.619 197.848H417.267V204.159H434.619V197.848Z" fill="black"/>
<path d="M479.581 197.848H462.229V204.159H479.581V197.848Z" fill="black"/>
<path d="M479.581 162.246H462.229V168.558H479.581V162.246Z" fill="black"/>
<path d="M479.581 153.306H462.229V159.617H479.581V153.306Z" fill="black"/>
<path d="M479.581 144.371H462.229V150.683H479.581V144.371Z" fill="black"/>
<path d="M479.581 135.431H462.229V141.742H479.581V135.431Z" fill="black"/>
<path d="M479.581 126.49H462.229V132.802H479.581V126.49Z" fill="black"/>
</g>
<path d="M508.037 249.528C503.889 249.529 499.834 250.76 496.386 253.066C492.937 255.372 490.25 258.648 488.663 262.481C487.076 266.314 486.662 270.531 487.472 274.6C488.282 278.668 490.28 282.405 493.214 285.338C496.148 288.271 499.885 290.268 503.954 291.077C508.023 291.885 512.24 291.47 516.072 289.882C519.905 288.294 523.18 285.606 525.485 282.156C527.79 278.707 529.02 274.652 529.02 270.503C529.02 267.748 528.477 265.02 527.422 262.475C526.368 259.93 524.822 257.617 522.874 255.669C520.925 253.721 518.612 252.176 516.066 251.123C513.521 250.069 510.792 249.527 508.037 249.528ZM508.037 278.094C506.536 278.094 505.069 277.649 503.82 276.815C502.572 275.981 501.599 274.795 501.025 273.408C500.45 272.021 500.3 270.495 500.593 269.023C500.886 267.55 501.609 266.198 502.67 265.136C503.732 264.075 505.084 263.352 506.557 263.059C508.029 262.766 509.555 262.916 510.942 263.491C512.329 264.065 513.515 265.038 514.349 266.286C515.183 267.535 515.628 269.002 515.628 270.503C515.628 272.517 514.828 274.447 513.405 275.871C511.981 277.294 510.051 278.094 508.037 278.094Z" fill="#263238"/>
<path d="M492.055 223.804C491.588 226.17 491.653 228.611 492.245 230.95C492.837 233.288 493.942 235.466 495.479 237.325M507.624 210.684C504.653 210.761 501.759 211.649 499.256 213.251C496.752 214.853 494.734 217.108 493.418 219.773M523.903 230.755C524.788 227.03 524.336 223.113 522.625 219.688C520.913 216.263 518.053 213.549 514.543 212.021M500.382 241.356C504.057 243.3 508.334 243.772 512.344 242.673C516.354 241.575 519.794 238.99 521.965 235.445M503.606 230.865C502.836 229.988 502.343 228.903 502.19 227.746C502.037 226.59 502.231 225.414 502.746 224.367C503.262 223.32 504.076 222.45 505.086 221.866C506.097 221.283 507.257 221.012 508.421 221.087C509.586 221.163 510.701 221.583 511.627 222.293C512.553 223.003 513.247 223.972 513.622 225.076C513.997 226.181 514.037 227.372 513.735 228.499C513.433 229.626 512.803 230.638 511.926 231.407C510.751 232.438 509.214 232.96 507.654 232.858C506.093 232.757 504.637 232.04 503.606 230.865Z" stroke="#263238" stroke-miterlimit="10"/>
<path d="M517.172 216.42C514.789 214.357 511.777 213.161 508.628 213.027C505.478 212.893 502.376 213.829 499.826 215.682C497.277 217.536 495.429 220.197 494.585 223.234C493.74 226.272 493.948 229.505 495.175 232.409M498.406 237.086C500.839 239.41 504.03 240.777 507.391 240.935C510.752 241.094 514.058 240.033 516.699 237.948C519.34 235.862 521.139 232.894 521.765 229.587C522.39 226.281 521.801 222.86 520.105 219.954M508.037 232.047C507.038 232.047 506.062 231.751 505.231 231.196C504.4 230.64 503.753 229.851 503.37 228.928C502.988 228.005 502.888 226.99 503.083 226.01C503.278 225.03 503.759 224.13 504.465 223.423C505.172 222.717 506.072 222.235 507.052 222.04C508.032 221.846 509.048 221.946 509.971 222.328C510.894 222.71 511.683 223.358 512.238 224.189C512.793 225.019 513.089 225.996 513.089 226.995C513.089 228.335 512.557 229.62 511.61 230.567C510.662 231.515 509.377 232.047 508.037 232.047Z" stroke="#263238" stroke-miterlimit="10"/>
<path d="M488.657 285.523C490.855 288.391 493.662 290.735 496.877 292.386C500.091 294.038 503.631 294.955 507.243 295.071M489.252 255.019C486.411 258.438 484.557 262.568 483.889 266.963C483.221 271.358 483.764 275.852 485.46 279.961M527.973 256.53C524.652 251.85 519.791 248.486 514.241 247.027C508.69 245.569 502.804 246.109 497.611 248.552M516.655 293.514C522.489 291.305 527.26 286.952 529.992 281.343C532.723 275.735 533.21 269.295 531.352 263.339M508.031 279.489C506.283 279.489 504.574 278.971 503.121 278C501.668 277.029 500.535 275.649 499.866 274.034C499.197 272.419 499.022 270.642 499.363 268.928C499.704 267.214 500.546 265.639 501.782 264.403C503.018 263.167 504.593 262.326 506.307 261.985C508.021 261.644 509.798 261.819 511.413 262.487C513.028 263.156 514.408 264.289 515.379 265.742C516.35 267.196 516.868 268.904 516.868 270.652C516.869 271.812 516.641 272.961 516.198 274.033C515.754 275.106 515.104 276.08 514.284 276.901C513.464 277.721 512.49 278.372 511.418 278.817C510.346 279.261 509.198 279.489 508.037 279.489H508.031Z" stroke="#263238" stroke-miterlimit="10"/>
<path d="M522.727 253.669C518.892 250.358 514.049 248.442 508.987 248.232C503.925 248.021 498.94 249.528 494.843 252.507C490.745 255.487 487.775 259.765 486.415 264.645C485.055 269.526 485.386 274.723 487.352 279.392M492.553 286.912C496.473 290.619 501.597 292.791 506.987 293.03C512.377 293.27 517.673 291.562 521.907 288.218C526.141 284.874 529.03 280.117 530.045 274.819C531.06 269.52 530.135 264.032 527.437 259.36M508.018 278.772C506.412 278.77 504.844 278.291 503.51 277.397C502.176 276.504 501.138 275.235 500.525 273.751C499.912 272.267 499.753 270.634 500.068 269.06C500.383 267.486 501.157 266.04 502.294 264.906C503.43 263.771 504.877 262.999 506.451 262.687C508.026 262.375 509.658 262.536 511.141 263.151C512.624 263.766 513.892 264.807 514.784 266.142C515.675 267.477 516.151 269.047 516.151 270.652C516.151 272.805 515.296 274.869 513.775 276.392C512.254 277.914 510.19 278.771 508.037 278.772H508.018Z" stroke="#263238" stroke-miterlimit="10"/>
<path d="M532.443 207.234H483.644C482.239 207.234 481.099 208.373 481.099 209.779V295.039C481.099 296.444 482.239 297.584 483.644 297.584H532.443C533.849 297.584 534.989 296.444 534.989 295.039V209.779C534.989 208.373 533.849 207.234 532.443 207.234Z" stroke="#263238" stroke-miterlimit="10"/>
<path d="M286.484 249.528C282.337 249.534 278.285 250.77 274.84 253.078C271.394 255.387 268.711 258.665 267.128 262.499C265.546 266.332 265.135 270.549 265.948 274.615C266.761 278.682 268.761 282.417 271.696 285.347C274.631 288.277 278.368 290.272 282.436 291.078C286.504 291.885 290.72 291.468 294.551 289.879C298.382 288.291 301.656 285.602 303.959 282.154C306.263 278.705 307.492 274.651 307.492 270.503C307.492 267.746 306.949 265.016 305.892 262.469C304.836 259.922 303.288 257.608 301.337 255.66C299.386 253.712 297.07 252.167 294.521 251.115C291.973 250.063 289.241 249.523 286.484 249.528ZM286.484 278.094C284.983 278.095 283.514 277.651 282.265 276.818C281.016 275.985 280.042 274.8 279.467 273.413C278.891 272.026 278.74 270.499 279.032 269.027C279.324 267.554 280.047 266.201 281.108 265.138C282.169 264.076 283.522 263.353 284.995 263.059C286.467 262.766 287.994 262.916 289.381 263.49C290.768 264.064 291.954 265.037 292.789 266.286C293.623 267.534 294.068 269.002 294.068 270.503C294.069 271.5 293.874 272.487 293.493 273.408C293.112 274.329 292.554 275.165 291.849 275.87C291.145 276.575 290.309 277.135 289.388 277.516C288.467 277.898 287.481 278.094 286.484 278.094Z" fill="#263238"/>
<path d="M270.496 223.804C270.026 226.169 270.088 228.609 270.676 230.947C271.265 233.286 272.366 235.464 273.9 237.325M286.045 210.684C283.078 210.763 280.188 211.652 277.689 213.254C275.19 214.856 273.176 217.11 271.865 219.773M302.324 230.755C303.213 227.03 302.763 223.111 301.051 219.686C299.339 216.26 296.476 213.546 292.964 212.021M278.816 241.362C282.489 243.309 286.766 243.78 290.774 242.681C294.783 241.581 298.221 238.993 300.386 235.445M282.033 230.865C281.265 229.989 280.773 228.905 280.621 227.75C280.468 226.594 280.662 225.42 281.177 224.375C281.692 223.329 282.505 222.46 283.514 221.877C284.523 221.295 285.683 221.024 286.845 221.1C288.008 221.176 289.122 221.595 290.047 222.304C290.972 223.013 291.665 223.98 292.04 225.084C292.415 226.187 292.454 227.377 292.153 228.502C291.851 229.628 291.223 230.639 290.347 231.407C289.174 232.432 287.642 232.95 286.088 232.848C284.533 232.747 283.083 232.033 282.053 230.865H282.033Z" stroke="#263238" stroke-miterlimit="10"/>
<path d="M295.619 216.42C293.235 214.357 290.224 213.161 287.075 213.027C283.925 212.893 280.823 213.829 278.273 215.682C275.723 217.536 273.876 220.197 273.031 223.234C272.187 226.272 272.395 229.505 273.622 232.409M276.852 237.086C279.286 239.41 282.477 240.777 285.838 240.935C289.199 241.094 292.504 240.033 295.145 237.948C297.787 235.862 299.586 232.894 300.211 229.587C300.837 226.281 300.248 222.86 298.552 219.954M286.484 232.047C285.485 232.047 284.508 231.751 283.678 231.196C282.847 230.64 282.199 229.851 281.817 228.928C281.435 228.005 281.335 226.99 281.53 226.01C281.724 225.03 282.206 224.13 282.912 223.423C283.619 222.717 284.519 222.235 285.499 222.04C286.479 221.846 287.494 221.946 288.417 222.328C289.34 222.71 290.129 223.358 290.685 224.189C291.24 225.019 291.536 225.996 291.536 226.995C291.536 228.335 291.004 229.62 290.056 230.567C289.109 231.515 287.824 232.047 286.484 232.047Z" stroke="#263238" stroke-miterlimit="10"/>
<path d="M267.104 285.523C269.302 288.391 272.109 290.735 275.323 292.386C278.538 294.038 282.078 294.955 285.69 295.071M267.692 255.019C264.855 258.44 263.003 262.57 262.336 266.964C261.669 271.359 262.212 275.852 263.906 279.961M306.413 256.505C303.094 251.823 298.233 248.458 292.682 246.999C287.131 245.541 281.244 246.081 276.051 248.526M295.095 293.488C300.929 291.278 305.698 286.924 308.428 281.316C311.159 275.707 311.644 269.268 309.786 263.313M286.471 279.464C284.723 279.464 283.015 278.945 281.562 277.974C280.108 277.003 278.976 275.623 278.307 274.008C277.638 272.393 277.463 270.616 277.804 268.902C278.145 267.188 278.986 265.613 280.222 264.377C281.458 263.141 283.033 262.3 284.747 261.959C286.461 261.618 288.238 261.793 289.853 262.462C291.468 263.13 292.848 264.263 293.819 265.716C294.79 267.17 295.309 268.878 295.309 270.626C295.312 271.788 295.086 272.939 294.645 274.013C294.203 275.087 293.554 276.064 292.734 276.887C291.914 277.71 290.941 278.364 289.868 278.81C288.796 279.257 287.646 279.488 286.484 279.489L286.471 279.464Z" stroke="#263238" stroke-miterlimit="10"/>
<path d="M301.174 253.669C297.339 250.355 292.496 248.436 287.432 248.223C282.368 248.01 277.38 249.517 273.281 252.497C269.181 255.478 266.21 259.757 264.851 264.64C263.491 269.523 263.823 274.722 265.793 279.392M270.961 286.912C274.881 290.619 280.005 292.791 285.395 293.031C290.785 293.27 296.081 291.562 300.315 288.218C304.549 284.874 307.438 280.118 308.453 274.819C309.469 269.52 308.543 264.032 305.845 259.36M286.465 278.772C284.859 278.772 283.289 278.296 281.954 277.404C280.618 276.512 279.577 275.243 278.963 273.76C278.348 272.276 278.187 270.643 278.501 269.068C278.814 267.493 279.587 266.046 280.723 264.91C281.859 263.775 283.306 263.001 284.881 262.688C286.456 262.375 288.089 262.535 289.572 263.15C291.056 263.765 292.324 264.805 293.217 266.141C294.109 267.476 294.585 269.046 294.585 270.652C294.585 272.802 293.732 274.865 292.214 276.387C290.695 277.909 288.635 278.767 286.484 278.772H286.465Z" stroke="#263238" stroke-miterlimit="10"/>
<path d="M286.484 214.036C283.929 214.036 281.431 214.794 279.306 216.214C277.182 217.633 275.526 219.651 274.548 222.012C273.57 224.373 273.314 226.971 273.812 229.477C274.311 231.983 275.542 234.285 277.348 236.092C279.155 237.899 281.457 239.13 283.964 239.628C286.47 240.127 289.068 239.871 291.429 238.893C293.789 237.915 295.807 236.259 297.227 234.134C298.647 232.01 299.404 229.512 299.404 226.956C299.404 223.53 298.043 220.244 295.62 217.821C293.197 215.398 289.911 214.036 286.484 214.036ZM286.484 231.659C285.558 231.659 284.652 231.385 283.882 230.87C283.112 230.355 282.512 229.624 282.157 228.768C281.803 227.912 281.71 226.971 281.891 226.062C282.071 225.154 282.518 224.319 283.173 223.664C283.828 223.009 284.662 222.563 285.571 222.382C286.479 222.202 287.421 222.294 288.277 222.649C289.132 223.003 289.864 223.604 290.378 224.374C290.893 225.144 291.168 226.05 291.168 226.976C291.166 228.217 290.672 229.408 289.794 230.286C288.916 231.164 287.726 231.658 286.484 231.659Z" fill="#263238"/>
<path d="M310.884 207.234H262.085C260.679 207.234 259.539 208.373 259.539 209.779V295.039C259.539 296.444 260.679 297.584 262.085 297.584H310.884C312.289 297.584 313.429 296.444 313.429 295.039V209.779C313.429 208.373 312.289 207.234 310.884 207.234Z" stroke="#263238" stroke-miterlimit="10"/>
<path d="M257.705 305.039H534.956" stroke="#263238" stroke-miterlimit="10" stroke-linecap="round"/>
<path d="M446.447 177.408C446.447 177.408 452.804 180.832 453.78 184.01C454.755 187.188 454.755 188.894 455.491 190.851C456.228 192.809 461.112 202.085 465.75 210.393C470.388 218.7 481.9 235.316 484.568 240.445C487.236 245.574 489.452 251.931 488.231 259.263C487.01 266.595 469.174 277.584 463.308 274.683C457.442 271.783 453.05 269.799 452.068 265.155C451.086 260.51 451.092 255.871 449.626 252.693C448.159 249.515 445.226 237.305 445.226 237.305C445.226 237.305 440.834 203.339 444.742 190.638" fill="#0EA5E9"/>
<path d="M446.447 177.408C446.447 177.408 452.804 180.832 453.78 184.01C454.755 187.188 454.755 188.894 455.491 190.851C456.228 192.809 461.112 202.085 465.75 210.393C470.388 218.7 481.9 235.316 484.568 240.445C487.236 245.574 489.452 251.931 488.231 259.263C487.01 266.595 469.174 277.584 463.308 274.683C457.442 271.783 453.05 269.799 452.068 265.155C451.086 260.51 451.092 255.871 449.626 252.693C448.159 249.515 445.226 237.305 445.226 237.305C445.226 237.305 440.834 203.339 444.742 190.638" stroke="#263238" stroke-miterlimit="10" stroke-linecap="round"/>
<path d="M336.142 277.312C331.62 291.873 332.835 301.143 333.785 305.039H455.685C454.29 293.559 447.578 238.739 445.827 228.526C443.889 217.105 451.583 185.645 449.626 181.077C447.668 176.51 430.569 164.998 412.552 163.635C394.535 162.272 374.031 165.883 374.031 165.883C374.031 165.883 359.347 171.755 349.883 176.652C340.419 181.549 331.291 188.067 329.334 198.183C328.203 204.127 344.773 249.392 336.142 277.312Z" fill="#0EA5E9" stroke="#263238" stroke-miterlimit="10" stroke-linecap="round"/>
<path d="M368.862 191.898C368.862 191.898 366.679 208.455 366.679 223.707" stroke="#263238" stroke-miterlimit="10" stroke-linecap="round"/>
<path d="M373.236 237.215C373.365 239.308 373.501 241.349 373.649 243.287" stroke="#263238" stroke-miterlimit="10" stroke-linecap="round"/>
<path d="M371.912 201.484C371.912 201.484 372.164 216.149 372.881 230.652" stroke="#263238" stroke-miterlimit="10" stroke-linecap="round"/>
<path d="M427.242 184.927C427.242 184.927 432.474 207.15 432.474 223.268" stroke="#263238" stroke-miterlimit="10" stroke-linecap="round"/>
<path d="M439.064 241.156C439.309 245.174 439.445 247.667 439.445 247.667" stroke="#263238" stroke-miterlimit="10" stroke-linecap="round"/>
<path d="M429.425 180.573C429.425 180.573 435.956 199.308 437.268 215.458C437.733 221.213 438.146 226.969 438.476 231.995" stroke="#263238" stroke-miterlimit="10" stroke-linecap="round"/>
<path d="M421.634 304.987L420.614 299.296V286.311L420.297 257.138C420.297 257.138 419.005 223.849 419.005 216.239C419.005 208.629 419.328 183.577 417.713 175.967C416.744 171.323 412.468 166.562 409.283 163.558C404.509 162.569 399.121 162.266 394.599 164.016C394.599 164.016 386.847 166.6 380.232 169.184C379.761 170.438 376.808 178.551 376.808 186.135C376.808 194.378 382.836 219.082 384.735 229.256C386.634 239.431 385.058 264.14 385.058 264.14L386.641 287.92L387.59 301.24L386.951 304.987H421.634Z" fill="#263238" stroke="#263238" stroke-miterlimit="10" stroke-linecap="round"/>
<path d="M395.723 193.868C405.531 193.868 413.482 187.002 413.482 178.532C413.482 170.062 405.531 163.196 395.723 163.196C385.916 163.196 377.965 170.062 377.965 178.532C377.965 187.002 385.916 193.868 395.723 193.868Z" fill="white" stroke="#263238" stroke-miterlimit="10" stroke-linecap="round"/>
<path d="M380.923 159.158C380.923 159.158 369.625 164.003 365.316 172.88C362.633 178.499 360.471 184.353 358.856 190.367C358.856 190.367 371.776 204.359 376.879 214.314C381.983 224.269 383.339 252.254 383.604 263.824C383.869 275.394 386.834 289.38 386.834 289.38V225.884C386.834 213.507 380.374 178.532 380.109 176.646C379.845 174.759 395.982 170.728 401.899 171.536C407.817 172.343 409.974 172.88 410.782 176.646C411.589 180.412 418.605 231.265 418.605 245.523C418.605 259.78 420.485 292.881 420.485 292.881C420.485 292.881 421.014 264.089 421.835 248.197C422.655 232.305 420.756 208.106 424.251 200.037C427.746 191.969 437.985 175.031 437.985 175.031C437.985 175.031 433.682 169.921 422.92 164.54C412.158 159.158 403.282 158.887 394.399 158.351C385.516 157.815 380.923 159.158 380.923 159.158Z" fill="#0EA5E9" stroke="#263238" stroke-miterlimit="10" stroke-linecap="round"/>
<path d="M437.985 175.031C436.959 173.907 435.842 172.87 434.645 171.93C431.538 177.408 424.348 190.457 421.848 198.171C418.605 208.145 419.399 261.117 419.399 261.117C419.399 261.117 419.296 263.055 419.16 266.072C419.709 279.483 420.452 292.868 420.452 292.868C420.452 292.868 421.014 264.089 421.835 248.197C422.655 232.305 420.756 208.106 424.251 200.038C427.746 191.969 437.985 175.031 437.985 175.031Z" fill="#263238" stroke="#263238" stroke-miterlimit="10" stroke-linecap="round"/>
<path d="M386.841 284.838C386.13 276.44 384.961 261.815 384.961 256.02C384.961 247.68 383.346 234.76 382.803 229.114C382.261 223.468 381.731 217.273 378.229 207.861C375.297 199.953 364.017 188.448 360.471 184.953C359.398 188.216 358.862 190.367 358.862 190.367C358.862 190.367 371.782 204.359 376.886 214.314C381.989 224.269 383.346 252.254 383.611 263.824C383.876 275.394 386.841 289.38 386.841 289.38V284.838Z" fill="#263238" stroke="#263238" stroke-miterlimit="10" stroke-linecap="round"/>
<path d="M361.634 133.777C361.847 129.173 363.504 124.752 366.369 121.141C371.111 115.327 384.534 108.77 396.376 110.876C408.217 112.982 415.065 123.247 416.118 130.618H413.223C413.026 128.435 412.33 126.326 411.188 124.455C410.047 122.583 408.491 120.999 406.641 119.823C400.329 115.876 374.005 120.088 370.058 122.717C366.11 125.347 364.244 131.115 364.528 134.565L361.634 133.777Z" fill="#666666" stroke="#263238" stroke-miterlimit="10" stroke-linecap="round"/>
<path d="M366.925 132.459C366.925 132.459 360.342 132.724 358.526 134.83C356.711 136.936 359.056 148.777 361.421 152.989C363.785 157.201 370.109 156.936 372.215 155.36C374.321 153.784 373.003 149.83 372.215 141.406C371.427 132.982 368.74 131.916 366.925 132.459Z" fill="#919191" stroke="#263238" stroke-miterlimit="10" stroke-linecap="round"/>
<path d="M410.504 127.905C410.504 127.905 416.964 126.516 419.251 128.099C421.538 129.681 422.229 141.736 420.988 146.406C419.748 151.077 413.559 152.401 411.13 151.393C408.701 150.386 408.979 146.225 407.642 137.886C406.305 129.546 408.585 127.86 410.504 127.905Z" fill="#919191" stroke="#263238" stroke-miterlimit="10" stroke-linecap="round"/>
<path d="M370.581 146.936C370.581 146.936 373.74 164.042 374.793 167.989C375.846 171.936 376.899 177.466 384.005 182.466C391.111 187.466 397.17 189.049 403.488 186.155C409.806 183.261 414.012 175.102 414.541 167.989C415.071 160.877 411.647 138.512 411.647 138.512L369.011 139.042L370.581 146.936Z" fill="white" stroke="#263238" stroke-miterlimit="10" stroke-linecap="round"/>
<path d="M411.118 159.307C411.159 161.614 410.894 163.917 410.329 166.155C410.329 166.155 401.931 158.784 392.958 161.419C392.958 161.419 390.588 160.89 386.641 163.261C383.87 165.002 381.231 166.945 378.746 169.075C378.746 169.075 374.005 156.704 372.932 154.074C371.86 151.445 370.562 146.968 370.562 146.968C370.562 146.968 373.72 164.074 374.773 168.022C375.826 171.969 377.409 178.816 384.515 183.816C391.621 188.816 397.151 189.081 403.469 186.187C409.787 183.293 413.992 175.134 414.522 168.022C414.916 162.673 413.075 148.68 412.145 142.085C412.061 143.338 411.118 155.321 411.118 159.307ZM399.535 172.466C397.429 171.413 398.243 167.989 398.243 167.989L394.031 168.254C394.276 169.559 394.451 170.877 394.554 172.201C394.554 173.254 391.66 174.837 389.031 174.049C386.402 173.261 383.766 169.572 383.766 169.572L385.872 167.731C387.978 165.883 393.501 163.784 397.713 164.307C401.925 164.83 406.925 167.989 406.925 167.989C405.588 170.095 401.641 173.519 399.535 172.466Z" fill="#263238" stroke="#263238" stroke-miterlimit="10" stroke-linecap="round"/>
<path d="M390.827 149.307C390.827 149.307 390.562 154.307 388.721 155.618C386.879 156.93 381.35 156.413 378.191 155.883C375.032 155.353 373.191 149.042 373.191 147.724C373.191 146.406 390.827 148.254 390.827 148.254V149.307Z" fill="url(#paint1_linear_102_232)" stroke="#263238" stroke-width="2" stroke-miterlimit="10" stroke-linecap="round"/>
<path d="M394.535 148.512C394.535 148.512 395.788 153.364 397.855 154.288C399.922 155.211 405.239 153.596 408.223 152.453C411.208 151.309 411.764 144.746 411.505 143.461C411.247 142.175 394.328 147.485 394.328 147.485L394.535 148.512Z" fill="url(#paint2_linear_102_232)" stroke="#263238" stroke-width="2" stroke-miterlimit="10" stroke-linecap="round"/>
<path d="M391.641 101.664C391.641 101.664 388.482 101.134 381.376 102.452C374.27 103.77 363.74 113.247 363.475 116.141C363.21 119.035 366.634 133.777 366.634 135.618C366.634 137.459 366.369 145.883 367.926 147.724C369.483 149.565 384.509 151.413 394.244 149.565C401.234 148.273 413.727 144.565 414.78 142.194C415.833 139.824 411.092 129.035 411.092 129.035C411.092 129.035 409.8 111.929 406.615 108.24C403.43 104.552 391.641 101.664 391.641 101.664Z" fill="#263238" stroke="#263238" stroke-miterlimit="10" stroke-linecap="round"/>
<path d="M366.634 135.618C366.634 135.618 391.117 146.936 411.118 129.035" stroke="white" stroke-miterlimit="10" stroke-linecap="round"/>
<path d="M388.992 159.966C389.553 160.885 390.395 161.599 391.393 162.001C392.392 162.404 393.493 162.474 394.535 162.201C397.642 161.555 398.482 158.254 398.482 158.254" fill="white"/>
<path d="M388.992 159.966C389.553 160.885 390.395 161.599 391.393 162.001C392.392 162.404 393.493 162.474 394.535 162.201C397.642 161.555 398.482 158.254 398.482 158.254" stroke="#263238" stroke-miterlimit="10" stroke-linecap="round"/>
<path d="M524.097 348.289H269.204L305.012 304.716H488.289L524.097 348.289Z" fill="#919191" stroke="#263238" stroke-miterlimit="10" stroke-linecap="round"/>
<path d="M421.124 344.71C422.608 344.71 423.812 344.14 423.812 343.437C423.812 342.734 422.608 342.165 421.124 342.165C419.64 342.165 418.437 342.734 418.437 343.437C418.437 344.14 419.64 344.71 421.124 344.71Z" fill="#263238" stroke="#263238" stroke-miterlimit="10" stroke-linecap="round"/>
<path d="M430.75 344.71C432.234 344.71 433.437 344.14 433.437 343.437C433.437 342.734 432.234 342.165 430.75 342.165C429.265 342.165 428.062 342.734 428.062 343.437C428.062 344.14 429.265 344.71 430.75 344.71Z" fill="#263238" stroke="#263238" stroke-miterlimit="10" stroke-linecap="round"/>
<path d="M440.375 344.71C441.859 344.71 443.062 344.14 443.062 343.437C443.062 342.734 441.859 342.165 440.375 342.165C438.891 342.165 437.688 342.734 437.688 343.437C437.688 344.14 438.891 344.71 440.375 344.71Z" fill="#0EA5E9" stroke="#263238" stroke-miterlimit="10" stroke-linecap="round"/>
<path d="M452.694 343.437C452.694 344.141 451.486 344.729 450 344.729C448.515 344.729 447.313 344.161 447.313 343.437C447.313 342.714 448.521 342.145 450 342.145C451.48 342.145 452.694 342.733 452.694 343.437Z" fill="#D946EF" stroke="#263238" stroke-miterlimit="10" stroke-linecap="round"/>
<path d="M462.32 343.437C462.32 344.141 461.118 344.729 459.632 344.729C458.147 344.729 456.938 344.161 456.938 343.437C456.938 342.714 458.147 342.145 459.632 342.145C461.118 342.145 462.32 342.733 462.32 343.437Z" fill="#263238" stroke="#263238" stroke-miterlimit="10" stroke-linecap="round"/>
<path d="M471.945 343.437C471.945 344.141 470.744 344.729 469.258 344.729C467.772 344.729 466.564 344.161 466.564 343.437C466.564 342.714 467.772 342.145 469.258 342.145C470.744 342.145 471.945 342.733 471.945 343.437Z" fill="#263238" stroke="#263238" stroke-miterlimit="10" stroke-linecap="round"/>
<path d="M481.571 343.437C481.571 344.141 480.369 344.729 478.883 344.729C477.397 344.729 476.189 344.161 476.189 343.437C476.189 342.714 477.397 342.145 478.883 342.145C480.369 342.145 481.571 342.733 481.571 343.437Z" fill="#263238" stroke="#263238" stroke-miterlimit="10" stroke-linecap="round"/>
<path d="M314.669 343.437C314.669 344.141 313.468 344.729 311.982 344.729C310.496 344.729 309.295 344.161 309.295 343.437C309.295 342.714 310.496 342.145 311.982 342.145C313.468 342.145 314.669 342.733 314.669 343.437Z" fill="#263238" stroke="#263238" stroke-miterlimit="10" stroke-linecap="round"/>
<path d="M324.288 343.437C324.288 344.141 323.087 344.729 321.601 344.729C320.115 344.729 318.914 344.161 318.914 343.437C318.914 342.714 320.115 342.145 321.601 342.145C323.087 342.145 324.288 342.733 324.288 343.437Z" fill="#0EA5E9" stroke="#263238" stroke-miterlimit="10" stroke-linecap="round"/>
<path d="M333.92 343.437C333.92 344.141 332.719 344.729 331.233 344.729C329.747 344.729 328.545 344.161 328.545 343.437C328.545 342.714 329.747 342.145 331.233 342.145C332.719 342.145 333.92 342.733 333.92 343.437Z" fill="#263238" stroke="#263238" stroke-miterlimit="10" stroke-linecap="round"/>
<path d="M343.552 343.437C343.552 344.141 342.344 344.729 340.858 344.729C339.372 344.729 338.171 344.161 338.171 343.437C338.171 342.714 339.372 342.145 340.858 342.145C342.344 342.145 343.552 342.733 343.552 343.437Z" fill="#263238" stroke="#263238" stroke-miterlimit="10" stroke-linecap="round"/>
<path d="M353.178 343.437C353.178 344.141 351.97 344.729 350.484 344.729C348.998 344.729 347.796 344.161 347.796 343.437C347.796 342.714 348.998 342.145 350.484 342.145C351.97 342.145 353.178 342.733 353.178 343.437Z" fill="#D946EF" stroke="#263238" stroke-miterlimit="10" stroke-linecap="round"/>
<path d="M362.803 343.437C362.803 344.141 361.595 344.729 360.109 344.729C358.623 344.729 357.422 344.161 357.422 343.437C357.422 342.714 358.63 342.145 360.109 342.145C361.588 342.145 362.803 342.733 362.803 343.437Z" fill="#263238" stroke="#263238" stroke-miterlimit="10" stroke-linecap="round"/>
<path d="M372.428 343.437C372.428 344.141 371.227 344.729 369.741 344.729C368.255 344.729 367.047 344.161 367.047 343.437C367.047 342.714 368.255 342.145 369.741 342.145C371.227 342.145 372.428 342.733 372.428 343.437Z" fill="#263238" stroke="#263238" stroke-miterlimit="10" stroke-linecap="round"/>
<path d="M470.55 322.003C475.602 330.969 464.632 339.187 445.356 339.187C426.079 339.187 409.735 330.969 408.895 322.003C408.159 314.122 419.987 308.392 435.233 308.392C450.478 308.392 466.105 314.122 470.55 322.003Z" fill="#919191" stroke="#263238" stroke-miterlimit="10" stroke-linecap="round"/>
<path d="M381.925 322.003C380.917 330.969 364.392 339.187 345.148 339.187C325.903 339.187 315.083 330.969 320.302 322.003C324.896 314.122 340.593 308.392 355.833 308.392C371.072 308.392 382.81 314.122 381.925 322.003Z" fill="#919191" stroke="#263238" stroke-miterlimit="10" stroke-linecap="round"/>
<path d="M465.576 320.052C469.93 327.804 460.466 334.871 443.863 334.871C427.261 334.871 413.133 327.765 412.41 320.052C411.764 313.249 421.977 308.308 435.129 308.308C448.282 308.308 461.738 313.249 465.576 320.052Z" fill="#263238" stroke="#263238" stroke-miterlimit="10" stroke-linecap="round"/>
<path d="M377.784 320.052C376.912 327.804 362.654 334.871 346.052 334.871C329.45 334.871 320.115 327.765 324.624 320.052C328.584 313.249 342.124 308.308 355.283 308.308C368.442 308.308 378.552 313.249 377.784 320.052Z" fill="#263238" stroke="#263238" stroke-miterlimit="10" stroke-linecap="round"/>
<path d="M288.816 336.79H284.63L304.508 311.311H307.944L288.816 336.79Z" fill="#263238" stroke="#263238" stroke-miterlimit="10" stroke-linecap="round"/>
<path d="M303.151 336.79H298.971L316.304 311.311H319.74L303.151 336.79Z" fill="#263238" stroke="#263238" stroke-miterlimit="10" stroke-linecap="round"/>
<path d="M488.954 336.79H484.775L469.135 311.311H472.578L488.954 336.79Z" fill="#263238" stroke="#263238" stroke-miterlimit="10" stroke-linecap="round"/>
<path d="M389.476 331.208H385.452L386.563 317.513H390.187L389.476 331.208Z" fill="#263238" stroke="#263238" stroke-miterlimit="10" stroke-linecap="round"/>
<path d="M403.831 331.208H399.806L399.496 317.513H403.114L403.831 331.208Z" fill="#263238" stroke="#263238" stroke-miterlimit="10" stroke-linecap="round"/>
<path d="M503.296 336.79H499.11L480.931 311.311H484.374L503.296 336.79Z" fill="#263238" stroke="#263238" stroke-miterlimit="10" stroke-linecap="round"/>
<path d="M411.563 345.698H377.299L378.514 336.144H410.627L411.563 345.698Z" fill="url(#paint3_linear_102_232)" stroke="#263238" stroke-miterlimit="10" stroke-linecap="round"/>
<path d="M408.508 314.451H381.266L382.041 308.333H407.907L408.508 314.451Z" fill="white" stroke="#263238" stroke-miterlimit="10" stroke-linecap="round"/>
<path d="M517.353 359.826H275.567L269.204 348.289H523.709L517.353 359.826Z" fill="#263238" stroke="#263238" stroke-miterlimit="10" stroke-linecap="round"/>
<path d="M350.703 202.492C350.464 200.367 350.296 198.959 350.296 198.959" stroke="#263238" stroke-miterlimit="10" stroke-linecap="round"/>
<path d="M336.989 188.493C336.989 188.493 331.504 191.911 324.521 200.335C317.538 208.759 316.123 209.094 315.942 212.738C315.672 216.206 315.148 219.65 314.372 223.042C314.004 224.631 302.654 246.827 300.696 248.048C298.739 249.269 286.975 260.968 286.433 266.169C285.89 271.369 291.988 279.851 294.766 282.177C297.544 284.502 315.69 288.721 322.544 285.284C329.398 281.847 336.549 279.47 336.866 269.367C337.163 259.812 337.312 261.524 338.048 258.346C338.785 255.167 342.925 241.685 342.925 241.685C342.925 241.685 352.428 225.91 352.344 220.529C352.293 217.576 351.698 211.349 351.156 206.317" fill="#0EA5E9"/>
<path d="M336.989 188.493C336.989 188.493 331.504 191.911 324.521 200.335C317.538 208.759 316.123 209.094 315.942 212.738C315.672 216.206 315.148 219.65 314.372 223.042C314.004 224.631 302.654 246.827 300.696 248.048C298.739 249.269 286.975 260.968 286.433 266.169C285.89 271.369 291.988 279.851 294.766 282.177C297.544 284.502 315.69 288.721 322.544 285.284C329.398 281.847 336.549 279.47 336.866 269.367C337.163 259.812 337.312 261.524 338.048 258.346C338.785 255.167 342.925 241.685 342.925 241.685C342.925 241.685 352.428 225.91 352.344 220.529C352.293 217.576 351.698 211.349 351.156 206.317" stroke="#263238" stroke-miterlimit="10" stroke-linecap="round"/>
<path d="M341.33 214.857C337.208 209.437 332.04 206.982 327.273 208.675C322.157 210.503 321.297 211.304 321.297 211.304" stroke="#263238" stroke-miterlimit="10" stroke-linecap="round"/>
<path d="M344.553 220.109C344.097 219.153 343.584 218.225 343.016 217.331" stroke="#263238" stroke-miterlimit="10" stroke-linecap="round"/>
<path d="M323.797 209.211C323.797 209.211 329.133 206.426 332.925 205.981C336.717 205.535 345.51 210.916 345.51 210.916" stroke="#263238" stroke-miterlimit="10" stroke-linecap="round"/>
<path d="M314.424 238.843L317.37 236.853" stroke="#263238" stroke-miterlimit="10" stroke-linecap="round"/>
<path d="M302.26 247.073L311.375 240.91" stroke="#263238" stroke-miterlimit="10" stroke-linecap="round"/>
<path d="M321.129 282.616C321.129 282.616 323.713 275.846 323.959 271.886C324.204 267.926 318.028 262.803 312.944 261.621C307.86 260.439 300.548 263.087 297.828 266.143C295.108 269.199 293.803 271.905 293.926 272.932C294.049 273.96 296.465 277.874 297.156 280.684C297.847 283.495 307.195 285.026 312.014 285.853C316.833 286.679 321.129 282.616 321.129 282.616Z" fill="#263238" stroke="#263238" stroke-miterlimit="10" stroke-linecap="round"/>
<path d="M325.348 286.796C325.348 286.796 327.37 296.389 327.777 299.218C328.184 302.048 325.522 306.292 324.883 309.038C324.243 311.783 321.284 317.319 319.398 318.25C317.512 319.18 315.315 316.841 318.158 310.498C321 304.154 321.452 298.953 320.871 296.234C320.29 293.514 318.151 290.278 319.631 288.482C321.11 286.686 323.642 284.418 325.348 286.796Z" fill="white" stroke="#263238" stroke-miterlimit="10" stroke-linecap="round"/>
<path d="M321.252 276.705C319.536 274.197 316.992 272.374 314.065 271.557C311.139 270.739 308.018 270.979 305.251 272.235C305.103 272.298 304.958 272.369 304.818 272.448C301.904 274.14 299.876 276.834 297.117 280.717C293.635 285.601 287.498 297.571 287.712 300.969C287.925 304.367 293.009 309.903 293.855 313.45C294.701 316.996 297.124 319.574 298.713 319.942C299.703 320.152 300.727 320.152 301.717 319.942C301.717 319.942 301.543 323.586 303.151 325.304C304.76 327.022 308.015 327.436 308.384 325.853C308.752 324.27 311.704 315.905 312.072 314.315C312.441 312.726 314.314 306.124 314.314 306.124L313.558 318.011C313.558 318.011 310.367 325.976 310.78 327.055C311.194 328.133 314.224 329.535 317.408 325.918C320.593 322.3 322.292 315 322.886 312.455C323.481 309.91 325.826 294.044 325.929 290.723C326.032 287.403 324.159 281.279 321.963 277.758C321.743 277.442 321.504 277.073 321.252 276.705Z" fill="white" stroke="#263238" stroke-miterlimit="10" stroke-linecap="round"/>
<path d="M301.717 319.968C301.717 319.968 303.112 310.504 303.216 308.101C303.319 305.698 306.446 296.227 306.446 296.227" stroke="#263238" stroke-miterlimit="10" stroke-linecap="round"/>
<path d="M293.855 313.443C293.855 313.443 293.448 306.279 294.101 304.147C294.753 302.015 296.891 292.771 296.891 292.771" stroke="#263238" stroke-miterlimit="10" stroke-linecap="round"/>
<path d="M314.314 306.15L315.729 298.088" stroke="#263238" stroke-miterlimit="10" stroke-linecap="round"/>
<path d="M467.132 238.972C467.132 238.972 466.125 239.618 464.6 240.697" stroke="#263238" stroke-miterlimit="10" stroke-linecap="round"/>
<path d="M461.596 242.861C456.855 246.369 450.711 251.414 450.194 254.34C449.348 259.16 451.861 258.733 451.861 258.733C451.861 258.733 446.473 270.361 444.232 274.528C441.99 278.695 447.901 288.527 455.052 292.371C462.203 296.214 479 297.823 482.876 294.367C486.752 290.911 493.502 258.514 492.107 253.908C490.712 249.302 483.47 244.218 479.187 242.926C476.113 242.087 472.969 241.529 469.794 241.259" fill="#0EA5E9"/>
<path d="M461.596 242.861C456.855 246.369 450.711 251.414 450.194 254.34C449.348 259.16 451.861 258.733 451.861 258.733C451.861 258.733 446.473 270.361 444.232 274.528C441.99 278.695 447.901 288.527 455.052 292.371C462.203 296.214 479 297.823 482.876 294.367C486.752 290.911 493.502 258.514 492.107 253.908C490.712 249.302 483.47 244.218 479.187 242.926C476.113 242.087 472.969 241.529 469.794 241.259" stroke="#263238" stroke-miterlimit="10" stroke-linecap="round"/>
<path d="M472.617 248.843C473.74 248.826 474.861 248.943 475.957 249.192" stroke="#263238" stroke-miterlimit="10" stroke-linecap="round"/>
<path d="M453.224 257.674C453.224 257.674 456.926 253.701 461.138 251.517C463.662 250.29 466.366 249.474 469.148 249.101" stroke="#263238" stroke-miterlimit="10" stroke-linecap="round"/>
<path d="M451.292 275.161C451.292 275.161 445.537 279.858 446.473 284.16C447.41 288.462 458.993 296.311 464.206 295.975C469.419 295.639 475.996 292.274 475.75 286.337C475.505 280.4 468.412 276.066 462.83 273.643C457.249 271.221 453.986 273.281 451.292 275.161Z" fill="#263238" stroke="#263238" stroke-miterlimit="10" stroke-linecap="round"/>
<path d="M472.992 296.647C472.992 296.647 473.263 292.183 466.415 286.266C459.568 280.349 452.539 282.571 449.464 284.716C446.389 286.86 439.845 294.199 439.128 297.481C438.411 300.762 441.338 306.983 440.853 310.859C440.369 314.735 435.007 317.158 438.327 319.819C441.648 322.481 446.635 318.611 447.462 316.467C448.289 314.322 449.361 305.736 449.361 305.736C449.361 305.736 455.491 319.716 456.977 323.553C458.463 327.39 461.822 332.029 464.904 332.132C467.985 332.236 468.134 328.605 468.134 328.605C468.134 328.605 471.144 331.506 474.019 331.021C476.894 330.537 475.782 328.153 474.988 325.524C474.193 322.894 473.496 319.432 473.496 319.432C473.496 319.432 477.578 322.752 479.342 324.38C481.105 326.008 485.298 328.495 486.448 326.105C487.598 323.715 484.025 320.743 484.025 320.743C483.851 318.123 483.418 315.526 482.733 312.991C481.726 309.761 477.785 305.342 475.705 301.712C473.625 298.081 472.992 296.647 472.992 296.647Z" fill="white" stroke="#263238" stroke-miterlimit="10" stroke-linecap="round"/>
<path d="M468.153 328.631C466.839 325.92 465.689 323.133 464.71 320.284C463.237 315.905 461.629 308.87 461.002 306.46" stroke="#263238" stroke-miterlimit="10" stroke-linecap="round"/>
<path d="M473.515 319.458C473.515 319.458 471.674 313.075 470.789 310.168C470.207 308.169 469.735 306.14 469.374 304.089" stroke="#263238" stroke-miterlimit="10" stroke-linecap="round"/>
<path d="M484.032 320.769C484.032 320.769 481.577 317.106 480.156 314.6C478.735 312.093 475.182 304.658 475.182 304.658" stroke="#263238" stroke-miterlimit="10" stroke-linecap="round"/>
<path d="M521 258V283H496V258H521ZM509.118 282.227L509.106 282.229L509.032 282.266L509.011 282.27L508.997 282.266L508.923 282.229C508.912 282.225 508.903 282.228 508.898 282.234L508.894 282.245L508.876 282.691L508.881 282.711L508.892 282.725L509 282.802L509.016 282.806L509.028 282.802L509.136 282.725L509.149 282.708L509.153 282.691L509.135 282.246C509.133 282.235 509.126 282.228 509.118 282.227ZM509.394 282.109L509.38 282.111L509.187 282.208L509.177 282.219L509.174 282.23L509.193 282.678L509.198 282.691L509.206 282.698L509.416 282.795C509.428 282.799 509.44 282.795 509.446 282.786L509.45 282.772L509.415 282.132C509.411 282.12 509.404 282.111 509.394 282.109ZM508.649 282.111C508.644 282.109 508.639 282.109 508.634 282.11C508.629 282.111 508.624 282.114 508.621 282.118L508.615 282.132L508.579 282.772C508.579 282.784 508.586 282.793 508.597 282.797L508.612 282.795L508.822 282.698L508.832 282.69L508.836 282.678L508.854 282.23L508.851 282.218L508.841 282.207L508.649 282.111Z" fill="#263238"/>
<path d="M506.848 261.138C506.986 261.528 506.963 261.958 506.785 262.332C506.606 262.705 506.286 262.993 505.896 263.131C504.546 263.609 503.353 264.448 502.447 265.558C501.542 266.667 500.959 268.004 500.762 269.423C500.565 270.841 500.762 272.287 501.331 273.601C501.9 274.915 502.819 276.048 503.988 276.875C505.157 277.702 506.531 278.192 507.96 278.291C509.389 278.39 510.817 278.094 512.089 277.436C513.361 276.778 514.428 275.783 515.173 274.56C515.918 273.337 516.312 271.932 516.313 270.5C516.313 269.25 516.021 268.073 515.501 267.029C515.41 266.845 515.355 266.645 515.341 266.441C515.327 266.236 515.354 266.03 515.419 265.836C515.551 265.443 515.834 265.118 516.205 264.934C516.576 264.749 517.005 264.72 517.398 264.852C517.791 264.984 518.115 265.266 518.3 265.638C519.05 267.149 519.44 268.813 519.438 270.5C519.438 276.541 514.541 281.438 508.5 281.438C502.459 281.438 497.562 276.541 497.562 270.5C497.562 265.735 500.608 261.687 504.854 260.185C505.245 260.047 505.674 260.07 506.048 260.249C506.422 260.427 506.71 260.747 506.848 261.138ZM509.021 261.14C509.021 260.902 509.074 260.667 509.178 260.453C509.281 260.239 509.432 260.052 509.618 259.904C509.805 259.757 510.022 259.654 510.254 259.603C510.486 259.551 510.727 259.553 510.958 259.608L511.092 259.647L514.202 260.684C514.583 260.811 514.9 261.08 515.088 261.435C515.277 261.789 515.321 262.203 515.212 262.589C515.104 262.976 514.851 263.306 514.506 263.51C514.16 263.715 513.75 263.78 513.358 263.69L513.215 263.649L512.146 263.293V270.5L512.141 270.7C512.101 271.426 511.844 272.124 511.405 272.704C510.965 273.283 510.362 273.718 509.673 273.952C508.985 274.186 508.242 274.209 507.54 274.017C506.838 273.825 506.21 273.428 505.736 272.877C505.261 272.325 504.963 271.644 504.879 270.922C504.795 270.199 504.929 269.468 505.264 268.822C505.598 268.176 506.119 267.645 506.758 267.298C507.397 266.95 508.125 266.801 508.849 266.871L509.021 266.892V261.14Z" fill="white"/>
<path d="M294 219V234H279V219H294ZM286.871 233.536L286.864 233.538L286.819 233.559L286.807 233.562L286.798 233.559L286.754 233.538C286.748 233.535 286.742 233.537 286.739 233.541L286.736 233.547L286.726 233.814L286.729 233.827L286.735 233.835L286.8 233.881L286.809 233.884L286.817 233.881L286.882 233.835L286.889 233.825L286.892 233.814L286.881 233.547C286.88 233.541 286.876 233.537 286.871 233.536ZM287.036 233.466L287.028 233.467L286.912 233.525L286.906 233.531L286.904 233.538L286.916 233.807L286.919 233.814L286.924 233.819L287.049 233.877C287.057 233.879 287.064 233.877 287.067 233.872L287.07 233.863L287.049 233.479C287.047 233.472 287.042 233.467 287.036 233.466ZM286.589 233.467C286.587 233.466 286.583 233.465 286.58 233.466C286.577 233.467 286.575 233.468 286.573 233.471L286.569 233.479L286.548 233.863C286.548 233.871 286.552 233.876 286.558 233.878L286.567 233.877L286.693 233.819L286.699 233.814L286.702 233.807L286.713 233.538L286.711 233.531L286.704 233.524L286.589 233.467Z" fill="#263238"/>
<path d="M285.509 220.883C285.592 221.117 285.578 221.375 285.471 221.599C285.364 221.823 285.172 221.996 284.938 222.079C284.127 222.365 283.412 222.869 282.868 223.535C282.325 224.2 281.975 225.003 281.857 225.854C281.739 226.705 281.857 227.572 282.198 228.361C282.54 229.149 283.091 229.829 283.793 230.325C284.494 230.821 285.319 231.115 286.176 231.174C287.033 231.234 287.89 231.056 288.654 230.662C289.417 230.267 290.057 229.67 290.504 228.936C290.951 228.202 291.187 227.359 291.188 226.5C291.188 225.75 291.013 225.044 290.701 224.418C290.646 224.307 290.613 224.187 290.605 224.064C290.596 223.942 290.612 223.818 290.651 223.702C290.731 223.466 290.9 223.271 291.123 223.16C291.346 223.05 291.603 223.032 291.839 223.111C292.075 223.19 292.269 223.36 292.38 223.583C292.83 224.489 293.064 225.488 293.063 226.5C293.063 230.124 290.124 233.063 286.5 233.063C282.876 233.063 279.938 230.124 279.938 226.5C279.938 223.641 281.765 221.212 284.313 220.311C284.547 220.228 284.805 220.242 285.029 220.349C285.253 220.456 285.426 220.648 285.509 220.883ZM286.813 220.884C286.812 220.741 286.845 220.6 286.907 220.472C286.969 220.344 287.059 220.231 287.171 220.143C287.283 220.054 287.413 219.992 287.553 219.962C287.692 219.931 287.836 219.932 287.975 219.965L288.055 219.988L289.921 220.611C290.15 220.687 290.34 220.848 290.453 221.061C290.566 221.274 290.593 221.522 290.527 221.753C290.462 221.985 290.31 222.183 290.103 222.306C289.896 222.429 289.65 222.468 289.415 222.414L289.329 222.389L288.688 222.176V226.5L288.684 226.62C288.66 227.056 288.507 227.475 288.243 227.822C287.979 228.17 287.617 228.431 287.204 228.571C286.791 228.712 286.345 228.725 285.924 228.61C285.503 228.495 285.126 228.257 284.841 227.926C284.557 227.595 284.378 227.186 284.327 226.753C284.277 226.319 284.357 225.881 284.558 225.493C284.759 225.106 285.071 224.787 285.455 224.579C285.838 224.37 286.275 224.281 286.709 224.323L286.813 224.335V220.884Z" fill="white"/>
</g>
<defs>
<radialGradient id="paint0_radial_102_232" cx="0" cy="0" r="1" gradientUnits="userSpaceOnUse" gradientTransform="translate(398.5 320) rotate(90) scale(283 398.5)">
<stop stop-color="#D946EF"/>
<stop offset="1" stop-color="#D9D9D9" stop-opacity="0"/>
</radialGradient>
<linearGradient id="paint1_linear_102_232" x1="382.009" y1="147.25" x2="382.009" y2="156.444" gradientUnits="userSpaceOnUse">
<stop stop-color="#0EA5E9"/>
<stop offset="1" stop-color="#D946EF"/>
</linearGradient>
<linearGradient id="paint2_linear_102_232" x1="402.945" y1="143.26" x2="402.945" y2="154.562" gradientUnits="userSpaceOnUse">
<stop stop-color="#0EA5E9"/>
<stop offset="1" stop-color="#D946EF"/>
</linearGradient>
<linearGradient id="paint3_linear_102_232" x1="394.431" y1="336.144" x2="394.431" y2="345.698" gradientUnits="userSpaceOnUse">
<stop stop-color="#0EA5E9"/>
<stop offset="1" stop-color="#D946EF"/>
</linearGradient>
<clipPath id="clip0_102_232">
<rect width="819" height="584" fill="white"/>
</clipPath>
</defs>
</svg>
