<svg width="2944" height="2926" viewBox="0 0 2944 2926" fill="none" xmlns="http://www.w3.org/2000/svg">
<path d="M1472 2925.12C659.037 2925.12 0 2544.63 0 2075.27C0 1605.91 659.037 1225.42 1472 1225.42C2284.96 1225.42 2944 1605.91 2944 2075.27C2944 2544.63 2284.96 2925.12 1472 2925.12Z" fill="url(#paint0_radial_117_376)"/>
<path d="M455.466 2405.26C464.001 2365.96 506.42 2334.75 554.508 2318.64C575.845 2292.14 615.016 2262.14 681.893 2229.47C830.042 2157.24 909.976 2119.92 950.994 2101.38C964.442 2095.59 979.017 2092.9 993.645 2093.49C1008.27 2094.09 1022.58 2097.96 1035.51 2104.82L1375.44 2306.28C1380.09 2308.53 1385.18 2309.7 1390.35 2309.7C1395.51 2309.7 1400.6 2308.53 1405.25 2306.28C1406.22 2305.74 1407.1 2305.05 1407.86 2304.24C1407.15 2303.45 1406.31 2302.78 1405.38 2302.27C1280.67 2229.47 1066.41 2104.06 1032.84 2082.02C1016.09 2070.94 1016.53 2056.54 1022.52 2046.92C1039.14 2019.98 1120.1 1999.66 1155.38 2020.11L1588.49 2270.17C1603.14 2278.64 1611.17 2291.12 1610.4 2304.37C1609.58 2318.57 1599.07 2331.06 1581.49 2338.7C1520.72 2365.07 1415.31 2412.65 1258.25 2489.21C1224.17 2504.92 1192.1 2524.66 1162.71 2547.99C1165.64 2547.55 1168.57 2547.23 1171.5 2546.91C1283.22 2536.02 1343.47 2575.95 1352 2617.67C1358.88 2651.05 1334.36 2681.81 1289.58 2696.08C1226.72 2716.14 1124.94 2690.28 1102.9 2635.38C1097.38 2621.69 1096.82 2606.51 1101.31 2592.45C1074.49 2607.29 1053.35 2627.93 1048.32 2651.11C1041.44 2682.96 1066.34 2716.4 1120.35 2747.61C1276.08 2837.48 1394.23 2782.25 1570.09 2680.73C1595.18 2666.21 1771.61 2565.19 2080.26 2388.63C2100.13 2377.24 2116.64 2360.8 2128.13 2340.99C2139.61 2321.17 2145.67 2298.67 2145.68 2275.77V2195.58C2145.89 2192.71 2147.18 2190.03 2149.29 2188.08C2151.4 2186.12 2154.17 2185.03 2157.05 2185.03C2159.92 2185.03 2162.69 2186.12 2164.8 2188.08C2166.91 2190.03 2168.2 2192.71 2168.42 2195.58V2275.83C2168.4 2302.74 2161.28 2329.16 2147.78 2352.43C2134.28 2375.71 2114.88 2395.01 2091.54 2408.38C1782.88 2584.93 1606.52 2685.95 1581.42 2700.41C1466.33 2766.84 1371.75 2815.44 1274.36 2815.44C1221.31 2815.44 1167.49 2801.04 1108.76 2767.29C1028.64 2721.05 1019.59 2676.02 1025.96 2646.27C1034.5 2606.72 1074.43 2575.44 1119.53 2558.88C1140.61 2532.2 1179.91 2501.88 1247.87 2468.76C1405.31 2392.01 1511.04 2344.3 1572 2317.81C1581.17 2313.86 1587.03 2308.19 1587.28 2303.03C1587.54 2297.87 1583.65 2293.8 1576.71 2289.78L1143.6 2039.66C1125.96 2029.47 1084.05 2035.14 1058.32 2046.99C1044.75 2053.36 1041.18 2058.58 1040.93 2059.34C1040.67 2060.11 1041.5 2060.74 1044.88 2062.97C1078 2084.76 1291.88 2209.91 1416.4 2282.65C1420.57 2284.51 1424.12 2287.53 1426.61 2291.37C1429.1 2295.2 1430.43 2299.67 1430.43 2304.24C1430.43 2308.81 1429.1 2313.28 1426.61 2317.12C1424.12 2320.95 1420.57 2323.98 1416.4 2325.83C1408.25 2330.1 1399.19 2332.33 1390 2332.33C1380.8 2332.33 1371.74 2330.1 1363.6 2325.83L1023.67 2124.31C1013.84 2119.37 1003.06 2116.6 992.072 2116.21C981.08 2115.81 970.131 2117.79 959.975 2122.02C919.084 2140.55 839.405 2177.75 691.447 2249.85C657.379 2265.58 625.307 2285.32 595.908 2308.64C598.902 2308.19 601.831 2307.87 604.761 2307.55C716.478 2296.66 776.731 2336.6 785.203 2378.32C792.081 2411.69 767.56 2442.45 722.784 2456.72C659.919 2476.78 558.138 2450.93 536.164 2396.02C530.356 2381.61 530.016 2365.57 535.209 2350.93C505.465 2365.64 481.834 2386.66 476.739 2410.1C469.988 2441.37 496.548 2475.32 553.616 2508.25L605.462 2538.18C606.668 2537.13 607.968 2536.19 609.347 2535.38C610.962 2534.2 612.865 2533.46 614.859 2533.26C616.853 2533.06 618.865 2533.4 620.684 2534.24L643.295 2546.97C645.304 2545.74 647.587 2545.01 649.943 2544.87C652.298 2544.72 654.653 2545.16 656.798 2546.15L741.764 2595.25C743.98 2596.76 745.743 2598.85 746.865 2601.28C747.987 2603.72 748.425 2606.41 748.133 2609.07C748.109 2610.84 747.96 2612.61 747.688 2614.36L750.808 2616.4L769.916 2628.37L773.61 2630.73L792.718 2642.96L796.158 2645.12L815.648 2657.54L818.769 2659.52L845.328 2669.96C845.731 2670.21 846.096 2670.51 846.411 2670.86L853.608 2677.23C854.368 2678.02 854.954 2678.96 855.327 2679.99C855.7 2681.02 855.852 2682.12 855.774 2683.21C855.569 2686.84 854.518 2690.38 852.704 2693.53C850.891 2696.68 848.365 2699.36 845.328 2701.37C844.399 2701.98 843.356 2702.39 842.261 2702.59C841.167 2702.79 840.043 2702.76 838.959 2702.51L829.787 2699.71C829.276 2699.58 828.783 2699.39 828.322 2699.14L805.966 2681.37L782.209 2668.95L778.642 2667.1L758.515 2656.59L754.63 2654.55L734.758 2644.17L731.318 2642.39C729.947 2643.5 728.5 2644.53 726.987 2645.44C724.837 2647 722.311 2647.95 719.67 2648.21C717.029 2648.47 714.366 2648.02 711.956 2646.91L686.479 2632.32L626.735 2597.8C626.194 2597.49 625.7 2597.11 625.27 2596.65C623.781 2595.26 622.594 2593.57 621.783 2591.7C620.972 2589.82 620.555 2587.8 620.557 2585.76L598.01 2572.71C596.459 2571.82 595.232 2570.46 594.507 2568.82C593.627 2566.81 593.192 2564.64 593.233 2562.45C593.249 2560.87 593.419 2559.29 593.742 2557.74C593.742 2557.74 593.742 2557.74 593.742 2557.29L542.024 2527.42C459.287 2479.4 449.16 2434.43 455.466 2405.26Z" fill="#407BFF" fill-opacity="0.42"/>
<path d="M1274.94 2782.19C1372.32 2782.19 1466.9 2733.59 1582 2667.16C1613.84 2648.76 1876.96 2498.19 2092.11 2375.13C2115.46 2361.76 2134.86 2342.46 2148.36 2319.19C2161.85 2295.91 2168.97 2269.49 2168.99 2242.59V2161.95C2168.77 2159.08 2167.48 2156.4 2165.37 2154.45C2163.27 2152.49 2160.5 2151.4 2157.62 2151.4C2154.74 2151.4 2151.97 2152.49 2149.86 2154.45C2147.76 2156.4 2146.46 2159.08 2146.25 2161.95V2242.59C2146.23 2265.48 2140.18 2287.97 2128.69 2307.77C2117.21 2327.58 2100.7 2344 2080.84 2355.39C1865.68 2478.5 1602.51 2629.27 1570.66 2647.48C1394.68 2749.07 1276.65 2804.23 1120.93 2714.36C1066.92 2683.15 1042.01 2649.77 1048.89 2617.86C1053.92 2594.74 1075 2574.04 1101.88 2559.2C1097.41 2573.28 1097.97 2588.48 1103.47 2602.2C1125.45 2657.03 1227.29 2682.89 1290.16 2662.89C1334.74 2648.63 1359.46 2617.8 1352.58 2584.49C1343.98 2542.71 1283.85 2502.77 1172.07 2513.73C1169.14 2513.73 1166.21 2514.36 1163.22 2514.81C1192.63 2491.49 1224.7 2471.74 1258.76 2455.96C1415.76 2379.53 1521.17 2331.88 1582 2305.45C1599.58 2297.87 1610.09 2285.32 1610.91 2271.12C1611.74 2256.92 1603.65 2245.64 1589 2236.92L1155.89 1986.86C1120.61 1966.48 1039.65 1986.86 1023.03 2013.68C1017.04 2023.42 1016.66 2037.75 1033.35 2048.77C1066.79 2070.74 1281.11 2196.22 1405.89 2269.08C1406.81 2269.58 1407.65 2270.23 1408.37 2270.99C1407.63 2271.82 1406.74 2272.51 1405.76 2273.03C1401.11 2275.28 1396.02 2276.45 1390.86 2276.45C1385.69 2276.45 1380.6 2275.28 1375.95 2273.03L1036.02 2071.51C1023.09 2064.67 1008.78 2060.8 994.154 2060.21C979.529 2059.61 964.956 2062.3 951.504 2068.07C910.55 2086.6 830.488 2123.86 682.403 2196.16C615.271 2228.89 576.1 2258.96 555.017 2285.32C507.184 2301.44 464.51 2332.65 455.975 2372.01C449.606 2401.18 459.733 2446.09 543.68 2494.56L645.142 2553.15C647.752 2554.66 650.852 2555.06 653.761 2554.28C656.67 2553.5 659.148 2551.59 660.652 2548.98C662.155 2546.37 662.56 2543.27 661.778 2540.36C660.995 2537.45 659.09 2534.97 656.48 2533.47L555.017 2474.87C497.694 2441.95 471.389 2408.06 478.14 2376.79C483.236 2353.29 506.866 2332.2 536.61 2317.62C531.418 2332.26 531.757 2348.3 537.566 2362.71C559.54 2417.55 661.32 2443.41 724.185 2423.41C768.77 2409.14 793.483 2378.32 786.604 2345C778.005 2303.22 717.879 2263.29 606.163 2274.24C603.233 2274.24 600.303 2274.88 597.309 2275.26C626.708 2251.94 658.78 2232.21 692.848 2216.47C840.87 2144.37 920.549 2107.18 961.376 2088.71C971.52 2084.44 982.47 2082.43 993.468 2082.81C1004.47 2083.2 1015.25 2085.97 1025.07 2090.94L1365 2292.46C1373.14 2296.73 1382.2 2298.96 1391.4 2298.96C1400.59 2298.96 1409.65 2296.73 1417.8 2292.46C1421.87 2290.44 1425.33 2287.37 1427.82 2283.56C1430.31 2279.75 1431.73 2275.35 1431.94 2270.8C1431.74 2266.29 1430.34 2261.91 1427.89 2258.12C1425.43 2254.32 1422.02 2251.25 1417.99 2249.21C1202.83 2123.61 1070.93 2045.39 1046.47 2029.54C1043.09 2027.31 1042.52 2025.9 1042.52 2025.9C1042.52 2025.9 1046.34 2019.54 1059.91 2013.55C1085.39 2001.7 1127.55 1996.1 1145.19 2006.29L1578.3 2256.34C1585.25 2260.36 1589.13 2265.2 1588.88 2269.59C1588.62 2273.99 1582.51 2280.42 1573.59 2284.37C1512.57 2310.93 1406.78 2358.64 1249.46 2435.32C1181.5 2468.44 1142.2 2499.01 1121.12 2525.51C1076.02 2542.01 1036.09 2573.28 1027.55 2612.83C1021.18 2642.45 1030.29 2687.48 1110.35 2733.85C1168.06 2767.8 1221.88 2782.19 1274.94 2782.19ZM1208.25 2534.55C1281.24 2534.55 1324.42 2560.03 1330.35 2589.07C1334.81 2610.6 1316.72 2630.6 1283.28 2641.24C1231.5 2657.74 1141.88 2636.84 1124.56 2593.72C1118.63 2578.95 1122.2 2562.45 1134.49 2545C1147.39 2540.61 1160.75 2537.68 1174.3 2536.27C1186.27 2535.13 1197.61 2534.55 1208.25 2534.55ZM641.83 2295.07C714.759 2295.07 757.942 2320.55 763.866 2349.59C768.324 2371.12 750.299 2391.12 716.797 2401.75C665.015 2418.25 575.399 2397.36 558.075 2354.24C552.088 2339.27 555.845 2322.39 568.52 2304.81C581.323 2300.85 594.487 2298.16 607.819 2296.79C619.793 2295.64 631.13 2295.07 641.83 2295.07Z" fill="#455A64"/>
<path d="M621.577 2500.86C619.754 2500.03 617.745 2499.7 615.753 2499.91C613.762 2500.11 611.86 2500.83 610.239 2502.01C605.571 2505.05 601.685 2509.15 598.896 2513.97C596.108 2518.8 594.495 2524.21 594.189 2529.78C593.976 2531.79 594.307 2533.82 595.147 2535.65C595.987 2537.49 597.306 2539.07 598.966 2540.22L663.104 2577.23L685.715 2537.87L621.577 2500.86Z" fill="#37474F"/>
<path opacity="0.1" d="M596.099 2520.03C594.932 2523.15 594.286 2526.45 594.188 2529.78C593.975 2531.79 594.306 2533.82 595.147 2535.65C595.987 2537.49 597.306 2539.07 598.965 2540.22L663.104 2577.23L671.129 2563.28L596.099 2520.03Z" fill="black"/>
<path d="M658.327 2566.85C658.629 2561.28 660.239 2555.87 663.028 2551.04C665.817 2546.21 669.706 2542.12 674.378 2539.08C675.988 2537.91 677.876 2537.18 679.853 2536.97C681.831 2536.76 683.83 2537.07 685.651 2537.87C687.311 2539.02 688.63 2540.6 689.47 2542.43C690.31 2544.27 690.641 2546.3 690.428 2548.31C690.127 2553.88 688.516 2559.29 685.727 2564.12C682.938 2568.94 679.05 2573.04 674.378 2576.08C672.85 2577.45 670.928 2578.31 668.886 2578.52C666.845 2578.74 664.788 2578.3 663.008 2577.28C661.229 2576.25 659.818 2574.69 658.977 2572.82C658.137 2570.95 657.909 2568.86 658.327 2566.85Z" fill="#37474F"/>
<path d="M657.69 2513.15C655.281 2512.04 652.618 2511.58 649.975 2511.84C647.332 2512.1 644.807 2513.06 642.659 2514.62C636.461 2518.66 631.304 2524.1 627.607 2530.51C623.911 2536.92 621.779 2544.11 621.385 2551.5C621.1 2554.16 621.542 2556.85 622.663 2559.29C623.785 2561.72 625.544 2563.8 627.755 2565.32L712.784 2614.36L742.72 2562.2L657.69 2513.15Z" fill="#455A64"/>
<path opacity="0.1" d="M623.933 2538.57C622.363 2542.64 621.502 2546.94 621.386 2551.31C621.101 2553.97 621.542 2556.66 622.664 2559.09C623.785 2561.53 625.544 2563.61 627.755 2565.13L712.784 2614.17L723.357 2595.76L623.933 2538.57Z" fill="black"/>
<path d="M706.478 2600.6C706.867 2593.22 708.997 2586.04 712.694 2579.64C716.392 2573.24 721.552 2567.81 727.752 2563.79C729.735 2561.84 732.302 2560.59 735.061 2560.24C737.819 2559.89 740.618 2560.44 743.029 2561.83C745.44 2563.22 747.331 2565.35 748.414 2567.92C749.497 2570.48 749.711 2573.32 749.025 2576.02C748.616 2583.4 746.478 2590.59 742.783 2596.99C739.088 2603.4 733.939 2608.85 727.752 2612.9C725.766 2614.86 723.19 2616.11 720.422 2616.47C717.653 2616.82 714.844 2616.26 712.428 2614.86C710.011 2613.47 708.119 2611.31 707.045 2608.74C705.97 2606.16 705.771 2603.3 706.478 2600.6Z" fill="#37474F"/>
<path d="M727.752 2574.36C728.96 2573.48 730.383 2572.93 731.874 2572.79C733.364 2572.64 734.867 2572.9 736.223 2573.53L819.533 2626.53L846.093 2636.91L829.087 2666.53L806.731 2648.75L719.217 2603.21C717.977 2602.36 716.991 2601.19 716.363 2599.82C715.735 2598.45 715.489 2596.94 715.65 2595.44C715.864 2591.23 717.072 2587.12 719.175 2583.45C721.278 2579.79 724.217 2576.67 727.752 2574.36Z" fill="#407BFF"/>
<path opacity="0.7" d="M727.752 2574.36C728.96 2573.48 730.383 2572.93 731.874 2572.79C733.364 2572.64 734.867 2572.9 736.223 2573.53L819.533 2626.53L846.093 2636.91L829.087 2666.53L806.731 2648.75L719.217 2603.21C717.977 2602.36 716.991 2601.19 716.363 2599.82C715.735 2598.45 715.489 2596.94 715.65 2595.44C715.864 2591.23 717.072 2587.12 719.175 2583.45C721.278 2579.79 724.217 2576.67 727.752 2574.36Z" fill="white"/>
<path d="M837.622 2637.8C838.832 2636.92 840.251 2636.38 841.738 2636.22C843.225 2636.07 844.726 2636.3 846.093 2636.91L847.175 2637.8L854.182 2644.49L839.532 2669.96L830.361 2667.23C829.846 2667.08 829.353 2666.87 828.896 2666.59C827.65 2665.73 826.662 2664.54 826.034 2663.16C825.406 2661.78 825.162 2660.26 825.329 2658.75C825.579 2654.54 826.823 2650.44 828.959 2646.8C831.096 2643.16 834.064 2640.07 837.622 2637.8Z" fill="#407BFF"/>
<path opacity="0.5" d="M837.622 2637.8C838.832 2636.92 840.251 2636.38 841.738 2636.22C843.225 2636.07 844.726 2636.3 846.093 2636.91L847.175 2637.8L854.182 2644.49L839.532 2669.96L830.361 2667.23C829.846 2667.08 829.353 2666.87 828.896 2666.59C827.65 2665.73 826.662 2664.54 826.034 2663.16C825.406 2661.78 825.162 2660.26 825.329 2658.75C825.579 2654.54 826.823 2650.44 828.959 2646.8C831.096 2643.16 834.064 2640.07 837.622 2637.8Z" fill="white"/>
<path d="M835.52 2662.64C835.727 2659 836.785 2655.46 838.611 2652.31C840.436 2649.16 842.977 2646.48 846.029 2644.49C847.031 2643.61 848.283 2643.06 849.61 2642.93C850.937 2642.8 852.271 2643.09 853.425 2643.76C854.578 2644.43 855.493 2645.44 856.041 2646.66C856.588 2647.87 856.739 2649.23 856.475 2650.54C856.275 2654.17 855.226 2657.7 853.412 2660.86C851.598 2664.01 849.069 2666.69 846.029 2668.69C845.031 2669.6 843.771 2670.16 842.43 2670.31C841.09 2670.45 839.738 2670.17 838.569 2669.49C837.401 2668.82 836.476 2667.8 835.928 2666.56C835.38 2665.33 835.237 2663.96 835.52 2662.64Z" fill="#407BFF"/>
<path d="M819.533 2626.53C818.51 2626.06 817.382 2625.87 816.263 2625.99C815.144 2626.1 814.075 2626.5 813.164 2627.16C810.538 2628.89 808.353 2631.2 806.782 2633.92C805.212 2636.64 804.3 2639.7 804.12 2642.83C803.986 2643.96 804.157 2645.11 804.617 2646.15C805.076 2647.19 805.806 2648.09 806.731 2648.75L803.419 2647.04C802.508 2646.33 801.79 2645.4 801.333 2644.35C800.877 2643.29 800.696 2642.13 800.808 2640.98C800.985 2637.83 801.902 2634.76 803.484 2632.03C805.067 2629.3 807.27 2626.98 809.916 2625.25C810.835 2624.62 811.896 2624.22 813.006 2624.08C814.116 2623.95 815.241 2624.09 816.285 2624.49L819.533 2626.53Z" fill="#407BFF"/>
<path d="M796.858 2612.13C795.752 2611.63 794.533 2611.43 793.324 2611.55C792.116 2611.68 790.962 2612.12 789.98 2612.83C787.103 2614.71 784.709 2617.24 782.994 2620.22C781.279 2623.19 780.29 2626.53 780.107 2629.97C779.979 2631.18 780.17 2632.41 780.662 2633.52C781.153 2634.64 781.928 2635.61 782.91 2636.33L779.343 2634.42C778.373 2633.68 777.602 2632.72 777.102 2631.6C776.601 2630.49 776.386 2629.27 776.477 2628.05C776.674 2624.64 777.67 2621.31 779.384 2618.35C781.099 2615.38 783.484 2612.86 786.349 2610.99C787.357 2610.25 788.533 2609.79 789.769 2609.63C791.005 2609.47 792.261 2609.63 793.419 2610.09L796.858 2612.13Z" fill="#407BFF"/>
<path d="M774.312 2597.74C773.111 2597.2 771.791 2596.99 770.484 2597.12C769.176 2597.26 767.926 2597.73 766.86 2598.5C763.747 2600.53 761.156 2603.27 759.297 2606.49C757.439 2609.71 756.363 2613.32 756.159 2617.04C756.014 2618.36 756.22 2619.7 756.757 2620.92C757.294 2622.14 758.142 2623.19 759.216 2623.98L755.331 2621.94C754.255 2621.11 753.41 2620.02 752.875 2618.77C752.339 2617.52 752.133 2616.16 752.274 2614.81C752.478 2611.09 753.553 2607.48 755.412 2604.26C757.271 2601.04 759.862 2598.31 762.974 2596.27C764.069 2595.49 765.344 2595 766.681 2594.84C768.018 2594.69 769.372 2594.87 770.617 2595.38L774.312 2597.74Z" fill="#407BFF"/>
<path d="M751.7 2583.34C750.406 2582.77 748.985 2582.55 747.578 2582.69C746.171 2582.84 744.826 2583.35 743.675 2584.17C740.323 2586.36 737.532 2589.3 735.53 2592.76C733.527 2596.23 732.368 2600.11 732.147 2604.11C731.991 2605.55 732.222 2607 732.815 2608.32C733.408 2609.64 734.343 2610.78 735.522 2611.62L731.255 2609.39C730.103 2608.51 729.199 2607.34 728.63 2606C728.061 2604.66 727.846 2603.2 728.007 2601.75C728.221 2597.76 729.37 2593.88 731.361 2590.41C733.353 2586.95 736.131 2584.01 739.471 2581.81C740.651 2580.96 742.031 2580.41 743.479 2580.23C744.928 2580.05 746.398 2580.25 747.751 2580.8L751.7 2583.34Z" fill="#407BFF"/>
<g opacity="0.1">
<path d="M819.533 2626.53C818.51 2626.06 817.382 2625.87 816.263 2625.99C815.144 2626.1 814.075 2626.5 813.164 2627.16C810.538 2628.89 808.353 2631.2 806.782 2633.92C805.212 2636.64 804.3 2639.7 804.12 2642.83C803.986 2643.96 804.157 2645.11 804.617 2646.15C805.076 2647.19 805.806 2648.09 806.731 2648.75L803.419 2647.04C802.508 2646.33 801.79 2645.4 801.333 2644.35C800.877 2643.29 800.696 2642.13 800.808 2640.98C800.985 2637.83 801.902 2634.76 803.484 2632.03C805.067 2629.3 807.27 2626.98 809.916 2625.25C810.835 2624.62 811.896 2624.22 813.006 2624.08C814.116 2623.95 815.241 2624.09 816.285 2624.49L819.533 2626.53Z" fill="black"/>
<path d="M796.858 2612.13C795.752 2611.63 794.533 2611.43 793.324 2611.55C792.116 2611.68 790.962 2612.12 789.98 2612.83C787.103 2614.71 784.709 2617.24 782.994 2620.22C781.279 2623.19 780.29 2626.53 780.107 2629.97C779.979 2631.18 780.17 2632.41 780.662 2633.52C781.153 2634.64 781.928 2635.61 782.91 2636.33L779.343 2634.42C778.373 2633.68 777.602 2632.72 777.102 2631.6C776.601 2630.49 776.386 2629.27 776.477 2628.05C776.674 2624.64 777.67 2621.31 779.384 2618.35C781.099 2615.38 783.484 2612.86 786.349 2610.99C787.357 2610.25 788.533 2609.79 789.769 2609.63C791.005 2609.47 792.261 2609.63 793.419 2610.09L796.858 2612.13Z" fill="black"/>
<path d="M774.312 2597.74C773.111 2597.2 771.791 2596.99 770.484 2597.12C769.176 2597.26 767.926 2597.73 766.86 2598.5C763.747 2600.53 761.156 2603.27 759.297 2606.49C757.439 2609.71 756.363 2613.32 756.159 2617.04C756.014 2618.36 756.22 2619.7 756.757 2620.92C757.294 2622.14 758.142 2623.19 759.216 2623.98L755.331 2621.94C754.255 2621.11 753.41 2620.02 752.875 2618.77C752.339 2617.52 752.133 2616.16 752.274 2614.81C752.478 2611.09 753.553 2607.48 755.412 2604.26C757.271 2601.04 759.862 2598.31 762.974 2596.27C764.069 2595.49 765.344 2595 766.681 2594.84C768.018 2594.69 769.372 2594.87 770.617 2595.38L774.312 2597.74Z" fill="black"/>
<path d="M751.7 2583.34C750.406 2582.77 748.985 2582.55 747.578 2582.69C746.171 2582.84 744.826 2583.35 743.675 2584.17C740.323 2586.36 737.532 2589.3 735.53 2592.76C733.527 2596.23 732.368 2600.11 732.147 2604.11C731.991 2605.55 732.222 2607 732.815 2608.32C733.408 2609.64 734.343 2610.78 735.522 2611.62L731.255 2609.39C730.103 2608.51 729.199 2607.34 728.63 2606C728.061 2604.66 727.846 2603.2 728.007 2601.75C728.221 2597.76 729.37 2593.88 731.361 2590.41C733.353 2586.95 736.131 2584.01 739.471 2581.81C740.651 2580.96 742.031 2580.41 743.479 2580.23C744.928 2580.05 746.398 2580.25 747.751 2580.8L751.7 2583.34Z" fill="black"/>
</g>
<path d="M1560.47 1015.99C1562.83 1016.95 1565.18 1017.84 1567.41 1018.99C1569.64 1020.13 1571.04 1020.9 1572.76 1021.85C1574.48 1022.81 1577.09 1024.34 1579.13 1025.68C1581.17 1027.01 1582.51 1028.03 1584.16 1029.31C1585.82 1030.58 1588.05 1032.36 1589.96 1034.02C1591.87 1035.68 1593.02 1036.76 1594.48 1038.22C1595.95 1039.69 1598.05 1041.85 1599.77 1043.76C1601.49 1045.68 1602.51 1047.01 1603.84 1048.67C1605.18 1050.33 1607.03 1052.87 1608.56 1055.04C1610.09 1057.2 1610.91 1058.48 1612 1060.26L1612.76 1061.53C1613.97 1063.57 1615.12 1065.67 1616.2 1067.9C1616.58 1068.54 1616.9 1069.18 1617.22 1069.82C1618.11 1071.53 1619 1073.32 1619.77 1075.1C1620.53 1076.88 1621.17 1078.29 1621.81 1079.88C1622.44 1081.47 1622.7 1081.85 1623.08 1082.94L1624.23 1085.8C1624.99 1087.84 1625.69 1089.94 1626.33 1092.17C1626.96 1094.4 1627.54 1095.87 1628.05 1097.71C1629 1101.09 1629.96 1104.53 1630.72 1108.09C1631.32 1110.47 1631.83 1112.89 1632.25 1115.36C1632.25 1116.69 1632.76 1117.97 1633.02 1119.37C1633.27 1120.77 1633.52 1122.23 1633.72 1123.76C1634.29 1127.33 1634.67 1131.09 1635.05 1134.85C1635.05 1136.63 1635.5 1138.35 1635.63 1140.13C1635.63 1140.83 1635.63 1141.47 1635.63 1142.17C1636.07 1148.54 1636.33 1154.53 1636.33 1160.96C1636.14 1186.89 1633.04 1212.72 1627.09 1237.96C1603.4 1342.1 1535.69 1449.74 1452.89 1511.33C1443.19 1518.67 1433.07 1525.44 1422.57 1531.59L1418.24 1533.94C1415.82 1535.28 1413.4 1536.68 1410.98 1537.89L1405.44 1540.63L1399.45 1543.5L1393.4 1546.11L1388.12 1548.27C1386.02 1549.1 1383.98 1549.87 1381.75 1550.57L1376.72 1552.29L1370.67 1554.2L1365.32 1555.6L1359.84 1557L1352.58 1558.4L1349.2 1559.04L1346.33 1559.36L1302.9 1534.39C1329.82 1530.07 1355.65 1520.62 1379.01 1506.56C1497.48 1438.28 1593.02 1272.04 1593.02 1135.74C1593.02 1080.39 1577.22 1038.48 1550.6 1012.62L1554.8 1013.83C1556.78 1014.47 1558.62 1015.23 1560.47 1015.99Z" fill="#263238"/>
<path d="M1522.13 969.881C1528.74 972.191 1535.14 975.09 1541.23 978.544L1584.48 1003.51C1565.44 992.741 1544 986.936 1522.13 986.633V969.881Z" fill="#37474F"/>
<path d="M1349.14 1559.04L1352.51 1558.4L1359.77 1557L1365.25 1555.6L1368.82 1554.71L1370.6 1554.2L1376.46 1552.29L1381.49 1550.57L1387.86 1548.27L1393.15 1546.11L1399.2 1543.5L1405.19 1540.63L1410.73 1537.89C1413.15 1536.68 1415.63 1535.28 1418.12 1533.88C1419.45 1533.12 1420.86 1532.48 1422.26 1531.65C1432.37 1525.7 1442.15 1519.19 1451.56 1512.16C1478.52 1492.07 1502.96 1468.8 1524.36 1442.86C1542.83 1420.6 1559.41 1396.82 1573.91 1371.78C1597.86 1330.73 1615.69 1286.4 1626.84 1240.19L1627.22 1238.03C1633.16 1212.83 1636.26 1187.04 1636.46 1161.15C1636.46 1155.16 1636.46 1149.37 1635.82 1143.63C1635.82 1142.81 1635.82 1141.98 1635.82 1141.15C1635.85 1140.58 1635.85 1140 1635.82 1139.43C1635.44 1134.65 1634.93 1129.94 1634.23 1125.36L1633.84 1122.43C1633.84 1120.9 1633.27 1119.5 1633.02 1117.97C1632.76 1116.44 1632.19 1113.76 1631.74 1111.6C1631.3 1109.43 1630.85 1107.14 1630.34 1105.23C1629.83 1103.32 1629.07 1100.64 1628.37 1098.35C1628.37 1097.46 1627.92 1096.57 1627.67 1095.74C1627.41 1094.91 1627.67 1095.04 1627.35 1094.72C1626.77 1092.87 1626.2 1090.96 1625.56 1089.11C1624.93 1087.27 1623.91 1084.78 1623.02 1082.74C1622.12 1080.71 1620.85 1077.2 1619.58 1074.53C1618.3 1071.85 1617.73 1070.83 1616.77 1068.99L1615.63 1066.82C1614.61 1064.91 1613.53 1063.06 1612.44 1061.22C1611.36 1059.37 1610.34 1057.97 1609.26 1056.38L1607.79 1054.27C1607.03 1053.06 1606.2 1051.92 1605.37 1050.83L1603.4 1048.35C1602.83 1047.65 1602.32 1046.89 1601.68 1046.19L1598.18 1042.17L1596.97 1040.96C1595.5 1039.43 1594.04 1037.91 1592.44 1036.44C1591.74 1035.8 1590.91 1035.23 1590.21 1034.66C1588.3 1033 1586.39 1031.41 1584.42 1029.94C1582.44 1028.48 1581.11 1027.46 1579.39 1026.31C1577.67 1025.17 1575.18 1023.7 1573.02 1022.49C1570.85 1021.28 1569.51 1020.52 1567.67 1019.63C1565.82 1018.73 1563.08 1017.59 1560.72 1016.63C1558.37 1015.68 1557.03 1015.1 1555.12 1014.47C1553.21 1013.83 1552.25 1013.57 1550.79 1013.13L1547.54 1012.3C1545.63 1011.85 1543.72 1011.28 1541.74 1010.9C1539.77 1010.52 1536.14 1010.01 1533.34 1009.69C1530.53 1009.37 1529.58 1009.12 1527.6 1008.99C1525.63 1008.86 1524.16 1008.99 1522.38 1008.99V987.588C1544.25 987.892 1565.7 993.696 1584.74 1004.47C1587.41 1006.06 1590.02 1007.71 1592.63 1009.5L1593.97 1010.39C1601.42 1015.69 1608.27 1021.78 1614.42 1028.54L1616.52 1030.84C1618.37 1032.94 1620.15 1035.1 1621.93 1037.2L1623.46 1039.43C1626.41 1043.41 1629.15 1047.53 1631.68 1051.79C1632.57 1053.38 1633.53 1054.97 1634.42 1056.63C1635.31 1058.29 1636.65 1060.83 1637.73 1063C1638.81 1065.17 1639.77 1067.39 1640.79 1069.37C1641.81 1071.34 1642.7 1073.83 1643.59 1076.12C1644.99 1079.69 1646.26 1083.38 1647.47 1087.14C1647.98 1088.92 1648.56 1090.77 1649.07 1092.62C1649.96 1095.8 1650.79 1098.99 1651.61 1102.36C1652 1104.02 1652.38 1105.61 1652.7 1107.27C1653.76 1112.11 1654.65 1117.08 1655.37 1122.17C1655.37 1123.44 1655.69 1124.72 1655.82 1125.93C1656.39 1130.26 1656.84 1134.59 1657.16 1138.67C1657.16 1140.26 1657.16 1141.85 1657.47 1143.44C1657.86 1149.11 1658.05 1154.84 1658.05 1160.7C1657.53 1198.49 1651.5 1236 1640.15 1272.04C1634.32 1291.13 1627.39 1309.87 1619.39 1328.15C1615.14 1337.41 1610.89 1346.56 1606.65 1355.6C1592.87 1382.8 1576.87 1408.81 1558.81 1433.37C1522.95 1482.1 1479.71 1523.43 1433.21 1550.25C1414.75 1561.24 1394.95 1569.8 1374.3 1575.73L1346.53 1559.8L1349.14 1559.04Z" fill="#455A64"/>
<path d="M1131.18 1342.8C1131.18 1218.22 1218.63 1066.76 1326.53 1004.47C1380.67 973.257 1429.58 970.391 1464.93 990.963C1475.69 997.333 1547.73 1038.8 1558.75 1044.97C1594.29 1065.29 1616.07 1109.11 1616.07 1171.6C1616.07 1296.18 1528.62 1447.64 1420.73 1509.93C1366.72 1541.14 1317.8 1544.01 1282.45 1523.5C1271.62 1517.13 1199.01 1475.47 1188.12 1469.17C1153.03 1448.79 1131.18 1405.03 1131.18 1342.8Z" fill="#407BFF"/>
<path opacity="0.3" d="M1131.18 1342.8C1131.18 1218.22 1218.63 1066.76 1326.53 1004.47C1380.67 973.257 1429.58 970.391 1464.93 990.963C1475.69 997.333 1547.73 1038.8 1558.75 1044.97C1594.29 1065.29 1616.07 1109.11 1616.07 1171.6C1616.07 1296.18 1528.62 1447.64 1420.73 1509.93C1366.72 1541.14 1317.8 1544.01 1282.45 1523.5C1271.62 1517.13 1199.01 1475.47 1188.12 1469.17C1153.03 1448.79 1131.18 1405.03 1131.18 1342.8Z" fill="black"/>
<path d="M1421.05 1058.8C1313.21 1121.09 1225.76 1272.61 1225.76 1397.13C1225.76 1521.65 1312.77 1572.22 1421.05 1509.93C1529.32 1447.64 1616.39 1296.18 1616.39 1171.6C1616.39 1047.01 1528.81 996.505 1421.05 1058.8Z" fill="#407BFF"/>
<path d="M1338.25 1560.31H1337.29C1333.98 1560.31 1330.92 1560.69 1327.48 1560.76H1325.89C1321.21 1560.78 1316.53 1560.5 1311.88 1559.93H1311.37C1307.47 1559.42 1303.6 1558.69 1299.78 1557.76C1298.18 1557.45 1296.53 1557.06 1294.93 1556.62C1291.94 1555.79 1288.95 1554.83 1286.02 1553.75C1283.09 1552.67 1281.62 1551.97 1279.65 1550.95C1278.57 1550.5 1277.61 1549.99 1276.59 1549.48C1267.22 1544.74 1258.63 1538.6 1251.11 1531.27C1268.07 1535.95 1285.82 1537.01 1303.21 1534.39L1346.65 1559.36C1343.6 1559.74 1340.92 1560.12 1338.25 1560.31Z" fill="#263238"/>
<path d="M1368.24 1021.85C1367.14 1038.55 1359.93 1054.26 1347.99 1065.99C1254.94 1151.53 1186.91 1290.38 1186.91 1408.02C1186.91 1493.63 1222.83 1554.52 1281.56 1574.96C1274.06 1572.52 1266.85 1569.23 1260.09 1565.15L1216.85 1540.18C1170.86 1513.69 1143.47 1457.38 1143.47 1382.93C1143.47 1265.35 1211.56 1126.44 1304.62 1040.96C1316.52 1029.21 1323.72 1013.51 1324.87 996.823V823.516L1368.24 848.611V1021.85Z" fill="#37474F"/>
<path d="M1347.99 1065.99C1359.93 1054.26 1367.14 1038.55 1368.24 1021.85V848.611L1389.65 836.254V1032.24C1389.59 1034.85 1389.29 1037.45 1388.75 1040.01L1388.37 1041.92C1387.76 1044.64 1386.98 1047.32 1386.01 1049.94C1384.46 1054 1382.57 1057.92 1380.35 1061.66L1378.56 1064.27C1376.91 1066.91 1375.03 1069.4 1372.96 1071.73C1371.7 1073.18 1370.33 1074.54 1368.88 1075.8C1363.72 1080.32 1358.69 1085.04 1353.72 1089.81L1349.77 1093.7C1345.44 1098.03 1341.18 1102.43 1337.04 1107.01L1335.12 1108.99C1330.41 1114.14 1325.83 1119.43 1321.24 1124.91L1317.8 1129.11C1314.04 1133.7 1310.35 1138.41 1306.78 1143.13L1304.17 1146.56C1299.9 1152.23 1295.76 1158.09 1291.75 1163.95L1288.95 1168.22C1285.64 1173.12 1282.58 1178.16 1279.33 1183.19L1276.65 1187.52C1272.9 1193.89 1269.33 1199.88 1265.83 1206.18L1263.85 1209.94C1260.99 1215.23 1258.18 1220.58 1255.51 1225.99L1253.02 1231.02C1249.88 1237.43 1246.89 1243.93 1244.04 1250.51C1243.73 1251.4 1243.34 1252.23 1243.02 1253.12C1240.54 1258.92 1238.18 1264.78 1235.89 1270.7C1235.25 1272.48 1234.55 1274.2 1233.92 1275.99C1231.43 1282.36 1229.08 1289.43 1226.97 1296.11C1224.87 1302.8 1222.9 1309.62 1221.11 1316.37L1219.97 1320.7C1218.31 1327.07 1216.78 1333.82 1215.45 1340.38L1214.87 1343.69C1213.68 1349.72 1212.66 1355.71 1211.82 1361.65C1211.82 1362.74 1211.5 1363.88 1211.31 1364.97C1210.48 1371.34 1209.78 1377.71 1209.33 1384.07C1209.33 1385.48 1209.33 1386.88 1209.01 1388.28C1208.63 1394.65 1208.31 1401.4 1208.31 1407.83C1208.31 1446.05 1215.89 1477.89 1229.46 1502.8C1232.37 1508.13 1235.67 1513.24 1239.33 1518.08C1241.11 1520.44 1242.96 1522.73 1244.87 1524.9C1246.78 1527.06 1248.76 1529.1 1250.8 1531.27C1258.31 1538.6 1266.9 1544.74 1276.27 1549.48C1277.23 1549.99 1278.25 1550.5 1279.33 1550.95C1281.43 1551.97 1283.6 1552.92 1285.7 1553.75C1287.8 1554.58 1291.18 1555.66 1293.92 1556.43H1294.62C1296.21 1556.87 1297.8 1557.25 1299.46 1557.57L1302.32 1558.34C1305.19 1558.91 1308.12 1559.36 1311.05 1559.74H1311.56C1316.21 1560.31 1320.89 1560.58 1325.57 1560.57H1329.2C1331.75 1560.57 1334.36 1560.57 1336.97 1560.12H1338.25C1340.92 1560.12 1343.6 1559.61 1346.33 1559.23L1374.1 1575.15C1358.7 1579.6 1342.75 1581.91 1326.72 1582.03C1324.55 1582.03 1322.45 1582.03 1320.35 1581.71C1318.25 1581.39 1314.55 1581.71 1311.88 1581.27L1306.97 1580.57C1303.85 1580.12 1300.6 1579.67 1297.86 1579.1C1296.4 1579.1 1294.93 1578.46 1293.47 1578.08L1291.69 1577.57C1288.95 1576.87 1286.21 1576.23 1283.53 1575.34L1281.62 1574.77C1222.9 1554.52 1186.98 1493.43 1186.98 1407.83C1186.91 1290.38 1254.94 1151.53 1347.99 1065.99Z" fill="#455A64"/>
<path d="M1465.63 1012.43L1464.74 1012.05C1464.22 1011.86 1463.73 1011.6 1463.27 1011.28L1419.84 986.187C1417.04 984.406 1414.78 981.904 1413.29 978.944C1411.8 975.985 1411.13 972.677 1411.36 969.372V773.39L1454.74 798.484V994.467C1454.43 998.226 1455.32 1001.99 1457.27 1005.21C1459.23 1008.44 1462.15 1010.96 1465.63 1012.43Z" fill="#37474F"/>
<path d="M1517.99 986.569C1507.56 986.611 1497.16 987.592 1486.9 989.499C1485.64 989.842 1484.32 989.882 1483.04 989.615C1481.75 989.347 1480.56 988.78 1479.54 987.96C1478.52 987.14 1477.71 986.089 1477.17 984.895C1476.64 983.701 1476.39 982.398 1476.46 981.091V961.601C1492.04 961.784 1507.47 964.583 1522.13 969.881V986.824C1520.72 986.76 1519.39 986.569 1517.99 986.569Z" fill="#37474F"/>
<path d="M1512.51 1008.1C1507.35 1008.29 1502.2 1008.76 1497.1 1009.5C1492.13 1010.26 1487.03 1011.28 1481.94 1012.56H1480.98H1480.47C1478.84 1012.95 1477.18 1013.23 1475.5 1013.38H1475.06C1473.68 1013.51 1472.29 1013.51 1470.92 1013.38H1470.15C1468.86 1013.17 1467.58 1012.85 1466.33 1012.43C1462.86 1010.96 1459.93 1008.44 1457.97 1005.21C1456.02 1001.99 1455.13 998.226 1455.44 994.467V798.484L1476.84 785.746V980.773C1476.78 982.079 1477.02 983.383 1477.55 984.577C1478.09 985.771 1478.9 986.821 1479.92 987.641C1480.94 988.462 1482.14 989.029 1483.42 989.296C1484.7 989.564 1486.02 989.524 1487.29 989.18C1497.54 987.273 1507.94 986.293 1518.37 986.25C1519.77 986.25 1521.11 986.25 1522.51 986.25V1007.65C1520.98 1007.65 1519.52 1007.65 1517.99 1007.65C1516.46 1007.65 1514.23 1008.03 1512.51 1008.1Z" fill="#455A64"/>
<path d="M1151.18 1461.27C1151.18 1277.2 1280.41 1053.64 1439.84 961.346C1519.45 915.36 1591.49 911.029 1643.65 941.092L1730.85 991.409C1782.95 1021.6 1815.24 1086.12 1815.24 1178.09C1815.24 1362.16 1686.01 1585.73 1526.65 1678.02C1447.03 1723.94 1375 1728.33 1322.83 1698.27L1235.7 1647.83C1183.47 1617.83 1151.18 1553.24 1151.18 1461.27Z" fill="#407BFF"/>
<path opacity="0.1" d="M1322.54 1698.21C1209.82 1633.13 1209.83 1422.1 1322.55 1226.86C1435.28 1031.62 1618.03 926.101 1730.75 991.178C1843.46 1056.25 1843.46 1267.28 1730.73 1462.53C1618.01 1657.77 1435.26 1763.29 1322.54 1698.21Z" fill="black"/>
<path d="M1237.87 1511.4C1237.87 1327.32 1367.1 1103.76 1526.52 1011.47C1606.26 965.423 1678.43 961.155 1730.66 991.409L1773.84 1016.31C1826.19 1046.44 1858.55 1111.09 1858.55 1203.19C1858.55 1387.26 1729.32 1610.82 1569.96 1703.11C1490.22 1749.1 1418.05 1753.43 1365.82 1723.24L1322.39 1698.14C1270.22 1668.02 1237.87 1603.24 1237.87 1511.4Z" fill="#F0F0F0"/>
<path d="M1569.96 1036.38C1410.73 1128.41 1281.3 1352.23 1281.3 1536.3C1281.3 1720.37 1410.54 1794.96 1569.96 1702.92C1729.38 1610.88 1858.55 1387.07 1858.55 1203C1858.55 1018.92 1729.32 944.532 1569.96 1036.38Z" fill="#E0E0E0"/>
<path d="M1260.09 1536.49C1260.09 1345.92 1394.36 1113.38 1559.45 1018.1C1608.05 990.008 1654.99 975.805 1699.06 975.805C1729.2 975.387 1758.89 983.063 1785.05 998.033C1799.44 1006.44 1857.66 1039.75 1872.44 1048.35C1931.67 1083.06 1966.96 1156.05 1966.96 1253.38C1966.96 1443.95 1832.69 1676.49 1667.6 1771.77C1619 1799.86 1572.06 1814.06 1527.99 1814.06C1497.65 1814.48 1467.76 1806.69 1441.49 1791.52C1427.35 1783.17 1369.84 1750.31 1355.19 1741.84C1295.57 1707.25 1260.09 1634.13 1260.09 1536.49Z" fill="#455A64"/>
<path d="M1527.99 1814.06C1572 1814.06 1619 1799.86 1667.6 1771.77C1832.63 1676.23 1966.96 1443.95 1966.96 1253.38C1966.96 1115.16 1895.87 1025.93 1785.88 1025.93C1741.8 1025.93 1694.86 1040.13 1646.26 1068.22C1481.24 1163.76 1346.91 1396.05 1346.91 1586.62C1346.91 1724.77 1417.99 1814.06 1527.99 1814.06Z" fill="#37474F"/>
<path d="M1592.51 1616.81C1617.32 1616.06 1641.49 1608.76 1662.57 1595.66C1744.99 1548.08 1812.05 1431.97 1812.05 1336.75C1812.05 1267.77 1776.51 1223.19 1721.61 1223.19C1696.92 1223.99 1672.87 1231.26 1651.87 1244.27C1569.45 1291.91 1502.38 1408.02 1502.38 1503.24C1502.06 1572.22 1537.6 1616.81 1592.51 1616.81Z" fill="#263238"/>
<path d="M1960.65 1940.81C1960.65 1750.24 2094.91 1517.7 2260.01 1422.35C2308.6 1394.33 2355.54 1380.13 2399.56 1380.13C2429.69 1379.69 2459.39 1387.37 2485.54 1402.35C2499.94 1410.76 2558.21 1444.07 2572.93 1452.67C2632.23 1487.38 2667.51 1560.38 2667.51 1657.63C2667.51 1848.2 2533.25 2080.81 2368.16 2176.09C2319.56 2204.18 2272.62 2218.38 2228.6 2218.38C2198.22 2218.75 2168.31 2210.87 2142.05 2195.58C2127.84 2187.24 2070.33 2154.37 2055.74 2145.9C1996.13 2111.57 1960.65 2038.45 1960.65 1940.81Z" fill="#455A64"/>
<path d="M2228.54 2218.38C2272.55 2218.38 2319.49 2204.18 2368.09 2176.09C2533.18 2080.55 2667.45 1848.2 2667.45 1657.63C2667.45 1519.48 2596.37 1430.25 2486.31 1430.25C2442.29 1430.25 2395.35 1444.45 2346.75 1472.48C2181.73 1568.02 2047.4 1800.37 2047.4 1990.94C2047.46 2129.09 2118.54 2218.38 2228.54 2218.38Z" fill="#37474F"/>
<path d="M2068.8 1990.94C2068.8 1806.87 2198.03 1583.3 2357.45 1491.01C2437.2 1444.96 2509.36 1440.63 2561.27 1470.89L2604.45 1495.86C2656.75 1525.98 2689.17 1590.57 2689.17 1682.67C2689.17 1866.74 2559.93 2090.3 2400.51 2182.59C2320.77 2228.64 2248.67 2232.91 2196.69 2202.78L2153.26 2177.68C2101.09 2147.49 2068.8 2082.91 2068.8 1990.94Z" fill="#F0F0F0"/>
<path d="M2400.83 1516.05C2241.6 1608.08 2112.17 1831.9 2112.17 2015.97C2112.17 2200.04 2241.41 2274.62 2400.83 2182.84C2560.25 2091.06 2689.48 1866.99 2689.48 1682.92C2689.48 1498.85 2560.25 1424.01 2400.83 1516.05Z" fill="#E0E0E0"/>
<path d="M2112.17 2015.97C2112.17 1831.9 2241.41 1608.34 2400.83 1516.05C2480.45 1470.06 2552.48 1465.73 2604.65 1495.79L2691.84 1545.92C2744.01 1576.11 2776.3 1640.69 2776.3 1732.6C2776.3 1916.67 2647.07 2140.23 2487.64 2232.52C2408.09 2278.51 2336.05 2282.84 2283.83 2252.78L2196.76 2202.52C2144.53 2172.59 2112.17 2108 2112.17 2015.97Z" fill="#407BFF"/>
<path opacity="0.1" d="M2487.64 1566.17C2328.41 1658.21 2199.05 1882.02 2199.05 2066.1C2199.05 2250.17 2328.22 2324.75 2487.64 2232.71C2647.07 2140.68 2776.3 1916.86 2776.3 1732.79C2776.3 1548.72 2647.07 1474.14 2487.64 1566.17Z" fill="black"/>
<path d="M2694.9 1670.95C2697.26 1671.84 2699.61 1672.79 2701.91 1673.88C2704.2 1674.96 2705.47 1675.79 2707.19 1676.81C2708.91 1677.82 2711.52 1679.29 2713.56 1680.63C2715.6 1681.96 2716.94 1682.98 2718.59 1684.26C2720.25 1685.53 2722.48 1687.25 2724.39 1688.91L2728.97 1693.17C2730.76 1694.96 2732.48 1696.81 2734.2 1698.72C2735.92 1700.63 2737 1701.96 2738.34 1703.62C2739.67 1705.28 2741.46 1707.82 2742.99 1709.99C2744.52 1712.16 2745.34 1713.49 2746.43 1715.28L2747.19 1716.55C2748.4 1718.59 2749.55 1720.63 2750.69 1722.92L2751.65 1724.83C2752.54 1726.55 2753.43 1728.27 2754.26 1730.05C2755.09 1731.84 2755.6 1733.24 2756.23 1734.83C2756.87 1736.42 2757.13 1736.87 2757.51 1737.89L2758.66 1740.82C2759.42 1742.85 2760.12 1744.96 2760.82 1747.19C2761.52 1749.42 2761.97 1750.88 2762.48 1752.73C2763.5 1756.08 2764.39 1759.52 2765.15 1763.05C2765.73 1765.47 2766.23 1767.89 2766.68 1770.37L2767.44 1774.32C2767.44 1775.78 2767.95 1777.25 2768.15 1778.71C2768.72 1782.34 2769.1 1786.04 2769.48 1789.8C2769.48 1791.58 2769.93 1793.3 2770.06 1795.15C2770.06 1795.78 2770.06 1796.48 2770.06 1797.18C2770.5 1803.24 2770.76 1809.48 2770.76 1815.97C2770.57 1841.91 2767.47 1867.74 2761.52 1892.98C2737.7 1997.31 2669.93 2104.95 2587 2166.54C2577.27 2173.84 2567.15 2180.6 2556.69 2186.79L2552.35 2189.15L2545.09 2193.1L2539.55 2195.84L2533.57 2198.64C2531.53 2199.59 2529.55 2200.42 2527.2 2201.25C2524.84 2202.08 2523.69 2202.78 2521.91 2203.42L2515.54 2205.77L2510.57 2207.49L2504.2 2209.34L2498.85 2210.8L2493.38 2212.14C2490.96 2212.72 2488.53 2213.16 2486.11 2213.61L2482.8 2214.24L2479.94 2214.56L2437.45 2189.21C2464.49 2184.96 2490.45 2175.51 2513.88 2161.38C2632.16 2093.1 2728.02 1927.18 2728.02 1790.56C2728.02 1735.28 2712.22 1693.37 2685.6 1667.51C2687 1667.89 2688.47 1668.21 2689.8 1668.65L2694.9 1670.95Z" fill="#263238"/>
<path d="M2656.68 1624.83C2663.29 1627.15 2669.68 1630.02 2675.79 1633.43L2719.04 1658.4C2699.98 1647.72 2678.53 1642 2656.68 1641.77V1624.83Z" fill="#37474F"/>
<path d="M2483.82 2213.99L2487.13 2213.35C2489.55 2212.91 2491.91 2212.46 2494.39 2211.89C2496.88 2211.31 2498.02 2211 2499.87 2210.55L2503.5 2209.66L2505.22 2209.08L2511.59 2207.24L2516.69 2205.52L2523.06 2203.16C2524.84 2202.52 2526.56 2201.76 2528.34 2201L2534.71 2198.45L2540.7 2195.58L2546.24 2192.84L2553.63 2188.83L2557.77 2186.6C2567.87 2180.62 2577.65 2174.12 2587.07 2167.11C2614.03 2147.02 2638.47 2123.76 2659.87 2097.81C2678.26 2075.54 2694.75 2051.77 2709.17 2026.73C2733.21 1985.57 2751.11 1941.11 2762.29 1894.76C2762.29 1894.06 2762.29 1893.36 2762.73 1892.6C2768.44 1867.39 2771.32 1841.63 2771.33 1815.78C2771.33 1809.8 2771.33 1804 2770.69 1798.27C2770.69 1797.44 2770.69 1796.55 2770.69 1795.72C2770.72 1795.15 2770.72 1794.57 2770.69 1794C2770.31 1789.22 2769.8 1784.57 2769.1 1779.99L2768.72 1777.06C2768.72 1775.53 2768.15 1774.06 2767.89 1772.6C2767.64 1771.13 2767.06 1768.4 2766.68 1766.23C2766.3 1764.06 2765.79 1761.77 2765.22 1759.86C2764.64 1757.95 2763.94 1755.21 2763.3 1752.92L2762.54 1750.37C2762.51 1750.03 2762.51 1749.69 2762.54 1749.35C2761.9 1747.44 2761.33 1745.59 2760.69 1743.75C2760.06 1741.9 2759.04 1739.35 2758.21 1737.38C2757.38 1735.4 2755.98 1731.84 2754.71 1729.22C2753.43 1726.61 2752.86 1725.53 2751.9 1723.68L2750.76 1721.45C2749.74 1719.61 2748.66 1717.7 2747.57 1715.91C2746.49 1714.13 2745.47 1712.66 2744.39 1711.07L2742.99 1708.91L2739.48 1705.15L2737.57 1702.73C2736.94 1702.03 2736.43 1701.26 2735.79 1700.56C2735.15 1699.86 2733.5 1697.89 2732.29 1696.55L2731.14 1695.34L2726.62 1690.82C2725.92 1690.18 2725.09 1689.67 2724.39 1689.03C2722.48 1687.38 2720.57 1685.85 2718.59 1684.38C2716.62 1682.92 2715.28 1681.9 2713.56 1680.75C2711.84 1679.61 2709.36 1678.14 2707.19 1676.93C2705.03 1675.72 2703.69 1674.89 2701.9 1674C2700.12 1673.11 2697.26 1671.96 2694.9 1671.07L2689.29 1668.84L2684.96 1667.57L2682.16 1666.93C2680.25 1666.42 2678.34 1665.91 2676.36 1665.53C2674.39 1665.15 2670.82 1664.64 2667.96 1664.32C2666.05 1664.32 2664.2 1663.75 2662.22 1663.56C2660.25 1663.37 2658.78 1663.56 2657 1663.56V1642.16C2678.87 1642.46 2700.32 1648.27 2719.36 1659.04C2722.1 1660.56 2724.71 1662.28 2727.25 1664L2728.59 1664.96C2736.06 1670.26 2742.93 1676.34 2749.1 1683.11L2751.14 1685.4C2752.99 1687.51 2754.77 1689.67 2756.55 1691.77C2757.06 1692.47 2757.57 1693.24 2758.15 1693.94C2761.01 1697.89 2763.75 1702.03 2766.3 1706.68L2769.04 1711.45C2770.18 1713.56 2771.27 1715.72 2772.35 1717.82C2773.43 1719.93 2774.39 1722.22 2775.41 1724.51C2776.43 1726.8 2777.32 1728.91 2778.21 1731.26C2779.61 1734.83 2780.88 1738.46 2782.09 1742.22C2782.67 1744 2783.18 1745.85 2783.69 1747.7C2784.58 1750.94 2785.47 1754.06 2786.23 1757.5L2787.38 1762.41C2788.4 1767.25 2789.29 1772.22 2789.99 1777.31C2789.99 1778.52 2789.99 1779.86 2790.44 1781.07C2791.01 1785.34 2791.46 1789.67 2791.78 1793.81L2792.16 1798.59C2792.48 1804.25 2792.73 1809.99 2792.73 1815.85C2792.28 1853.56 2786.31 1891 2775.02 1926.99C2769.2 1946.06 2762.26 1964.78 2754.26 1983.04C2750.23 1992.25 2745.98 2001.4 2741.52 2010.49C2727.77 2037.7 2711.77 2063.71 2693.69 2088.26C2657.83 2136.98 2614.58 2178.32 2568.09 2205.2C2549.6 2216.14 2529.8 2224.7 2509.17 2230.68L2481.4 2214.69L2483.82 2213.99Z" fill="#455A64"/>
<path d="M2292.3 2012.21C2292.3 1887.69 2379.75 1736.17 2487.64 1673.88C2541.78 1642.67 2590.7 1639.8 2626.05 1660.44L2719.87 1714.38C2755.41 1734.7 2777.19 1778.59 2777.19 1841.01C2777.19 1965.59 2689.74 2117.05 2581.84 2179.34C2527.83 2210.55 2478.92 2213.48 2443.57 2192.91L2349.24 2138.64C2314.14 2118.2 2292.3 2074.57 2292.3 2012.21Z" fill="#407BFF"/>
<path opacity="0.3" d="M2292.3 2012.21C2292.3 1887.69 2379.75 1736.17 2487.64 1673.88C2541.78 1642.67 2590.7 1639.8 2626.05 1660.44L2719.87 1714.38C2755.41 1734.7 2777.19 1778.59 2777.19 1841.01C2777.19 1965.59 2689.74 2117.05 2581.84 2179.34C2527.83 2210.55 2478.92 2213.48 2443.57 2192.91L2349.24 2138.64C2314.14 2118.2 2292.3 2074.57 2292.3 2012.21Z" fill="black"/>
<path d="M2443.95 2193C2367.67 2148.96 2367.66 2006.15 2443.94 1874.03C2520.23 1741.91 2643.9 1670.51 2720.18 1714.55C2796.46 1758.59 2796.46 1901.4 2720.18 2033.52C2643.9 2165.64 2520.23 2237.04 2443.95 2193Z" fill="#407BFF"/>
<path d="M2480.59 2153.62C2421.13 2119.44 2420.92 2008.23 2480.12 1905.22C2539.32 1802.21 2635.52 1746.41 2694.98 1780.58C2754.44 1814.75 2754.65 1925.97 2695.45 2028.98C2636.25 2131.99 2540.05 2187.79 2480.59 2153.62Z" fill="#263238"/>
<path d="M2506.75 1872.85L2596.43 1962.4L2703.5 1776.87C2676.17 1760.94 2638.21 1763.24 2596.43 1787.38C2560.85 1809.24 2530.29 1838.36 2506.75 1872.85Z" fill="#455A64"/>
<path d="M2444.78 2050.04C2444.78 2098.32 2461.78 2132.34 2489.36 2148L2596.43 1962.4L2506.75 1872.85C2469.24 1926.42 2444.78 1991.77 2444.78 2050.04Z" fill="#37474F"/>
<path d="M2489.23 2148C2516.56 2163.74 2554.77 2161.7 2596.43 2137.56C2632.07 2115.77 2662.61 2086.58 2685.98 2051.96L2596.43 1962.4L2489.23 2148Z" fill="#455A64"/>
<path d="M2596.43 1962.4L2685.98 2051.96C2723.62 1998.45 2747.95 1932.91 2747.95 1875.02C2747.95 1826.61 2730.95 1792.73 2703.37 1776.87L2596.43 1962.4Z" fill="#37474F"/>
<path d="M2472.87 2215.26H2471.97C2468.66 2215.26 2465.61 2215.65 2462.17 2215.65H2460.57C2455.8 2215.65 2451.15 2215.33 2446.56 2214.82H2446.05C2442.15 2214.34 2438.28 2213.64 2434.46 2212.72C2432.87 2212.33 2431.21 2212.01 2429.62 2211.57C2426.63 2210.74 2423.63 2209.72 2420.77 2208.64C2417.9 2207.56 2416.31 2206.86 2414.4 2205.9L2411.34 2204.37C2401.96 2199.68 2393.36 2193.55 2385.86 2186.22C2402.82 2190.87 2420.57 2191.91 2437.96 2189.28L2481.46 2214.31C2478.34 2214.69 2475.54 2215.07 2472.87 2215.26Z" fill="#263238"/>
<path d="M2502.86 1676.81C2501.74 1693.5 2494.54 1709.21 2482.61 1720.94C2389.62 1806.42 2321.53 1945.33 2321.53 2062.91C2321.53 2148.58 2357.45 2209.4 2416.18 2229.85C2408.67 2227.44 2401.47 2224.17 2394.71 2220.1L2351.47 2195.14C2305.48 2168.64 2278.09 2112.34 2278.09 2037.88C2278.09 1920.3 2346.18 1781.39 2439.24 1695.91C2451.06 1684.13 2458.17 1668.43 2459.24 1651.77V1478.47L2502.61 1503.56L2502.86 1676.81Z" fill="#37474F"/>
<path d="M2482.61 1720.94C2494.54 1709.21 2501.75 1693.5 2502.86 1676.81V1503.56L2524.27 1491.21V1687.19C2524.21 1689.78 2523.91 1692.36 2523.37 1694.89L2522.99 1696.87C2522.38 1699.59 2521.6 1702.27 2520.64 1704.89C2519.1 1708.94 2517.2 1712.84 2514.97 1716.55C2514.39 1717.51 2513.82 1718.33 2513.18 1719.22C2511.53 1721.85 2509.68 1724.34 2507.64 1726.68C2506.34 1728.12 2504.96 1729.48 2503.5 1730.75C2498.34 1735.21 2493.31 1739.92 2488.34 1744.77L2484.39 1748.65C2480.06 1752.98 2475.8 1757.38 2471.66 1761.9L2469.74 1763.94C2465.03 1769.1 2460.45 1774.38 2455.92 1779.8C2454.71 1781.2 2453.57 1782.66 2452.42 1784.06C2448.66 1788.65 2444.97 1793.3 2441.4 1798.08C2440.51 1799.22 2439.62 1800.31 2438.79 1801.45C2434.52 1807.18 2430.45 1812.98 2426.05 1818.9L2423.25 1823.17C2419.94 1828.08 2416.88 1833.04 2413.63 1838.08L2410.96 1842.47C2407.2 1848.84 2403.63 1854.83 2400.13 1861.07L2398.15 1864.89C2395.29 1870.18 2392.49 1875.53 2389.81 1880.94L2387.33 1885.91C2384.21 1892.28 2380.96 1898.65 2378.41 1905.46C2378.03 1906.29 2377.65 1907.18 2377.33 1908.01C2374.82 1913.87 2372.46 1919.73 2370.26 1925.59C2369.56 1927.37 2368.86 1929.16 2368.22 1930.94C2365.8 1937.63 2363.38 1944.31 2361.28 1951.07C2359.17 1957.82 2357.26 1964.57 2355.42 1971.32C2355.03 1972.72 2354.65 1974.19 2354.33 1975.65C2352.59 1982.19 2351.06 1988.75 2349.75 1995.33L2349.17 1998.64C2347.96 2004.63 2347.01 2010.62 2346.12 2016.61C2346.12 2017.69 2346.12 2018.77 2345.67 2019.85C2344.78 2026.22 2344.14 2032.59 2343.63 2038.96C2343.63 2040.36 2343.63 2041.76 2343.63 2043.17C2343.25 2049.53 2342.93 2056.22 2342.93 2062.66C2342.93 2100.87 2350.51 2133.04 2364.08 2157.68C2366.99 2163.02 2370.29 2168.13 2373.95 2172.97C2375.73 2175.33 2377.58 2177.62 2379.49 2179.79C2381.4 2181.95 2383.38 2183.99 2385.42 2186.16C2392.92 2193.49 2401.51 2199.61 2410.89 2204.31L2413.95 2205.84C2416.12 2206.79 2418.28 2207.75 2420.32 2208.58C2422.36 2209.4 2425.73 2210.55 2428.47 2211.31H2429.17C2430.76 2211.76 2432.42 2212.08 2434.01 2212.46L2436.88 2213.16C2439.75 2213.73 2442.68 2214.24 2445.61 2214.56H2446.5C2451.15 2215.1 2455.83 2215.37 2460.51 2215.39H2464.14C2466.69 2215.39 2469.3 2215.39 2471.91 2214.94H2472.87C2475.54 2214.94 2478.28 2214.37 2480.95 2213.99L2508.72 2229.98C2493.32 2234.42 2477.37 2236.74 2461.34 2236.85C2459.17 2236.85 2457.07 2236.85 2454.97 2236.85C2452.87 2236.85 2449.17 2236.85 2446.5 2236.41L2441.59 2235.71C2438.47 2235.26 2435.22 2234.82 2432.55 2234.24L2428.09 2233.22L2426.31 2232.71C2423.57 2232.01 2420.83 2231.31 2418.15 2230.49L2416.24 2229.85C2357.52 2209.66 2321.6 2148.58 2321.6 2062.91C2321.53 1945.33 2389.62 1806.42 2482.61 1720.94Z" fill="#455A64"/>
<path d="M2600.63 1667.38L2599.36 1666.93L2597.9 1666.17L2554.78 1641.46C2551.98 1639.68 2549.72 1637.17 2548.23 1634.21C2546.74 1631.25 2546.07 1627.95 2546.3 1624.64V1428.34L2589.68 1453.44V1649.35C2589.36 1653.13 2590.25 1656.91 2592.22 1660.15C2594.19 1663.39 2597.13 1665.92 2600.63 1667.38Z" fill="#37474F"/>
<path d="M2652.61 1641.46C2642.18 1641.47 2631.77 1642.45 2621.52 1644.39C2620.26 1644.72 2618.94 1644.74 2617.67 1644.47C2616.39 1644.2 2615.2 1643.63 2614.18 1642.81C2613.17 1642 2612.36 1640.95 2611.82 1639.76C2611.28 1638.58 2611.03 1637.28 2611.08 1635.98V1616.49C2626.66 1616.6 2642.11 1619.4 2656.75 1624.77V1641.71C2655.34 1641.46 2654.01 1641.46 2652.61 1641.46Z" fill="#37474F"/>
<path d="M2647.13 1662.98C2642.1 1662.98 2636.94 1663.68 2631.72 1664.45C2626.61 1665.2 2621.55 1666.22 2616.56 1667.51C2616.26 1667.47 2615.96 1667.47 2615.66 1667.51H2615.09C2613.44 1667.93 2611.76 1668.21 2610.06 1668.33H2609.61C2608.24 1668.43 2606.85 1668.43 2605.47 1668.33H2604.71C2603.41 1668.15 2602.12 1667.83 2600.89 1667.38C2597.39 1665.92 2594.44 1663.39 2592.47 1660.15C2590.5 1656.91 2589.61 1653.13 2589.93 1649.35V1453.44L2611.33 1440.7V1635.79C2611.28 1637.09 2611.53 1638.39 2612.07 1639.57C2612.61 1640.76 2613.42 1641.8 2614.44 1642.62C2615.45 1643.44 2616.65 1644.01 2617.92 1644.28C2619.2 1644.55 2620.52 1644.52 2621.78 1644.19C2632.03 1642.26 2642.43 1641.28 2652.86 1641.27C2654.26 1641.27 2655.6 1641.27 2657 1641.27V1662.67H2652.48C2650.31 1663.05 2648.85 1662.92 2647.13 1662.98Z" fill="#455A64"/>
<path d="M2576.11 1333.82C2584.01 1329.3 2594.84 1329.94 2606.81 1336.88C2619.5 1345.09 2630.06 1356.2 2637.62 1369.28C2645.19 1382.37 2649.53 1397.07 2650.31 1412.16C2650.31 1426.11 2645.41 1435.92 2637.57 1440.38L2464.08 1540.5L2402.93 1434.07L2576.11 1333.82Z" fill="#407BFF"/>
<path opacity="0.3" d="M2576.11 1333.82C2584.01 1329.3 2594.84 1329.94 2606.81 1336.88C2619.5 1345.09 2630.06 1356.2 2637.62 1369.28C2645.19 1382.37 2649.53 1397.07 2650.31 1412.16C2650.31 1426.11 2645.41 1435.92 2637.57 1440.38L2464.08 1540.5L2402.93 1434.07L2576.11 1333.82Z" fill="black"/>
<path opacity="0.3" d="M2645.03 1385.73C2648.32 1394.17 2650.11 1403.11 2650.31 1412.16C2650.31 1426.11 2645.41 1435.92 2637.57 1440.38L2464.08 1540.5L2442.48 1502.92L2645.03 1385.73Z" fill="black"/>
<path d="M2476.62 1512.29C2475.83 1497.22 2471.48 1482.55 2463.93 1469.49C2456.38 1456.43 2445.85 1445.34 2433.19 1437.13C2421.34 1430.25 2410.57 1429.55 2402.74 1433.95C2394.91 1438.34 2390 1448.21 2390 1462.16C2390.82 1477.23 2395.17 1491.88 2402.7 1504.95C2410.24 1518.02 2420.75 1529.13 2433.38 1537.38C2445.41 1544.26 2456.24 1544.96 2464.08 1540.38C2471.91 1535.79 2476.62 1526.17 2476.62 1512.29Z" fill="#407BFF"/>
<path opacity="0.2" d="M2476.62 1512.29C2475.83 1497.22 2471.48 1482.55 2463.93 1469.49C2456.38 1456.43 2445.85 1445.34 2433.19 1437.13C2421.34 1430.25 2410.57 1429.55 2402.74 1433.95C2394.91 1438.34 2390 1448.21 2390 1462.16C2390.82 1477.23 2395.17 1491.88 2402.7 1504.95C2410.24 1518.02 2420.75 1529.13 2433.38 1537.38C2445.41 1544.26 2456.24 1544.96 2464.08 1540.38C2471.91 1535.79 2476.62 1526.17 2476.62 1512.29Z" fill="black"/>
<path d="M2457.83 1501.33C2457.37 1492.78 2454.9 1484.46 2450.61 1477.05C2446.33 1469.63 2440.36 1463.33 2433.19 1458.66C2430.83 1456.57 2427.88 1455.27 2424.74 1454.96C2421.61 1454.64 2418.46 1455.33 2415.74 1456.91C2413.01 1458.49 2410.86 1460.89 2409.58 1463.76C2408.3 1466.64 2407.95 1469.84 2408.6 1472.93C2409.07 1481.46 2411.54 1489.76 2415.81 1497.17C2420.08 1504.57 2426.03 1510.86 2433.19 1515.54C2435.55 1517.6 2438.49 1518.88 2441.61 1519.18C2444.73 1519.49 2447.87 1518.81 2450.59 1517.25C2453.31 1515.68 2455.46 1513.31 2456.76 1510.45C2458.06 1507.6 2458.44 1504.41 2457.83 1501.33Z" fill="#37474F"/>
<path d="M2420.13 1466.56C2420.01 1462.72 2420.91 1458.91 2422.74 1455.54C2426.43 1455.75 2430.02 1456.87 2433.19 1458.79C2440.36 1463.46 2446.33 1469.76 2450.61 1477.18C2454.9 1484.59 2457.37 1492.91 2457.83 1501.46C2457.92 1505.3 2457.03 1509.09 2455.22 1512.48C2451.51 1512.27 2447.9 1511.15 2444.71 1509.23C2437.55 1504.55 2431.59 1498.25 2427.32 1490.83C2423.05 1483.42 2420.59 1475.1 2420.13 1466.56Z" fill="#263238"/>
<path d="M1447.54 682.245C1455.38 677.723 1466.27 678.36 1478.24 685.303C1490.88 693.533 1501.4 704.628 1508.95 717.686C1516.5 730.745 1520.86 745.399 1521.68 760.46C1521.68 774.409 1516.71 784.154 1508.94 788.676L1335.51 888.801L1274.3 782.37L1447.54 682.245Z" fill="#407BFF"/>
<path opacity="0.3" d="M1447.54 682.245C1455.38 677.723 1466.27 678.36 1478.24 685.303C1490.88 693.533 1501.4 704.628 1508.95 717.686C1516.5 730.745 1520.86 745.399 1521.68 760.46C1521.68 774.409 1516.71 784.154 1508.94 788.676L1335.51 888.801L1274.3 782.37L1447.54 682.245Z" fill="black"/>
<path opacity="0.3" d="M1516.58 734.091C1519.81 742.521 1521.58 751.438 1521.81 760.46C1521.81 774.409 1516.84 784.154 1509.07 788.676L1335.63 888.801L1313.98 851.158L1516.58 734.091Z" fill="black"/>
<path d="M1347.99 860.712C1347.18 845.649 1342.82 830.989 1335.29 817.92C1327.75 804.852 1317.24 793.742 1304.62 785.491C1292.71 778.676 1281.94 777.975 1274.11 782.37C1266.27 786.765 1261.37 796.637 1261.37 810.586C1262.16 825.654 1266.51 840.32 1274.06 853.383C1281.61 866.447 1292.15 877.536 1304.81 885.743C1316.78 892.686 1327.61 893.323 1335.51 888.801C1343.4 884.278 1347.99 874.533 1347.99 860.712Z" fill="#407BFF"/>
<path opacity="0.2" d="M1347.99 860.712C1347.18 845.649 1342.82 830.989 1335.29 817.92C1327.75 804.852 1317.24 793.742 1304.62 785.491C1292.71 778.676 1281.94 777.975 1274.11 782.37C1266.27 786.765 1261.37 796.637 1261.37 810.586C1262.16 825.654 1266.51 840.32 1274.06 853.383C1281.61 866.447 1292.15 877.536 1304.81 885.743C1316.78 892.686 1327.61 893.323 1335.51 888.801C1343.4 884.278 1347.99 874.533 1347.99 860.712Z" fill="black"/>
<path d="M1329.2 849.884C1328.74 841.34 1326.28 833.024 1322.01 825.609C1317.74 818.195 1311.78 811.892 1304.62 807.21C1302.13 805.428 1299.23 804.326 1296.19 804.013C1293.15 803.7 1290.08 804.188 1287.29 805.427C1284.74 807.186 1282.72 809.6 1281.43 812.413C1280.14 815.227 1279.64 818.337 1279.97 821.414C1280.42 829.966 1282.89 838.29 1287.17 845.706C1291.46 853.123 1297.43 859.421 1304.62 864.088C1306.97 866.169 1309.91 867.458 1313.04 867.772C1316.16 868.087 1319.3 867.411 1322.02 865.84C1324.74 864.27 1326.9 861.884 1328.19 859.02C1329.47 856.157 1329.83 852.961 1329.2 849.884Z" fill="#37474F"/>
<path d="M1291.5 814.981C1291.41 811.145 1292.3 807.35 1294.11 803.962C1297.82 804.173 1301.43 805.288 1304.62 807.21C1311.79 811.888 1317.75 818.189 1322.04 825.603C1326.32 833.017 1328.8 841.335 1329.26 849.884C1329.37 853.73 1328.44 857.533 1326.59 860.903C1322.89 860.689 1319.31 859.574 1316.14 857.655C1308.97 852.977 1303.01 846.676 1298.72 839.262C1294.44 831.848 1291.96 823.53 1291.5 814.981Z" fill="#263238"/>
<path d="M1313.98 320.471L1501.24 212.194C1513.23 189.35 1527.62 167.849 1544.16 148.055C1443.66 165.571 1364.17 226.461 1313.98 320.471Z" fill="#407BFF"/>
<path opacity="0.2" d="M1313.98 320.471L1501.24 212.194C1513.23 189.35 1527.62 167.849 1544.16 148.055C1443.66 165.571 1364.17 226.461 1313.98 320.471Z" fill="black"/>
<path d="M1348.63 786.574C1339.1 735.935 1334.18 684.538 1333.92 633.011C1333.92 284.676 1578.43 143.47 1880.08 317.669C2181.73 491.868 2426.31 915.36 2426.31 1263.7C2426.6 1309.67 2421.64 1355.53 2411.53 1400.38L2481.97 1441.08C2490.74 1395.67 2495.01 1349.5 2494.71 1303.25C2494.71 911.22 2219.43 434.418 1879.89 238.435C1540.34 42.4532 1265.13 201.303 1265.13 593.394C1265.24 644.609 1269.5 695.73 1277.87 746.257L1347.93 786.829" fill="#37474F"/>
<path d="M1348.56 786.574C1339.09 735.908 1334.18 684.492 1333.92 632.947C1333.92 403.208 1440.28 263.53 1599.32 245.123C1549.58 311.491 1521.04 406.202 1521.04 525.371C1521.35 576.766 1526.25 628.03 1535.69 678.551L1348.56 786.574Z" fill="#263238"/>
<path d="M1456.52 189.265C1566.84 131.941 1715.94 143.788 1880.08 238.563C2219.69 434.418 2494.9 911.157 2494.9 1303.31C2495.21 1349.52 2490.94 1395.65 2482.17 1441.02L2668.98 1333.12C2677.94 1287.84 2682.35 1241.77 2682.16 1195.61C2682.16 803.516 2406.94 326.777 2067.34 130.731C1897.72 32.7719 1744.22 23.5365 1632.95 87.6749C1604.42 103.853 1499.39 164.552 1456.52 189.265Z" fill="#455A64"/>
<path d="M2577.58 1279.75C2582.78 1279.56 2587.85 1278.02 2592.29 1275.29C2601.4 1269.34 2609 1261.34 2614.46 1251.92C2619.92 1242.51 2623.11 1231.95 2623.75 1221.08C2623.75 1206.56 2616.24 1197.2 2604.65 1197.2C2599.44 1197.36 2594.37 1198.88 2589.93 1201.6C2580.8 1207.6 2573.2 1215.66 2567.73 1225.12C2562.27 1234.59 2559.1 1245.2 2558.47 1256.12C2558.53 1270.32 2566.05 1279.75 2577.58 1279.75Z" fill="#263238"/>
<path d="M1428.75 151.622C1483.14 122.451 1544.05 107.59 1605.75 108.439C1699.57 108.439 1799.63 138.756 1903.26 198.5C2143.07 336.904 2352.3 611.228 2461.21 900.456L2648.34 792.179C2539.42 502.951 2329.88 228.627 2090.39 90.2226C1986.76 30.4789 1886.58 0.0338472 1792.88 0.0338472C1728.83 -0.84189 1665.68 15.2902 1609.89 46.7842C1580.28 64.236 1468.37 128.693 1428.75 151.622Z" fill="#407BFF"/>
<path opacity="0.6" d="M1428.75 151.622C1483.14 122.451 1544.05 107.59 1605.75 108.439C1699.57 108.439 1799.63 138.756 1903.26 198.5C2143.07 336.904 2352.3 611.228 2461.21 900.456L2648.34 792.179C2539.42 502.951 2329.88 228.627 2090.39 90.2226C1986.76 30.4789 1886.58 0.0338472 1792.88 0.0338472C1728.83 -0.84189 1665.68 15.2902 1609.89 46.7842C1580.28 64.236 1468.37 128.693 1428.75 151.622Z" fill="white"/>
<path d="M1314.04 320.408C1374.04 208.372 1475.89 142.96 1605.75 142.96C1693.46 142.96 1787.79 171.685 1886 228.436C2121.03 364.101 2325.93 634.03 2431.27 917.781L2461.21 900.456C2352.3 611.228 2143.07 336.904 1903.26 198.5C1799.63 138.756 1699.45 108.439 1605.75 108.439C1469.07 108.439 1360.47 173.023 1293.66 285.186L1314.04 320.408Z" fill="#407BFF"/>
<path d="M509.922 216.78L541.132 319.643C543.693 317.72 546.556 316.235 549.603 315.249C554.932 313.635 560.62 313.638 565.948 315.258C571.275 316.877 576.003 320.04 579.533 324.347C583.063 328.653 585.236 333.91 585.778 339.452C586.32 344.994 585.207 350.572 582.579 355.481C579.951 360.39 575.926 364.409 571.013 367.03C566.1 369.652 560.521 370.757 554.98 370.207C549.439 369.658 544.185 367.477 539.883 363.941C535.582 360.405 532.426 355.673 530.813 350.343L502.789 258.18L402.6 261.874L430.179 353.273C432.725 351.325 435.592 349.837 438.65 348.878C443.98 347.265 449.668 347.268 454.995 348.888C460.323 350.507 465.051 353.67 468.58 357.977C472.11 362.283 474.284 367.54 474.826 373.082C475.368 378.623 474.255 384.202 471.626 389.111C468.998 394.019 464.973 398.039 460.06 400.66C455.148 403.282 449.568 404.387 444.027 403.837C438.486 403.287 433.233 401.106 428.931 397.571C424.629 394.035 421.473 389.303 419.861 383.973L373.811 231.111L509.922 216.78Z" fill="#407BFF"/>
<path d="M585.207 1792.85L616.417 1895.72C618.962 1893.77 621.829 1892.28 624.888 1891.32C630.217 1889.71 635.905 1889.71 641.233 1891.33C646.561 1892.95 651.288 1896.11 654.818 1900.42C658.348 1904.73 660.521 1909.98 661.063 1915.53C661.606 1921.07 660.492 1926.65 657.864 1931.55C655.236 1936.46 651.211 1940.48 646.298 1943.1C641.386 1945.73 635.806 1946.83 630.265 1946.28C624.724 1945.73 619.47 1943.55 615.169 1940.01C610.867 1936.48 607.711 1931.75 606.098 1926.42L578.074 1834.25L477.885 1837.95L505.464 1929.35C508.01 1927.4 510.877 1925.91 513.935 1924.95C519.265 1923.34 524.953 1923.34 530.28 1924.96C535.608 1926.58 540.336 1929.74 543.865 1934.05C547.395 1938.36 549.569 1943.61 550.111 1949.16C550.653 1954.7 549.54 1960.28 546.911 1965.18C544.283 1970.09 540.258 1974.11 535.346 1976.73C530.433 1979.36 524.853 1980.46 519.312 1979.91C513.771 1979.36 508.518 1977.18 504.216 1973.64C499.915 1970.11 496.758 1965.38 495.146 1960.05L449.16 1807.18L585.207 1792.85Z" fill="#407BFF"/>
<path d="M783.355 581.547C777.056 578.464 770.175 576.749 763.165 576.516C753.786 576.332 744.426 577.403 735.331 579.7C723.274 583.016 710.923 585.149 698.453 586.07C692.199 586.496 685.924 585.655 680.003 583.598C674.082 581.54 668.637 578.308 663.995 574.095C671.296 574.776 678.655 573.796 685.523 571.229C702.02 564.86 715.268 547.981 730.108 538.555C752.21 524.606 774.056 525.816 800.935 532.568C800.935 555.434 801.38 578.427 801.635 601.356L802.208 655.304C802.208 657.023 803.036 679.825 803.036 679.825C809.273 676.701 816.126 675.004 823.1 674.857C830.736 674.782 838.222 676.973 844.613 681.154C851.003 685.335 856.009 691.318 858.999 698.345C861.988 705.372 862.825 713.128 861.405 720.631C859.984 728.135 856.37 735.048 851.02 740.497C845.669 745.945 838.823 749.684 831.347 751.241C823.87 752.797 816.101 752.101 809.02 749.24C801.94 746.379 795.867 741.482 791.571 735.169C787.274 728.855 784.947 721.41 784.884 713.773L783.355 581.547Z" fill="#407BFF"/>
<path d="M159.932 1546.68C153.014 1545.45 145.914 1545.71 139.104 1547.45C130.061 1549.89 121.37 1553.48 113.245 1558.15C102.563 1564.67 91.2803 1570.15 79.5517 1574.52C73.654 1576.64 67.3878 1577.56 61.1279 1577.21C54.868 1576.86 48.7431 1575.25 43.1195 1572.48C50.3329 1571.13 57.1482 1568.17 63.0553 1563.81C77.1314 1553.31 85.1566 1533.24 96.8123 1520.06C114.137 1500.5 135.41 1495.54 163.18 1494.58C169.549 1516.62 176.301 1538.53 182.861 1560.5L198.338 1612.22L205.982 1635.47C211.103 1630.75 217.22 1627.25 223.879 1625.21C231.186 1623 238.987 1622.99 246.296 1625.21C253.604 1627.42 260.091 1631.76 264.935 1637.66C269.779 1643.56 272.764 1650.77 273.51 1658.37C274.257 1665.97 272.732 1673.62 269.129 1680.36C265.526 1687.09 260.007 1692.6 253.27 1696.2C246.532 1699.79 238.88 1701.31 231.281 1700.55C223.681 1699.8 216.477 1696.81 210.579 1691.96C204.681 1687.1 200.355 1680.61 198.147 1673.3L159.932 1546.68Z" fill="#407BFF"/>
<path d="M1072.33 172.959C1069.33 165.966 1064.88 159.691 1059.27 154.552C1051.7 147.77 1043.26 142.029 1034.18 137.483C1021.9 131.633 1010.21 124.616 999.273 116.528C993.833 112.459 989.274 107.331 985.87 101.453C982.465 95.5743 980.287 89.0677 979.465 82.3247C984.997 88.0103 991.748 92.3659 999.209 95.0632C1017.11 101.432 1040.1 96.9103 1058.95 99.6491C1087.04 103.789 1104.24 120.158 1121.5 144.807C1105.26 163.915 1089.65 183.023 1073.41 202.131L1035.64 246.715C1034.43 248.117 1019.02 267.479 1019.02 267.479C1026.32 269.403 1033.11 272.927 1038.89 277.797C1045.22 283.145 1049.83 290.252 1052.13 298.218C1054.42 306.184 1054.3 314.651 1051.78 322.55C1049.27 330.448 1044.46 337.422 1037.98 342.59C1031.5 347.758 1023.63 350.888 1015.37 351.583C1007.11 352.278 998.825 350.507 991.571 346.495C984.316 342.483 978.415 336.41 974.612 329.043C970.81 321.677 969.278 313.348 970.209 305.11C971.141 296.873 974.495 289.097 979.847 282.765L1072.33 172.959Z" fill="#407BFF"/>
<path d="M510.241 784.663L677.179 881.094C678.751 882.106 680.062 883.477 681.003 885.093C681.944 886.709 682.488 888.526 682.593 890.393V1083C682.499 1084.86 681.958 1086.67 681.016 1088.28C680.073 1089.89 678.757 1091.24 677.179 1092.23L658.071 1103.25C656.411 1104.09 654.579 1104.52 652.721 1104.52C650.863 1104.52 649.031 1104.09 647.371 1103.25L480.369 1006.76C478.813 1005.75 477.518 1004.39 476.588 1002.78C475.658 1001.18 475.121 999.376 475.019 997.524V804.599C475.112 802.738 475.653 800.927 476.596 799.319C477.538 797.711 478.854 796.354 480.432 795.364L499.54 784.6C501.209 783.789 503.042 783.373 504.898 783.384C506.753 783.395 508.581 783.833 510.241 784.663Z" fill="#407BFF"/>
<path d="M652.402 1100.07V907.208C652.3 905.347 651.763 903.537 650.834 901.922C649.904 900.307 648.609 898.932 647.052 897.909L480.05 801.478C477.12 799.758 474.7 801.16 474.7 804.599V997.524C474.802 999.376 475.34 1001.18 476.269 1002.78C477.199 1004.39 478.494 1005.75 480.05 1006.76L647.052 1103.25C649.982 1104.91 652.402 1103.57 652.402 1100.07Z" fill="#407BFF"/>
<path d="M652.402 1100.07V907.208C652.3 905.347 651.763 903.537 650.834 901.922C649.904 900.307 648.609 898.932 647.052 897.909L480.05 801.478C477.12 799.758 474.7 801.16 474.7 804.599V997.524C474.802 999.376 475.34 1001.18 476.269 1002.78C477.199 1004.39 478.494 1005.75 480.05 1006.76L647.052 1103.25C649.982 1104.91 652.402 1103.57 652.402 1100.07Z" fill="#407BFF"/>
<path opacity="0.2" d="M647.052 1103.25C648.738 1104.04 650.575 1104.45 652.434 1104.45C654.294 1104.45 656.131 1104.04 657.816 1103.25L676.924 1092.17C678.502 1091.18 679.818 1089.82 680.761 1088.22C681.703 1086.61 682.244 1084.8 682.338 1082.94V890.393C682.247 888.449 681.655 886.562 680.618 884.915L650.746 901.921C651.745 903.507 652.295 905.334 652.339 907.208V1100.07C652.402 1103.25 650.364 1105.04 647.052 1103.25Z" fill="black"/>
<path opacity="0.4" d="M474.763 803.644C475.209 800.905 477.375 799.949 480.05 801.478L647.052 897.909C648.613 898.92 649.903 900.297 650.81 901.921L680.682 884.915C679.81 883.337 678.535 882.018 676.987 881.094L510.24 784.663C508.573 783.813 506.729 783.37 504.858 783.37C502.987 783.37 501.143 783.813 499.476 784.663L480.368 795.427C478.886 796.299 477.614 797.487 476.645 798.908C475.676 800.328 475.034 801.945 474.763 803.644Z" fill="white"/>
<path d="M498.139 914.023C498.139 962.557 527.628 1018.99 564.06 1040.01C600.493 1061.03 630.046 1038.73 630.046 990.136C630.046 941.538 600.493 885.17 564.06 864.152C527.628 843.133 498.139 865.425 498.139 914.023Z" fill="#FAFAFA"/>
<path d="M572.978 929.691V985.932C573.059 987.331 573.463 988.692 574.159 989.908C574.855 991.123 575.825 992.161 576.991 992.938L587.818 999.307C590.048 1000.58 591.831 999.307 591.831 996.951V940.838C591.751 939.439 591.346 938.078 590.65 936.862C589.953 935.646 588.984 934.609 587.818 933.831L576.991 927.462C574.825 926.124 572.978 927.144 572.978 929.691Z" fill="#455A64"/>
<path d="M535.208 907.908V964.085C535.289 965.484 535.693 966.845 536.389 968.061C537.086 969.277 538.055 970.314 539.221 971.092L550.049 977.461C552.278 978.735 554.125 977.461 554.125 975.104V918.927C554.038 917.531 553.623 916.176 552.915 914.97C552.207 913.764 551.225 912.741 550.049 911.985L539.221 905.616C536.992 904.278 535.208 905.297 535.208 907.908Z" fill="#455A64"/>
<path d="M316.169 696.64L449.924 773.772C451.167 774.595 452.201 775.697 452.942 776.991C453.683 778.285 454.111 779.735 454.191 781.224V935.296C454.12 936.786 453.688 938.236 452.934 939.523C452.18 940.809 451.125 941.894 449.86 942.684L434.51 951.538C433.178 952.215 431.705 952.567 430.211 952.567C428.717 952.567 427.244 952.215 425.912 951.538L292.157 874.406C290.902 873.59 289.856 872.491 289.104 871.196C288.351 869.902 287.914 868.449 287.826 866.954V712.563C287.923 711.08 288.366 709.639 289.118 708.356C289.869 707.074 290.91 705.984 292.157 705.175L307.507 696.576C308.853 695.899 310.34 695.551 311.846 695.562C313.352 695.573 314.834 695.943 316.169 696.64Z" fill="#407BFF"/>
<path d="M430.052 948.99V794.663C429.977 793.181 429.55 791.739 428.809 790.454C428.067 789.17 427.03 788.08 425.784 787.275L292.03 710.079C289.673 708.742 287.699 710.079 287.699 712.563V866.89C287.786 868.385 288.224 869.838 288.976 871.133C289.728 872.427 290.774 873.526 292.03 874.342L425.784 951.474C428.141 952.875 430.052 951.729 430.052 948.99Z" fill="#407BFF"/>
<path d="M430.052 948.99V794.663C429.977 793.181 429.55 791.739 428.809 790.454C428.067 789.17 427.03 788.08 425.784 787.275L292.03 710.079C289.673 708.742 287.699 710.079 287.699 712.563V866.89C287.786 868.385 288.224 869.838 288.976 871.133C289.728 872.427 290.774 873.526 292.03 874.342L425.784 951.474C428.141 952.875 430.052 951.729 430.052 948.99Z" fill="#407BFF"/>
<path opacity="0.2" d="M425.784 951.474C427.122 952.132 428.593 952.474 430.083 952.474C431.574 952.474 433.045 952.132 434.382 951.474L449.732 942.621C450.997 941.831 452.052 940.746 452.806 939.459C453.56 938.172 453.992 936.722 454.063 935.232V781.224C454.012 779.667 453.551 778.151 452.726 776.829L428.777 790.459C429.573 791.72 430.013 793.173 430.051 794.663V948.99C430.051 951.538 428.332 952.939 425.784 951.474Z" fill="black"/>
<path opacity="0.4" d="M287.953 711.544C288.335 709.379 290.055 708.614 292.22 709.824L425.975 787.02C427.232 787.804 428.264 788.901 428.969 790.205L452.917 776.829C452.209 775.562 451.176 774.506 449.923 773.772L316.169 696.64C314.837 695.963 313.364 695.61 311.87 695.61C310.376 695.61 308.902 695.963 307.57 696.64L292.22 705.238C291.117 705.944 290.17 706.867 289.436 707.951C288.702 709.035 288.198 710.258 287.953 711.544Z" fill="white"/>
<path d="M321.01 780.651V836.827C321.081 838.229 321.481 839.593 322.178 840.811C322.875 842.028 323.85 843.064 325.023 843.834L335.85 850.203C338.08 851.477 339.927 850.203 339.927 847.91V791.669C339.839 790.274 339.425 788.918 338.717 787.712C338.008 786.506 337.027 785.483 335.85 784.727L325.023 778.358C322.793 777.02 321.01 778.039 321.01 780.651Z" fill="#455A64"/>
<path d="M396.995 825.108V880.138C396.995 884.278 394.83 885.043 392.091 881.985L341.137 823.261C338.398 820.14 339.544 817.656 343.684 817.656H389.225C390.23 817.613 391.233 817.774 392.174 818.129C393.115 818.484 393.975 819.026 394.701 819.723C395.427 820.419 396.005 821.255 396.399 822.181C396.793 823.106 396.996 824.102 396.995 825.108Z" fill="#455A64"/>
<path d="M740.171 941.474L873.926 1018.61C875.185 1019.42 876.233 1020.52 876.986 1021.81C877.739 1023.11 878.174 1024.56 878.257 1026.06V1180.13C878.17 1181.62 877.732 1183.06 876.979 1184.34C876.226 1185.63 875.18 1186.72 873.926 1187.52L858.576 1196.37C857.244 1197.05 855.771 1197.4 854.277 1197.4C852.783 1197.4 851.309 1197.05 849.977 1196.37L716.223 1119.24C714.976 1118.42 713.939 1117.32 713.198 1116.02C712.456 1114.73 712.031 1113.28 711.956 1111.79V957.398C712.027 955.908 712.458 954.458 713.213 953.171C713.967 951.884 715.022 950.799 716.287 950.009L731.637 941.411C732.965 940.754 734.429 940.418 735.911 940.429C737.393 940.44 738.852 940.798 740.171 941.474Z" fill="#407BFF"/>
<path d="M854.181 1193.82V1039.5C854.106 1038.02 853.679 1036.57 852.937 1035.29C852.196 1034 851.159 1032.91 849.913 1032.11L716.159 954.914C713.802 953.576 711.891 954.914 711.891 957.398V1111.72C711.967 1113.21 712.393 1114.67 713.134 1115.96C713.875 1117.26 714.912 1118.36 716.159 1119.18L849.913 1196.31C852.142 1197.71 854.181 1196.56 854.181 1193.82Z" fill="#407BFF"/>
<path d="M854.181 1193.82V1039.5C854.106 1038.02 853.679 1036.57 852.937 1035.29C852.196 1034 851.159 1032.91 849.913 1032.11L716.159 954.914C713.802 953.576 711.891 954.914 711.891 957.398V1111.72C711.967 1113.21 712.393 1114.67 713.134 1115.96C713.875 1117.26 714.912 1118.36 716.159 1119.18L849.913 1196.31C852.142 1197.71 854.181 1196.56 854.181 1193.82Z" fill="#407BFF"/>
<path opacity="0.2" d="M849.786 1196.31C851.124 1196.97 852.594 1197.31 854.085 1197.31C855.576 1197.31 857.047 1196.97 858.384 1196.31L873.734 1187.46C874.988 1186.65 876.035 1185.57 876.787 1184.28C877.54 1183 877.978 1181.55 878.065 1180.07V1026.06C877.992 1024.5 877.509 1022.98 876.664 1021.66L852.779 1035.29C853.575 1036.55 854.015 1038.01 854.053 1039.5V1193.82C854.181 1196.37 852.27 1197.77 849.786 1196.31Z" fill="black"/>
<path opacity="0.4" d="M711.955 956.633C712.274 954.468 714.057 953.703 716.222 954.914L849.977 1032.11C851.22 1032.91 852.248 1034 852.97 1035.29L876.919 1021.66C876.176 1020.42 875.15 1019.37 873.925 1018.61L740.171 941.474C738.839 940.798 737.366 940.445 735.872 940.445C734.377 940.445 732.904 940.798 731.572 941.474L716.222 950.073C715.091 950.806 714.127 951.769 713.391 952.899C712.656 954.03 712.167 955.302 711.955 956.633Z" fill="white"/>
<path d="M804.182 1061.03V1117.2C804.248 1118.6 804.646 1119.97 805.343 1121.19C806.041 1122.41 807.018 1123.44 808.195 1124.21L819.023 1130.58C821.252 1131.92 823.035 1130.58 823.035 1128.28V1072.11C822.97 1070.71 822.572 1069.34 821.874 1068.12C821.176 1066.9 820.199 1065.87 819.023 1065.1L808.195 1058.73C805.966 1057.39 804.182 1058.48 804.182 1061.03Z" fill="#455A64"/>
<path d="M742.91 1081.53V1024.21C742.91 1019.82 745.266 1018.92 748.196 1022.24L802.462 1083.57C805.392 1086.88 804.182 1089.56 799.787 1089.56H750.871C748.759 1089.53 746.744 1088.67 745.256 1087.17C743.768 1085.67 742.926 1083.65 742.91 1081.53Z" fill="#455A64"/>
<path d="M297.508 983.702L881.442 1320.83C883.002 1321.85 884.3 1323.22 885.23 1324.84C886.159 1326.45 886.695 1328.26 886.792 1330.13V1702.41C886.685 1704.25 886.145 1706.04 885.215 1707.64C884.286 1709.23 882.993 1710.58 881.442 1711.58L862.334 1722.66C860.661 1723.49 858.819 1723.93 856.952 1723.93C855.085 1723.93 853.243 1723.49 851.57 1722.66L267.636 1385.48C266.079 1384.45 264.784 1383.08 263.855 1381.46C262.926 1379.85 262.388 1378.04 262.286 1376.18V1003.64C262.38 1001.78 262.92 999.966 263.863 998.358C264.805 996.751 266.122 995.394 267.7 994.403L286.808 983.639C288.471 982.809 290.307 982.383 292.165 982.394C294.024 982.405 295.854 982.853 297.508 983.702Z" fill="#455A64"/>
<path d="M262.222 1002.62C262.668 999.944 264.834 998.989 267.509 1000.52L851.442 1337.71C853.037 1338.7 854.353 1340.08 855.264 1341.72L885.136 1324.65C884.248 1323.08 882.977 1321.77 881.442 1320.83L297.508 983.639C295.835 982.808 293.993 982.376 292.126 982.376C290.258 982.376 288.416 982.808 286.744 983.639L267.636 994.403C266.189 995.295 264.955 996.492 264.019 997.912C263.084 999.331 262.471 1000.94 262.222 1002.62Z" fill="#37474F"/>
<path d="M856.856 1719.48V1347.01C856.752 1345.14 856.207 1343.32 855.266 1341.71C854.325 1340.09 853.015 1338.72 851.443 1337.71L267.509 1000.52C264.579 998.798 262.158 1000.2 262.158 1003.64V1376.11C262.261 1377.97 262.798 1379.78 263.727 1381.4C264.656 1383.01 265.952 1384.39 267.509 1385.41L851.443 1722.6C854.181 1724.26 856.856 1722.92 856.856 1719.48Z" fill="#455A64"/>
<path opacity="0.2" d="M851.443 1722.6C853.12 1723.42 854.96 1723.84 856.825 1723.84C858.69 1723.84 860.53 1723.42 862.207 1722.6L881.315 1711.52C882.866 1710.52 884.159 1709.17 885.088 1707.57C886.018 1705.98 886.558 1704.19 886.665 1702.35V1330.13C886.599 1328.19 886.028 1326.3 885.009 1324.65L855.137 1341.72C856.105 1343.32 856.653 1345.14 856.729 1347.01V1719.48C856.857 1722.6 854.628 1724.26 851.443 1722.6Z" fill="#263238"/>
<path opacity="0.3" d="M745.87 1592.03L438.108 1414.32C433.076 1411.39 429 1413.5 429 1418.97C429.215 1422.04 430.152 1425.01 431.735 1427.65C433.318 1430.28 435.502 1432.5 438.108 1434.13L745.87 1611.83C750.902 1614.76 755.042 1612.66 755.042 1607.18C754.82 1604.11 753.873 1601.14 752.278 1598.5C750.684 1595.87 748.488 1593.65 745.87 1592.03Z" fill="white"/>
<path d="M581.248 1496.76L350.171 1363.32C345.14 1360.39 341 1362.5 341 1367.97C341.237 1371.04 342.19 1374.01 343.783 1376.64C345.376 1379.28 347.564 1381.5 350.171 1383.13L581.248 1516.57C586.28 1519.5 590.42 1517.4 590.42 1511.92C590.198 1508.85 589.251 1505.87 587.656 1503.24C586.062 1500.6 583.866 1498.38 581.248 1496.76Z" fill="white"/>
<path d="M287.891 1163.76L315.151 1179.43C326.361 1185.8 345.915 1198.09 357.124 1195.03C366.551 1192.49 373.812 1179.81 386.805 1187.33C395.022 1192.04 404.13 1221.15 420.117 1230.38C436.103 1239.62 445.594 1213.57 450.753 1200.13C455.912 1186.69 465.02 1161.53 484.064 1172.49C503.108 1183.44 512.98 1221.98 525.082 1250.26C537.183 1278.54 552.916 1305.92 572.342 1317.13C595.271 1330.38 611.067 1323.95 621.831 1330.19C632.595 1336.43 641.639 1356.18 653.677 1367.58C664.378 1377.96 680.874 1387.96 690.364 1380.32C699.854 1372.67 706.67 1353.06 716.223 1358.53C725.777 1364.01 733.484 1395.73 742.529 1411.59C751.573 1427.45 761.636 1437.07 788.324 1452.42L838.896 1481.59V1485.22L817.113 1472.48C806.221 1466.11 790.871 1457.89 780.617 1462.23C770.362 1466.56 769.916 1470.51 760.872 1465.28C751.828 1460.06 748.134 1452.54 741.764 1442.29C737.567 1434.4 731.566 1427.61 724.249 1422.48C717.88 1418.6 709.154 1422.48 703.867 1427.58C698.581 1432.67 693.422 1438.21 685.587 1433.95C677.406 1427.89 671.058 1419.69 667.244 1410.25C662.148 1400.32 659.346 1392.48 653.741 1389.17C647.557 1386.32 640.568 1385.73 633.996 1387.51C623.348 1389.25 612.436 1386.98 603.36 1381.14C590.112 1373.5 574.698 1360 555.336 1325.48L525.974 1308.47C504.573 1296.18 489.796 1288.98 479.988 1291.27C467.759 1294.08 450.944 1317.64 432.664 1307.01C414.384 1296.37 409.034 1268.79 399.99 1250.57C392.823 1233.28 379.662 1219.15 362.921 1210.77L288.145 1167.58L287.891 1163.76Z" fill="#407BFF"/>
<path opacity="0.2" d="M450.752 1307.9C461.771 1303.69 471.771 1292.99 479.733 1291.15C489.541 1288.85 504.318 1296.05 525.719 1308.34L554.826 1325.35C537.884 1294.97 521.77 1247.39 515.719 1228.54C513.107 1220.51 510.178 1212.49 506.738 1204.65C503.289 1196.22 498.749 1188.28 493.235 1181.02C483.745 1171.15 476.612 1170.07 472.026 1181.53C467.44 1193 470.816 1227.14 469.988 1256.12C469.16 1285.1 461.517 1301.4 450.752 1307.9Z" fill="black"/>
<path opacity="0.2" d="M690.173 1380.32C680.683 1387.83 664.186 1377.83 653.486 1367.58C641.639 1356.18 632.658 1336.43 621.639 1330.19C610.621 1323.95 595.08 1330.19 572.15 1317.13C564.62 1312.51 558.012 1306.52 552.66 1299.49C561.004 1312.23 573.679 1336.05 598.455 1353.95C612.85 1364.33 631.512 1370.7 639.792 1375.48C648.166 1380.2 654.983 1387.26 659.409 1395.79C661.766 1399.68 663.931 1404.65 666.797 1410.25C670.611 1419.69 676.96 1427.89 685.141 1433.95C686.62 1434.92 688.329 1435.48 690.096 1435.58C691.863 1435.68 693.625 1435.32 695.204 1434.52C702.147 1429.1 705.268 1417.26 706.16 1392.29C707.242 1363.44 711.319 1357.83 715.841 1358.66C706.478 1353.31 699.663 1373.12 690.173 1380.32Z" fill="black"/>
<path opacity="0.2" d="M470.243 1256.12C471.071 1227.14 467.631 1193 472.281 1181.53C475.402 1173.76 479.669 1171.79 485.02 1174.33C476.931 1173.25 469.797 1186.05 474.51 1217.58C477.122 1235.03 484.828 1267.77 480.88 1290.96C480.434 1290.92 479.987 1290.92 479.542 1290.96C471.58 1292.8 461.581 1303.69 450.562 1307.71C461.517 1301.4 469.415 1285.16 470.243 1256.12Z" fill="black"/>
<path opacity="0.2" d="M554.826 1325.35L538.585 1315.92C532.901 1300.64 527.991 1285.08 523.872 1269.3C517.502 1246.43 512.662 1219.56 506.738 1204.65C510.178 1212.49 513.107 1220.51 515.719 1228.54C522.024 1247.39 538.139 1294.97 554.826 1325.35Z" fill="black"/>
<path opacity="0.5" d="M395.594 1198.67C401.964 1209.37 409.479 1224.14 420.18 1230.51C436.166 1239.75 445.657 1213.7 450.816 1200.26C452.344 1196.37 454.191 1191.4 456.484 1186.69C450.115 1200.32 444.765 1225.29 440.88 1239.36C437.568 1251.34 434.192 1259.49 424.829 1255.86C415.466 1252.23 409.033 1232.49 405.148 1221.85C402.489 1213.92 399.297 1206.17 395.594 1198.67Z" fill="white"/>
<path opacity="0.2" d="M394.002 1216.56C398.843 1231.53 401.072 1248.03 408.651 1272.1C405.658 1264.46 402.919 1256.82 399.734 1250.45C392.568 1233.15 379.407 1219.02 362.665 1210.64L338.144 1196.5C361.774 1210.13 371.964 1199.68 377.633 1196.5C383.302 1193.31 389.225 1201.59 394.002 1216.56Z" fill="black"/>
<path opacity="0.2" d="M380.945 1195.93C385.531 1196.82 390.117 1204.46 394.002 1216.56C398.843 1231.53 401.072 1248.03 408.651 1272.1C405.658 1264.46 402.919 1256.82 399.734 1250.45C397.442 1245.8 395.276 1241.79 393.365 1238.09C392.473 1230.96 391.9 1224.72 391.518 1221.02C390.053 1210 386.041 1199.62 380.945 1195.93Z" fill="black"/>
<path opacity="0.2" d="M572.342 1317.26C595.271 1330.51 611.067 1324.08 621.831 1330.32C623.647 1331.39 625.316 1332.7 626.799 1334.2C619.538 1327.83 607.691 1332.61 598.583 1334.2C589.355 1335.22 580.048 1333.18 572.087 1328.41C565.198 1319.23 558.819 1309.69 552.979 1299.81C558.311 1306.76 564.874 1312.68 572.342 1317.26Z" fill="black"/>
<path opacity="0.2" d="M706.351 1392.42C705.459 1417.39 702.338 1429.23 695.396 1434.65C693.816 1435.44 692.054 1435.81 690.287 1435.71C688.52 1435.61 686.811 1435.05 685.332 1434.07C677.88 1428.76 672.022 1421.52 668.39 1413.12C677.626 1425.86 691.51 1427.96 695.459 1415.86C699.408 1403.76 699.536 1386.94 702.275 1375.48C705.013 1364.01 708.134 1358.09 712.593 1357.83H713.485H714.122H714.504H715.013L716.032 1358.28C711.51 1357.96 707.689 1363.57 706.351 1392.42Z" fill="black"/>
<path opacity="0.5" d="M742.338 1412.16C751.446 1428.02 761.445 1437.64 788.133 1452.99L793.992 1456.37C760.299 1437.26 747.115 1441.97 738.389 1423.56C729.663 1405.16 726.223 1374.33 721.829 1365.67C728.835 1376.94 735.204 1399.42 742.338 1412.16Z" fill="white"/>
<path opacity="0.5" d="M539.349 1292.36C544.018 1303.63 549.291 1314.64 555.145 1325.35C574.253 1359.87 589.857 1373.37 603.105 1381.02C612.142 1386.89 623.049 1389.16 633.678 1387.39C640.281 1385.65 647.28 1386.26 653.486 1389.11C645.615 1383.84 636.258 1381.25 626.799 1381.72C616.226 1381.4 600.621 1376.75 582.66 1358.92C564.699 1341.08 540.114 1293.82 539.349 1292.36Z" fill="white"/>
<defs>
<radialGradient id="paint0_radial_117_376" cx="0" cy="0" r="1" gradientUnits="userSpaceOnUse" gradientTransform="translate(1472 2075.27) rotate(90) scale(849.851 1472)">
<stop stop-color="#407BFF"/>
<stop offset="1" stop-color="white" stop-opacity="0"/>
</radialGradient>
</defs>
</svg>
