<?xml version="1.0" encoding="UTF-8" standalone="no"?>
<!-- Created with Inkscape (http://www.inkscape.org/) -->

<svg
   width="500"
   height="500"
   viewBox="0 0 132.29166 132.29167"
   version="1.1"
   id="svg5"
   xml:space="preserve"
   inkscape:export-filename="spotify-3d.svg"
   inkscape:export-xdpi="96"
   inkscape:export-ydpi="96"
   xmlns:inkscape="http://www.inkscape.org/namespaces/inkscape"
   xmlns:sodipodi="http://sodipodi.sourceforge.net/DTD/sodipodi-0.dtd"
   xmlns:xlink="http://www.w3.org/1999/xlink"
   xmlns="http://www.w3.org/2000/svg"
   xmlns:svg="http://www.w3.org/2000/svg"><sodipodi:namedview
     id="namedview7"
     pagecolor="#505050"
     bordercolor="#eeeeee"
     borderopacity="1"
     inkscape:showpageshadow="0"
     inkscape:pageopacity="0"
     inkscape:pagecheckerboard="0"
     inkscape:deskcolor="#505050"
     inkscape:document-units="px"
     showgrid="false" /><defs
     id="defs2"><linearGradient
       inkscape:collect="always"
       id="linearGradient1470"><stop
         style="stop-color:#222222;stop-opacity:1;"
         offset="0"
         id="stop1466" /><stop
         style="stop-color:#000000;stop-opacity:1;"
         offset="1"
         id="stop1468" /></linearGradient><inkscape:path-effect
       effect="perspective-envelope"
       up_left_point="60.400811,15.51299"
       up_right_point="122.7471,12.707567"
       down_left_point="0.853145,85.927485"
       down_right_point="87.120629,166.95436"
       id="path-effect1368"
       is_visible="true"
       lpeversion="1"
       deform_type="perspective"
       horizontal_mirror="false"
       vertical_mirror="false"
       overflow_perspective="false" /><inkscape:path-effect
       effect="perspective-envelope"
       up_left_point="-111.46235,-63.526332"
       up_right_point="-13.894078,-88.669895"
       down_left_point="-142.36357,43.538791"
       down_right_point="-29.945302,31.4937"
       id="path-effect547"
       is_visible="true"
       lpeversion="1"
       deform_type="perspective"
       horizontal_mirror="false"
       vertical_mirror="false"
       overflow_perspective="false" /><linearGradient
       inkscape:collect="always"
       xlink:href="#linearGradient1470"
       id="linearGradient1472"
       x1="-91.966583"
       y1="-62.66729"
       x2="-66.253426"
       y2="19.536276"
       gradientUnits="userSpaceOnUse" /></defs><g
     inkscape:label="Layer 1"
     inkscape:groupmode="layer"
     id="layer1"><g
       id="g1601"><path
         style="fill:#ffffff;fill-opacity:1;stroke-width:0.264999"
         id="path1364"
         sodipodi:type="arc"
         sodipodi:cx="51.030483"
         sodipodi:cy="7.5140133"
         sodipodi:rx="71.332153"
         sodipodi:ry="58.442101"
         sodipodi:start="0"
         sodipodi:end="6.2831797"
         sodipodi:arc-type="slice"
         d="M 112.79823,55.781766 C 102.32387,101.13108 53.137377,135.03539 27.368138,110.83174 10.641467,95.121278 20.456381,62.746917 38.358634,41.577635 51.769935,25.71887 70.536527,15.056959 85.482778,14.384366 104.04501,13.549051 119.16589,28.211892 112.79831,55.781418 L 65.927718,46.83814 Z"
         inkscape:path-effect="#path-effect1368" /><path
         d="m -65.903347,-75.266989 c -25.86791,6.666218 -51.648063,32.837736 -59.758633,60.938874 -8.86949,30.730613 5.53246,55.484631 35.085272,52.318186 32.236311,-3.45397 64.776888,-37.53051634 69.407426,-72.195914 4.175994,-31.262565 -16.906602,-48.232346 -44.734065,-41.061146 z m 5.223203,75.88520941 c -0.966898,0.14824884 -1.502632,-0.0880693 -2.287,-0.52940645 -12.081952,-7.01343796 -27.462798,-4.81219746 -42.966026,1.06740674 -0.84135,0.3615688 -1.95711,0.9020947 -2.53604,0.9957042 -1.9294,0.3119749 -2.67015,-1.28584293 -2.18149,-3.1618382 0.61747,-2.3704508 2.1079,-3.6979056 3.68092,-4.3183789 17.541468,-7.0506758 35.138352,-9.8167568 49.024973,-2.2279346 1.224027,0.737669 1.896422,1.47378 1.486058,3.7488628 -0.413181,2.2907023 -2.349499,4.13857758 -4.221395,4.42558441 z m 9.127725,-17.25281941 c -1.192097,0.208007 -1.892656,-0.208109 -2.630686,-0.522293 -12.216128,-6.208696 -31.10779,-5.879976 -48.935555,2.275031 -1.01499,0.463739 -1.5981,0.847476 -2.47713,1.009291 -2.08123,0.38312 -3.25741,-1.231848 -2.63806,-3.58373 0.61493,-2.33508 2.01613,-4.069749 4.15958,-5.085634 5.824196,-2.755175 11.72149,-5.127955 20.059938,-6.796661 13.408215,-2.683278 26.151892,-1.717731 35.9557,2.996086 1.656676,0.791251 2.141072,2.130386 1.787716,4.211785 -0.465033,2.606626 -2.770309,5.057949 -5.281503,5.496125 z m 10.185306,-19.347197 c -1.186144,0.234419 -1.863743,0.0789 -2.783169,-0.31626 -13.949296,-6.318989 -39.765845,-2.932434 -57.034368,5.32092 -0.74244,0.353941 -1.68836,0.869703 -2.60157,1.058402 -2.49905,0.516386 -3.82093,-1.248418 -3.08005,-4.012863 0.75101,-2.802215 2.7355,-4.720415 4.55715,-5.621295 7.186792,-3.57761 15.007659,-6.274815 23.434038,-8.16368 14.805599,-3.318836 30.394579,-3.678216 41.562483,0.821125 1.610491,0.637145 2.554374,1.792609 2.128223,4.496465 -0.49156,3.118861 -3.385226,5.864313 -6.182737,6.417186 z"
         id="path224"
         class="UnoptimicedTransforms"
         style="fill:url(#linearGradient1472);fill-opacity:1;stroke:none;stroke-width:0.264583"
         transform="translate(142.02645,86.856303)"
         inkscape:path-effect="#path-effect547"
         inkscape:original-d="m -76.746901,-87.694543 c -36.221459,0 -65.616669,29.395209 -65.616669,65.616666 0,36.221458 29.39521,65.616668 65.616669,65.616668 36.221454,0 65.616664,-29.39521 65.616664,-65.616668 0,-36.221457 -29.39521,-65.616666 -65.616664,-65.616666 z M -50.10336,8.8519149 c -1.11125,0 -1.799166,-0.343959 -2.831041,-0.9525 -16.51,-9.948333 -35.71875,-10.371667 -54.689379,-6.482292 -1.03187,0.264584 -2.38125,0.687917 -3.14854,0.687917 -2.56646,0 -4.18041,-2.03729203 -4.18041,-4.180417 0,-2.725208 1.61395,-4.021666 3.59833,-4.445 21.669374,-4.7889579 43.814999,-4.3656249 62.706248,6.93208397 1.613959,1.03187503 2.566459,1.95791603 2.566459,4.36562403 0,2.407709 -1.878542,4.074584 -4.021667,4.074584 z m 7.117292,-17.356667 c -1.375834,0 -2.301875,-0.608541 -3.254375,-1.11125 -16.536458,-9.7895829 -41.195625,-13.7318749 -63.129587,-7.7787499 -1.27,0.343959 -1.95791,0.687917 -3.14854,0.687917 -2.83104,0 -5.13291,-2.301875 -5.13291,-5.132917 0,-2.831041 1.37583,-4.709583 4.10104,-5.476874 7.35541,-2.06375 14.869581,-3.598334 25.876247,-3.598334 17.171458,0 33.760833,4.259792 46.831246,12.038542 2.14313,1.27 2.9898,2.910416 2.9898,5.212291 -0.0265,2.8575 -2.24896,5.1593749 -5.132921,5.1593749 z m 8.202081,-20.1612489 c -1.37583,0 -2.2225,-0.343959 -3.41312,-1.031875 -18.838336,-11.244792 -52.519794,-13.943542 -74.321463,-7.858125 -0.9525,0.264583 -2.14312,0.687916 -3.41312,0.687916 -3.4925,0 -6.16479,-2.725208 -6.16479,-6.244166 0,-3.598334 2.2225,-5.635625 4.60375,-6.323542 9.31333,-2.725208 19.737912,-4.021666 31.088537,-4.021666 19.314583,0 39.555208,4.021666 54.345416,12.647083 2.06375,1.190625 3.41313,2.831041 3.41313,5.979583 0,3.598333 -2.91042,6.164792 -6.13834,6.164792 z" /><path
         id="path657"
         style="fill:#ffffff;fill-opacity:0.0674952;stroke-width:0.296481"
         d="m 106.04361,17.698571 c 7.64862,7.486123 11.10427,20.154992 7.24814,36.956917 -9.42549,41.068634 -51.646268,75.374132 -81.736098,63.604902 -2.17864,-0.85215 -4.13709,-1.91324 -5.88543,-3.15795 2.41128,2.3656 5.3577,4.29315 8.88163,5.67149 30.08984,11.76923 72.310608,-22.536782 81.736098,-63.605417 4.32854,-18.860274 -0.5582,-32.509756 -10.24434,-39.469942 z" /></g></g></svg>
