<?xml version="1.0" encoding="UTF-8" standalone="no"?>
<!-- Created with Inkscape (http://www.inkscape.org/) -->

<svg
   version="1.1"
   id="svg2"
   width="780"
   height="480"
   viewBox="0 0 780 480"
   xmlns="http://www.w3.org/2000/svg"
   xmlns:svg="http://www.w3.org/2000/svg">
  <defs
     id="defs6" />
  <g
     id="g8"
     transform="matrix(1.3333333,0,0,-1.3333333,0,2666.6667)">
    <g
       id="g1118"
       transform="matrix(0.25080528,6.1392509e-5,-6.1392509e-5,0.25080528,-847.92478,1538.8934)">
      <path
         d="m 5265.8012,1236.9091 c -1.362,-0.59 -2.798,-0.94 -4.271,-1.15 0.496,3.27 -0.036,7.24 -3.107,11.52 1.237,1.59 2.475,3.19 3.707,4.79 2.593,-3.42 5.625,-9.07 3.671,-15.16"
         style="fill:#f7cc7f;fill-opacity:1;fill-rule:nonzero;stroke:none;stroke-width:0.1"
         id="path14" />
      <path
         d="m 5237.6772,1231.5691 c 4.875,6.59 10.109,13.49 15.297,20.35 0.367,-0.17 0.606,-0.29 0.555,-0.26 1.991,-1.21 2.19,-1.45 2.179,-1.44 1.279,-1.03 2.054,-2.05 2.046,-2.04 0.239,-0.3 0.455,-0.6 0.669,-0.9 -5.73,-7.39 -11.446,-14.66 -16.637,-21.34 -1.683,1.64 -3.07,3.57 -4.109,5.63"
         style="fill:#f7cc7f;fill-opacity:1;fill-rule:nonzero;stroke:none;stroke-width:0.1"
         id="path16" />
      <path
         d="m 5220.8592,1196.3291 c 0.025,0.06 -3.277,-6.96 0.295,-11.01 0,0 3.958,-4.75 7.152,1.52 -0.01,-0.01 0.313,0.42 0.322,0.43 0.695,0.94 2.01,1.17 3.024,0.5 1.067,-0.69 1.196,-2.01 0.735,-3.18 -0.253,-0.64 -0.766,-1.63 -2.102,-2.73 -7.801,-6.38 -17.293,1.74 -16.181,11.03 0.653,5.77 8.383,17.75 18.627,31.92 1.337,-1.72 2.816,-3.37 4.421,-4.87 -8.53,-11.1 -14.915,-19.86 -16.293,-23.61"
         style="fill:#f7cc7f;fill-opacity:1;fill-rule:nonzero;stroke:none;stroke-width:0.1"
         id="path18" />
      <path
         d="m 5241.7862,1225.9391 c -1.6,-2.06 -3.149,-4.06 -4.634,-6 -1.605,1.5 -3.084,3.15 -4.421,4.87 1.593,2.21 3.248,4.46 4.946,6.76 1.039,-2.06 2.426,-3.99 4.109,-5.63"
         style="fill:#f7cc7f;fill-opacity:1;fill-rule:nonzero;stroke:none;stroke-width:0.1"
         id="path20" />
      <path
         d="m 5262.1302,1252.0691 c -1.594,2.11 -3.02,3.37 -3.017,3.36 -0.729,0.63 -1.471,1.18 -2.222,1.68 4.467,5.92 8.821,11.74 12.793,17.22 1.009,-3.19 1.838,-6.19 2.511,-9.01 -3.246,-4.35 -6.637,-8.8 -10.065,-13.25"
         style="fill:#f7cc7f;fill-opacity:1;fill-rule:nonzero;stroke:none;stroke-width:0.1"
         id="path22" />
      <path
         d="m 5278.8332,1274.3791 c -2.114,-2.95 -4.338,-5.97 -6.638,-9.06 -0.673,2.82 -1.502,5.82 -2.511,9.01 2.271,3.13 4.417,6.15 6.389,9.02 0.832,-3.01 1.782,-5.99 2.76,-8.97"
         style="fill:#f7cc7f;fill-opacity:1;fill-rule:nonzero;stroke:none;stroke-width:0.1"
         id="path24" />
      <path
         d="m 5264.2932,1223.2191 c 3.032,1.56 15.495,10.29 7.902,42.1 2.3,3.09 4.524,6.11 6.638,9.06 1.154,-3.52 2.335,-7.02 3.374,-10.55 2.51,-8.53 4.643,-17.64 3.404,-26.39 -1.614,-11.4 -9.891,-19.72 -20.143,-23.7 -5.334,-2.07 -11.401,-2.65 -17.071,-0.74 -4.173,1.4 -7.968,3.88 -11.245,6.94 1.485,1.94 3.034,3.94 4.634,6 5.216,-5.1 13.259,-7.48 22.507,-2.72"
         style="fill:#f7cc7f;fill-opacity:1;fill-rule:nonzero;stroke:none;stroke-width:0.1"
         id="path26" />
      <path
         d="m 5276.2132,1315.5791 c 7.089,3.73 22.109,4.07 20.861,-9.06 -0.564,-5.94 -8.103,-18.03 -18.241,-32.14 -0.978,2.98 -1.928,5.96 -2.76,8.97 10.101,14.68 15.638,25.32 9.913,26.01 -3.397,0.41 -7.647,-1.31 -10.244,-5.35 -2.773,-4.32 -2.08,-10.14 -1.041,-15.1 0.391,-1.87 0.863,-3.72 1.372,-5.56 -1.972,-2.87 -4.118,-5.89 -6.389,-9.02 -0.433,1.37 -0.898,2.78 -1.399,4.23 -3.154,9.09 -3.651,20.19 -1.363,26.2 -0.01,-0.01 2.371,7.18 9.291,10.82"
         style="fill:#f7cc7f;fill-opacity:1;fill-rule:nonzero;stroke:none;stroke-width:0.1"
         id="path28" />
      <path
         d="m 5250.8382,1252.7291 c 0.391,-0.11 -2.741,0.89 -5.606,0.41 1.179,0.16 -6.051,0.22 -8.935,-8.03 -1.46,-4.18 -0.824,-9.16 1.38,-13.54 -1.698,-2.3 -3.353,-4.55 -4.946,-6.76 -0.216,0.28 -0.43,0.56 -0.637,0.84 -15.256,20.68 7.38,42.96 24.797,31.46 -1.298,-1.72 -2.606,-3.45 -3.917,-5.19 -0.589,0.27 -1.511,0.67 -2.136,0.81"
         style="fill:#f7cc7f;fill-opacity:1;fill-rule:nonzero;stroke:none;stroke-width:0.1"
         id="path30" />
      <path
         d="m 5262.1302,1252.0691 c -1.232,-1.6 -2.47,-3.2 -3.707,-4.79 -0.214,0.3 -0.43,0.6 -0.669,0.9 0.01,-0.01 -0.767,1.01 -2.046,2.04 0.011,-0.01 -0.188,0.23 -2.179,1.44 0.051,-0.03 -0.188,0.09 -0.555,0.26 1.311,1.74 2.619,3.47 3.917,5.19 0.751,-0.5 1.493,-1.05 2.222,-1.68 0,0.01 1.423,-1.25 3.017,-3.36"
         style="fill:#f7cc7f;fill-opacity:1;fill-rule:nonzero;stroke:none;stroke-width:0.1"
         id="path32" />
      <path
         d="m 5254.8272,1240.9891 c -3.113,-3.33 -3.712,-7.83 -1.339,-10.05 2.372,-2.21 6.818,-1.31 9.931,2.02 3.111,3.33 3.711,7.83 1.338,10.04 -2.372,2.22 -6.818,1.32 -9.93,-2.01"
         style="fill:#f7cc7f;fill-opacity:1;fill-rule:nonzero;stroke:none;stroke-width:0.1"
         id="path34" />
      <path
         d="m 5222.8892,1190.9891 c -3.112,-3.33 -3.712,-7.83 -1.339,-10.05 2.372,-2.21 6.819,-1.31 9.931,2.02 3.112,3.33 3.712,7.83 1.339,10.05 -2.373,2.21 -6.818,1.31 -9.931,-2.02"
         style="fill:#f7cc7f;fill-opacity:1;fill-rule:nonzero;stroke:none;stroke-width:0.1"
         id="path36" />
      <path
         d="m 4283.9062,781.16907 h 134.67 v 265.24003 h -134.67 V 781.16907"
         style="fill:#f47458;fill-opacity:1;fill-rule:nonzero;stroke:none;stroke-width:0.1"
         id="path38" />
      <path
         d="m 4283.9062,909.13907 c 1.2,0.03 2.4,0.05 3.6,0.05 h 131.07 v -128.02 h -134.67 v 127.97"
         style="fill:#b75742;fill-opacity:1;fill-rule:nonzero;stroke:none;stroke-width:0.1"
         id="path40" />
      <path
         d="m 4585.1162,583.57907 v 158.59 c 0,76.09 -61.68,137.77 -137.77,137.77 h -165.46 c -76.09,0 -137.77,-61.68 -137.77,-137.77 v -158.59 c 0,-76.08 61.68,-137.77 137.77,-137.77 h 165.46 c 76.09,0 137.77,61.69 137.77,137.77"
         style="fill:#f47458;fill-opacity:1;fill-rule:nonzero;stroke:none;stroke-width:0.1"
         id="path42" />
      <path
         d="m 4529.8162,596.81907 v 125.24 c 0,57.82 -46.88,104.7 -104.7,104.7 h -121 c -57.82,0 -104.69,-46.88 -104.69,-104.7 v -125.24 c 0,-57.82 46.87,-104.69 104.69,-104.69 h 121 c 57.82,0 104.7,46.87 104.7,104.69"
         style="fill:#b75742;fill-opacity:1;fill-rule:nonzero;stroke:none;stroke-width:0.1"
         id="path44" />
      <path
         d="m 4416.2762,734.58907 c 5.87,0 10.62,-4.75 10.62,-10.62 0,-5.86 -4.75,-10.61 -10.62,-10.61 -5.86,0 -10.61,4.75 -10.61,10.61 0,5.87 4.75,10.62 10.61,10.62"
         style="fill:#f47458;fill-opacity:1;fill-rule:nonzero;stroke:none;stroke-width:0.1"
         id="path46" />
      <path
         d="m 4368.9862,734.58907 c 5.86,0 10.61,-4.75 10.61,-10.62 0,-5.86 -4.75,-10.61 -10.61,-10.61 -5.86,0 -10.61,4.75 -10.61,10.61 0,5.87 4.75,10.62 10.61,10.62"
         style="fill:#f47458;fill-opacity:1;fill-rule:nonzero;stroke:none;stroke-width:0.1"
         id="path48" />
      <path
         d="m 4321.6962,734.58907 c 5.86,0 10.61,-4.75 10.61,-10.62 0,-5.86 -4.75,-10.61 -10.61,-10.61 -5.87,0 -10.62,4.75 -10.62,10.61 0,5.87 4.75,10.62 10.62,10.62"
         style="fill:#f47458;fill-opacity:1;fill-rule:nonzero;stroke:none;stroke-width:0.1"
         id="path50" />
      <path
         d="m 4416.2762,696.06907 c 5.87,0 10.62,-4.75 10.62,-10.61 0,-5.86 -4.75,-10.62 -10.62,-10.62 -5.86,0 -10.61,4.76 -10.61,10.62 0,5.86 4.75,10.61 10.61,10.61"
         style="fill:#f47458;fill-opacity:1;fill-rule:nonzero;stroke:none;stroke-width:0.1"
         id="path52" />
      <path
         d="m 4368.9862,696.06907 c 5.86,0 10.61,-4.75 10.61,-10.61 0,-5.86 -4.75,-10.62 -10.61,-10.62 -5.86,0 -10.61,4.76 -10.61,10.62 0,5.86 4.75,10.61 10.61,10.61"
         style="fill:#f47458;fill-opacity:1;fill-rule:nonzero;stroke:none;stroke-width:0.1"
         id="path54" />
      <path
         d="m 4321.6962,696.06907 c 5.86,0 10.61,-4.75 10.61,-10.61 0,-5.86 -4.75,-10.62 -10.61,-10.62 -5.87,0 -10.62,4.76 -10.62,10.62 0,5.86 4.75,10.61 10.62,10.61"
         style="fill:#f47458;fill-opacity:1;fill-rule:nonzero;stroke:none;stroke-width:0.1"
         id="path56" />
      <path
         d="m 4416.2762,657.55907 c 5.87,0 10.62,-4.76 10.62,-10.62 0,-5.86 -4.75,-10.61 -10.62,-10.61 -5.86,0 -10.61,4.75 -10.61,10.61 0,5.86 4.75,10.62 10.61,10.62"
         style="fill:#f47458;fill-opacity:1;fill-rule:nonzero;stroke:none;stroke-width:0.1"
         id="path58" />
      <path
         d="m 4368.9862,657.55907 c 5.86,0 10.61,-4.76 10.61,-10.62 0,-5.86 -4.75,-10.61 -10.61,-10.61 -5.86,0 -10.61,4.75 -10.61,10.61 0,5.86 4.75,10.62 10.61,10.62"
         style="fill:#f47458;fill-opacity:1;fill-rule:nonzero;stroke:none;stroke-width:0.1"
         id="path60" />
      <path
         d="m 4321.6962,657.55907 c 5.86,0 10.61,-4.76 10.61,-10.62 0,-5.86 -4.75,-10.61 -10.61,-10.61 -5.87,0 -10.62,4.75 -10.62,10.61 0,5.86 4.75,10.62 10.62,10.62"
         style="fill:#f47458;fill-opacity:1;fill-rule:nonzero;stroke:none;stroke-width:0.1"
         id="path62" />
      <path
         d="m 4963.0782,445.80907 v 0 c 0,-2.77 -2.669,-5.01 -5.96,-5.01 h -1485.672 c -3.29,0 -5.96,2.24 -5.96,5.01 v 0 c 0,2.77 2.67,5.02 5.96,5.02 h 1485.672 c 3.291,0 5.96,-2.25 5.96,-5.02"
         style="fill:#13375b;fill-opacity:1;fill-rule:nonzero;stroke:none;stroke-width:0.1"
         id="path64" />
      <path
         d="m 4584.8662,449.83907 c 0,0 -138.27,-4.72 -168.59,9.65 -30.32,14.37 -0.91,33.36 -0.91,33.36 0,0 -65.7,15.58 -70.02,36.08 -4.32,20.5 27.21,17.29 27.21,17.29 0,0 -62.93,43.98 -53.91,57.49 16.81,25.15 87.96,-19.16 87.96,-19.16 0,0 -23.69,23.56 -6.99,32.32 25.18,13.19 61.75,-50.28 61.75,-50.28 0,0 -1.83,15.36 17.54,16.31 34.74,1.69 105.96,-133.06 105.96,-133.06"
         style="fill:#466eb6;fill-opacity:1;fill-rule:nonzero;stroke:none;stroke-width:0.1"
         id="path66" />
      <path
         d="m 4480.1162,593.96907 c -19.37,-0.95 -18.75,-27.38 -18.75,-27.38 0,0 -36.83,74.99 -62.01,61.79 -16.69,-8.75 1.43,-40.32 1.43,-40.32 0,0 -65.33,40.8 -82.14,15.65 l 254.66,-144.22 c -8.23,15.78 -60.74,136.06 -93.19,134.48"
         style="fill:#355389;fill-opacity:1;fill-rule:nonzero;stroke:none;stroke-width:0.1"
         id="path68" />
      <path
         d="m 4590.0362,449.80907 c 0,0 -118.97,82.78 -136.08,119.17 -17.11,36.39 15.66,33.35 15.66,33.35 0,0 -48.94,64.45 -37.32,86.71 11.61,22.27 38.34,-4.72 38.34,-4.72 0,0 -24.76,88.63 -6.12,94.26 34.71,10.48 68.67,-101.75 68.67,-101.75 0,0 12.96,62.09 35.08,57.48 33.35,-6.96 0.07,-98.76 0.07,-98.76 0,0 9.84,29.9 28.48,16.03 33.45,-24.88 -6.78,-201.77 -6.78,-201.77"
         style="fill:#466eb6;fill-opacity:1;fill-rule:nonzero;stroke:none;stroke-width:0.1"
         id="path70" />
      <path
         d="m 4629.3562,650.14907 c -21,9.94 -25.22,30.84 -25.22,30.84 0,0 -0.14,51.91 -33.5,58.87 -22.11,4.61 -37.59,-37.09 -37.59,-37.09 0,0 -33.82,86.29 -68.53,75.81 l 125.88,-327.38 c 4.39,20.87 63.98,187.12 38.96,198.95"
         style="fill:#355389;fill-opacity:1;fill-rule:nonzero;stroke:none;stroke-width:0.1"
         id="path72" />
      <path
         d="m 5155.8372,435.31907 c 0,0 284.554,149.25 335.248,227.27 50.692,78.01 -11.186,84.38 -11.186,84.38 0,0 132.47,132.29 112.864,186.98 -19.605,54.7 -89.364,1.26 -89.364,1.26 0,0 84.658,195.34003 43.718,214.12003 -76.256,34.96 -179.835,-173.11003 -179.835,-173.11003 0,0 21.661,90.08003 -30.485,86.48003 -78.639,-5.44 -72.706,-208.49003 -72.706,-208.49003 0,0 -9.916,77.75 -57.015,51.83 -84.505,-46.5 -51.239,-470.72 -51.239,-470.72"
         style="fill:#355389;fill-opacity:1;fill-rule:nonzero;stroke:none;stroke-width:0.1"
         id="path74" />
      <path
         d="m 5189.5382,937.22907 c 36.768,21.04 74.452,-38.55 74.452,-38.55 0,0 -5.832,158.58003 72.807,164.01003 52.146,3.61 30.485,-86.47003 30.485,-86.47003 0,0 103.579,208.07003 179.835,173.11003 l -391.67,-710.71003 c -3.484,49.22 -38.746,456.92 34.091,498.61"
         style="fill:#466eb6;fill-opacity:1;fill-rule:nonzero;stroke:none;stroke-width:0.1"
         id="path76" />
      <path
         d="m 5158.2432,436.17907 c 0,0 246.713,-23.75 309.622,5.22 62.911,28.97 16.36,61.33 16.36,61.33 0,0 135.953,30.64 145.343,72.86 9.389,42.22 -55.755,36.3 -55.755,36.3 0,0 130.908,89.33 112.595,117.42 -34.112,52.31 -181.988,-37.52 -181.988,-37.52 0,0 49.427,48.1 15.168,66.55 -51.666,27.82 -128.606,-102.36 -128.606,-102.36 0,0 4.129,31.68 -35.82,34.08 -71.676,4.3 -196.919,-253.88 -196.919,-253.88"
         style="fill:#355389;fill-opacity:1;fill-rule:nonzero;stroke:none;stroke-width:0.1"
         id="path78" />
      <path
         d="m 5352.9162,712.92907 c 39.948,-2.4 38.066,-56.95 38.066,-56.95 0,0 77.74,153.94 129.406,126.12 34.26,-18.45 -3.884,-83.2 -3.884,-83.2 0,0 135.792,82.72 169.904,30.41 l -528.949,-291.78 c 17.365,32.37 128.506,279.41 195.457,275.4"
         style="fill:#466eb6;fill-opacity:1;fill-rule:nonzero;stroke:none;stroke-width:0.1"
         id="path80" />
      <path
         d="m 4083.2362,1466.9891 c 6.56,-23.02 30.54,-36.35 53.55,-29.79 23.02,6.57 36.35,30.56 29.79,53.58 -6.57,23.01 -30.55,36.35 -53.56,29.78 -23.02,-6.57 -36.35,-30.55 -29.78,-53.57"
         style="fill:#f7cc7f;fill-opacity:1;fill-rule:nonzero;stroke:none;stroke-width:0.1"
         id="path82" />
      <path
         d="m 4149.0662,1478.6391 c 3.51,-12.31 -3.62,-25.13 -15.92,-28.64 -12.31,-3.51 -25.13,3.61 -28.64,15.92 l 44.56,12.72"
         style="fill:#efefef;fill-opacity:1;fill-rule:nonzero;stroke:none;stroke-width:0.1"
         id="path84" />
      <path
         d="m 4304.7562,1738.8891 23.91,1.94 3.27,-22.13 23.64,0.87 5.73,-20.76 17.8,-2.25 -1.14,-9.01 -23.81,3.01 -5.42,19.67 -24.6,-0.9 -3.21,21.76 -21.67,-1.75 5.5,9.55"
         style="fill:#f48c7f;fill-opacity:1;fill-rule:nonzero;stroke:none;stroke-width:0.1"
         id="path86" />
      <path
         d="m 5213.8412,1449.8691 1.171,-14.56 23.649,-0.71 4.34,-21.09 17.61,-3.42 -1.731,-8.91 -23.555,4.57 -4.112,19.99 -24.601,0.73 -1.763,21.92 8.992,1.48"
         style="fill:#f48c7f;fill-opacity:1;fill-rule:nonzero;stroke:none;stroke-width:0.1"
         id="path88" />
      <path
         d="m 4582.8962,447.51907 h 326.405 c 16.952,0 30.693,13.74 30.693,30.69 v 637.50003 c 0,16.95 -13.741,30.69 -30.693,30.69 h -326.405 c -16.95,0 -30.69,-13.74 -30.69,-30.69 V 478.20907 c 0,-16.95 13.74,-30.69 30.69,-30.69"
         style="fill:#184655;fill-opacity:1;fill-rule:nonzero;stroke:none;stroke-width:0.1"
         id="path90" />
      <path
         d="m 4909.3012,472.18907 c 3.319,0 6.019,2.7 6.019,6.02 v 637.50003 c 0,3.32 -2.7,6.02 -6.019,6.02 h -326.405 c -3.31,0 -6.01,-2.7 -6.01,-6.02 V 478.20907 c 0,-3.32 2.7,-6.02 6.01,-6.02 h 326.405"
         style="fill:#3c8f7c;fill-opacity:1;fill-rule:nonzero;stroke:none;stroke-width:0.1"
         id="path92" />
      <path
         d="m 4679.9962,1025.7991 c 0,-32.62003 26.45,-59.07003 59.07,-59.07003 32.62,0 59.07,26.45 59.07,59.07003 0,32.62 -26.45,59.07 -59.07,59.07 -32.62,0 -59.07,-26.45 -59.07,-59.07"
         style="fill:#355389;fill-opacity:1;fill-rule:nonzero;stroke:none;stroke-width:0.1"
         id="path94" />
      <path
         d="m 4718.4662,1025.7991 c 0,-11.38 9.22,-20.6 20.6,-20.6 11.38,0 20.61,9.22 20.61,20.6 0,11.38 -9.23,20.61 -20.61,20.61 -11.38,0 -20.6,-9.23 -20.6,-20.61"
         style="fill:#184655;fill-opacity:1;fill-rule:nonzero;stroke:none;stroke-width:0.1"
         id="path96" />
      <path
         d="m 4655.3262,796.95907 c 0,-46.25 37.49,-83.74 83.74,-83.74 46.25,0 83.74,37.49 83.74,83.74 0,46.25 -37.49,83.74 -83.74,83.74 -46.25,0 -83.74,-37.49 -83.74,-83.74"
         style="fill:#355389;fill-opacity:1;fill-rule:nonzero;stroke:none;stroke-width:0.1"
         id="path98" />
      <path
         d="m 4709.8562,796.95907 c 0,-16.13 13.08,-29.21 29.21,-29.21 16.13,0 29.21,13.08 29.21,29.21 0,16.13 -13.08,29.21 -29.21,29.21 -16.13,0 -29.21,-13.08 -29.21,-29.21"
         style="fill:#184655;fill-opacity:1;fill-rule:nonzero;stroke:none;stroke-width:0.1"
         id="path100" />
      <path
         d="m 4662.3662,583.03907 c 0,-46.24 37.49,-83.74 83.74,-83.74 46.24,0 83.73,37.5 83.73,83.74 0,46.25 -37.49,83.74 -83.73,83.74 -46.25,0 -83.74,-37.49 -83.74,-83.74"
         style="fill:#355389;fill-opacity:1;fill-rule:nonzero;stroke:none;stroke-width:0.1"
         id="path102" />
      <path
         d="m 4716.8862,583.03907 c 0,-16.13 13.08,-29.21 29.22,-29.21 16.13,0 29.21,13.08 29.21,29.21 0,16.14 -13.08,29.22 -29.21,29.22 -16.14,0 -29.22,-13.08 -29.22,-29.22"
         style="fill:#184655;fill-opacity:1;fill-rule:nonzero;stroke:none;stroke-width:0.1"
         id="path104" />
      <path
         d="m 3889.8162,1437.4691 -19.08,-1.94 c -0.97,-0.1 -1.83,-0.67 -2.3,-1.51 l -9.19,-16.55 c -1.17,-2.13 -4.32,-2 -5.31,0.21 l -7.78,17.24 c -0.4,0.87 -1.21,1.5 -2.17,1.68 l -18.85,3.47 c -2.42,0.45 -3.27,3.42 -1.44,5.04 l 14.27,12.6 c 0.73,0.64 1.09,1.6 0.96,2.55 l -2.47,18.7 c -0.31,2.4 2.31,4.11 4.43,2.9 l 16.6,-9.45 c 0.85,-0.48 1.88,-0.52 2.76,-0.11 l 17.33,8.08 c 2.22,1.04 4.69,-0.88 4.17,-3.24 l -4.01,-18.44 c -0.2,-0.94 0.08,-1.92 0.75,-2.62 l 13.17,-13.7 c 1.7,-1.76 0.6,-4.66 -1.84,-4.91"
         style="fill:#96d9c9;fill-opacity:1;fill-rule:nonzero;stroke:none;stroke-width:0.1"
         id="path106" />
      <path
         d="m 4996.9642,1223.8891 -19.076,-1.95 c -0.972,-0.1 -1.832,-0.66 -2.3,-1.5 l -9.183,-16.56 c -1.178,-2.12 -4.321,-1.99 -5.319,0.22 l -7.779,17.23 c -0.396,0.88 -1.207,1.51 -2.167,1.69 l -18.851,3.47 c -2.419,0.44 -3.268,3.42 -1.438,5.04 l 14.27,12.6 c 0.726,0.64 1.086,1.59 0.96,2.54 l -2.468,18.7 c -0.316,2.4 2.302,4.12 4.432,2.9 l 16.597,-9.44 c 0.845,-0.49 1.878,-0.53 2.76,-0.12 l 17.327,8.09 c 2.223,1.04 4.69,-0.88 4.176,-3.25 l -4.012,-18.43 c -0.204,-0.94 0.075,-1.92 0.746,-2.62 l 13.176,-13.7 c 1.69,-1.76 0.597,-4.66 -1.851,-4.91"
         style="fill:#f7cc7f;fill-opacity:1;fill-rule:nonzero;stroke:none;stroke-width:0.1"
         id="path108" />
      <path
         d="m 3901.8462,1237.0691 -19.08,-1.94 c -0.97,-0.1 -1.83,-0.67 -2.3,-1.51 l -9.18,-16.55 c -1.18,-2.13 -4.32,-2 -5.32,0.21 l -7.78,17.24 c -0.4,0.87 -1.21,1.5 -2.17,1.68 l -18.85,3.47 c -2.42,0.45 -3.27,3.42 -1.44,5.04 l 14.27,12.6 c 0.73,0.64 1.09,1.59 0.96,2.55 l -2.46,18.7 c -0.32,2.39 2.3,4.11 4.43,2.9 l 16.59,-9.45 c 0.85,-0.48 1.88,-0.52 2.76,-0.11 l 17.33,8.08 c 2.22,1.04 4.69,-0.88 4.18,-3.24 l -4.01,-18.44 c -0.21,-0.94 0.07,-1.92 0.74,-2.62 l 13.18,-13.7 c 1.69,-1.76 0.59,-4.66 -1.85,-4.91"
         style="fill:#f7cc7f;fill-opacity:1;fill-rule:nonzero;stroke:none;stroke-width:0.1"
         id="path110" />
      <path
         d="m 3981.2962,874.65907 c 0.84,-0.35 -11.08,-15.71 -22.69,-26.57 -9.36,-11.75 -18.14,-25.65 -21.16,-40.82 -4.6,-23.05 -0.78,-136.95 -4.78,-145.05 -34.35,-33.59 -59.22,-117.88 -66.21,-143.59 -1.36,-5.01 -4.12,-9.53 -7.94,-13.05 v 0 l 1.53,-29.05 17.07,-15.73 c 0,0 -3.8,23.68 3.79,41.25 0,0 86.49,130.98 91.63,141 9.81,28.51 45.53,174.6 45.53,174.6 l 8.29,33.57 c 0,0 -44.99,23.41 -45.06,23.44"
         style="fill:#f7a491;fill-opacity:1;fill-rule:nonzero;stroke:none;stroke-width:0.1"
         id="path112" />
      <path
         d="m 3839.8162,496.23907 c 0,0 10.81,-16.65 11.73,-23.14 0.92,-6.49 6.68,-21.2 13.04,-22.14 1.45,-0.21 26.2,-2.02 26.02,1.07 -0.14,2.36 -9.1,5.74 -13.26,8.61 -7.19,4.97 -18.35,45.42 -18.35,45.42 0,0 -18.71,-4.64 -19.18,-9.82"
         style="fill:#f47458;fill-opacity:1;fill-rule:nonzero;stroke:none;stroke-width:0.1"
         id="path114" />
      <path
         d="m 4055.2262,824.17907 c 0,0 55.7,-119.11 56.06,-140.06 0.3,-17.95 -9.74,-118.67 -6.93,-202.54 0.1,-3.03 3.93,-7.06 9.51,-9.61 3.15,-1.44 17.96,-8.71 17.96,-8.71 l 2.44,-4.94 -52.25,3.72 -1.06,12.12 0.32,2.15 c 0,0 -20.8,125.47 -18.68,160.95 0.34,5.58 3.05,38.95 3.05,38.95 l -62.83,121.31 39.51,51.92 12.9,-25.26"
         style="fill:#f7a491;fill-opacity:1;fill-rule:nonzero;stroke:none;stroke-width:0.1"
         id="path116" />
      <path
         d="m 3927.5262,681.08907 c 0.01,-0.02 0.01,-0.02 0.02,0.01 l -0.02,-0.01"
         style="fill:#13375b;fill-opacity:1;fill-rule:nonzero;stroke:none;stroke-width:0.1"
         id="path118" />
      <path
         d="m 4123.3962,737.51907 -109.34,157.97 c -6.75,-2.73 -13.12,-5.11 -20.33,-6.5 -15.68,-3.03 -31.38,-2.54 -47.25,-2.02 0,-0.59 -0.03,-1.11 -0.09,-1.55 -1.83,-13.03 -19.1,-33.19 -22.66,-72.71 -4.05,-44.86 -1.6,-122.78 -0.23,-127.9 72.69,8.84 179.28,31.07 199.9,52.71"
         style="fill:#13375b;fill-opacity:1;fill-rule:nonzero;stroke:none;stroke-width:0.1"
         id="path120" />
      <path
         d="m 3980.6462,1106.0491 c 0.44,-4.61 2.88,-8.14 5.46,-7.88 2.58,0.27 4.32,4.22 3.88,8.83 -0.43,4.61 -2.87,8.13 -5.45,7.87 -2.58,-0.26 -4.32,-4.21 -3.89,-8.82"
         style="fill:#f7a491;fill-opacity:1;fill-rule:nonzero;stroke:none;stroke-width:0.1"
         id="path122" />
      <path
         d="m 4080.4562,450.26907 h 68.54 c 2.44,0.22 3.07,3.3 1.7,4.68 -2.16,2.15 -10.22,4.33 -18.87,8.31 -15.19,-1.58 -48.48,7.43 -50.87,10.91 -1.38,-6.96 -1.86,-23.6 -0.5,-23.9"
         style="fill:#f47458;fill-opacity:1;fill-rule:nonzero;stroke:none;stroke-width:0.1"
         id="path124" />
      <path
         d="m 4146.8162,1018.7491 c -0.33,0.88 -1.13,0.17 -2.11,-1.3 1.27,5.35 1.1,12.07 0.09,12.67 -1.24,0.74 -1.96,-8.63 -4.72,-13.7 -2.76,-5.07 -5.28,-11.33 -5.66,-11.05 -0.61,0.44 3.25,7.26 5.97,12.47 2.72,5.2 0.64,29.14 -1.89,11.98 -2.54,-17.16 -19.13,-30.27003 -19.61,-25.01 -0.49,5.27 2.3,13.23 -1.12,12.07 -3.42,-1.17 -4.42,-12.95 -7.42,-21.47003 -0.35,-0.98 -0.38,-3.99 -0.36,-7.53 0.01,-1.84 -1.14,-3.49 -2.87,-4.12 l -43.62,-15.86 -28.47,49.59003 -32.21,-6.86 c 0,0 25.91,-67.40003 47.99,-77.56003 10.07,-4.64 57.13,28.36 75.64,43.97 18.31,15.45 21.79,37.95003 20.37,41.71003"
         style="fill:#f7a491;fill-opacity:1;fill-rule:nonzero;stroke:none;stroke-width:0.1"
         id="path126" />
      <path
         d="m 4020.8962,1048.6491 c 11.37,-5.42 40.38,-72.74003 40.38,-72.74003 l -37.31,-22.88 -11.76,34.24 c 0,0 -5.3,68.06003 8.69,61.38003"
         style="fill:#f7cc7f;fill-opacity:1;fill-rule:nonzero;stroke:none;stroke-width:0.1"
         id="path128" />
      <path
         d="m 4010.1562,1103.4191 c 5.53,13.76 11.02,27.62 4.77,44.51 -5.06,13.67 -16.09,22.71 -29.93,26.33 -39.23,10.26 -38.62,-16.22 -95.36,-10.67 -58.69,5.73 -82.26,-58.07 -76.83,-79.19 25.97,-101.02003 142.63,-51.8 158.43,-35.04 11.75,12.46 35.35,45.21 38.92,54.06"
         style="fill:#b75742;fill-opacity:1;fill-rule:nonzero;stroke:none;stroke-width:0.1"
         id="path130" />
      <path
         d="m 3933.0662,1054.2891 c 0,0 -6.31,0.3 -23.34,-7.48 -17.02,-7.78 -53.51,-58.38003 -53.51,-58.38003 l 29.72,-23.13 50.92,33.3 c 0,0 6.45,55.69003 -3.79,55.69003"
         style="fill:#f7cc7f;fill-opacity:1;fill-rule:nonzero;stroke:none;stroke-width:0.1"
         id="path132" />
      <path
         d="m 4023.9662,887.06907 c -17.52,-9.31 -84.92,-7.8 -84.92,-7.8 -1.67,17.52 -10.6,64.43 -14.51,102.11 -4.9,26.23003 3.19,33.75003 8.53,72.91003 0.04,0.27 27.18,2.16 27.18,2.16 l 28.26,-0.7 c 0,0 24.57,-1.97 32.39,-7.1 0.54,-0.35 3.65,-44.61 1.22,-75.97003 -1.66,-21.38 -4.08,-38.63 -3.93,-52.77 0.23,-20.54 5.78,-32.84 5.78,-32.84"
         style="fill:#fae0b2;fill-opacity:1;fill-rule:nonzero;stroke:none;stroke-width:0.1"
         id="path134" />
      <path
         d="m 4029.5262,994.21907 c -0.55,-16.72 -22.12,-32.82 -52.78,-32.82 -30.66,0 -55.51,13.56 -55.51,30.29 0,16.74003 20.37,40.28003 51.02,40.28003 30.66,0 57.98,-16.54 57.27,-37.75003"
         style="fill:#fae0b2;fill-opacity:1;fill-rule:nonzero;stroke:none;stroke-width:0.1"
         id="path136" />
      <path
         d="m 3966.8462,1097.9991 c 0,0 -0.59,-4.25 -1.5,-10.1 -1.68,-10.71 -2.53,-28.29 -4.68,-33.63 -1.9,-4.7 14.52,-49.17 19.92,-36.78 9.47,21.73 9.19,28.27 9.68,34.05 0.49,5.73 2.03,25.34 3.06,38.41 0.55,7.07 0.95,12.22 0.95,12.22 l -27.43,-4.17"
         style="fill:#f7a491;fill-opacity:1;fill-rule:nonzero;stroke:none;stroke-width:0.1"
         id="path138" />
      <path
         d="m 3993.3762,1090.1791 c 0.52,6.92 0.9,11.99 0.9,11.99 l -27.43,-4.17 c 0,0 -0.69,-4 -1.45,-9.64 11.12,-6.45 21.12,-4.42 27.98,1.82"
         style="fill:#f47458;fill-opacity:1;fill-rule:nonzero;stroke:none;stroke-width:0.1"
         id="path140" />
      <path
         d="m 3975.4562,1160.0791 c 0,0 -10.82,-2.44 -17.49,-12.63 -6.68,-10.18 -11.26,-40.18 10.73,-54.18 21.99,-14 39.09,5.81 39.37,25.12 0.28,19.32 -3.86,45.09 -32.61,41.69"
         style="fill:#f7a491;fill-opacity:1;fill-rule:nonzero;stroke:none;stroke-width:0.1"
         id="path142" />
      <path
         d="m 4013.0962,1124.4391 c -1.87,-4.66 -5.6,-7.56 -8.31,-6.46 -2.72,1.09 -3.4,5.75 -1.52,10.41 1.88,4.66 5.6,7.56 8.31,6.46 2.72,-1.09 3.4,-5.75 1.52,-10.41"
         style="fill:#f7a491;fill-opacity:1;fill-rule:nonzero;stroke:none;stroke-width:0.1"
         id="path144" />
      <path
         d="m 3978.6962,1160.7091 c 0,0 -13.78,-30.92 -25.89,-33.68 -12.11,-2.76 -11.94,-18.32 -11.94,-18.32 0,0 0.27,35.93 11.62,44.17 11.35,8.24 26.21,7.83 26.21,7.83"
         style="fill:#b75742;fill-opacity:1;fill-rule:nonzero;stroke:none;stroke-width:0.1"
         id="path146" />
      <path
         d="m 3957.6162,1120.6091 c 1.59,-5.02 0.13,-9.97 -3.26,-11.05 -3.39,-1.07 -7.44,2.12 -9.03,7.14 -1.6,5.02 -0.14,9.97 3.26,11.05 3.39,1.07 7.43,-2.12 9.03,-7.14"
         style="fill:#f7a491;fill-opacity:1;fill-rule:nonzero;stroke:none;stroke-width:0.1"
         id="path148" />
      <path
         d="m 4187.6062,1033.1591 -18.81,33.74 2.66,1.48 18.81,-33.74 -2.66,-1.48"
         style="fill:#ffd09f;fill-opacity:1;fill-rule:nonzero;stroke:none;stroke-width:0.1"
         id="path150" />
      <path
         d="m 4187.6062,1033.1591 -18.81,33.74 1.54,0.86 18.81,-33.74 -1.54,-0.86"
         style="fill:#ffb769;fill-opacity:1;fill-rule:nonzero;stroke:none;stroke-width:0.1"
         id="path152" />
      <path
         d="m 4174.4862,1026.8191 -18.4,33 2.66,1.48 18.39,-33 -2.65,-1.48"
         style="fill:#ffd09f;fill-opacity:1;fill-rule:nonzero;stroke:none;stroke-width:0.1"
         id="path154" />
      <path
         d="m 4174.4862,1026.8191 -18.4,33 1.98,1.1 18.39,-33 -1.97,-1.1"
         style="fill:#ffb769;fill-opacity:1;fill-rule:nonzero;stroke:none;stroke-width:0.1"
         id="path156" />
      <path
         d="m 4161.1962,1019.4191 -18.39,33 2.65,1.48 18.4,-33 -2.66,-1.48"
         style="fill:#ffd09f;fill-opacity:1;fill-rule:nonzero;stroke:none;stroke-width:0.1"
         id="path158" />
      <path
         d="m 4161.1962,1019.4191 -18.39,33 1.61,0.9 18.4,-33 -1.62,-0.9"
         style="fill:#ffb769;fill-opacity:1;fill-rule:nonzero;stroke:none;stroke-width:0.1"
         id="path160" />
      <path
         d="m 3932.1262,820.52907 c 12.02,10.9 19.51,33.55 23.99,42.69 0,0 5.87,11.94 23.48,12.22 17.61,0.27 37.2,10.76 46.15,30.92 8.95,20.17 -12.81,50.53 -12.81,50.53 l -0.95,1.69 c 0,0 -14.37,34.48 -36.23,37.48 -21.86,2.99 -41.08,-8.16 -50.58,-22.99 -9.5,-14.83 -22.73,-13.54 -22.73,-13.54 -10.13,0.99 -33.34,6.53 -48.93,2.04 -14.56,-4.19 -26.13,-14.93 -33.19,-28.49 -7.66,-14.71 -8.95,-34.85 2.08,-60.14 0.6,-1.35 6.42,-13.25 8.36,-16.47 1.72,-3.35 8.78,-14.56 9.62,-15.78 15.71,-22.68 33.51,-32.18 50.05,-33.4 15.25,-1.13 30.46,3.06 41.69,13.24"
         style="fill:#f47458;fill-opacity:1;fill-rule:nonzero;stroke:none;stroke-width:0.1"
         id="path162" />
      <path
         d="m 3971.7962,897.38907 c -14.34,-7.99 -32.92,-1.99 -41.5,13.41 -8.58,15.4 -3.92,34.36 10.42,42.35 14.34,8 32.93,1.99 41.51,-13.41 8.58,-15.39 3.91,-34.36 -10.43,-42.35"
         style="fill:#b75742;fill-opacity:1;fill-rule:nonzero;stroke:none;stroke-width:0.1"
         id="path164" />
      <path
         d="m 3966.3562,907.15907 c -9.32,-5.19 -21.39,-1.29 -26.96,8.71 -5.58,10 -2.55,22.32 6.77,27.51 9.31,5.2 21.39,1.3 26.96,-8.71 5.58,-10 2.54,-22.32 -6.77,-27.51"
         style="fill:#13375b;fill-opacity:1;fill-rule:nonzero;stroke:none;stroke-width:0.1"
         id="path166" />
      <path
         d="m 4191.1862,1048.1591 v 0 c -1.36,2.67 -4.49,3.82 -6.99,2.57 l -31.43,-15.82 c -2.5,-1.25 -3.42,-4.44 -2.05,-7.11 v 0 c 1.36,-2.67 4.49,-3.82 6.98,-2.56 l 31.44,15.81 c 2.49,1.25 3.41,4.44 2.05,7.11 z m -39.84,-10.7 29.98,18.42 c 2.38,1.46 3.05,4.73 1.49,7.29 v 0 c -1.56,2.57 -4.75,3.46 -7.13,2 l -29.98,-18.42 c -2.38,-1.46 -3.05,-4.73 -1.49,-7.29 v 0 c 1.55,-2.57 4.75,-3.46 7.13,-2 z m 39.7,40.87 c 11.52,-6.03 18.41,-18.27 17.58,-31.24 l -0.02,-0.27 -54.18,-26.95 c -2.3,0.75 -10.13,-1.1 -10.13,-1.1 l -10.93,19.61 c 0,0 5.69,5.69 6.27,8.04 l 51.41,31.91 v 0"
         style="fill:#ff7700;fill-opacity:1;fill-rule:nonzero;stroke:none;stroke-width:0.1"
         id="path168" />
      <path
         d="m 3973.1262,934.66907 c 2.89,-5.19 3.47,-11 2.05,-16.11 l 169.12,100.21003 -10.93,19.61 -175.27,-92.94003 c 6.02,-0.97 11.69,-4.77 15.03,-10.77"
         style="fill:#184655;fill-opacity:1;fill-rule:nonzero;stroke:none;stroke-width:0.1"
         id="path170" />
      <path
         d="m 3900.9362,845.95907 -40.93,73.44 10.93,6.09 40.94,-73.44 -10.94,-6.09"
         style="fill:#b75742;fill-opacity:1;fill-rule:nonzero;stroke:none;stroke-width:0.1"
         id="path172" />
      <path
         d="m 4139.2262,1050.9591 -0.06,0.11 c -0.45,0.81 -0.16,1.83 0.65,2.28 l 6.31,3.52 c 0.81,0.45 1.83,0.16 2.28,-0.65 l 0.06,-0.11 c 0.45,-0.81 0.16,-1.83 -0.65,-2.28 l -6.31,-3.52 c -0.81,-0.45 -1.83,-0.16 -2.28,0.65"
         style="fill:#184655;fill-opacity:1;fill-rule:nonzero;stroke:none;stroke-width:0.1"
         id="path174" />
      <path
         d="m 4152.5662,1058.3991 -0.06,0.1 c -0.45,0.81 -0.16,1.84 0.65,2.29 l 6.31,3.51 c 0.81,0.46 1.83,0.16 2.28,-0.65 l 0.06,-0.1 c 0.45,-0.81 0.16,-1.83 -0.65,-2.29 l -6.31,-3.51 c -0.8,-0.45 -1.83,-0.16 -2.28,0.65"
         style="fill:#184655;fill-opacity:1;fill-rule:nonzero;stroke:none;stroke-width:0.1"
         id="path176" />
      <path
         d="m 4164.9662,1066.0391 -0.06,0.1 c -0.45,0.81 -0.16,1.84 0.65,2.29 l 6.31,3.51 c 0.81,0.46 1.83,0.17 2.28,-0.64 l 0.06,-0.11 c 0.45,-0.81 0.16,-1.83 -0.65,-2.28 l -6.31,-3.52 c -0.81,-0.45 -1.83,-0.16 -2.28,0.65"
         style="fill:#184655;fill-opacity:1;fill-rule:nonzero;stroke:none;stroke-width:0.1"
         id="path178" />
      <path
         d="m 4184.3462,1031.2691 -0.06,0.11 c -0.46,0.81 -0.16,1.83 0.65,2.28 l 6.3,3.52 c 0.81,0.45 1.84,0.16 2.29,-0.65 l 0.06,-0.11 c 0.45,-0.81 0.16,-1.83 -0.65,-2.28 l -6.31,-3.52 c -0.81,-0.45 -1.83,-0.16 -2.28,0.65"
         style="fill:#184655;fill-opacity:1;fill-rule:nonzero;stroke:none;stroke-width:0.1"
         id="path180" />
      <path
         d="m 4171.4262,1024.5591 -0.06,0.11 c -0.45,0.81 -0.16,1.83 0.65,2.28 l 6.31,3.52 c 0.81,0.45 1.83,0.16 2.28,-0.65 l 0.06,-0.11 c 0.45,-0.81 0.16,-1.83 -0.65,-2.28 l -6.31,-3.52 c -0.81,-0.45 -1.83,-0.16 -2.28,0.65"
         style="fill:#184655;fill-opacity:1;fill-rule:nonzero;stroke:none;stroke-width:0.1"
         id="path182" />
      <path
         d="m 4158.4262,1017.3191 -0.06,0.1 c -0.45,0.81 -0.16,1.84 0.65,2.29 l 6.31,3.51 c 0.81,0.45 1.83,0.16 2.29,-0.65 l 0.06,-0.1 c 0.45,-0.81 0.16,-1.84 -0.65,-2.29 l -6.31,-3.51 c -0.81,-0.45 -1.84,-0.16 -2.29,0.65"
         style="fill:#184655;fill-opacity:1;fill-rule:nonzero;stroke:none;stroke-width:0.1"
         id="path184" />
      <path
         d="m 4144.2962,1018.7691 -10.93,19.61 -2.22,-1.18 10.98,-19.71 2.17,1.28"
         style="fill:#96d9c9;fill-opacity:1;fill-rule:nonzero;stroke:none;stroke-width:0.1"
         id="path186" />
      <path
         d="m 4129.2662,1009.8691 -11.33,20.32 -0.93,-0.49 11.35,-20.37 0.91,0.54"
         style="fill:#96d9c9;fill-opacity:1;fill-rule:nonzero;stroke:none;stroke-width:0.1"
         id="path188" />
      <path
         d="m 4115.4962,1001.7091 -11.7,20.99 -0.93,-0.5 11.72,-21.03 0.91,0.54"
         style="fill:#96d9c9;fill-opacity:1;fill-rule:nonzero;stroke:none;stroke-width:0.1"
         id="path190" />
      <path
         d="m 4103.7762,994.75907 -12.02,21.55003 -0.93,-0.49 12.03,-21.60003 0.92,0.54"
         style="fill:#96d9c9;fill-opacity:1;fill-rule:nonzero;stroke:none;stroke-width:0.1"
         id="path192" />
      <path
         d="m 4092.0462,987.80907 -12.32,22.12003 -0.94,-0.5 12.35,-22.16003 0.91,0.54"
         style="fill:#96d9c9;fill-opacity:1;fill-rule:nonzero;stroke:none;stroke-width:0.1"
         id="path194" />
      <path
         d="m 4081.2362,981.40907 -12.62,22.63003 -0.93,-0.49 12.64,-22.68003 0.91,0.54"
         style="fill:#96d9c9;fill-opacity:1;fill-rule:nonzero;stroke:none;stroke-width:0.1"
         id="path196" />
      <path
         d="m 4070.4262,974.99907 -12.91,23.15 -0.94,-0.49 12.93,-23.2 0.92,0.54"
         style="fill:#96d9c9;fill-opacity:1;fill-rule:nonzero;stroke:none;stroke-width:0.1"
         id="path198" />
      <path
         d="m 4061.2762,969.57907 -13.15,23.6 -0.93,-0.5 13.17,-23.64 0.91,0.54"
         style="fill:#96d9c9;fill-opacity:1;fill-rule:nonzero;stroke:none;stroke-width:0.1"
         id="path200" />
      <path
         d="m 4052.1362,964.15907 -13.4,24.04 -0.93,-0.5 13.42,-24.08 0.91,0.54"
         style="fill:#96d9c9;fill-opacity:1;fill-rule:nonzero;stroke:none;stroke-width:0.1"
         id="path202" />
      <path
         d="m 4043.2962,958.91907 -13.64,24.46 -0.93,-0.49 13.66,-24.51 0.91,0.54"
         style="fill:#96d9c9;fill-opacity:1;fill-rule:nonzero;stroke:none;stroke-width:0.1"
         id="path204" />
      <path
         d="m 4035.0262,954.01907 -13.86,24.86 -0.93,-0.5 13.88,-24.9 0.91,0.54"
         style="fill:#96d9c9;fill-opacity:1;fill-rule:nonzero;stroke:none;stroke-width:0.1"
         id="path206" />
      <path
         d="m 4027.2062,949.38907 -14.06,25.23 -0.94,-0.49 14.09,-25.28 0.91,0.54"
         style="fill:#96d9c9;fill-opacity:1;fill-rule:nonzero;stroke:none;stroke-width:0.1"
         id="path208" />
      <path
         d="m 4013.0962,941.02907 -14.44,25.91 -0.94,-0.49 14.47,-25.96 0.91,0.54"
         style="fill:#96d9c9;fill-opacity:1;fill-rule:nonzero;stroke:none;stroke-width:0.1"
         id="path210" />
      <path
         d="m 4006.1962,936.93907 -14.63,26.24 -0.94,-0.49 14.66,-26.29 0.91,0.54"
         style="fill:#96d9c9;fill-opacity:1;fill-rule:nonzero;stroke:none;stroke-width:0.1"
         id="path212" />
      <path
         d="m 4000.5762,933.60907 -14.78,26.52 -0.93,-0.5 14.8,-26.56 0.91,0.54"
         style="fill:#96d9c9;fill-opacity:1;fill-rule:nonzero;stroke:none;stroke-width:0.1"
         id="path214" />
      <path
         d="m 3994.6562,930.09907 -14.94,26.8 -0.94,-0.5 14.97,-26.84 0.91,0.54"
         style="fill:#96d9c9;fill-opacity:1;fill-rule:nonzero;stroke:none;stroke-width:0.1"
         id="path216" />
      <path
         d="m 4173.5462,1057.0191 -0.81,1.46 4.24,2.36 0.81,-1.46 -4.24,-2.36"
         style="fill:#ffffff;fill-opacity:1;fill-rule:nonzero;stroke:none;stroke-width:0.1"
         id="path218" />
      <path
         d="m 4181.3162,1043.0891 -0.56,1 3.78,2.1 0.55,-0.99 -3.77,-2.11"
         style="fill:#ffffff;fill-opacity:1;fill-rule:nonzero;stroke:none;stroke-width:0.1"
         id="path220" />
      <path
         d="m 4160.5762,1049.8591 -0.62,1.11 4.55,2.54 0.62,-1.11 -4.55,-2.54"
         style="fill:#ffffff;fill-opacity:1;fill-rule:nonzero;stroke:none;stroke-width:0.1"
         id="path222" />
      <path
         d="m 4168.3762,1035.8791 -0.85,1.52 4.08,2.28 0.85,-1.52 -4.08,-2.28"
         style="fill:#ffffff;fill-opacity:1;fill-rule:nonzero;stroke:none;stroke-width:0.1"
         id="path224" />
      <path
         d="m 4147.5462,1043.1691 -0.7,1.25 3.92,2.19 0.7,-1.26 -3.92,-2.18"
         style="fill:#ffffff;fill-opacity:1;fill-rule:nonzero;stroke:none;stroke-width:0.1"
         id="path226" />
      <path
         d="m 4156.1262,1027.4291 -0.42,0.74 3.62,2.02 0.42,-0.74 -3.62,-2.02"
         style="fill:#ffffff;fill-opacity:1;fill-rule:nonzero;stroke:none;stroke-width:0.1"
         id="path228" />
      <path
         d="m 4020.4562,945.38907 -14.24,25.56 -0.94,-0.5 14.27,-25.6 0.91,0.54"
         style="fill:#96d9c9;fill-opacity:1;fill-rule:nonzero;stroke:none;stroke-width:0.1"
         id="path230" />
      <path
         d="m 3947.2062,891.85907 c -0.17,-0.42 5.94,-1.74 11.47,-3.33 5.54,-1.59 14.64,-1.61 14.21,-2.94 -0.33,-1.04 -5.93,-1.65 -11.08,-1.25 1.29,-0.55 1.88,-1.08 1.2,-1.52 -2.81,-1.8 -18.93,-0.79 -33.72,5.51 -14.8,6.3 -100.95,53.59 -92.22,66.9 3.21,4.9 17.01,19.02 24.89,28.74 l 22.57,-17.57 -11.62,-12.68 c 17.8,-19.06 45.04,-39.73 46.44,-40.73 3.77,-2.7 11.03,-0.37 12.67,-0.33 8.97,0.24 20.52,0.34 22.44,-2.66 1.93,-3.01 -6.41,-1.99 -11.38,-3.52 -4.97,-1.53 11.53,-14.59 28.69,-13.51 17.15,1.09 -2.24,-6.57 -7.9,-5.05 -5.66,1.52 -16.37,4.61 -16.66,3.94"
         style="fill:#f7a491;fill-opacity:1;fill-rule:nonzero;stroke:none;stroke-width:0.1"
         id="path232" />
      <path
         d="m 4063.4962,967.89907 43.62,15.86 c 1.73,0.63 2.88,2.28 2.87,4.12 -0.02,3.54 0.01,6.55 0.36,7.53 3,8.53003 4,20.30003 7.42,21.47003 3.42,1.16 0.63,-6.8 1.12,-12.07 0.48,-5.26003 17.07,7.85 19.61,25.01 2.53,17.16 4.61,-6.78 1.89,-11.98 -2.72,-5.21 -6.58,-12.03 -5.97,-12.47 0.38,-0.28 2.9,5.98 5.66,11.05 2.76,5.07 3.48,14.44 4.72,13.7 1.01,-0.6 1.18,-7.32 -0.09,-12.67 0.98,1.47 1.78,2.18 2.11,1.3 1.42,-3.76 -2.06,-26.26003 -20.37,-41.71003 -18.51,-15.61 -65.57,-48.61 -75.64,-43.97 l 12.69,34.83"
         style="fill:#f7a491;fill-opacity:1;fill-rule:nonzero;stroke:none;stroke-width:0.1"
         id="path234" />
      <path
         d="m 4651.2662,1399.5291 c 0,0 -0.93,2.6 -0.18,8.24 0.92,6.98 3.57,17.37 3.96,18.27 0.71,1.63 -21.06,11.4 -21.06,11.4 0,0 -36.07,6.16 -40.99,10.85 -4.92,4.69 -9.26,6.9 -7.24,2.4 3.65,-8.13 12.96,-20.53 15.14,-22.33 2.19,-1.8 29.53,-12.23 30.04,-12.29 0.5,-0.06 -1.77,-17.76 -1.77,-17.76 l 22.1,1.22"
         style="fill:#f7a491;fill-opacity:1;fill-rule:nonzero;stroke:none;stroke-width:0.1"
         id="path236" />
      <path
         d="m 4628.6162,1409.8791 c 0,0 23.97,1.21 24.12,-1.19 3.32,-53.11 2.89,-70.48 3.88,-71.15 3.35,-2.26 59.82,36.55 68.61,38.49 4.21,0.92 8.58,0.16 12.78,-0.46 10.02,-1.49 6.66,-0.85 11.93,-1.74 l -0.01,-0.01 c 0.29,-0.05 0.45,-0.08 0.45,-0.08 l -1.18,-9.45 c -12.54,-8.85 -56.78,-160.11 -58.95,-159.75 -2.43,0.4 -55.2,-6.41 -53.79,-2.2 0.23,0.68 38.19,24.89 52.85,64.58 4.92,13.32 8.3,27.9 11.62,40.61 -12.06,-4.35 -59.13,-20.96 -65.84,-17.23 -20.85,11.59 -6.47,119.58 -6.47,119.58"
         style="fill:#355389;fill-opacity:1;fill-rule:nonzero;stroke:none;stroke-width:0.1"
         id="path238" />
      <path
         d="m 4507.8462,1146.3091 c 0,0 -52.11,-31.69 -54.49,-38.12 -3.42,-9.27 -45.59,8.45 -34.83,9.14 2.47,0.16 10.46,1.21 11.13,1.47 3.63,1.42 52.12,47.51 52.12,47.51 l 26.07,-20"
         style="fill:#f7a491;fill-opacity:1;fill-rule:nonzero;stroke:none;stroke-width:0.1"
         id="path240" />
      <path
         d="m 4398.0462,1119.7591 30.74,-1.13 c 0,0 7.84,-8.24 24.53,-10.56 0,0 1.76,-7.95 -0.57,-16.73 -0.4,-1.52 -1.21,-6.14 -2.75,-5.85 -5.58,1.05 -20.12,6.55 -36.79,11.99 0,0 -22.37,7.59 -34.68,17.09 -12.31,9.5 19.52,5.19 19.52,5.19"
         style="fill:#f7cc7f;fill-opacity:1;fill-rule:nonzero;stroke:none;stroke-width:0.1"
         id="path242" />
      <path
         d="m 4732.5962,1214.6391 c 0,0 -35.61,-1.72 -73.16,11.89 -43.44,15.76 -91.7,31.28 -107.17,24.59 -12.46,-5.39 -98.27,-106.71 -98.27,-106.71 l 25.66,-23.84 90.77,80.21 c 0,0 97.74,-49.85 121.2,-48.39 53.41,3.31 59.11,44.98 40.97,62.25"
         style="fill:#b75742;fill-opacity:1;fill-rule:nonzero;stroke:none;stroke-width:0.1"
         id="path244" />
      <path
         d="m 4697.0562,1241.3591 -39.86,-37.37 62.46,-27.44 12.94,38.09 -35.54,26.72"
         style="fill:#b75742;fill-opacity:1;fill-rule:nonzero;stroke:none;stroke-width:0.1"
         id="path246" />
      <path
         d="m 4603.5562,1060.1491 c 0,0 -4.72,-57.92 -4.56,-67.84003 0.15,-9.88 -29.1,-36.11 -24.6,-26.31 1.04,2.25 3.91,9.78 4,10.5 0.47,3.86 -1.3,70.78003 -1.3,70.78003 l 26.46,12.87"
         style="fill:#f7a491;fill-opacity:1;fill-rule:nonzero;stroke:none;stroke-width:0.1"
         id="path248" />
      <path
         d="m 4562.5262,949.13907 15.6,26.5 c 0,0 10.98,3 20.95,16.57 0,0 7.84,-2.22 14.45,-8.45 1.15,-1.07 8.93,-8.32 8.17,-9.68 -2.82,-5.04 -15.77,-15.01 -29.94,-25.89 0,0 -19.72,-12.38 -33.93,-18.7 -14.21,-6.32 4.7,19.65 4.7,19.65"
         style="fill:#f7cc7f;fill-opacity:1;fill-rule:nonzero;stroke:none;stroke-width:0.1"
         id="path250" />
      <path
         d="m 4560.4562,1180.5491 c 14.14,14.83 114.51,18.6 114.51,18.6 l 33.74,49.55 56.31,-44.67 c 0,0 -11.81,-47.63 -17.9,-60.01 -8.12,-16.49 -49.05,-12.52 -73.96,-9.3 -22.92,2.95 -65.38,3.25 -65.38,3.25 l -0.67,-126.74 c 0,0 -28.61,-3.03 -36.32,-1.08 -0.87,0.22 -27.92,151.95 -10.33,170.4"
         style="fill:#f47458;fill-opacity:1;fill-rule:nonzero;stroke:none;stroke-width:0.1"
         id="path252" />
      <path
         d="m 4750.0262,1373.6891 34.05,-5.94 c 0,0 0.76,-0.37 0.99,-0.44 2.73,-0.85 -11.66,-100.44 -18.58,-137.46 -6.92,-37.01 -13.83,-52.08 -13.83,-52.08 0,0 -45.51,13.77 -59.12,21 -5.64,3 -17.85,22.62 -17.85,22.62 0,0 16.98,17.94 28.15,49.04 8.61,23.98 20.81,66.86 25.91,75.51 11.7,19.86 20.28,27.75 20.28,27.75"
         style="fill:#96d9c9;fill-opacity:1;fill-rule:nonzero;stroke:none;stroke-width:0.1"
         id="path254" />
      <path
         d="m 4786.6862,1398.0891 -2.61,-30.38 c 0,0 -26.73,-35.6 -37.49,-28.92 -9.03,5.61 2.91,33.68 2.91,33.68 0,0 2.45,6.48 5.65,13.86 2.24,5.17 4.26,10.81 4.67,15.07 0.99,10.38 26.87,-3.31 26.87,-3.31"
         style="fill:#f7a491;fill-opacity:1;fill-rule:nonzero;stroke:none;stroke-width:0.1"
         id="path256" />
      <path
         d="m 4768.3762,1470.2691 c 0,0 -13.33,-15.71 -15.88,-29.95 -2.55,-14.25 -0.67,-24.4 -0.67,-24.4 l 41.43,39.07 -24.88,15.28"
         style="fill:#184655;fill-opacity:1;fill-rule:nonzero;stroke:none;stroke-width:0.1"
         id="path258" />
      <path
         d="m 4749.0862,1443.6991 c -1.1,-4.96 0.34,-9.51 3.22,-10.15 2.88,-0.65 6.12,2.85 7.23,7.82 1.1,4.96 -0.34,9.5 -3.22,10.15 -2.88,0.64 -6.12,-2.86 -7.23,-7.82"
         style="fill:#f48c7f;fill-opacity:1;fill-rule:nonzero;stroke:none;stroke-width:0.1"
         id="path260" />
      <path
         d="m 4804.1762,1446.6491 c 0.85,0.08 -4.19,-41.67 -17.45,-50.06 -13.27,-8.39 -34.44,-6.75 -39.42,3.88 -5.5,11.75 6.19,54.98 25.3,62.19 19.11,7.21 31.57,-16.01 31.57,-16.01"
         style="fill:#f7a491;fill-opacity:1;fill-rule:nonzero;stroke:none;stroke-width:0.1"
         id="path262" />
      <path
         d="m 4810.3162,1472.1791 c 8.28,-9.2 12.05,-15.65 16.59,-30.79 5.59,-18.62 -11.84,-35.16 -25.49,-40.94 -13.66,-5.77 -15.81,-14.59 -15.81,-14.59 l 0.16,5.63 c -0.04,4.39 1.56,6.7 3.1,9.17 1.36,2.2 5.81,9.76 7.42,11.7 4.26,5.12 5.11,6.24 3.96,11.72 -0.89,4.23 1.76,12.99 0.44,19.93 l -16.78,5.76 c 0,0 -10.46,3.87 -15.15,10.79 -13.49,19.87 19.78,36.3 41.56,11.62"
         style="fill:#184655;fill-opacity:1;fill-rule:nonzero;stroke:none;stroke-width:0.1"
         id="path264" />
      <path
         d="m 4795.6062,1419.9991 c -2.66,-4.33 -2.78,-9.1 -0.26,-10.64 2.51,-1.55 6.71,0.7 9.38,5.03 2.66,4.33 2.78,9.1 0.26,10.65 -2.51,1.55 -6.71,-0.71 -9.38,-5.04"
         style="fill:#f7a491;fill-opacity:1;fill-rule:nonzero;stroke:none;stroke-width:0.1"
         id="path266" />
      <path
         d="m 4926.5732,1521.2691 c -2.91,-7.81 -7.946,-20.09 -7.946,-20.09 -0.135,-3.53 -0.829,-18.19 -1.715,-36.14 l -24.936,13.58 c 0,0 3.76,28.99 2.8,30.9 -0.81,1.62 -2.69,-0.05 -9.36,12.38 -1.92,3.59 -1.65,9.57 -1.65,9.57 0,0 0.39,7.34 2.1,7.83 1.72,0.48 3.47,-0.83 3.91,-2.16 0.45,-1.33 -0.05,-4.25 0.39,-5.57 0.44,-1.33 4.05,-3.3 5.65,-3.41 1.61,-0.11 2.36,21.58 2.36,21.58 0,0 -0.16,6.2 -0.38,8.25 -0.18,1.75 -1.14,6.91 -1.14,6.91 0,0 -0.96,7.45 1.36,7.74 1.36,0.16 4.03,-6.11 5.61,-12.62 1.689,-7.01 2.254,-14.3 2.978,-14.29 1.698,0.03 2.211,11.91 2.211,11.91 0,0 -1.026,5.6 -0.682,8.14 -1.203,3.31 -1.56,9.22 1.267,9.37 0.522,0.03 3.3,-7.76 3.3,-7.76 0,0 0.82,-5.35 1.369,-7.87 0.969,-4.44 0.393,-11.2 0.81,-14.27 0.347,-2.54 1.045,-1.6 1.297,-1.73 0.195,-0.11 0.242,3.35 0.39,8.08 0.074,2.39 0.669,5.08 0.328,7.84 -0.316,2.57 -0.244,6.17 -0.147,8.34 0.274,6.15 4.036,5.07 4.701,-0.66 0.254,-2.18 0.511,-4.56 0.762,-6.97 0.976,-9.38 -0.126,-18.17 0.85,-18.36 1.267,-0.25 2.326,15.87 2.326,15.87 0,0 3.015,8.64 3.987,0.17 1.128,-9.81 -0.032,-17.57 -0.103,-17.91 -0.484,-2.31 0.213,-10.85 -2.697,-18.65"
         style="fill:#f8a492;fill-opacity:1;fill-rule:nonzero;stroke:none;stroke-width:0.1"
         id="path268" />
      <path
         d="m 4784.1162,1367.6891 c 0,0 34.13,-2.43 43.37,0.5 5.6,1.77 53.44,31.78 53.44,31.78 l 10.69,94.26 30.987,-1.3 c 0,0 3.567,-106.03 -3.302,-116.77 -7.092,-11.09 -76.765,-51.97 -92.035,-71.48 -8.81,-11.24 -35.38,-163.39 -37.88,-164.6 -17.56,-6.65 -77.99,-19.96 -76.17,-14.88 50.37,140.35 70.9,242.49 70.9,242.49"
         style="fill:#355389;fill-opacity:1;fill-rule:nonzero;stroke:none;stroke-width:0.1"
         id="path270" />
      <path
         d="m 4639.7862,1425.7991 c 0,0 -8.97,5.17 -11.4,6.31 -2.43,1.15 -10.35,3.63 -10.35,3.63 0,0 -11.04,14.4 -14.21,15.12 -3.17,0.72 5.67,-14.97 5.67,-14.97 l 3.89,-4.74 c 0,0 -6.37,6.92 -7.62,7.93 -1.25,1 -10.06,17.62 -12.88,16.93 -2.82,-0.69 3.16,-12.36 6.02,-18.52 2.86,-6.15 18.64,-11.62 18.64,-11.62 l 22.24,-0.07"
         style="fill:#f7a491;fill-opacity:1;fill-rule:nonzero;stroke:none;stroke-width:0.1"
         id="path272" />
      <path
         d="m 4609.6462,1455.1591 c 0.23,0.26 23.58,25.78 68.22,41.49 63.71,22.43 172.93,-2.15 205.35,68.17 5.78,12.54 6.05,22.36 6.06,22.77 0.03,1.5 -2.24,1.55 -2.27,0.05 v 0 c 0,-0.1 -0.28,-9.84 -5.9,-21.97 -31.83,-68.76 -139.93,-44.33 -204,-66.88 -32.05,-11.28 -58.39,-30.17 -69.15,-42.11 -1,-1.12 0.69,-2.64 1.69,-1.52"
         style="fill:#86b1f2;fill-opacity:1;fill-rule:nonzero;stroke:none;stroke-width:0.1"
         id="path274" />
      <path
         d="m 4610.5362,1467.2091 c 0.88,0.96 22.09,23.75 61.87,37.82 43.34,15.4 110,11.63 150.06,29.56 24.33,10.89 36.23,26.49 41.93,37.65 6.19,12.14 6.59,21.58 6.61,21.98 0.05,1.5 -2.22,1.58 -2.27,0.08 -0.01,-0.14 -0.43,-9.46 -6.42,-21.14 -5.54,-10.8 -17.1,-25.9 -40.78,-36.5 -39.65,-17.74 -106.18,-13.96 -149.89,-29.49 -40.31,-14.26 -61.89,-37.45 -62.79,-38.43 -0.42,-0.46 -0.39,-1.18 0.07,-1.6 0.46,-0.42 1.18,-0.39 1.61,0.07"
         style="fill:#86b1f2;fill-opacity:1;fill-rule:nonzero;stroke:none;stroke-width:0.1"
         id="path276" />
      <path
         d="m 4611.4262,1479.2691 c 9.45,10.3 29,24.68 55.53,34.14 41.87,15.02 98.78,14.62 134.55,29.62 25.48,10.69 38.04,25.79 44.09,36.57 6.6,11.75 7.12,20.87 7.14,21.25 0.07,1.49 -2.2,1.61 -2.27,0.11 v 0 c -0.01,-0.09 -0.53,-9.06 -6.91,-20.36 -5.89,-10.44 -18.11,-25.07 -42.93,-35.47 -18.06,-7.58 -41.46,-11.15 -66.23,-14.93 -23.4,-3.57 -47.59,-7.26 -68.2,-14.65 -26.92,-9.6 -46.81,-24.25 -56.44,-34.75 -1.02,-1.11 0.65,-2.64 1.67,-1.53"
         style="fill:#86b1f2;fill-opacity:1;fill-rule:nonzero;stroke:none;stroke-width:0.1"
         id="path278" />
      <path
         d="m 4612.3162,1491.3191 c 40.48,44.13 122.47,42.37 168.23,60.16 26.66,10.36 39.89,24.97 46.29,35.41 6.99,11.38 7.6,20.22 7.62,20.59 0.1,1.5 -2.17,1.63 -2.26,0.14 -0.01,-0.16 -0.66,-8.8 -7.37,-19.68 -6.23,-10.09 -19.11,-24.25 -45.1,-34.35 -45.61,-17.73 -127.95,-15.9 -169.08,-60.73 -0.42,-0.47 -0.39,-1.18 0.07,-1.61 0.46,-0.42 1.18,-0.39 1.6,0.07"
         style="fill:#86b1f2;fill-opacity:1;fill-rule:nonzero;stroke:none;stroke-width:0.1"
         id="path280" />
      <path
         d="m 4788.3162,1580.8291 v 0 c 3.75,3.92 8.5,15.32 11.34,22.14 3.82,9.16 3.36,7.28 4.81,8.02 3.05,0.6 0.48,-1.6 24.79,-51.3 10.07,13.17 38.94,9.94 38.85,-5.37 -0.04,-7.91 -8.39,-14.98 -19.65,-14.92 -7.82,0.04 -14.85,3.63 -17.91,9.13 l 0.02,0.01 c -0.8,1.45 -11.37,23.04 -20.08,40.53 -3.03,-11.57 -16.63,-19.99 -25.12,-14.39 l -2.57,1.69 2.6,1.64 c 0.91,0.57 2.78,2.67 2.92,2.82"
         style="fill:#466eb6;fill-opacity:1;fill-rule:nonzero;stroke:none;stroke-width:0.1"
         id="path282" />
      <path
         d="m 4631.3162,1533.3091 v 0 c 4.62,1.32 13.38,7.96 18.62,11.93 5.54,4.19 6.12,4.63 7.49,4.05 2.89,-0.97 -0.11,-2.31 -3.67,-51.06 13.83,5.28 34.39,-9.66 27.39,-21.51 -7.4,-12.54 -32.26,-3.02 -31.94,12.52 h 0.01 c 0.04,1.48 1.58,26.22 2.7,43.25 -7.68,-7.23 -21.72,-11.06 -25.77,-2.9 l -1.36,2.75 c 3.55,0.27 2.03,-0.34 6.53,0.97"
         style="fill:#466eb6;fill-opacity:1;fill-rule:nonzero;stroke:none;stroke-width:0.1"
         id="path284" />
      <path
         d="m 4706.6962,1532.9691 c 0.06,2.06 1.56,24.53 3.38,52.12 28.99,-3.08 27.99,-3.36 54.7,0.89 -0.9,-14.18 -1.86,-28.42 -2.68,-39.87 14.04,5.35 31.47,-11.09 24.56,-22.79 -7.46,-12.63 -30.87,0.62 -30.56,16.08 0,0 1.57,12.33 2.91,32 l -45.15,-0.41 c -0.41,-6.09 -0.91,-18.04 -1.77,-29.71 13.97,5.32 33.47,-9.08 26.53,-20.83 -3.82,-6.47 -13.75,-7.7 -22.14,-2.74 -6.07,3.58 -9.92,9.57 -9.8,15.26 h 0.02"
         style="fill:#466eb6;fill-opacity:1;fill-rule:nonzero;stroke:none;stroke-width:0.1"
         id="path286" />
      <path
         d="m 4121.8562,1663.8291 v 0 c 4.57,-1.45 15.55,-0.76 22.1,-0.34 6.94,0.43 7.66,0.48 8.48,-0.75 1.88,-2.41 1.7,-2.37 -28.19,-41.04 14.44,-3.25 20.26,-26.55 7.88,-32.57 -13.09,-6.36 -28.56,15.31 -19.71,28.09 l 0.02,-0.01 c 0.84,1.21 13.83,18.03 24.18,31.6 -10.41,-1.78 -22.26,5.74 -21.13,14.77 l 0.39,3.06 c 3.1,-1.74 1.5,-1.42 5.98,-2.81"
         style="fill:#50bfa5;fill-opacity:1;fill-rule:nonzero;stroke:none;stroke-width:0.1"
         id="path288" />
      <path
         d="m 4708.5862,1752.4491 c -0.22,2.05 -1.77,24.52 -3.7,52.09 29.15,0.88 28.2,0.46 54.08,8.28 1.03,-14.16 2,-28.41 2.73,-39.87 13.19,7.21 32.68,-6.73 27.42,-19.26 -5.68,-13.52 -31.57,-7.27 -33.34,8.09 l 0.01,0.01 c -0.15,1.41 -0.93,13.9 -2.26,33.57 l -40.7,-6.01 c 0.41,-6.08 0.93,-14.05 1.66,-25.73 13.12,7.16 32.7,-6.68 27.42,-19.26 -2.91,-6.92 -12.59,-9.49 -21.57,-5.71 -6.5,2.73 -11.12,8.15 -11.78,13.8 h 0.03"
         style="fill:#96d9c9;fill-opacity:1;fill-rule:nonzero;stroke:none;stroke-width:0.1"
         id="path290" />
      <path
         d="m 5232.1002,1590.7291 -15.026,-12.19 -17.736,8.64 -15.875,-14.86 -16.053,15.04 -18.695,-16.01 -16.488,12.02 -20.505,-12.46 4.717,-7.76 15.331,9.31 17.399,-12.68 17.97,15.39 16.321,-15.29 17.519,16.4 17.32,-8.44 13.927,11.29 10.215,-7.92 5.567,7.18 -15.908,12.34"
         style="fill:#9bc1f9;fill-opacity:1;fill-rule:nonzero;stroke:none;stroke-width:0.1"
         id="path292" />
      <path
         d="m 4074.2962,1269.6891 c -0.28,-1.46 -0.81,-2.84 -1.47,-4.17 -2.41,2.26 -5.99,4.07 -11.26,3.97 -0.61,1.92 -1.22,3.85 -1.84,5.77 4.28,0.2 10.66,-0.51 14.57,-5.57"
         style="fill:#355389;fill-opacity:1;fill-rule:nonzero;stroke:none;stroke-width:0.1"
         id="path294" />
      <path
         d="m 4062.7562,1243.4891 c -2.66,7.75 -5.39,15.98 -8.1,24.14 0.35,0.21 0.58,0.33 0.54,0.31 2.12,0.95 2.43,0.98 2.41,0.98 1.57,0.47 2.86,0.53 2.84,0.52 0.39,0.03 0.76,0.04 1.12,0.05 2.85,-8.91 5.6,-17.74 8.17,-25.8 -2.31,-0.46 -4.69,-0.51 -6.98,-0.2"
         style="fill:#355389;fill-opacity:1;fill-rule:nonzero;stroke:none;stroke-width:0.1"
         id="path296" />
      <path
         d="m 4082.2662,1209.6691 c -0.04,0.05 3.88,-6.65 9.24,-6 0,0 6.15,0.57 2.8,6.76 0.01,-0.02 -0.17,0.49 -0.17,0.51 -0.38,1.1 0.18,2.31 1.3,2.77 1.18,0.48 2.33,-0.15 3.04,-1.2 0.38,-0.57 0.91,-1.55 1.05,-3.27 0.85,-10.05 -11.23,-13.27 -18.25,-7.09 -4.39,3.81 -9.88,16.97 -15.75,33.44 2.18,0.12 4.37,0.41 6.52,0.88 4.31,-13.32 7.92,-23.55 10.22,-26.8"
         style="fill:#355389;fill-opacity:1;fill-rule:nonzero;stroke:none;stroke-width:0.1"
         id="path298" />
      <path
         d="m 4069.7362,1243.6891 c 0.79,-2.49 1.56,-4.9 2.31,-7.22 -2.15,-0.47 -4.34,-0.76 -6.52,-0.88 -0.91,2.56 -1.84,5.2 -2.77,7.9 2.29,-0.31 4.67,-0.26 6.98,0.2"
         style="fill:#355389;fill-opacity:1;fill-rule:nonzero;stroke:none;stroke-width:0.1"
         id="path300" />
      <path
         d="m 4059.7262,1275.2591 c -2.64,-0.12 -4.49,-0.58 -4.48,-0.58 -0.93,-0.25 -1.81,-0.55 -2.64,-0.89 -2.35,7.04 -4.68,13.92 -6.94,20.3 3.2,-0.97 6.14,-1.99 8.84,-3.03 1.75,-5.14 3.49,-10.46 5.22,-15.8"
         style="fill:#355389;fill-opacity:1;fill-rule:nonzero;stroke:none;stroke-width:0.1"
         id="path302" />
      <path
         d="m 4050.8062,1301.6591 c 1.23,-3.41 2.46,-6.96 3.7,-10.6 -2.7,1.04 -5.64,2.06 -8.84,3.03 -1.3,3.65 -2.57,7.13 -3.82,10.38 2.96,-1.02 5.95,-1.93 8.96,-2.81"
         style="fill:#355389;fill-opacity:1;fill-rule:nonzero;stroke:none;stroke-width:0.1"
         id="path304" />
      <path
         d="m 4084.7262,1260.6891 c 0.43,3.38 0.3,18.6 -30.22,30.37 -1.24,3.64 -2.47,7.19 -3.7,10.6 3.55,-1.04 7.11,-2.05 10.61,-3.2 8.45,-2.76 17.16,-6.17 23.67,-12.15 8.48,-7.79 10.65,-19.32 8.11,-30.02 -1.31,-5.57 -4.28,-10.9 -9.06,-14.49 -3.52,-2.64 -7.71,-4.36 -12.09,-5.33 -0.75,2.32 -1.52,4.73 -2.31,7.22 7.15,1.4 13.67,6.68 14.99,17"
         style="fill:#355389;fill-opacity:1;fill-rule:nonzero;stroke:none;stroke-width:0.1"
         id="path306" />
      <path
         d="m 4015.3762,1322.8391 c 0.94,7.96 9.17,20.53 19.28,12.06 4.58,-3.83 10.26,-16.89 16.15,-33.24 -3.01,0.88 -6,1.79 -8.96,2.81 -6.37,16.64 -12,27.23 -15.81,22.91 -2.26,-2.57 -3.26,-7.05 -1.39,-11.48 1.98,-4.73 7.17,-7.46 11.84,-9.41 1.76,-0.74 3.56,-1.4 5.36,-2.02 1.25,-3.25 2.52,-6.73 3.82,-10.38 -1.38,0.43 -2.8,0.84 -4.28,1.25 -9.28,2.55 -18.7,8.43 -22.36,13.72 0,-0.01 -4.57,6.02 -3.65,13.78"
         style="fill:#355389;fill-opacity:1;fill-rule:nonzero;stroke:none;stroke-width:0.1"
         id="path308" />
      <path
         d="m 4052.7862,1266.3191 c 0.31,0.27 -2.29,-1.75 -3.52,-4.38 0.54,1.06 -3.6,-4.87 1.56,-11.91 2.61,-3.58 7.08,-5.87 11.93,-6.54 0.93,-2.7 1.86,-5.34 2.77,-7.9 -0.35,-0.02 -0.7,-0.04 -1.05,-0.05 -25.69,-0.85 -31.22,30.42 -11.87,38.25 0.68,-2.04 1.37,-4.1 2.05,-6.16 -0.56,-0.33 -1.41,-0.87 -1.87,-1.31"
         style="fill:#355389;fill-opacity:1;fill-rule:nonzero;stroke:none;stroke-width:0.1"
         id="path310" />
      <path
         d="m 4059.7262,1275.2591 c 0.62,-1.92 1.23,-3.85 1.84,-5.77 -0.36,-0.01 -0.73,-0.02 -1.12,-0.05 0.02,0.01 -1.27,-0.05 -2.84,-0.52 0.02,0 -0.29,-0.03 -2.41,-0.98 0.04,0.02 -0.19,-0.1 -0.54,-0.31 -0.68,2.06 -1.37,4.12 -2.05,6.16 0.83,0.34 1.71,0.64 2.64,0.89 -0.01,0 1.84,0.46 4.48,0.58"
         style="fill:#355389;fill-opacity:1;fill-rule:nonzero;stroke:none;stroke-width:0.1"
         id="path312" />
      <path
         d="m 4064.7162,1262.9591 c 0.98,-4.45 4.35,-7.5 7.52,-6.8 3.17,0.7 4.95,4.88 3.96,9.33 -0.98,4.45 -4.34,7.49 -7.51,6.79 -3.17,-0.69 -4.95,-4.87 -3.97,-9.32"
         style="fill:#355389;fill-opacity:1;fill-rule:nonzero;stroke:none;stroke-width:0.1"
         id="path314" />
      <path
         d="m 4087.8162,1208.3091 c 0.98,-4.45 4.35,-7.49 7.52,-6.79 3.17,0.7 4.95,4.87 3.97,9.32 -0.99,4.46 -4.35,7.5 -7.52,6.8 -3.17,-0.7 -4.95,-4.87 -3.97,-9.33"
         style="fill:#355389;fill-opacity:1;fill-rule:nonzero;stroke:none;stroke-width:0.1"
         id="path316" />
      <path
         d="m 5317.3982,644.18907 v 114.36 c 0,115.52 -93.647,209.17 -209.168,209.17 h -114.358 c -115.516,0 -209.166,-93.65 -209.166,-209.17 v -114.36 c 0,-115.52 93.65,-209.17 209.166,-209.17 h 114.358 c 115.521,0 209.168,93.65 209.168,209.17"
         style="fill:#b75742;fill-opacity:1;fill-rule:nonzero;stroke:none;stroke-width:0.1"
         id="path318" />
      <path
         d="m 5188.9602,1057.6191 c -0.634,20.69 6.974,224.05 -44.434,384.87 -35.043,109.83 -74.041,157.29 -120.761,195.71 -2.125,1.67 -4.218,3.37 -6.363,5.01 -2.157,1.61 -4.294,3.25 -6.486,4.8 -0.672,0.48 2.433,-1.72 -6.57,4.65 -152.44,105.81 -461.3,110.62 -590.94,-49.15 -47.36,-57.48 -78.74,-150.16 -92.46,-224 -23.9,-128.34 -17.16,-268.74 -13.82,-406.93003 h 62.49 c 11.23,171.79003 -7.15,387.58003 72.17,545.82003 l 2.97,5.8 c 3.52,4.11 45.8,107.12 182.38,156.5 172.26,58.21 349.267,-26.26 408.582,-182.76 54.088,-138.75 48.894,-301.39 49.017,-440.32 h 104.225"
         style="fill:#f47458;fill-opacity:1;fill-rule:nonzero;stroke:none;stroke-width:0.1"
         id="path320" />
      <path
         d="m 5045.3502,888.64907 h 190.102 v 274.14003 h -190.102 V 888.64907"
         style="fill:#f47458;fill-opacity:1;fill-rule:nonzero;stroke:none;stroke-width:0.1"
         id="path322" />
      <path
         d="m 5045.3502,1005.3791 c 13.687,2.7 27.836,4.12 42.315,4.12 h 98.262 c 17.038,0 33.618,-1.96 49.525,-5.67 V 888.64907 h -190.102 v 116.73003"
         style="fill:#b75742;fill-opacity:1;fill-rule:nonzero;stroke:none;stroke-width:0.1"
         id="path324" />
      <path
         d="m 5056.0202,1632.3591 c -4.424,-8.28 -13.59,-12.08 -20.671,-8.49 -7.19,3.66 -9.499,13.55 -5.156,22.1 4.343,8.55 13.692,12.52 20.883,8.87 1.876,-0.96 3.41,-2.34 4.59,-4.01 l 11.419,24.55 -41.896,7.35 -19.526,-41.99 v 0 c -0.025,-0.05 -0.042,-0.1 -0.067,-0.15 -4.343,-8.55 -13.693,-12.52 -20.883,-8.87 -7.19,3.65 -9.499,13.55 -5.157,22.1 4.343,8.55 13.693,12.52 20.884,8.86 1.871,-0.95 3.403,-2.33 4.583,-3.99 l 20.912,44.97 c 0.676,1.46 2.132,2.31 3.467,2.04 l 52.179,-10.57 c 1.743,-0.36 2.541,-2.44 1.658,-4.34 l -27.178,-58.44 -0.041,0.01"
         style="fill:#50bfa5;fill-opacity:1;fill-rule:nonzero;stroke:none;stroke-width:0.1"
         id="path326" />
      <path
         d="m 5373.8192,635.72907 v 131.27 c 0,110.85 -89.861,200.72 -200.711,200.72 h -89.072 c -110.851,0 -200.71,-89.87 -200.71,-200.72 v -131.27 c 0,-110.85 89.859,-200.71 200.71,-200.71 h 89.072 c 110.85,0 200.711,89.86 200.711,200.71"
         style="fill:#f47458;fill-opacity:1;fill-rule:nonzero;stroke:none;stroke-width:0.1"
         id="path328" />
      <path
         d="m 5297.1482,694.91907 v 58.1 c 0,58.69 -47.578,106.27 -106.267,106.27 h -58.099 c -58.689,0 -106.266,-47.58 -106.266,-106.27 v -58.1 c 0,-58.68 47.577,-106.26 106.266,-106.26 h 58.099 c 58.689,0 106.267,47.58 106.267,106.26"
         style="fill:#b75742;fill-opacity:1;fill-rule:nonzero;stroke:none;stroke-width:0.1"
         id="path330" />
      <path
         d="m 5347.2512,694.91907 v 58.1 c 0,58.69 -47.578,106.27 -106.267,106.27 h -58.099 c -58.689,0 -106.266,-47.58 -106.266,-106.27 v -58.1 c 0,-58.68 47.577,-106.26 106.266,-106.26 h 58.099 c 58.689,0 106.267,47.58 106.267,106.26"
         style="fill:#f47458;fill-opacity:1;fill-rule:nonzero;stroke:none;stroke-width:0.1"
         id="path332" />
      <path
         d="m 3777.6462,1214.6791 c -3.1,-8.32 -8.47,-21.42 -8.47,-21.42 -0.15,-3.77 -0.89,-19.4 -1.83,-38.55 l -26.6,14.49 c 0,0 4,30.92 2.98,32.96 -0.86,1.73 -2.87,-0.06 -9.97,13.2 -2.05,3.83 -1.77,10.2 -1.77,10.2 0,0 0.42,7.84 2.25,8.36 1.83,0.51 3.7,-0.89 4.17,-2.3 0.47,-1.42 -0.06,-4.53 0.41,-5.95 0.47,-1.42 4.32,-3.52 6.03,-3.64 1.71,-0.11 2.52,23.03 2.52,23.03 0,0 -0.18,6.61 -0.41,8.8 -0.2,1.86 -1.22,7.37 -1.22,7.37 0,0 -1.02,7.94 1.45,8.25 1.45,0.18 4.3,-6.52 5.98,-13.46 1.81,-7.48 2.41,-15.25 3.18,-15.24 1.81,0.03 2.36,12.71 2.36,12.71 0,0 -1.09,5.96 -0.73,8.67 -1.28,3.53 -1.66,9.83 1.35,10 0.56,0.03 3.52,-8.28 3.52,-8.28 0,0 0.88,-5.7 1.47,-8.39 1.03,-4.74 0.41,-11.95 0.86,-15.22 0.37,-2.72 1.11,-1.71 1.38,-1.85 0.21,-0.11 0.26,3.57 0.42,8.62 0.08,2.54 0.71,5.41 0.35,8.36 -0.34,2.74 -0.26,6.58 -0.16,8.9 0.29,6.55 4.31,5.4 5.02,-0.71 0.27,-2.32 0.54,-4.86 0.81,-7.43 1.04,-10.01 -0.14,-19.39 0.9,-19.59 1.36,-0.26 2.49,16.93 2.49,16.93 0,0 3.21,9.21 4.25,0.19 1.2,-10.47 -0.03,-18.75 -0.11,-19.11 -0.52,-2.46 0.23,-11.57 -2.88,-19.9"
         style="fill:#f8a492;fill-opacity:1;fill-rule:nonzero;stroke:none;stroke-width:0.1"
         id="path334" />
      <path
         d="m 3608.6862,1119.7791 c 0,0 13.15,13.87 23.73,-3.01 0,0 8.16,4.58 13.88,-3.57 0,0 14.73,4.43 18.3,-17.59 0,0 7.58,1.43 8.58,-7.58 1,-9.01 -3.58,-15.01 -3.58,-15.01 0,0 4.26,-3.2 2.33,-11.48 -1.65,-7.04 -7.47,-8.11 -7.47,-8.11 0,0 -1.58,-11.87 -6.72,-15.45 -5.15,-3.57 -12.16,-1.86 -12.16,-1.86 0,0 -1.86,-6.43 -7.86,-5.86 -6.01,0.57 -13.45,6.29 -20.17,3.72 -6.72,-2.58 -24.16,0.14 -24.16,0.14 0,0 -19.59,8.72 -13.73,28.74 0,0 -10.3,9.3 -1.29,20.45 0,0 -6.58,17.45 6.44,27.74 13.01,10.3 23.88,8.73 23.88,8.73"
         style="fill:#07345a;fill-opacity:1;fill-rule:nonzero;stroke:none;stroke-width:0.1"
         id="path336" />
      <path
         d="m 3494.8262,1233.3091 -1.65,-26.67 5.92,-45.41 25.48,-0.25 c 0,0 -5.68,28.7 -1.77,35.51 3.07,5.37 6.86,13.66 7.15,16.66 0.97,10.24 -35.13,20.16 -35.13,20.16"
         style="fill:#f7a491;fill-opacity:1;fill-rule:nonzero;stroke:none;stroke-width:0.1"
         id="path338" />
      <path
         d="m 3527.7362,1218.5891 -10.86,-20.67 c -3.22,-6.07 -10.39,-5.87 -13.23,0.43 l -4.28,11.99 c 0,0 18.29,15.6 28.37,8.25"
         style="fill:#f47458;fill-opacity:1;fill-rule:nonzero;stroke:none;stroke-width:0.1"
         id="path340" />
      <path
         d="m 3605.6362,1258.1091 -54.41,-5.56 c -2.78,-0.28 -5.23,-1.88 -6.57,-4.29 l -26.19,-47.22 c -3.36,-6.06 -12.33,-5.7 -15.18,0.61 l -22.19,49.16 c -1.13,2.51 -3.44,4.3 -6.18,4.81 l -53.77,9.9 c -6.9,1.27 -9.33,9.77 -4.1,14.38 l 40.7,35.94 c 2.07,1.83 3.1,4.55 2.74,7.26 l -7.04,53.34 c -0.9,6.85 6.57,11.74 12.64,8.28 l 47.35,-26.95 c 2.41,-1.38 5.36,-1.49 7.87,-0.32 l 49.43,23.07 c 6.34,2.95 13.38,-2.52 11.91,-9.27 l -11.44,-52.6 c -0.58,-2.67 0.21,-5.46 2.13,-7.46 l 37.58,-39.08 c 4.82,-5.02 1.71,-13.29 -5.28,-14"
         style="fill:#f7cc7f;fill-opacity:1;fill-rule:nonzero;stroke:none;stroke-width:0.1"
         id="path342" />
      <path
         d="m 3699.2762,538.68907 c 0,0 14.33,-17.77 17.9,-19.95 3.57,-2.19 -1.59,-28 -11.32,-29.7 -5.48,-0.95 -8.24,6.65 -8.24,6.65 l 1.29,5.87 -20.48,21.09 20.85,16.04"
         style="fill:#f7a491;fill-opacity:1;fill-rule:nonzero;stroke:none;stroke-width:0.1"
         id="path344" />
      <path
         d="m 3625.4462,534.29907 c 0,0 11.94,-19.45 15.2,-22.07 3.27,-2.63 -5.15,-27.57 -15.01,-28.01 -5.56,-0.25 -7.33,7.65 -7.33,7.65 l 2.03,5.65 -17.62,23.54 22.73,13.24"
         style="fill:#f7a491;fill-opacity:1;fill-rule:nonzero;stroke:none;stroke-width:0.1"
         id="path346" />
      <path
         d="m 3639.9362,512.98907 c 0,0 -6.87,-8.75 -10.61,-12.23 -4.83,-4.5 -11.02,-8.89 -11.02,-8.89 0,0 -7.01,-12.72 -8.93,-17.16 -4.26,-9.88 -9.05,-20.9 -8.36,-26.43 0.22,-1.78 4.21,-3.66 7.54,-2.63 13.84,4.25 49.24,36.63 53.71,45.32 5.15,10.03 -22.33,22.02 -22.33,22.02"
         style="fill:#07345a;fill-opacity:1;fill-rule:nonzero;stroke:none;stroke-width:0.1"
         id="path348" />
      <path
         d="m 3538.8962,809.29907 c 1.28,3.6 2.52,6.93 3.71,10.06 14.72,-3.21 31.35,-6.75 48.46,-10.39 l 2.09,-62.71 c -0.01,4.84 -12.87,-100.02 -12.87,-100.02 0,0 30.25,-72.85 52.99,-115.75 -9.34,-11.65 -11.8,-13.3 -25.32,-21.24 -35.29,42.31 -80.39,116.89 -82.31,129.77 -1.11,7.4 -2.1,127.11 13.25,170.28"
         style="fill:#3c8f7c;fill-opacity:1;fill-rule:nonzero;stroke:none;stroke-width:0.1"
         id="path350" />
      <path
         d="m 3670.3162,791.16907 c -4.5,-48.86 -14.5,-142.28 -13.67,-149.79 2.52,-9.37 45.19,-95.81 53.2,-108.39 -6.36,-9.58 -15.73,-18.59 -26.31,-21.45 -2.09,-0.57 -74.18,102.59 -78.18,110.88 -4.53,9.38 -12.07,60.52 -12.2,123.84 l -2.09,62.71 c 28.51,-6.08 54.72,-12.04 79.25,-17.8"
         style="fill:#50bfa5;fill-opacity:1;fill-rule:nonzero;stroke:none;stroke-width:0.1"
         id="path352" />
      <path
         d="m 3576.7062,1013.8991 33.56,-4.6 c 0,0 26.89,-0.66 30.22,-0.66 3.33,0 24.4,-122.40003 30.5,-168.46003 6.1,-46.06 1.38,-54.22 1.38,-54.22 0,0 -42.54,-9.57 -74.02,-6.78 -32.72,2.9 -69.55,20.57 -69.55,20.57 0,0 26.37,86.49 31.91,114.13 5.55,27.64 16,100.02003 16,100.02003"
         style="fill:#f47458;fill-opacity:1;fill-rule:nonzero;stroke:none;stroke-width:0.1"
         id="path354" />
      <path
         d="m 3495.3462,1162.1791 c 0,0 -2.15,-91.26 1.29,-98.24 5.01,-10.16 61.35,-82.16003 61.35,-82.16003 0,0 -26.92,-112.63 -38.23,-151.52 -1.14,-3.92 -6.19,-29.22 -6.19,-31.69 0,-5.47 23.81,-12.41 26.64,-12 2.53,0.37 23.3,107.51 36.57,159.94 4.49,17.76 12.2,34.55 22.75,49.53 l 9.22,13.11003 -70.78,70.94 c 0,0 -8.73,78.97 -8.73,85.52 0,1.71 -30.45,3 -33.89,-3.43"
         style="fill:#466eb6;fill-opacity:1;fill-rule:nonzero;stroke:none;stroke-width:0.1"
         id="path356" />
      <path
         d="m 3639.2662,1008.7991 88.27,89.94 c 0,0 12.3,85.05 13.17,88.25 0.86,3.14 22.78,4.85 31.61,5.71 2.84,0.27 -1.48,-90.59 -5.7,-105.82 -5,-17.99 -71.71,-99.96003 -71.71,-99.96003 0,0 -11.96,-44.41 -9.08,-76.97 4.78,-54.1 17.68,-128.51 15.37,-130.84 -14.35,-9.04 -69.4,-10.01 -72.89,-4.39 -38.48,61.97 10.96,234.08003 10.96,234.08003"
         style="fill:#466eb6;fill-opacity:1;fill-rule:nonzero;stroke:none;stroke-width:0.1"
         id="path358" />
      <path
         d="m 3610.9062,1025.6091 -2.38,-17.67 c 0,0 -5.34,-25.46003 1.53,-30.36003 6.86,-4.91 29.18,31.08003 29.18,31.08003 l -2.35,44.77 -25.98,-27.82"
         style="fill:#f7a491;fill-opacity:1;fill-rule:nonzero;stroke:none;stroke-width:0.1"
         id="path360" />
      <path
         d="m 3637.6462,1038.9191 c -5.67,-15.27 -19.17,-24.65 -28.76,-28.29 l 2.02,14.98 25.98,27.82 0.76,-14.51"
         style="fill:#f47458;fill-opacity:1;fill-rule:nonzero;stroke:none;stroke-width:0.1"
         id="path362" />
      <path
         d="m 3673.4062,1083.8591 c 0,-6.82 -3.88,-12.35 -8.66,-12.35 -4.78,0 -8.66,5.53 -8.66,12.35 0,6.82 3.88,12.35 8.66,12.35 4.78,0 8.66,-5.53 8.66,-12.35"
         style="fill:#07345a;fill-opacity:1;fill-rule:nonzero;stroke:none;stroke-width:0.1"
         id="path364" />
      <path
         d="m 3647.4262,1110.3991 c 0,-3.92 -4.72,-7.1 -10.54,-7.1 -5.82,0 -10.53,3.18 -10.53,7.1 0,3.91 4.71,7.09 10.53,7.09 5.82,0 10.54,-3.18 10.54,-7.09"
         style="fill:#07345a;fill-opacity:1;fill-rule:nonzero;stroke:none;stroke-width:0.1"
         id="path366" />
      <path
         d="m 3621.0262,1100.4691 c -13.93,4.79 -28.78,-4.46 -30.9,-18.82 -0.93,-6.24 -1.76,-14.09 -1.92,-22.67 -0.37,-20.63 10.31,-40.72 19.68,-40.72 9.37,0 35.27,13.36 36.2,42.66 0.58,18.09 -8.45,34.52 -23.06,39.55"
         style="fill:#f7a491;fill-opacity:1;fill-rule:nonzero;stroke:none;stroke-width:0.1"
         id="path368" />
      <path
         d="m 3637.1862,1058.5991 c 0,-4.55 3.02,-8.24 6.74,-8.24 3.72,0 6.74,3.69 6.74,8.24 0,4.55 -3.02,8.24 -6.74,8.24 -3.72,0 -6.74,-3.69 -6.74,-8.24"
         style="fill:#f7a491;fill-opacity:1;fill-rule:nonzero;stroke:none;stroke-width:0.1"
         id="path370" />
      <path
         d="m 3580.4262,1110.7291 c -9.68,-7.66 -13.07,-19.31 -7.58,-26.02 5.5,-6.7 17.8,-5.92 27.48,1.75 9.68,7.66 13.07,19.31 7.57,26.02 -5.49,6.7 -17.79,5.92 -27.47,-1.75"
         style="fill:#07345a;fill-opacity:1;fill-rule:nonzero;stroke:none;stroke-width:0.1"
         id="path372" />
      <path
         d="m 3605.7362,1104.4491 c 0,-3.34 4.02,-6.04 8.98,-6.04 4.97,0 8.99,2.7 8.99,6.04 0,3.33 -4.02,6.03 -8.99,6.03 -4.96,0 -8.98,-2.7 -8.98,-6.03"
         style="fill:#07345a;fill-opacity:1;fill-rule:nonzero;stroke:none;stroke-width:0.1"
         id="path374" />
      <path
         d="m 3578.9962,1078.7991 c 0,-4.28 3.43,-7.75 7.67,-7.75 4.23,0 7.67,3.47 7.67,7.75 0,4.29 -3.44,7.76 -7.67,7.76 -4.24,0 -7.67,-3.47 -7.67,-7.76"
         style="fill:#07345a;fill-opacity:1;fill-rule:nonzero;stroke:none;stroke-width:0.1"
         id="path376" />
      <path
         d="m 3522.8962,1206.7991 -4.76,7.57 c 0,0 -8.26,7.29 -6.09,10.2 3.62,4.85 16.19,-6.91 16.19,-6.91 0,0 1.4,-10.54 -5.34,-10.86"
         style="fill:#f7a491;fill-opacity:1;fill-rule:nonzero;stroke:none;stroke-width:0.1"
         id="path378" />
      <path
         d="m 3493.1762,1206.6391 c 0,0 -2.22,18.06 -1.79,18.6 2.39,2.99 9.96,7.99 12.76,6.86 2.79,-1.13 -3.65,-10.72 -3.65,-10.72 0,0 4.03,-0.84 4.85,-4.4 0.82,-3.55 -12.17,-10.34 -12.17,-10.34"
         style="fill:#f7a491;fill-opacity:1;fill-rule:nonzero;stroke:none;stroke-width:0.1"
         id="path380" />
      <path
         d="m 3716.3662,519.40907 c 0,0 -5.68,-9.56 -8.95,-13.49 -4.22,-5.08 -9.8,-10.23 -9.8,-10.23 0,0 -5.32,-13.51 -6.66,-18.16 -2.97,-10.34 -6.32,-22.83 -4.93,-28.23 0.45,-1.73 4.26,-5.04 7.41,-3 12.14,7.91 44.57,44.93 47.89,54.12 3.83,10.6 -24.96,18.99 -24.96,18.99"
         style="fill:#07345a;fill-opacity:1;fill-rule:nonzero;stroke:none;stroke-width:0.1"
         id="path382" />
    </g>
  </g>
</svg>
