<svg width="209" height="90" viewBox="0 0 209 90" fill="none" xmlns="http://www.w3.org/2000/svg">
<path d="M88.936 30.456C89.32 31.0533 89.4907 31.6933 89.448 32.376C89.448 33.3573 89.2773 34.2107 88.936 34.936C88.8507 35.1493 88.7227 35.4267 88.552 35.768C88.424 36.1093 88.2747 36.472 88.104 36.856C87.976 37.24 87.8267 37.6027 87.656 37.944C87.4853 38.2853 87.3573 38.5413 87.272 38.712L87.144 39.032C86.5467 40.3547 85.9707 41.6347 85.416 42.872C84.8613 44.1093 84.2427 45.432 83.56 46.84C82.8773 48.2053 82.216 49.5493 81.576 50.872C80.9787 52.152 80.3813 53.4107 79.784 54.648C79.6133 54.9893 79.464 55.3307 79.336 55.672C79.208 55.9707 79.0373 56.2907 78.824 56.632L75.752 63.224C75.1973 64.3333 74.664 65.4213 74.152 66.488C73.6827 67.5547 73.1493 68.6213 72.552 69.688C72.424 69.9013 72.296 70.0933 72.168 70.264C72.0827 70.4773 71.9973 70.6907 71.912 70.904C71.6133 71.416 71.1653 71.9067 70.568 72.376C70.0133 72.888 69.416 73.1653 68.776 73.208C67.624 73.2933 66.6213 72.952 65.768 72.184C65.256 71.8853 64.8507 71.4587 64.552 70.904C64.3813 70.52 64.296 70.0293 64.296 69.432C64.3387 69.176 64.36 68.92 64.36 68.664C64.4027 68.4507 64.4453 68.2373 64.488 68.024C64.5733 67.8107 64.6373 67.5973 64.68 67.384C64.7227 67.1707 64.7867 67 64.872 66.872C65 66.5307 65.1067 66.36 65.192 66.36L69.864 56.248C69.6507 55.7787 69.4373 55.3093 69.224 54.84C69.0107 54.328 68.8187 53.88 68.648 53.496C68.0933 52.1733 67.496 50.7867 66.856 49.336C66.2587 47.8427 65.64 46.3707 65 44.92C64.36 43.4267 63.6987 41.976 63.016 40.568C62.3333 39.16 61.6507 37.816 60.968 36.536C60.712 36.1093 60.4773 35.6613 60.264 35.192C60.0507 34.68 59.88 34.1893 59.752 33.72C59.624 33.208 59.5813 32.696 59.624 32.184C59.6667 31.672 59.8587 31.16 60.2 30.648C60.5413 30.008 60.9893 29.56 61.544 29.304C62.0987 29.0053 62.6747 28.8773 63.272 28.92C63.912 28.92 64.5093 29.048 65.064 29.304C65.6187 29.56 66.0667 29.9013 66.408 30.328C67.1333 31.096 67.7093 31.9493 68.136 32.888C68.5627 33.8267 68.968 34.7867 69.352 35.768C70.1627 37.4747 70.9947 39.2667 71.848 41.144C72.7013 43.0213 73.5547 44.856 74.408 46.648L77.736 39.608C78.0773 38.9253 78.376 38.264 78.632 37.624C78.9307 36.984 79.2293 36.3653 79.528 35.768C79.8693 35.0427 80.1893 34.296 80.488 33.528C80.8293 32.76 81.2133 32.056 81.64 31.416C81.7253 31.2453 81.8107 31.096 81.896 30.968C81.9813 30.84 82.0667 30.6907 82.152 30.52C82.536 30.008 82.8773 29.6027 83.176 29.304C83.3893 29.1333 83.56 29.0053 83.688 28.92C83.8587 28.792 84.0507 28.7067 84.264 28.664C84.5627 28.5787 84.84 28.536 85.096 28.536C85.3947 28.4933 85.672 28.4933 85.928 28.536C86.3547 28.664 86.8667 28.856 87.464 29.112C88.104 29.368 88.5947 29.816 88.936 30.456Z" fill="#111827"/>
<path d="M102.83 35.36C104.37 34.6133 105.98 34.0767 107.66 33.75C109.34 33.4233 110.997 33.3533 112.63 33.54C114.31 33.7267 115.92 34.17 117.46 34.87C119.047 35.57 120.493 36.55 121.8 37.81C122.873 38.8833 123.807 40.19 124.6 41.73C125.393 43.2233 125.977 44.6933 126.35 46.14C127.143 48.7067 127.26 51.2967 126.7 53.91C126.14 56.5233 125.183 58.95 123.83 61.19C123.177 62.2167 122.36 63.15 121.38 63.99C120.447 64.7833 119.443 65.4367 118.37 65.95C116.97 66.6033 115.453 67.0467 113.82 67.28C112.187 67.56 110.6 67.63 109.06 67.49C106.26 67.35 103.787 66.65 101.64 65.39C99.54 64.13 97.8367 62.52 96.53 60.56C95.27 58.6 94.43 56.3833 94.01 53.91C93.6367 51.39 93.8 48.8233 94.5 46.21C95.2467 43.41 96.32 41.1467 97.72 39.42C99.1667 37.6467 100.87 36.2933 102.83 35.36ZM104.93 44.74C104.23 45.3933 103.693 46.21 103.32 47.19C102.947 48.17 102.713 49.1967 102.62 50.27C102.527 51.2967 102.597 52.3467 102.83 53.42C103.11 54.4467 103.53 55.38 104.09 56.22C104.557 56.92 105.397 57.5033 106.61 57.97C107.823 58.4367 109.083 58.7167 110.39 58.81C111.883 58.9033 113.19 58.5067 114.31 57.62C115.43 56.6867 116.27 55.5433 116.83 54.19C117.437 52.8367 117.717 51.3667 117.67 49.78C117.623 48.1933 117.203 46.7467 116.41 45.44C115.85 44.5067 115.057 43.83 114.03 43.41C113.05 42.9433 112 42.71 110.88 42.71C109.807 42.6633 108.733 42.8267 107.66 43.2C106.587 43.5267 105.677 44.04 104.93 44.74ZM170.568 50.69C170.661 52.1833 170.708 53.6067 170.708 54.96C170.708 56.2667 170.661 57.6667 170.568 59.16C170.568 59.72 170.568 60.35 170.568 61.05C170.568 61.75 170.521 62.4267 170.428 63.08C170.335 63.7333 170.171 64.34 169.938 64.9C169.705 65.46 169.355 65.9033 168.888 66.23C168.328 66.6033 167.698 66.86 166.998 67C166.298 67.0933 165.645 67.0467 165.038 66.86C164.431 66.6733 163.895 66.3233 163.428 65.81C163.008 65.2967 162.775 64.5733 162.728 63.64C162.588 61.4933 162.518 59.3467 162.518 57.2C162.518 56.1267 162.495 55.1 162.448 54.12C162.448 53.14 162.471 51.7633 162.518 49.99C162.518 49.1033 162.448 48.1 162.308 46.98C162.168 45.8133 161.818 44.9967 161.258 44.53C160.838 44.1567 160.371 43.9467 159.858 43.9C159.345 43.8067 158.831 43.8533 158.318 44.04C157.851 44.2267 157.431 44.5767 157.058 45.09C156.685 45.5567 156.428 46.1633 156.288 46.91C156.288 47.5167 156.265 48.1467 156.218 48.8C156.218 49.4067 156.241 49.99 156.288 50.55C156.335 52.0433 156.358 53.4667 156.358 54.82C156.358 56.1267 156.335 57.5267 156.288 59.02C156.241 59.6267 156.218 60.28 156.218 60.98C156.265 61.68 156.265 62.38 156.218 63.08C156.171 63.7333 156.031 64.34 155.798 64.9C155.611 65.46 155.261 65.9033 154.748 66.23C154.188 66.6033 153.581 66.8367 152.928 66.93C152.321 66.9767 151.738 66.8833 151.178 66.65C150.665 66.37 150.198 65.95 149.778 65.39C149.405 64.83 149.195 64.0833 149.148 63.15C149.055 62.0767 148.985 61.0967 148.938 60.21C148.938 59.2767 148.938 58.2967 148.938 57.27C148.938 56.1967 148.961 55.1 149.008 53.98C149.055 52.8133 149.031 51.6933 148.938 50.62C148.938 50.2933 148.915 49.92 148.868 49.5C148.868 49.0333 148.845 48.5667 148.798 48.1C148.798 47.6333 148.751 47.19 148.658 46.77C148.611 46.3033 148.518 45.93 148.378 45.65C148.005 44.9967 147.328 44.5767 146.348 44.39C145.415 44.2033 144.621 44.2733 143.968 44.6C143.315 44.9267 142.825 45.3467 142.498 45.86C142.171 46.3733 141.938 46.9333 141.798 47.54C141.658 48.1467 141.588 48.8 141.588 49.5C141.588 50.1533 141.588 50.7833 141.588 51.39C141.588 54.4233 141.588 57.06 141.588 59.3C141.635 61.4933 141.401 63.2667 140.888 64.62C140.655 65.32 140.165 65.8567 139.418 66.23C138.718 66.6033 137.948 66.79 137.108 66.79C136.315 66.79 135.568 66.6033 134.868 66.23C134.168 65.8567 133.701 65.2733 133.468 64.48C133.328 63.9667 133.188 63.2433 133.048 62.31C132.955 61.33 132.885 60.2567 132.838 59.09C132.791 57.9233 132.768 56.7567 132.768 55.59C132.768 54.3767 132.768 53.28 132.768 52.3V42.22C132.721 41.1467 132.698 39.98 132.698 38.72C132.698 37.46 132.885 36.3167 133.258 35.29C133.585 34.4033 134.098 33.8433 134.798 33.61C135.498 33.33 136.221 33.2133 136.968 33.26C137.808 33.26 138.461 33.4933 138.928 33.96C139.441 34.38 139.815 34.9167 140.048 35.57C140.281 36.1767 140.421 36.8767 140.468 37.67C140.515 38.4167 140.561 39.14 140.608 39.84C141.121 38.6733 141.728 37.7167 142.428 36.97C143.175 36.1767 144.225 35.6633 145.578 35.43C149.031 34.7767 151.785 35.6633 153.838 38.09C154.771 37.1567 155.961 36.3867 157.408 35.78C158.528 35.36 159.671 35.1733 160.838 35.22C162.005 35.22 163.101 35.43 164.128 35.85C165.201 36.27 166.158 36.8767 166.998 37.67C167.885 38.4633 168.585 39.42 169.098 40.54C169.798 42.0333 170.195 43.69 170.288 45.51C170.381 47.33 170.475 49.0567 170.568 50.69ZM200.53 57.41C201.09 57.27 201.65 57.1767 202.21 57.13C202.816 57.0833 203.353 57.1533 203.82 57.34C204.333 57.5267 204.753 57.8533 205.08 58.32C205.406 58.74 205.57 59.3467 205.57 60.14C205.57 60.7 205.43 61.2367 205.15 61.75C204.87 62.2633 204.52 62.73 204.1 63.15C203.68 63.57 203.213 63.9433 202.7 64.27C202.186 64.55 201.696 64.7833 201.23 64.97C199.876 65.5767 198.313 66.0433 196.54 66.37C194.813 66.6967 193.016 66.8133 191.15 66.72C188.63 66.6267 186.203 66.1367 183.87 65.25C181.583 64.3167 179.786 62.8 178.48 60.7C177.266 58.6467 176.543 56.36 176.31 53.84C176.076 51.32 176.193 48.94 176.66 46.7C177.173 43.9933 178.036 41.8 179.25 40.12C180.51 38.3933 182.003 37.0167 183.73 35.99C185.83 34.7767 188.186 34.1467 190.8 34.1C193.413 34.0533 195.91 34.5667 198.29 35.64C199.876 36.34 201.3 37.2967 202.56 38.51C203.82 39.6767 204.776 41.1 205.43 42.78C205.616 43.2 205.756 43.7133 205.85 44.32C205.99 44.9267 206.083 45.58 206.13 46.28C206.176 46.9333 206.176 47.5867 206.13 48.24C206.083 48.8933 205.966 49.4767 205.78 49.99C205.5 50.83 205.15 51.4833 204.73 51.95C204.31 52.4167 203.773 52.7667 203.12 53C202.466 53.2333 201.673 53.3967 200.74 53.49C199.853 53.5367 198.78 53.5833 197.52 53.63C196.4 53.6767 195.35 53.7 194.37 53.7C193.39 53.7 192.386 53.7 191.36 53.7C190.333 53.6533 189.26 53.63 188.14 53.63C187.066 53.5833 185.853 53.5367 184.5 53.49C184.36 54.4233 184.476 55.24 184.85 55.94C185.27 56.5933 185.83 57.1533 186.53 57.62C187.23 58.04 188.023 58.3667 188.91 58.6C189.796 58.8333 190.66 58.9733 191.5 59.02C193.086 59.1133 194.603 58.9967 196.05 58.67C197.496 58.2967 198.99 57.8767 200.53 57.41ZM197.52 43.83C196.633 42.8033 195.7 42.0567 194.72 41.59C193.973 41.2633 193.18 41.1233 192.34 41.17C191.546 41.17 190.776 41.2867 190.03 41.52C188.676 41.8467 187.533 42.5467 186.6 43.62C186.506 43.7133 186.343 43.9467 186.11 44.32C185.876 44.6467 185.643 44.9967 185.41 45.37C185.223 45.7433 185.083 46.0933 184.99 46.42C184.896 46.7467 184.943 46.91 185.13 46.91H198.85C198.803 46.2567 198.686 45.72 198.5 45.3C198.313 44.8333 197.986 44.3433 197.52 43.83Z" fill="#111827"/>
<circle cx="24" cy="51" r="24" fill="url(#paint0_linear_1_26)"/>
<path d="M21.3192 39.1415C21.5015 39.6571 21.4715 40.2241 21.2358 40.7176C21.0001 41.2111 20.5781 41.5908 20.0625 41.7732C18.2802 42.4034 16.7054 43.5113 15.5101 44.976C14.3149 46.4407 13.5453 48.2057 13.2854 50.0782C13.0255 51.9507 13.2853 53.8586 14.0365 55.5934C14.7876 57.3282 16.0011 58.8232 17.5444 59.9149C19.0878 61.0067 20.9015 61.6532 22.7874 61.7838C24.6733 61.9144 26.5589 61.5242 28.238 60.6556C29.9171 59.7871 31.3251 58.4737 32.3083 56.859C33.2914 55.2443 33.8118 53.3904 33.8125 51.5C33.8125 49.85 33.4275 48.2962 32.7414 46.9185C32.6208 46.6759 32.5491 46.4119 32.5305 46.1416C32.5119 45.8714 32.5467 45.6001 32.633 45.3432C32.8071 44.8245 33.1802 44.3963 33.6702 44.1527C34.1601 43.9091 34.7268 43.8701 35.2455 44.0443C35.7641 44.2185 36.1924 44.5916 36.436 45.0815C37.4265 47.076 37.9405 49.2731 37.9375 51.5C37.9375 59.4736 31.4736 65.9375 23.5 65.9375C15.5264 65.9375 9.0625 59.4736 9.0625 51.5C9.0625 45.2107 13.083 39.8661 18.6875 37.8847C19.2032 37.7025 19.7701 37.7325 20.2636 37.9682C20.7571 38.2038 21.1369 38.6259 21.3192 39.1415ZM24.1875 39.1442C24.1873 38.8305 24.2581 38.5208 24.3948 38.2384C24.5314 37.956 24.7302 37.7083 24.9764 37.5138C25.2225 37.3192 25.5095 37.183 25.8158 37.1153C26.1221 37.0477 26.4398 37.0503 26.745 37.123L26.921 37.1739L31.0268 38.5434C31.5295 38.7109 31.9484 39.0655 32.1967 39.5336C32.445 40.0017 32.5037 40.5474 32.3604 41.0576C32.2172 41.5678 31.8831 42.0032 31.4274 42.2737C30.9717 42.5442 30.4294 42.6289 29.913 42.5102L29.7232 42.4566L28.3125 41.9864V51.5L28.3056 51.764C28.2529 52.7228 27.9147 53.6438 27.3343 54.4088C26.7539 55.1737 25.958 55.7476 25.0488 56.0565C24.1397 56.3655 23.1589 56.3954 22.2326 56.1424C21.3063 55.8895 20.4769 55.3652 19.8509 54.6371C19.225 53.909 18.8312 53.0102 18.7202 52.0565C18.6091 51.1027 18.7859 50.1375 19.2279 49.2851C19.6698 48.4326 20.3566 47.7318 21.2 47.2728C22.0434 46.8139 23.0048 46.6177 23.9606 46.7095L24.1875 46.737V39.1442Z" fill="white"/>
<defs>
<linearGradient id="paint0_linear_1_26" x1="13" y1="32.5" x2="35" y2="69.5" gradientUnits="userSpaceOnUse">
<stop stop-color="#0EA5E9"/>
<stop offset="1" stop-color="#9333EA"/>
</linearGradient>
</defs>
</svg>
