<?xml version="1.0" encoding="UTF-8" standalone="no"?>
<svg
   width="152"
   height="90"
   viewBox="0 0 152 90"
   fill="none"
   version="1.1"
   id="svg253"
   sodipodi:docname="Yome_letter-UNION.svg"
   inkscape:version="1.2.2 (b0a8486541, 2022-12-01)"
   xmlns:inkscape="http://www.inkscape.org/namespaces/inkscape"
   xmlns:sodipodi="http://sodipodi.sourceforge.net/DTD/sodipodi-0.dtd"
   xmlns="http://www.w3.org/2000/svg"
   xmlns:svg="http://www.w3.org/2000/svg">
  <defs
     id="defs257" />
  <sodipodi:namedview
     id="namedview255"
     pagecolor="#ffffff"
     bordercolor="#000000"
     borderopacity="0.25"
     inkscape:showpageshadow="2"
     inkscape:pageopacity="0.0"
     inkscape:pagecheckerboard="0"
     inkscape:deskcolor="#d1d1d1"
     showgrid="false"
     inkscape:zoom="5.2565789"
     inkscape:cx="75.048811"
     inkscape:cy="76.951189"
     inkscape:window-width="1366"
     inkscape:window-height="768"
     inkscape:window-x="0"
     inkscape:window-y="37"
     inkscape:window-maximized="1"
     inkscape:current-layer="svg253" />
  <path
     id="path249"
     d="M 28.527344 28.503906 C 28.388681 28.503906 28.245053 28.513806 28.095703 28.535156 C 27.839703 28.535156 27.562372 28.578763 27.263672 28.664062 C 27.050372 28.706762 26.8582 28.791922 26.6875 28.919922 C 26.5595 29.005222 26.389081 29.133988 26.175781 29.304688 C 25.877082 29.603387 25.536343 30.007532 25.152344 30.519531 C 25.067044 30.690231 24.981784 30.84075 24.896484 30.96875 C 24.811184 31.09675 24.725925 31.245316 24.640625 31.416016 C 24.213925 32.056015 23.829581 32.759345 23.488281 33.527344 C 23.189582 34.295343 22.868643 35.042279 22.527344 35.767578 C 22.228644 36.364878 21.931512 36.983048 21.632812 37.623047 C 21.376813 38.263046 21.077628 38.924723 20.736328 39.607422 L 17.408203 46.648438 C 16.554904 44.856439 15.700955 43.021829 14.847656 41.144531 C 13.994357 39.267233 13.162262 37.474276 12.351562 35.767578 C 11.967563 34.786279 11.563418 33.827371 11.136719 32.888672 C 10.710019 31.949973 10.133502 31.096124 9.4082031 30.328125 C 9.0668735 29.901425 8.6191226 29.560687 8.0644531 29.304688 C 7.5097837 29.048688 6.9114837 28.919922 6.2714844 28.919922 C 5.674155 28.877222 5.0995913 29.005988 4.5449219 29.304688 C 3.9902524 29.560687 3.5405484 30.008438 3.1992188 30.648438 C 2.8578891 31.160437 2.6657168 31.671594 2.6230469 32.183594 C 2.5803769 32.695593 2.6239533 33.208704 2.7519531 33.720703 C 2.879953 34.190003 3.0503421 34.679407 3.2636719 35.191406 C 3.4770017 35.660706 3.7127503 36.108457 3.96875 36.535156 C 4.6514193 37.815155 5.3329557 39.160361 6.015625 40.568359 C 6.6982943 41.976358 7.3600006 43.426623 8 44.919922 C 8.6399994 46.37062 9.2581393 47.842639 9.8554688 49.335938 C 10.495468 50.786636 11.093738 52.173395 11.648438 53.496094 C 11.819137 53.880093 12.01131 54.327844 12.224609 54.839844 C 12.437909 55.309143 12.649981 55.778747 12.863281 56.248047 L 8.1914062 66.359375 C 8.1060763 66.359375 7.9990936 66.529794 7.8710938 66.871094 C 7.7857638 66.999094 7.7223575 67.171466 7.6796875 67.384766 C 7.6370175 67.598065 7.5736112 67.810138 7.4882812 68.023438 C 7.4456113 68.236737 7.402045 68.450763 7.359375 68.664062 C 7.359375 68.920062 7.339545 69.175641 7.296875 69.431641 C 7.296875 70.02894 7.3820645 70.520297 7.5527344 70.904297 C 7.8514041 71.458996 8.2555786 71.884894 8.7675781 72.183594 C 9.6209073 72.951593 10.623392 73.292331 11.775391 73.207031 C 12.41539 73.164331 13.01366 72.888953 13.568359 72.376953 C 14.165659 71.907654 14.61341 71.416296 14.912109 70.904297 C 14.997409 70.690997 15.082669 70.476972 15.167969 70.263672 C 15.295969 70.092972 15.424735 69.9008 15.552734 69.6875 C 16.150034 68.620801 16.683044 67.55498 17.152344 66.488281 C 17.664343 65.421582 18.197254 64.333908 18.751953 63.224609 L 21.824219 56.632812 C 22.037519 56.291513 22.207938 55.970575 22.335938 55.671875 C 22.463937 55.330575 22.612503 54.989737 22.783203 54.648438 C 23.380503 53.411139 23.978872 52.151092 24.576172 50.871094 C 25.216171 49.548395 25.877848 48.205142 26.560547 46.839844 C 27.243246 45.431845 27.861316 44.108393 28.416016 42.871094 C 28.970715 41.633795 29.547232 40.353949 30.144531 39.03125 L 30.271484 38.712891 C 30.356784 38.542191 30.48555 38.284659 30.65625 37.943359 C 30.82695 37.60206 30.975516 37.239468 31.103516 36.855469 C 31.274215 36.471469 31.424735 36.108878 31.552734 35.767578 C 31.723434 35.426278 31.850247 35.148847 31.935547 34.935547 C 32.276847 34.210248 32.447266 33.358252 32.447266 32.376953 C 32.489966 31.694254 32.319546 31.052378 31.935547 30.455078 C 31.594247 29.815079 31.104843 29.367328 30.464844 29.111328 C 29.867544 28.855328 29.354434 28.663156 28.927734 28.535156 C 28.799735 28.513806 28.666006 28.503906 28.527344 28.503906 z M 79.412109 33.255859 C 78.860869 33.282105 78.323828 33.399375 77.798828 33.609375 C 77.098829 33.842675 76.584512 34.402363 76.257812 35.289062 C 75.884513 36.315761 75.697266 37.460704 75.697266 38.720703 C 75.697266 39.980702 75.720978 41.147404 75.767578 42.220703 L 75.767578 52.300781 L 75.767578 55.589844 C 75.767578 56.756543 75.791291 57.923145 75.837891 59.089844 C 75.884591 60.256543 75.955528 61.330548 76.048828 62.310547 C 76.188828 63.243846 76.32875 63.967169 76.46875 64.480469 C 76.70215 65.273768 77.167188 65.857169 77.867188 66.230469 C 78.567187 66.603768 79.314123 66.789062 80.107422 66.789062 C 80.947421 66.789062 81.717969 66.603768 82.417969 66.230469 C 83.164668 65.857169 83.655372 65.31914 83.888672 64.619141 C 84.402071 63.265842 84.634591 61.494079 84.587891 59.300781 L 84.587891 51.390625 L 84.587891 49.5 C 84.587891 48.800001 84.658828 48.145762 84.798828 47.539062 C 84.938828 46.932363 85.171447 46.372674 85.498047 45.859375 C 85.824747 45.346076 86.315451 44.926309 86.96875 44.599609 C 87.622149 44.27291 88.414357 44.203925 89.347656 44.390625 C 90.327655 44.577325 91.005607 44.997091 91.378906 45.650391 C 91.518906 45.93039 91.611603 46.302832 91.658203 46.769531 C 91.751603 47.189531 91.798828 47.63291 91.798828 48.099609 C 91.845528 48.566309 91.867188 49.0333 91.867188 49.5 C 91.913887 49.92 91.9375 50.292441 91.9375 50.619141 C 92.0309 51.69244 92.054512 52.81377 92.007812 53.980469 C 91.961213 55.100468 91.9375 56.196232 91.9375 57.269531 L 91.9375 60.210938 C 91.9842 61.097637 92.055138 62.077092 92.148438 63.150391 C 92.195137 64.08369 92.404044 64.830626 92.777344 65.390625 C 93.197343 65.950624 93.664435 66.370391 94.177734 66.650391 C 94.737734 66.88369 95.321135 66.976387 95.927734 66.929688 C 96.581134 66.836388 97.188047 66.603768 97.748047 66.230469 C 98.261446 65.903769 98.612228 65.46039 98.798828 64.900391 C 99.032228 64.340391 99.17215 63.733377 99.21875 63.080078 C 99.26545 62.380079 99.26545 61.680468 99.21875 60.980469 C 99.21875 60.280469 99.242463 59.626231 99.289062 59.019531 C 99.335762 57.526233 99.357422 56.127011 99.357422 54.820312 C 99.357422 53.467014 99.335762 52.04408 99.289062 50.550781 C 99.242463 49.990782 99.21875 49.407481 99.21875 48.800781 C 99.26545 48.147482 99.289062 47.516856 99.289062 46.910156 C 99.429062 46.163457 99.685394 45.556543 100.05859 45.089844 C 100.43159 44.576544 100.85136 44.225762 101.31836 44.039062 C 101.83136 43.852363 102.34442 43.807091 102.85742 43.900391 C 103.37042 43.947091 103.83781 44.155997 104.25781 44.529297 C 104.81781 44.995996 105.16859 45.81377 105.30859 46.980469 C 105.44859 48.100468 105.51758 49.103535 105.51758 49.990234 C 105.47058 51.763533 105.44727 53.139142 105.44727 54.119141 C 105.49427 55.09914 105.51758 56.12592 105.51758 57.199219 C 105.51758 59.345917 105.58852 61.493927 105.72852 63.640625 C 105.77552 64.573924 106.00773 65.297247 106.42773 65.810547 C 106.89473 66.323846 107.43011 66.672675 108.03711 66.859375 C 108.64411 67.046075 109.29805 67.0933 109.99805 67 C 110.69805 66.86 111.32867 66.603768 111.88867 66.230469 C 112.35567 65.903769 112.7045 65.46039 112.9375 64.900391 C 113.1705 64.340391 113.33473 63.733377 113.42773 63.080078 C 113.52073 62.426779 113.56836 61.750781 113.56836 61.050781 L 113.56836 59.160156 C 113.66136 57.666858 113.70703 56.267636 113.70703 54.960938 C 113.70703 53.607639 113.66136 52.182752 113.56836 50.689453 C 113.47536 49.056155 113.38011 47.329764 113.28711 45.509766 C 113.19411 43.689767 112.79766 42.032361 112.09766 40.539062 C 111.58466 39.419064 110.88505 38.463221 109.99805 37.669922 C 109.15805 36.876623 108.20191 36.269609 107.12891 35.849609 C 106.10191 35.42961 105.00489 35.220703 103.83789 35.220703 C 102.67089 35.174003 101.5282 35.359297 100.4082 35.779297 C 98.961705 36.385996 97.77129 37.156545 96.837891 38.089844 C 94.784593 35.663146 92.031522 34.776388 88.578125 35.429688 C 87.224826 35.662987 86.174434 36.177404 85.427734 36.970703 C 84.727735 37.717402 84.120821 38.673145 83.607422 39.839844 C 83.560822 39.139844 83.51545 38.416621 83.46875 37.669922 C 83.42215 36.876623 83.282228 36.177012 83.048828 35.570312 C 82.815528 34.917013 82.441134 34.380937 81.927734 33.960938 C 81.461135 33.494238 80.808749 33.259766 79.96875 33.259766 C 79.7821 33.248091 79.595856 33.247111 79.412109 33.255859 z M 54.400391 33.447266 C 53.166647 33.403503 51.920155 33.504975 50.660156 33.75 C 48.980158 34.0767 47.370077 34.612676 45.830078 35.359375 C 43.87008 36.292674 42.167402 37.646624 40.720703 39.419922 C 39.320705 41.14662 38.246699 43.41094 37.5 46.210938 C 36.800001 48.824235 36.636466 51.390159 37.009766 53.910156 C 37.429765 56.383454 38.269298 58.600549 39.529297 60.560547 C 40.835996 62.520545 42.540627 64.130626 44.640625 65.390625 C 46.787323 66.650624 49.26055 67.350235 52.060547 67.490234 C 53.600545 67.630234 55.187014 67.559297 56.820312 67.279297 C 58.453611 67.045997 59.969142 66.602518 61.369141 65.949219 C 62.44244 65.435919 63.44756 64.783534 64.380859 63.990234 C 65.360858 63.150235 66.176779 62.216152 66.830078 61.189453 C 68.183377 58.949455 69.139219 56.523454 69.699219 53.910156 C 70.259218 51.296859 70.142909 48.707322 69.349609 46.140625 C 68.97631 44.693926 68.392909 43.223767 67.599609 41.730469 C 66.80631 40.19047 65.87408 38.883846 64.800781 37.810547 C 63.494083 36.550548 62.047636 35.56914 60.460938 34.869141 C 58.920939 34.169141 57.310858 33.725762 55.630859 33.539062 C 55.222535 33.492388 54.811639 33.461853 54.400391 33.447266 z M 133.80078 34.099609 C 131.18678 34.146309 128.83047 34.776936 126.73047 35.990234 C 125.00347 37.016933 123.51 38.392442 122.25 40.119141 C 121.036 41.799139 120.17316 43.992521 119.66016 46.699219 C 119.19316 48.939217 119.07655 51.319846 119.31055 53.839844 C 119.54355 56.359841 120.26647 58.645921 121.48047 60.699219 C 122.78647 62.799217 124.58214 64.316701 126.86914 65.25 C 129.20214 66.136699 131.63039 66.627403 134.15039 66.720703 C 136.01639 66.814003 137.81206 66.69584 139.53906 66.369141 C 141.31206 66.042441 142.87647 65.577403 144.23047 64.970703 C 144.69647 64.784003 145.18522 64.549531 145.69922 64.269531 C 146.21222 63.942832 146.67961 63.57039 147.09961 63.150391 C 147.51961 62.730391 147.87039 62.263299 148.15039 61.75 C 148.43039 61.236701 148.57031 60.700624 148.57031 60.140625 C 148.57031 59.347326 148.40608 58.740312 148.08008 58.320312 C 147.75308 57.853613 147.33331 57.526544 146.82031 57.339844 C 146.35331 57.153144 145.81694 57.084159 145.21094 57.130859 C 144.65094 57.177559 144.0893 57.270156 143.5293 57.410156 C 141.9893 57.876856 140.49678 58.296622 139.05078 58.669922 C 137.60378 58.996622 136.086 59.112831 134.5 59.019531 C 133.66 58.972831 132.79616 58.832909 131.91016 58.599609 C 131.02316 58.36631 130.2293 58.03914 129.5293 57.619141 C 128.8293 57.152441 128.26961 56.592752 127.84961 55.939453 C 127.47561 55.239454 127.36 54.423533 127.5 53.490234 C 128.853 53.536934 130.06663 53.584159 131.14062 53.630859 C 132.26062 53.630859 133.33238 53.652519 134.35938 53.699219 L 137.36914 53.699219 C 138.34914 53.699219 139.39953 53.677559 140.51953 53.630859 C 141.77953 53.584159 142.85324 53.536934 143.74023 53.490234 C 144.67323 53.396934 145.46514 53.2333 146.11914 53 C 146.77214 52.7667 147.31047 52.415918 147.73047 51.949219 C 148.15047 51.482519 148.4993 50.830234 148.7793 49.990234 C 148.9653 49.476935 149.08386 48.893534 149.13086 48.240234 C 149.17686 47.586935 149.17686 46.932596 149.13086 46.279297 C 149.08386 45.579298 148.98961 44.927012 148.84961 44.320312 C 148.75561 43.713613 148.61569 43.199296 148.42969 42.779297 C 147.77569 41.099299 146.82055 39.676464 145.56055 38.509766 C 144.30055 37.296467 142.87506 36.340624 141.28906 35.640625 C 138.90906 34.567326 136.41378 34.052909 133.80078 34.099609 z M 135.33984 41.169922 C 136.17984 41.123222 136.9737 41.263144 137.7207 41.589844 C 138.7007 42.056543 139.63253 42.803379 140.51953 43.830078 C 140.98553 44.343378 141.313 44.834082 141.5 45.300781 C 141.686 45.720781 141.80261 46.256857 141.84961 46.910156 L 128.13086 46.910156 C 127.94386 46.910156 127.89623 46.746622 127.99023 46.419922 C 128.08323 46.093222 128.22316 45.74244 128.41016 45.369141 C 128.64316 44.995841 128.87538 44.647012 129.10938 44.320312 C 129.34237 43.947013 129.50561 43.712441 129.59961 43.619141 C 130.53261 42.545842 131.6753 41.846231 133.0293 41.519531 C 133.7753 41.286231 134.54584 41.169922 135.33984 41.169922 z M 53.880859 42.710938 C 55.000858 42.710938 56.049298 42.943457 57.029297 43.410156 C 58.055996 43.830156 58.850157 44.506154 59.410156 45.439453 C 60.203455 46.746152 60.623222 48.192598 60.669922 49.779297 C 60.716622 51.365995 60.436778 52.836154 59.830078 54.189453 C 59.270079 55.542752 58.430546 56.685842 57.310547 57.619141 C 56.190548 58.50584 54.883924 58.903847 53.390625 58.810547 C 52.083926 58.717247 50.822674 58.437403 49.609375 57.970703 C 48.396076 57.504004 47.556543 56.920702 47.089844 56.220703 C 46.529844 55.380704 46.110078 54.446621 45.830078 53.419922 C 45.596778 52.346623 45.525841 51.29623 45.619141 50.269531 C 45.712441 49.196232 45.947013 48.169452 46.320312 47.189453 C 46.693612 46.209454 47.229688 45.393534 47.929688 44.740234 C 48.676387 44.040235 49.586857 43.525918 50.660156 43.199219 C 51.733455 42.825919 52.80756 42.664238 53.880859 42.710938 z "
     style="fill:#ffffff;fill-opacity:1" />
</svg>
