<svg width="145" height="45" viewBox="0 0 145 45" fill="none" xmlns="http://www.w3.org/2000/svg">
<path fill-rule="evenodd" clip-rule="evenodd" d="M29.84 3.872C29.8827 3.18933 29.712 2.54933 29.328 1.952C28.9867 1.312 28.496 0.864 27.856 0.608001C27.2587 0.352 26.7467 0.16 26.32 0.0320005C26.064 -0.0106668 25.7867 -0.0106668 25.488 0.0320005C25.232 0.0320005 24.9547 0.0746667 24.656 0.159999C24.4427 0.202666 24.2507 0.288 24.08 0.415999C23.952 0.501333 23.7813 0.629333 23.568 0.8C23.2693 1.09867 22.928 1.504 22.544 2.016C22.4587 2.18667 22.3733 2.336 22.288 2.464C22.2027 2.592 22.1173 2.74133 22.032 2.912C21.6053 3.552 21.2213 4.256 20.88 5.024C20.5813 5.792 20.2613 6.53867 19.92 7.264C19.6213 7.86133 19.3227 8.48 19.024 9.12C18.768 9.76 18.4693 10.4213 18.128 11.104L14.8 18.144C13.9467 16.352 13.0933 14.5173 12.24 12.64C11.3867 10.7627 10.5547 8.97067 9.744 7.264C9.36 6.28267 8.95467 5.32267 8.528 4.384C8.10133 3.44533 7.52533 2.592 6.8 1.824C6.45867 1.39733 6.01067 1.056 5.456 0.8C4.90133 0.544 4.304 0.415999 3.664 0.415999C3.06667 0.373333 2.49067 0.501334 1.936 0.8C1.38133 1.056 0.933333 1.504 0.592 2.144C0.250667 2.656 0.0586667 3.168 0.016 3.68C-0.0266666 4.192 0.016 4.704 0.144 5.216C0.272 5.68533 0.442667 6.176 0.656 6.688C0.869333 7.15733 1.104 7.60533 1.36 8.032C2.04267 9.312 2.72533 10.656 3.408 12.064C4.09067 13.472 4.752 14.9227 5.392 16.416C6.032 17.8667 6.65067 19.3387 7.248 20.832C7.888 22.2827 8.48533 23.6693 9.04 24.992C9.21067 25.376 9.40267 25.824 9.616 26.336L10.256 27.744L5.584 37.856C5.49867 37.856 5.392 38.0267 5.264 38.368C5.17867 38.496 5.11467 38.6667 5.072 38.88C5.02933 39.0933 4.96533 39.3067 4.88 39.52L4.752 40.16C4.752 40.416 4.73067 40.672 4.688 40.928C4.688 41.5253 4.77333 42.016 4.944 42.4C5.24267 42.9547 5.648 43.3813 6.16 43.68C7.01333 44.448 8.016 44.7893 9.168 44.704C9.808 44.6613 10.4053 44.384 10.96 43.872C11.5573 43.4027 12.0053 42.912 12.304 42.4L12.56 41.76C12.688 41.5893 12.816 41.3973 12.944 41.184C13.5413 40.1173 14.0747 39.0507 14.544 37.984C15.056 36.9173 15.5893 35.8293 16.144 34.72L19.216 28.128C19.4293 27.7867 19.6 27.4667 19.728 27.168C19.856 26.8267 20.0053 26.4853 20.176 26.144C20.7733 24.9067 21.3707 23.648 21.968 22.368C22.608 21.0453 23.2693 19.7013 23.952 18.336C24.6347 16.928 25.2533 15.6053 25.808 14.368C26.3627 13.1307 26.9387 11.8507 27.536 10.528L27.664 10.208L28.048 9.44C28.2187 9.09867 28.368 8.736 28.496 8.352C28.6667 7.968 28.816 7.60533 28.944 7.264C29.1147 6.92267 29.2427 6.64533 29.328 6.432C29.6693 5.70667 29.84 4.85333 29.84 3.872ZM108.96 22.186C109.053 23.6793 109.1 25.1027 109.1 26.456C109.1 27.7627 109.053 29.1627 108.96 30.656V32.546C108.96 33.246 108.913 33.9227 108.82 34.576C108.727 35.2293 108.563 35.836 108.33 36.396C108.097 36.956 107.747 37.3993 107.28 37.726C106.72 38.0993 106.09 38.356 105.39 38.496C104.69 38.5893 104.037 38.5427 103.43 38.356C102.823 38.1693 102.287 37.8193 101.82 37.306C101.4 36.7927 101.167 36.0693 101.12 35.136C100.98 32.9893 100.91 30.8427 100.91 28.696C100.91 27.6227 100.887 26.596 100.84 25.616C100.84 24.636 100.863 23.2593 100.91 21.486C100.91 20.5993 100.84 19.596 100.7 18.476C100.56 17.3093 100.21 16.4927 99.6501 16.026C99.2301 15.6527 98.7635 15.4427 98.2501 15.396C97.7368 15.3027 97.2235 15.3493 96.7101 15.536C96.2435 15.7227 95.8235 16.0727 95.4501 16.586C95.0768 17.0527 94.8201 17.6593 94.6801 18.406C94.6801 19.0127 94.6568 19.6427 94.6101 20.296C94.6101 20.9027 94.6335 21.486 94.6801 22.046C94.7268 23.5393 94.7501 24.9627 94.7501 26.316C94.7501 27.6227 94.7268 29.0227 94.6801 30.516C94.6335 31.1227 94.6101 31.776 94.6101 32.476C94.6568 33.176 94.6568 33.876 94.6101 34.576C94.5635 35.2293 94.4235 35.836 94.1901 36.396C94.0035 36.956 93.6535 37.3993 93.1401 37.726C92.5801 38.0993 91.9735 38.3327 91.3201 38.426C90.7135 38.4727 90.1301 38.3793 89.5701 38.146C89.0568 37.866 88.5901 37.446 88.1701 36.886C87.7968 36.326 87.5868 35.5793 87.5401 34.646C87.4468 33.5727 87.3768 32.5927 87.3301 31.706V28.766C87.3301 27.6927 87.3535 26.596 87.4001 25.476C87.4468 24.3093 87.4235 23.1893 87.3301 22.116C87.3301 21.7893 87.3068 21.416 87.2601 20.996C87.2601 20.5293 87.2368 20.0627 87.1901 19.596C87.1901 19.1293 87.1435 18.686 87.0501 18.266C87.0035 17.7993 86.9101 17.426 86.7701 17.146C86.3968 16.4927 85.7201 16.0727 84.7401 15.886C83.8068 15.6993 83.0135 15.7693 82.3601 16.096C81.7068 16.4227 81.2168 16.8427 80.8901 17.356C80.5635 17.8693 80.3301 18.4293 80.1901 19.036C80.0501 19.6427 79.9801 20.296 79.9801 20.996V22.886V30.796C80.0268 32.9893 79.7935 34.7627 79.2801 36.116C79.0468 36.816 78.5568 37.3527 77.8101 37.726C77.1101 38.0993 76.3401 38.286 75.5001 38.286C74.7068 38.286 73.9601 38.0993 73.2601 37.726C72.5601 37.3527 72.0935 36.7693 71.8601 35.976C71.7201 35.4627 71.5801 34.7393 71.4401 33.806C71.3468 32.826 71.2768 31.7527 71.2301 30.586C71.1835 29.4193 71.1601 28.2527 71.1601 27.086V23.796V13.716C71.1135 12.6427 71.0901 11.476 71.0901 10.216C71.0901 8.95599 71.2768 7.81266 71.6501 6.786C71.9768 5.89933 72.4901 5.33933 73.1901 5.10599C73.8901 4.82599 74.6135 4.70933 75.3601 4.75599C76.2001 4.75599 76.8535 4.98933 77.3201 5.45599C77.8335 5.87599 78.2068 6.41266 78.4401 7.06599C78.6735 7.67266 78.8135 8.37266 78.8601 9.16599C78.9068 9.91266 78.9535 10.636 79.0001 11.336C79.5135 10.1693 80.1201 9.21266 80.8201 8.46599C81.5668 7.67266 82.6168 7.15933 83.9701 6.92599C87.4235 6.27266 90.1768 7.15933 92.2301 9.58599C93.1635 8.65266 94.3535 7.88266 95.8001 7.276C96.9201 6.856 98.0635 6.66933 99.2301 6.71599C100.397 6.71599 101.493 6.92599 102.52 7.34599C103.593 7.76599 104.55 8.37266 105.39 9.16599C106.277 9.95933 106.977 10.916 107.49 12.036C108.19 13.5293 108.587 15.186 108.68 17.006C108.773 18.826 108.867 20.5527 108.96 22.186ZM41.222 6.85599C42.762 6.10933 44.372 5.57266 46.052 5.24599C47.732 4.91933 49.3887 4.84933 51.022 5.036C52.702 5.22266 54.312 5.66599 55.852 6.36599C57.4387 7.06599 58.8853 8.04599 60.192 9.30599C61.2653 10.3793 62.1987 11.686 62.992 13.226C63.7853 14.7193 64.3687 16.1893 64.742 17.636C65.5353 20.2027 65.652 22.7927 65.092 25.406C64.532 28.0193 63.5753 30.446 62.222 32.686C61.5687 33.7127 60.752 34.646 59.772 35.486C58.8387 36.2793 57.8353 36.9327 56.762 37.446C55.362 38.0993 53.8453 38.5427 52.212 38.776C50.5787 39.056 48.992 39.126 47.452 38.986C44.652 38.846 42.1787 38.146 40.032 36.886C37.932 35.626 36.2287 34.016 34.922 32.056C33.662 30.096 32.822 27.8793 32.402 25.406C32.0287 22.886 32.192 20.3193 32.892 17.706C33.6387 14.906 34.712 12.6427 36.112 10.916C37.5587 9.14266 39.262 7.78933 41.222 6.85599ZM43.322 16.236C42.622 16.8893 42.0853 17.706 41.712 18.686C41.3387 19.666 41.1053 20.6927 41.012 21.766C40.9187 22.7927 40.9887 23.8427 41.222 24.916C41.502 25.9427 41.922 26.876 42.482 27.716C42.9487 28.416 43.7887 28.9993 45.002 29.466C46.2153 29.9327 47.4753 30.2127 48.782 30.306C50.2753 30.3993 51.582 30.0027 52.702 29.116C53.822 28.1827 54.662 27.0393 55.222 25.686C55.8287 24.3327 56.1087 22.8627 56.062 21.276C56.0153 19.6893 55.5953 18.2427 54.802 16.936C54.242 16.0027 53.4487 15.326 52.422 14.906C51.442 14.4393 50.392 14.206 49.272 14.206C48.1987 14.1593 47.1253 14.3227 46.052 14.696C44.9787 15.0227 44.0687 15.536 43.322 16.236ZM140.602 28.626C140.042 28.6727 139.482 28.766 138.922 28.906C137.382 29.3727 135.888 29.7927 134.442 30.166C132.995 30.4927 131.478 30.6093 129.892 30.516C129.052 30.4693 128.188 30.3293 127.302 30.096C126.415 29.8627 125.622 29.536 124.922 29.116C124.222 28.6493 123.662 28.0893 123.242 27.436C122.868 26.736 122.752 25.9193 122.892 24.986C124.245 25.0327 125.458 25.0793 126.532 25.126C127.652 25.126 128.725 25.1493 129.752 25.196H132.762C133.742 25.196 134.792 25.1727 135.912 25.126C137.172 25.0793 138.245 25.0327 139.132 24.986C140.065 24.8927 140.858 24.7293 141.512 24.496C142.165 24.2627 142.702 23.9127 143.122 23.446C143.542 22.9793 143.892 22.326 144.172 21.486C144.358 20.9727 144.475 20.3893 144.522 19.736C144.568 19.0827 144.568 18.4293 144.522 17.776C144.475 17.076 144.382 16.4227 144.242 15.816C144.148 15.2093 144.008 14.696 143.822 14.276C143.168 12.596 142.212 11.1727 140.952 10.006C139.692 8.79266 138.268 7.83599 136.682 7.13599C134.302 6.06266 131.805 5.54933 129.192 5.59599C126.578 5.64266 124.222 6.27266 122.122 7.48599C120.395 8.51266 118.902 9.88933 117.642 11.616C116.428 13.296 115.565 15.4893 115.052 18.196C114.585 20.436 114.468 22.816 114.702 25.336C114.935 27.856 115.658 30.1427 116.872 32.196C118.178 34.296 119.975 35.8127 122.262 36.746C124.595 37.6327 127.022 38.1227 129.542 38.216C131.408 38.3093 133.205 38.1927 134.932 37.866C136.705 37.5393 138.268 37.0727 139.622 36.466C140.088 36.2793 140.578 36.046 141.092 35.766C141.605 35.4393 142.072 35.066 142.492 34.646C142.912 34.226 143.262 33.7593 143.542 33.246C143.822 32.7327 143.962 32.196 143.962 31.636C143.962 30.8427 143.798 30.236 143.472 29.816C143.145 29.3493 142.725 29.0227 142.212 28.836C141.745 28.6493 141.208 28.5793 140.602 28.626ZM133.112 13.086C134.092 13.5527 135.025 14.2993 135.912 15.326C136.378 15.8393 136.705 16.3293 136.892 16.796C137.078 17.216 137.195 17.7527 137.242 18.406H123.522C123.335 18.406 123.288 18.2427 123.382 17.916C123.475 17.5893 123.615 17.2393 123.802 16.866C124.035 16.4927 124.268 16.1427 124.502 15.816C124.735 15.4427 124.898 15.2093 124.992 15.116C125.925 14.0427 127.068 13.3427 128.422 13.016C129.168 12.7827 129.938 12.666 130.732 12.666C131.572 12.6193 132.365 12.7593 133.112 13.086Z" fill="url(#paint0_linear_4_8)"/>
<defs>
<linearGradient id="paint0_linear_4_8" x1="68.5" y1="7" x2="69.5" y2="38.5" gradientUnits="userSpaceOnUse">
<stop stop-color="#0EA5E9"/>
<stop offset="1" stop-color="#9333EA"/>
</linearGradient>
</defs>
</svg>
