<svg xmlns="http://www.w3.org/2000/svg" width="1261.522" height="300" id="apple-music"><g data-name="apple music"><path fill="#000000" d="M199.013 159.013q-.6-36.611 31.6-57.007-18.156-26.4-53.557-29.7-12.594-1.183-32.188 6-21.069 7.811-23.707 7.8-5.561 0-21.377-6.6Q84 72.9 72.864 72.9a66.7 66.7 0 0 0-34.826 10.35 74.115 74.115 0 0 0-25.746 27.45Q-.013 132.314 0 162.309a168.784 168.784 0 0 0 9.061 54.007 182.252 182.252 0 0 0 21.657 45.292q11.695 17.706 20.482 25.811 12.6 12.594 25.765 12 8.484-.319 22.235-6.319a63.437 63.437 0 0 1 25.757-5.685 61.476 61.476 0 0 1 24.877 5.685q14.331 6.017 23.411 6.008 13.465-.588 25.177-11.688a71.093 71.093 0 0 0 8.915-9.908q5.568-7.338 10.688-15 4.265-6.6 8.05-13.5a135.756 135.756 0 0 0 7.169-15.3q1.448-3.3 2.631-6.746c.777-2.3 1.558-4.642 2.338-7.046a65.12 65.12 0 0 1-19.604-13.52q-19.292-19.171-19.6-47.388ZM411.229 212.5h-1.419L350.376 76.676H303.7v219.139h40.68V153.89h1.888l49.669 112.7h28.527l49.511-112.7h1.9v141.925h41.146V76.676h-46.358Zm-249.1-164.49Q177.648 28.5 177.648 6V3a15.838 15.838 0 0 0-.292-3q-10.834.6-22.98 6.9a63.739 63.739 0 0 0-20.05 15.9q-15.8 18.917-15.8 40.507v2.842a15.244 15.244 0 0 0 .292 2.862q24.3 2.394 43.315-21Zm830.3 28.669h45.719v219.14h-45.722Zm183.8 34.834c27.115 0 41.453 20.873 41.453 43.349h43.842V150.2c0-42.38-32.323-77.7-85.614-77.7-57.076 0-91.126 37.565-91.126 101.626v24.727c0 64.041 33.734 101.141 90.964 101.141 54.711 0 85.776-35.815 85.776-75.622v-4.815h-43.838c0 22.646-14.027 41.426-41.134 41.426-27.757 0-45.419-19.75-45.419-61.98V174.3c0-42.084 17.823-62.791 45.1-62.791ZM691.876 215.059c0 29.388-17.184 45.6-42.407 45.6-25.384 0-42.565-16.054-42.565-45.6V76.676h-45.411v144.806c0 46.73 33.1 78.514 87.968 78.514 54.711 0 87.972-31.784 87.972-78.514V76.676h-45.557v138.383ZM888.7 168.186l-32.63-7.377c-19.231-4.027-29.323-12.531-29.323-25.219 0-16.85 13.711-27.45 35.8-27.45 24.907 0 37.361 14.288 38.461 29.7h42.569c-.473-38.7-32.788-65.665-80.88-65.665-45.557 0-81.507 23.927-81.507 66.949 0 37.246 25.23 54.572 55.5 61.172L869 207.84c21.757 4.977 32.792 12.208 32.792 27.127 0 17.031-13.561 28.592-38.938 28.592-27.277 0-41.626-14.454-42.88-30.673h-43.838c.642 30.988 21.134 67.111 84.514 67.111 53.284 0 86.241-26.488 86.241-69.53-.015-39.815-26.661-55.388-58.2-62.28Z" data-name="Path 5"></path></g></svg>
