<svg width="256" height="145" viewBox="0 0 256 145" fill="none" xmlns="http://www.w3.org/2000/svg">
<g clip-path="url(#clip0_105_4)">
<path d="M109.97 81.482L108.476 26.995C108.476 25.301 107.082 24.006 105.488 24.006C103.795 24.006 102.5 25.301 102.5 26.995L101.105 81.482L102.5 107.679C102.5 109.373 103.894 110.668 105.488 110.668C107.181 110.668 108.476 109.373 108.476 107.679L109.97 81.482Z" fill="url(#paint0_linear_105_4)"/>
<path d="M99.212 81.482L97.519 24.902C97.5195 24.5357 97.4478 24.1728 97.3078 23.8342C97.1678 23.4957 96.9624 23.1881 96.7033 22.9291C96.4442 22.6701 96.1365 22.4647 95.7979 22.3249C95.4593 22.185 95.0964 22.1134 94.73 22.114C94.3635 22.1132 94.0004 22.1848 93.6616 22.3247C93.3228 22.4646 93.015 22.6699 92.7558 22.9291C92.4966 23.1882 92.2911 23.496 92.1511 23.8347C92.0111 24.1734 91.9394 24.5365 91.94 24.903L90.447 81.383L91.941 107.779C91.9402 108.146 92.0118 108.509 92.1517 108.847C92.2916 109.186 92.497 109.494 92.7561 109.753C93.0152 110.012 93.323 110.218 93.6617 110.358C94.0004 110.498 94.3635 110.57 94.73 110.569C95.0966 110.57 95.4598 110.498 95.7986 110.358C96.1375 110.218 96.4454 110.013 96.7046 109.754C96.9638 109.494 97.1693 109.186 97.3093 108.848C97.4492 108.509 97.5208 108.146 97.52 107.779L99.212 81.482Z" fill="url(#paint1_linear_105_4)"/>
<path d="M76.0031 25.301C75.9031 24.006 74.9071 22.911 73.6131 22.911C72.3181 22.911 71.3211 23.907 71.2221 25.301L69.5281 81.382L71.2221 108.177C71.2221 109.472 72.3181 110.468 73.6121 110.468C74.9071 110.468 75.9041 109.472 76.0031 108.078L77.9951 81.282L76.0031 25.301Z" fill="url(#paint2_linear_105_4)"/>
<path d="M86.761 23.409C86.761 22.014 85.566 20.819 84.171 20.819C83.8302 20.8166 83.4924 20.8819 83.1771 21.0112C82.8617 21.1406 82.5753 21.3312 82.3343 21.5722C82.0933 21.8132 81.9026 22.0997 81.7733 22.415C81.644 22.7303 81.5786 23.0682 81.581 23.409L79.988 81.382L81.581 107.978C81.581 109.373 82.777 110.568 84.171 110.568C85.566 110.568 86.661 109.472 86.761 107.978L88.554 81.382L86.761 23.409Z" fill="url(#paint3_linear_105_4)"/>
<path d="M32.473 109.87C33.27 109.87 33.868 109.273 33.967 108.377L36.557 81.382L33.967 53.492C33.867 52.694 33.27 51.997 32.473 51.997C31.676 51.997 31.079 52.595 30.979 53.491L28.688 81.382L30.979 108.377C30.979 109.273 31.676 109.87 32.473 109.87Z" fill="url(#paint4_linear_105_4)"/>
<path d="M120.828 81.482L119.433 16.735C119.433 15.639 118.836 14.643 117.939 14.045C117.441 13.746 116.844 13.447 116.146 13.447C115.549 13.447 114.951 13.647 114.353 13.946C113.457 14.543 112.859 15.539 112.859 16.635V17.233L111.664 81.383L112.859 107.381V107.481C112.859 108.177 113.158 108.875 113.656 109.373C114.254 110.07 115.15 110.568 116.146 110.568C117.043 110.568 117.84 110.17 118.437 109.672C119.035 109.074 119.433 108.277 119.433 107.381L119.533 104.791L120.828 81.482Z" fill="url(#paint5_linear_105_4)"/>
<path d="M44.3269 55.483C44.2269 54.487 43.5299 53.79 42.6329 53.79C41.7369 53.79 40.9399 54.487 40.9399 55.483L38.8479 81.383L40.9399 108.576C41.0399 109.572 41.7369 110.269 42.6329 110.269C43.5299 110.269 44.3269 109.572 44.3269 108.576L46.7169 81.382L44.3269 55.483Z" fill="url(#paint6_linear_105_4)"/>
<path d="M52.893 37.354C51.897 37.354 51.001 38.151 51.001 39.247L49.009 81.382L51 108.576C51.1 109.672 51.896 110.468 52.892 110.468C53.888 110.468 54.785 109.672 54.785 108.576L57.076 81.382L54.785 39.247C54.785 38.251 53.888 37.354 52.892 37.354H52.893Z" fill="url(#paint7_linear_105_4)"/>
<path d="M65.245 108.576L67.337 81.482L65.245 29.684C65.145 28.489 64.249 27.592 63.054 27.592C61.858 27.592 60.962 28.489 60.862 29.684L58.97 81.482L60.862 108.576C60.862 109.771 61.858 110.668 63.054 110.668C64.249 110.768 65.146 109.771 65.245 108.576Z" fill="url(#paint8_linear_105_4)"/>
<path d="M128.697 7.86998C128.156 7.54206 127.536 7.36941 126.904 7.37098C126.104 7.37682 125.33 7.65829 124.713 8.16798C123.916 8.76598 123.418 9.76198 123.418 10.858V11.256L122.023 81.581L122.721 94.531L123.418 107.181C123.418 109.074 125.012 110.568 126.904 110.568C128.797 110.568 130.291 108.974 130.391 107.082L131.885 81.482L130.391 10.858C130.291 9.56298 129.693 8.46798 128.697 7.86998Z" fill="url(#paint9_linear_105_4)"/>
<path d="M2.889 96.324C3.387 96.324 3.785 95.925 3.885 95.328L6.076 81.382L3.885 67.237C3.785 66.64 3.387 66.241 2.889 66.241C2.62501 66.2415 2.37198 66.3466 2.18531 66.5333C1.99863 66.7199 1.89353 66.973 1.893 67.237L0 81.382L1.893 95.328C1.893 95.925 2.391 96.324 2.889 96.324Z" fill="url(#paint10_linear_105_4)"/>
<path d="M12.3521 104.79C12.8501 104.79 13.3481 104.392 13.4471 103.795L16.3371 81.382L13.4471 58.472C13.3471 57.874 12.9491 57.475 12.3521 57.475C11.8541 57.475 11.3561 57.874 11.2561 58.472L8.76611 81.382L11.2561 103.795C11.3561 104.392 11.7541 104.79 12.3521 104.79Z" fill="url(#paint11_linear_105_4)"/>
<path d="M22.3129 108.875C23.0099 108.875 23.5079 108.377 23.6079 107.58L26.2979 81.382L23.6079 54.188C23.5079 53.491 23.0099 52.893 22.3129 52.893C21.6159 52.893 21.1179 53.391 21.0179 54.188L18.6279 81.382L21.0179 107.58C21.1179 108.277 21.6159 108.875 22.3129 108.875Z" fill="url(#paint12_linear_105_4)"/>
<path d="M223.626 48.012C219.343 48.012 215.259 48.909 211.474 50.403C208.984 22.213 185.276 0 156.389 0C149.538 0.00519802 142.747 1.28883 136.367 3.785C133.977 4.682 133.379 5.678 133.379 7.471V106.982C133.379 108.875 134.873 110.369 136.766 110.568H223.726C241.058 110.568 255.104 96.722 255.104 79.39C255.004 62.058 240.959 48.012 223.626 48.012Z" fill="url(#paint13_linear_105_4)"/>
<path d="M25.002 129.494C21.317 128.598 20.321 128.199 20.321 126.705C20.321 125.709 21.118 124.613 23.608 124.613C25.7 124.613 27.393 125.51 28.888 127.003L32.274 123.717C30.082 121.426 27.393 120.031 23.807 120.031C19.225 120.031 15.539 122.621 15.539 126.805C15.539 131.387 18.528 132.781 22.811 133.678C27.194 134.674 27.991 135.371 27.991 136.865C27.991 138.658 26.696 139.355 23.907 139.355C21.715 139.355 19.623 138.559 17.93 136.666L14.543 139.654C16.336 142.244 19.723 143.838 23.508 143.838C29.883 143.838 32.573 140.85 32.573 136.467C32.772 131.586 28.687 130.291 25.002 129.494ZM46.419 120.131C40.044 120.131 36.358 125.011 36.358 132.084C36.358 139.156 40.143 144.037 46.418 144.037C52.694 144.037 56.479 139.157 56.479 132.084C56.479 125.012 52.694 120.131 46.419 120.131ZM46.419 139.356C42.633 139.356 41.139 136.168 41.139 131.984C41.139 127.801 42.733 124.614 46.419 124.614C50.204 124.614 51.699 127.801 51.699 131.984C51.699 136.168 50.104 139.356 46.419 139.356ZM75.206 133.479C75.206 137.164 73.413 139.455 70.425 139.455C67.437 139.455 65.644 137.065 65.644 133.379V120.429H60.962V133.479C60.962 140.252 64.747 144.037 70.325 144.037C76.202 144.037 79.689 140.153 79.689 133.479V120.529H75.007V133.479H75.206ZM99.81 130.291C99.81 131.586 99.91 134.475 99.91 135.371C99.61 134.774 98.814 133.578 98.316 132.781L90.048 120.529H85.566V143.739H90.148V133.479C90.148 132.184 90.048 129.295 90.048 128.399C90.348 128.996 91.144 130.191 91.642 130.989L100.109 143.639H104.293V120.429H99.71V130.291H99.81ZM117.64 120.43H110.369V143.639H117.242C123.219 143.639 129.096 140.153 129.096 132.084C129.096 123.518 124.215 120.43 117.64 120.43ZM117.242 139.156H114.951V125.012H117.441C122.322 125.012 124.414 127.402 124.414 132.084C124.414 136.268 122.123 139.156 117.242 139.156ZM143.44 124.713C145.532 124.713 146.826 125.609 147.723 127.203L152.006 125.211C150.512 122.223 147.922 120.031 143.539 120.031C137.463 120.031 133.279 124.912 133.279 131.984C133.279 139.256 137.363 143.938 143.439 143.938C147.623 143.938 150.412 141.946 152.006 138.658L148.121 136.368C146.926 138.459 145.631 139.356 143.539 139.356C140.053 139.356 138.061 136.168 138.061 131.984C138.061 127.701 140.053 124.713 143.44 124.713ZM160.672 120.43H155.991V143.639H169.936V139.057H160.672V120.43ZM182.188 120.13C175.813 120.13 172.128 125.012 172.128 132.084C172.128 139.156 175.913 144.037 182.188 144.037C188.563 144.037 192.249 139.157 192.249 132.084C192.249 125.012 188.563 120.131 182.189 120.131L182.188 120.13ZM182.188 139.356C178.403 139.356 176.908 136.168 176.908 131.984C176.908 127.801 178.503 124.614 182.188 124.614C185.974 124.614 187.468 127.801 187.468 131.984C187.468 136.168 185.974 139.356 182.188 139.356ZM210.976 133.479C210.976 137.164 209.183 139.455 206.195 139.455C203.206 139.455 201.413 137.065 201.413 133.379V120.429H196.732V133.479C196.732 140.252 200.517 144.037 206.095 144.037C211.972 144.037 215.458 140.153 215.458 133.479V120.529H210.777V133.479H210.976ZM228.706 120.429H221.435V143.639H228.308C234.285 143.639 240.162 140.153 240.162 132.084C240.162 123.518 235.281 120.43 228.707 120.43L228.706 120.429ZM228.308 139.156H226.117V125.012H228.607C233.487 125.012 235.48 127.402 235.48 132.084C235.48 136.268 233.19 139.156 228.308 139.156Z" fill="#F04923"/>
</g>
<defs>
<linearGradient id="paint0_linear_105_4" x1="541.864" y1="-2376.62" x2="541.864" y2="8697.49" gradientUnits="userSpaceOnUse">
<stop stop-color="#F6871F"/>
<stop offset="0.2393" stop-color="#F57E20"/>
<stop offset="0.6262" stop-color="#F36621"/>
<stop offset="1" stop-color="#F04923"/>
</linearGradient>
<linearGradient id="paint1_linear_105_4" x1="530.52" y1="-2189.26" x2="530.52" y2="8884.86" gradientUnits="userSpaceOnUse">
<stop stop-color="#F6871F"/>
<stop offset="0.2393" stop-color="#F57E20"/>
<stop offset="0.6262" stop-color="#F36621"/>
<stop offset="1" stop-color="#F04923"/>
</linearGradient>
<linearGradient id="paint2_linear_105_4" x1="493.141" y1="-2268.11" x2="493.141" y2="8805.84" gradientUnits="userSpaceOnUse">
<stop stop-color="#F6871F"/>
<stop offset="0.2393" stop-color="#F57E20"/>
<stop offset="0.6262" stop-color="#F36621"/>
<stop offset="1" stop-color="#F04923"/>
</linearGradient>
<linearGradient id="paint3_linear_105_4" x1="507.74" y1="-2061" x2="507.74" y2="9013.05" gradientUnits="userSpaceOnUse">
<stop stop-color="#F6871F"/>
<stop offset="0.2393" stop-color="#F57E20"/>
<stop offset="0.6262" stop-color="#F36621"/>
<stop offset="1" stop-color="#F04923"/>
</linearGradient>
<linearGradient id="paint4_linear_105_4" x1="418.4" y1="-5147.69" x2="418.4" y2="5926.44" gradientUnits="userSpaceOnUse">
<stop stop-color="#F6871F"/>
<stop offset="0.2393" stop-color="#F57E20"/>
<stop offset="0.6262" stop-color="#F36621"/>
<stop offset="1" stop-color="#F04923"/>
</linearGradient>
<linearGradient id="paint5_linear_105_4" x1="571.248" y1="-1331.29" x2="571.248" y2="9742.93" gradientUnits="userSpaceOnUse">
<stop stop-color="#F6871F"/>
<stop offset="0.2393" stop-color="#F57E20"/>
<stop offset="0.6262" stop-color="#F36621"/>
<stop offset="1" stop-color="#F04923"/>
</linearGradient>
<linearGradient id="paint6_linear_105_4" x1="429.615" y1="-5325.16" x2="429.615" y2="5748.91" gradientUnits="userSpaceOnUse">
<stop stop-color="#F6871F"/>
<stop offset="0.2393" stop-color="#F57E20"/>
<stop offset="0.6262" stop-color="#F36621"/>
<stop offset="1" stop-color="#F04923"/>
</linearGradient>
<linearGradient id="paint7_linear_105_4" x1="449.1" y1="-3698.04" x2="449.1" y2="7376.03" gradientUnits="userSpaceOnUse">
<stop stop-color="#F6871F"/>
<stop offset="0.2393" stop-color="#F57E20"/>
<stop offset="0.6262" stop-color="#F36621"/>
<stop offset="1" stop-color="#F04923"/>
</linearGradient>
<linearGradient id="paint8_linear_105_4" x1="480.784" y1="-2731.68" x2="480.784" y2="8342.53" gradientUnits="userSpaceOnUse">
<stop stop-color="#F6871F"/>
<stop offset="0.2393" stop-color="#F57E20"/>
<stop offset="0.6262" stop-color="#F36621"/>
<stop offset="1" stop-color="#F04923"/>
</linearGradient>
<linearGradient id="paint9_linear_105_4" x1="615.458" y1="-729.765" x2="615.458" y2="10344.4" gradientUnits="userSpaceOnUse">
<stop stop-color="#F6871F"/>
<stop offset="0.2393" stop-color="#F57E20"/>
<stop offset="0.6262" stop-color="#F36621"/>
<stop offset="1" stop-color="#F04923"/>
</linearGradient>
<linearGradient id="paint10_linear_105_4" x1="305.775" y1="-6558.01" x2="305.775" y2="4516.33" gradientUnits="userSpaceOnUse">
<stop stop-color="#F6871F"/>
<stop offset="0.2393" stop-color="#F57E20"/>
<stop offset="0.6262" stop-color="#F36621"/>
<stop offset="1" stop-color="#F04923"/>
</linearGradient>
<linearGradient id="paint11_linear_105_4" x1="380.949" y1="-5690.19" x2="380.949" y2="5384.12" gradientUnits="userSpaceOnUse">
<stop stop-color="#F6871F"/>
<stop offset="0.2393" stop-color="#F57E20"/>
<stop offset="0.6262" stop-color="#F36621"/>
<stop offset="1" stop-color="#F04923"/>
</linearGradient>
<linearGradient id="paint12_linear_105_4" x1="405.365" y1="-5236.51" x2="405.365" y2="5837.74" gradientUnits="userSpaceOnUse">
<stop stop-color="#F6871F"/>
<stop offset="0.2393" stop-color="#F57E20"/>
<stop offset="0.6262" stop-color="#F36621"/>
<stop offset="1" stop-color="#F04923"/>
</linearGradient>
<linearGradient id="paint13_linear_105_4" x1="6211.23" y1="0" x2="6211.23" y2="11058.7" gradientUnits="userSpaceOnUse">
<stop stop-color="#F6871F"/>
<stop offset="0.2402" stop-color="#F57E20"/>
<stop offset="0.6306" stop-color="#F36621"/>
<stop offset="1" stop-color="#F04923"/>
</linearGradient>
<clipPath id="clip0_105_4">
<rect width="256" height="145" fill="white"/>
</clipPath>
</defs>
</svg>
