<svg width="626" height="120" viewBox="0 0 626 120" fill="none" xmlns="http://www.w3.org/2000/svg">
<path d="M196.041 98.8339C193.521 97.1256 191.714 94.4868 190.655 90.888C189.597 87.2893 189.051 82.5139 189.051 76.5373V68.4093C189.051 62.3736 189.661 57.5342 190.882 53.8763C192.103 50.2185 194.013 47.5551 196.593 45.8911C199.172 44.2222 202.569 43.3705 206.774 43.3705C210.919 43.3705 214.232 44.2222 216.733 45.9305C219.234 47.6388 221.06 50.3022 222.222 53.9157C223.379 57.5342 223.95 62.3686 223.95 68.3846V76.5126C223.95 82.4893 223.379 87.2843 222.262 90.9028C221.144 94.5213 219.313 97.1846 216.772 98.8486C214.252 100.518 210.815 101.369 206.488 101.369C202.057 101.394 198.562 100.542 196.041 98.8339ZM210.205 90.056C210.894 88.2246 211.263 85.2413 211.263 81.1157V63.6585C211.263 59.6363 210.919 56.7071 210.205 54.8363C209.516 52.9853 208.275 52.0499 206.508 52.0499C204.799 52.0499 203.603 52.9853 202.889 54.8363C202.2 56.6874 201.831 59.6314 201.831 63.6585V81.1157C201.831 85.2609 202.156 88.2493 202.825 90.056C203.495 91.8874 204.716 92.7982 206.483 92.7982C208.275 92.7982 209.496 91.8825 210.205 90.056Z" fill="black"/>
<path d="M390.07 76.68V79.5059C390.07 83.1046 390.173 85.7877 390.395 87.5945C390.596 89.3815 391.044 90.7059 391.714 91.5182C392.384 92.3305 393.422 92.7588 394.825 92.7588C396.716 92.7588 398.016 92.0252 398.705 90.5631C399.394 89.1009 399.783 86.6591 399.842 83.2474L410.717 83.8776C410.776 84.3649 410.801 85.0345 410.801 85.8911C410.801 91.0751 409.378 94.9348 406.552 97.4948C403.726 100.055 399.724 101.335 394.54 101.335C388.322 101.335 383.97 99.3852 381.474 95.4812C378.973 91.5772 377.732 85.5612 377.732 77.3939V67.6166C377.732 59.2031 379.032 53.0837 381.612 49.2043C384.192 45.3446 388.622 43.4099 394.904 43.4099C399.231 43.4099 402.545 44.2025 404.864 45.7877C407.182 47.3729 408.807 49.8345 409.762 53.1871C410.697 56.5397 411.185 61.1723 411.185 67.0702V76.6652H390.07V76.68ZM391.675 53.1083C391.044 53.9009 390.616 55.2006 390.395 56.9877C390.173 58.7748 390.07 61.5219 390.07 65.16V69.1822H399.296V65.16C399.296 61.5612 399.172 58.8388 398.931 56.9877C398.685 55.1366 398.242 53.8172 397.612 53.064C396.982 52.3108 395.987 51.9268 394.643 51.9268C393.299 51.9071 392.305 52.3157 391.675 53.1083Z" fill="black"/>
<path d="M165.351 75.6265L151 23.8209H163.519L168.541 47.2942C169.821 53.0886 170.756 58.0068 171.367 62.088H171.731C172.159 59.1637 173.095 54.2653 174.557 47.3729L179.761 23.7963H192.28L177.767 75.6216V100.478H165.351V75.6265Z" fill="black"/>
<path d="M264.654 44.4683V100.458H254.798L253.7 93.6105H253.435C250.752 98.7945 246.729 101.374 241.383 101.374C237.666 101.374 234.919 100.153 233.151 97.7163C231.384 95.2794 230.508 91.4788 230.508 86.2948V44.4683H243.106V85.5809C243.106 88.0819 243.372 89.8689 243.918 90.9274C244.465 91.9859 245.38 92.5323 246.66 92.5323C247.758 92.5323 248.817 92.2074 249.811 91.5379C250.806 90.8683 251.559 90.0117 252.046 88.9779V44.4683H264.654Z" fill="black"/>
<path d="M329.324 44.4683V100.458H319.468L318.37 93.6105H318.104C315.421 98.7945 311.399 101.374 306.052 101.374C302.335 101.374 299.588 100.153 297.821 97.7163C296.054 95.2794 295.177 91.4788 295.177 86.2948V44.4683H307.775V85.5809C307.775 88.0819 308.041 89.8689 308.588 90.9274C309.134 91.9859 310.05 92.5323 311.33 92.5323C312.428 92.5323 313.486 92.2074 314.481 91.5379C315.475 90.8683 316.228 90.0117 316.716 88.9779V44.4683H329.324Z" fill="black"/>
<path d="M298.919 33.9625H286.399V100.463H274.062V33.9625H261.543V23.8209H298.899V33.9625H298.919Z" fill="black"/>
<path d="M371.047 53.4332C370.274 49.8985 369.053 47.3385 367.349 45.7532C365.641 44.168 363.303 43.3754 360.319 43.3754C358.001 43.3754 355.849 44.0252 353.836 45.3446C351.822 46.6443 350.281 48.3723 349.183 50.5089H349.08V21H336.925V100.483H347.332L348.612 95.1809H348.878C349.853 97.0714 351.315 98.5532 353.269 99.6511C355.219 100.749 357.375 101.295 359.753 101.295C364.021 101.295 367.153 99.3262 369.161 95.4025C371.175 91.4788 372.169 85.3446 372.169 76.9902V68.1286C372.184 61.8665 371.8 56.968 371.047 53.4332ZM359.482 76.2763C359.482 80.3625 359.32 83.5526 358.975 85.8714C358.65 88.1902 358.079 89.8345 357.287 90.8092C356.494 91.784 355.436 92.2714 354.097 92.2714C353.058 92.2714 352.103 92.0252 351.212 91.5378C350.335 91.0505 349.607 90.3169 349.055 89.3422V57.5342C349.484 56.008 350.212 54.7723 351.251 53.7926C352.29 52.8178 353.407 52.3305 354.623 52.3305C355.903 52.3305 356.898 52.8375 357.592 53.832C358.281 54.8265 358.769 56.5348 359.054 58.8929C359.32 61.2708 359.463 64.6431 359.463 69.0345V76.2714L359.482 76.2763Z" fill="black"/>
<path d="M445.302 23.8209H428.1V101.295H439.281V38.3735L451.608 101.295H461.927L474.825 36.9409V101.374H485.72V23.8209H467.948L456.91 85.0985L445.302 23.8209Z" fill="black"/>
<path d="M518.685 101.374H527.571V44.4683H515.529V89.4013C513.521 92.8425 506.358 95.7077 506.358 88.8302C506.358 81.9526 506.358 44.4732 506.358 44.4732H494.316C494.316 44.4732 494.316 80.8056 494.316 90.5532C494.316 100.301 507.505 108.902 516.676 94.28L518.685 101.374Z" fill="black"/>
<path d="M585.191 44.4683H574.01V101.374H585.191V44.4683Z" fill="black"/>
<path d="M579.889 37.8025C576.024 37.8025 572.864 34.6419 572.864 30.7773V29.0591C572.864 25.1945 576.024 22.0339 579.889 22.0339C583.753 22.0339 586.914 25.1945 586.914 29.0591V30.7773C586.909 34.6419 583.753 37.8025 579.889 37.8025Z" fill="black"/>
<path d="M555.953 62.6H565.7C565.986 57.8689 566.271 43.5378 551.079 43.5378C538.466 43.5378 535.025 51.5625 535.025 58.7305C535.025 65.8985 538.658 70.9594 548.977 78.9889C557.769 83.5772 558.148 94.088 550.887 94.088C547.446 94.088 545.343 91.7938 545.343 88.5446C545.343 85.2954 545.343 83.3852 545.343 83.3852H535.025C535.025 83.3852 535.025 87.7815 535.025 89.3077C535.025 94.4671 538.466 102.305 550.503 102.305C562.545 102.305 566.749 95.6141 566.749 85.2954C566.749 74.9766 544.964 64.8449 544.964 57.7754C544.964 49.5588 555.81 50.4646 555.81 56.4363L555.953 62.6Z" fill="black"/>
<path d="M605.735 57.9624C604.588 70.9594 605.543 80.8941 605.927 87.2006C606.449 95.7864 615.482 95.8012 615.482 87.0086C615.482 81.0861 615.482 80.7021 615.482 80.7021H625.993C625.993 92.168 621.981 101.532 610.702 101.532C597.513 101.532 593.693 92.168 593.693 82.2283C593.693 72.2886 593.693 65.6031 593.693 65.6031C593.693 52.2271 599.428 43.2424 610.318 43.2424C624.841 43.2424 625.225 53.5612 625.225 58.3415C625.225 63.1169 625.225 64.648 625.225 64.648L615.477 65.411C615.477 65.411 615.477 63.1169 615.477 57.7655C615.482 52.4191 608.792 47.6437 605.735 57.9624Z" fill="black"/>
<rect width="120" height="120" rx="60" fill="white"/>
<path d="M60 0C26.88 0 0 26.88 0 60C0 93.12 26.88 120 60 120C93.12 120 120 93.12 120 60C120 26.88 93.12 0 60 0ZM60 95.52C40.38 95.52 24.48 79.62 24.48 60C24.48 40.38 40.38 24.48 60 24.48C79.62 24.48 95.52 40.38 95.52 60C95.52 79.62 79.62 95.52 60 95.52ZM60 28.86C42.84 28.86 28.86 42.84 28.86 60C28.86 77.16 42.84 91.14 60 91.14C77.16 91.14 91.14 77.16 91.14 60C91.14 42.84 77.16 28.86 60 28.86ZM48.42 77.7V42.3L79.08 60L48.42 77.7Z" fill="#FF0000"/>
</svg>
